<svg width="48" height="44" viewBox="0 0 48 44" fill="none" xmlns="http://www.w3.org/2000/svg">
<path d="M38.0557 34.4618L36.2153 32.4634L34.1853 34.4934L38.0082 38.3163L44.4772 31.8552L43.0002 30.3545L38.0557 34.4618Z" fill="white"/>
<path d="M41.2072 6.86377H0V34.3352H41.2072V6.86377Z" fill="#EC1651"/>
<path d="M24.4226 2.28262C24.6321 2.28262 24.833 2.3659 24.9811 2.51403C25.1292 2.66215 25.2124 2.863 25.2124 3.07248V10.7027C25.2124 10.9122 25.1292 11.113 24.9811 11.2611C24.833 11.4093 24.6321 11.4926 24.4226 11.4926H16.7925C16.583 11.4926 16.3821 11.4093 16.234 11.2611C16.0858 11.113 16.0027 10.9122 16.0027 10.7027V3.07248C16.0027 2.863 16.0858 2.66215 16.234 2.51403C16.3821 2.3659 16.583 2.28262 16.7925 2.28262H24.4226ZM24.4226 0H16.7925C15.9838 0.00207356 15.2087 0.323667 14.6361 0.894767C14.0635 1.46587 13.7399 2.24026 13.7357 3.04896V10.679C13.7378 11.489 14.0606 12.2654 14.6334 12.8382C15.2062 13.411 15.9825 13.7336 16.7925 13.7356H24.4226C25.2313 13.7315 26.0055 13.4079 26.5766 12.8353C27.1477 12.2627 27.4694 11.4877 27.4714 10.679V3.04896C27.4673 2.24163 27.1448 1.46854 26.5739 0.89766C26.003 0.326783 25.2299 0.00415089 24.4226 0V0Z" fill="#EC1651"/>
<path d="M0.00790405 6.86377V18.8303C5.03933 20.963 12.4008 22.3135 20.6075 22.3135C28.8142 22.3135 36.1757 20.963 41.2072 18.8303V6.86377H0.00790405Z" fill="#B6145A"/>
<path d="M22.1794 18.8855H18.7435V25.7494H22.1794V18.8855Z" fill="#B6145A"/>
<path d="M48 34.3352C48 36.0537 47.4904 37.7335 46.5357 39.1623C45.581 40.5912 44.2241 41.7047 42.6364 42.3623C41.0488 43.0199 39.3019 43.192 37.6165 42.8567C35.9311 42.5215 34.3829 41.6941 33.1678 40.479C31.9527 39.2639 31.1252 37.7157 30.7899 36.0303C30.4547 34.3449 30.6268 32.5979 31.2844 31.0103C31.942 29.4227 33.0556 28.0657 34.4844 27.1109C35.9132 26.1562 37.5931 25.6467 39.3115 25.6467C41.6158 25.6467 43.8258 26.5622 45.4552 28.1916C47.0846 29.821 48 32.0309 48 34.3352V34.3352Z" fill="#B6145A"/>
</svg>
