<svg width="164" height="36" viewBox="0 0 164 36" fill="none" xmlns="http://www.w3.org/2000/svg">
<path d="M15.3735 0H23.3062V1.37439H23.0908C20.6398 1.37439 20.2729 2.60789 20.2729 4.29863V13.0713C20.2729 20.9375 15.3097 22.4183 11.6677 22.4183C6.15685 22.4289 2.6584 19.6721 2.6584 14.2836V3.77226C2.6584 2.00975 2.23039 1.37971 0.515729 1.37971H0V0H9.58618V1.37439H9.0545C7.76783 1.37439 6.87993 2.04431 6.87993 3.76695V14.2836C6.87993 18.5848 9.63669 20.0682 12.4227 20.0682C16.4342 20.0682 18.4253 17.4577 18.4253 13.5791V5.00842C18.4253 2.50421 17.8139 1.37439 15.9132 1.37439H15.3735V0Z" fill="black"/>
<path d="M41.4338 22.4581H25.0182V21.0811H25.5498C27.5091 21.0811 28.0913 20.2703 28.0913 18.5423V3.92113C28.0913 1.83961 27.0492 1.38237 25.6721 1.38237H25.0793V0H35.463V1.37439H34.5751C32.9801 1.37439 32.3075 2.1852 32.3075 3.84404V18.8959C32.3075 20.2012 32.6451 20.5175 33.8387 20.5175H37.728C39.7802 20.5175 40.3864 19.3531 42.444 16.3199H43.6695L41.4338 22.4581Z" fill="black"/>
<path d="M54.4812 18.436C54.4812 20.2703 54.9703 21.0811 57.1396 21.0811H57.876V22.4555H46.8542V21.0811H47.8963C49.5818 21.0811 50.2543 20.3048 50.2543 18.436V2.44041H46.6389C44.2809 2.44041 43.9141 2.86309 43.3319 6.6008H42.0771L42.6274 0H62.1055L62.6557 6.59548H61.409C60.8188 2.89765 60.4519 2.44041 58.0939 2.44041H54.4812V18.436Z" fill="black"/>
<path d="M72.3934 18.5078C72.3934 20.3075 73.066 21.0811 74.8126 21.0811H75.7297V22.4555H65.0111V21.0811H65.5002C67.3611 21.0811 68.1586 20.5494 68.1586 18.5078V4.59105C68.1586 2.89765 67.7599 1.91139 65.7076 1.91139H65.0642V0.531679C66.5955 0.425343 67.7599 0.356225 69.0146 0.249889C70.7399 0.111653 72.9437 0 74.047 0C78.5476 0 80.9987 0.669916 82.5299 2.43243C83.509 3.54264 84.0355 4.97997 84.0053 6.4599C84.0053 9.13957 82.3226 11.245 79.4728 12.1382C81.4931 14.0789 82.5671 16.4608 84.7417 18.965C85.9965 20.4112 86.5069 20.8684 88.4369 21.0917V22.4209C87.7643 22.4555 87.8042 22.4555 86.8844 22.4555C83.0882 22.4555 81.525 21.8201 80.0842 20.1639C78.5529 18.4014 76.7771 15.113 74.8179 13.1591H72.3988L72.3934 18.5078ZM72.3934 11.681H73.5871C77.2929 11.681 79.4355 10.3757 79.4355 6.60346C79.4355 2.83119 76.9552 1.52592 73.9832 1.52592H72.3881L72.3934 11.681Z" fill="black"/>
<path d="M103.996 1.94063H97.2973V10.397H102.258C103.943 10.397 104.555 9.72707 104.555 7.85822H105.78V14.887H104.555C104.555 12.9836 104.156 12.3483 101.798 12.3483H97.2973V18.6832C97.2973 20.1985 97.5419 20.5175 98.4298 20.5175H103.545C105.536 20.5175 106.485 19.8821 107.067 16.9207H108.231L107.864 22.4581H90.1967V21.0811H90.6752C92.451 21.0811 93.0678 20.2703 93.0678 18.5423V3.95038C93.0678 2.04696 92.5175 1.37705 90.4094 1.37705H90.093V0H106.969L107.274 5.11475H106.11C105.804 2.71422 105.405 1.94063 103.996 1.94063Z" fill="black"/>
<path d="M125.955 0H133.887V1.37439H133.672C131.221 1.37439 130.854 2.60789 130.854 4.29863V13.0713C130.854 20.9375 125.891 22.4183 122.249 22.4183C116.735 22.4289 113.248 19.6721 113.248 14.2836V3.77226C113.248 2.00975 112.82 1.37971 111.105 1.37971H110.573V0H120.159V1.37439H119.628C118.341 1.37439 117.453 2.04431 117.453 3.76695V14.2836C117.453 18.5848 120.21 20.0682 122.996 20.0682C127.008 20.0682 128.999 17.4577 128.999 13.5791V5.00842C128.999 2.50421 128.387 1.37439 126.486 1.37439H125.955V0Z" fill="black"/>
<path d="M140.837 4.51927H140.775L140.097 17.5906C139.975 19.9194 140.004 21.0465 142.61 21.0811V22.4555H135.815V21.0811C138.207 21.0465 138.266 20.2703 138.417 17.3434L139.09 4.0514C139.183 2.25432 139.09 1.47807 137.038 1.37173V0H143.5L149.474 14.8126L155.2 0H161.785V1.37439C159.578 1.51529 159.427 1.51529 159.578 4.05405L160.317 17.5879C160.469 20.5521 160.562 20.8684 163.013 21.0784V22.4528H153.366V21.0811H153.897C155.184 21.0811 156.255 21.0811 156.255 18.7895C156.255 18.226 156.226 17.6597 156.194 17.1307L155.487 4.08861H155.426L148.554 21.9371H147.807L140.837 4.51927Z" fill="black"/>
<path d="M10.8702 33.2299C10.7335 34.1211 10.4999 34.9946 10.1737 35.8351C9.93653 35.7605 9.68848 35.7263 9.43997 35.7341C8.85513 35.7341 8.23572 36 7.31326 36C6.71095 36.0001 6.11469 35.8799 5.55952 35.6463C5.00435 35.4127 4.50146 35.0705 4.08043 34.6398C3.65939 34.2091 3.32869 33.6986 3.10777 33.1383C2.88685 32.578 2.78017 31.9791 2.79398 31.377C2.79213 30.7546 2.91442 30.138 3.1537 29.5634C3.39298 28.9888 3.74445 28.4677 4.18754 28.0305C4.63063 27.5934 5.15644 27.249 5.73423 27.0175C6.31201 26.786 6.93016 26.672 7.55251 26.6823C8.84449 26.6823 9.67923 27.2698 9.94507 27.2698C9.99512 27.269 10.0441 27.2554 10.0874 27.2303C10.1307 27.2051 10.1668 27.1693 10.1923 27.1262H10.5033L10.615 29.6304H10.1019C9.70315 28.2135 8.82323 27.4133 7.62961 27.4133C5.8538 27.4133 4.62296 28.9579 4.62296 31.2202C4.62296 33.525 5.98937 35.2981 7.76518 35.2981C8.90829 35.2981 9.85202 34.5405 10.3624 33.2379L10.8702 33.2299Z" fill="black"/>
<path d="M31.0766 32.4805L30.545 34.3546C30.3217 35.0857 30.3349 35.418 31.5259 35.418H31.6881V35.9763H28.405V35.418H28.591C29.1865 35.418 29.4976 35.1043 29.8086 34.0888L31.9353 27.0627L31.7997 26.6479H33.6393L36.1249 34.118C36.4466 35.0618 36.7204 35.3489 37.3664 35.4074V35.9656H33.3256V35.4074H33.7616C34.5193 35.4074 34.6309 35.0219 34.3837 34.3201L33.8015 32.4592L31.0766 32.4805ZM32.3686 28.344L31.3239 31.6936H33.5117L32.3686 28.344Z" fill="black"/>
<path d="M57.6872 34.3547C57.6872 35.1842 57.9531 35.4181 58.7692 35.4181H59.1414V35.9764H54.9225V35.4181H55.1086C55.7918 35.4181 55.9779 35.2453 55.9779 34.602V28.275C55.9779 27.6157 55.7918 27.4456 55.1086 27.4456H54.8427V26.8873C55.3266 26.8581 55.9965 26.773 56.8551 26.7305C57.7138 26.6879 58.4821 26.6587 58.8303 26.6587C61.2229 26.6587 62.2464 27.9879 62.2464 29.4633C62.2464 31.1221 61.0288 32.1828 59.1148 32.1828C58.6389 32.1811 58.1644 32.1331 57.6978 32.0393L57.6872 34.3547ZM57.6872 31.4491C57.9798 31.5239 58.2812 31.5579 58.5831 31.5501C59.7368 31.5501 60.3855 30.7765 60.3855 29.3756C60.3855 28.0464 59.7156 27.2861 58.5725 27.2861C58.2746 27.2822 57.9774 27.3143 57.6872 27.3818V31.4491Z" fill="black"/>
<path d="M79.9459 26.8843H83.8963V27.4425H83.6863C83.0137 27.4425 82.7426 27.7722 82.7426 28.5059V34.373C82.7426 35.0748 82.9526 35.4177 83.7102 35.4177H83.8963V35.976H79.9459V35.4177H80.1214C80.7807 35.4177 81.0279 35.0588 81.0279 34.4288V28.5165C81.0279 27.7722 80.8046 27.4532 80.1081 27.4532H79.9459V26.8843Z" fill="black"/>
<path d="M106.65 34.3543C106.65 35.0987 106.849 35.4177 107.729 35.4177H108.027V35.9759H103.555V35.4177H103.978C104.661 35.4177 104.935 35.104 104.935 34.3543V27.6286H103.47C102.513 27.6286 102.364 27.8014 102.141 29.3167H101.63L101.854 26.6396H102.25C102.316 26.7204 102.396 26.788 102.486 26.839C102.604 26.8729 102.726 26.8873 102.848 26.8816H108.763C108.875 26.9021 108.99 26.8902 109.096 26.8474C109.201 26.8045 109.293 26.7325 109.358 26.6396H109.755L109.978 29.3167H109.467C109.231 27.8147 109.082 27.6286 108.138 27.6286H106.673L106.65 34.3543Z" fill="black"/>
<path d="M129.251 32.4805L128.72 34.3546C128.496 35.0857 128.51 35.418 129.7 35.418H129.863V35.9763H126.58V35.418H126.766C127.361 35.418 127.672 35.1043 127.983 34.0888L130.11 27.0627L129.974 26.6479H131.814L134.3 34.118C134.621 35.0618 134.895 35.3489 135.541 35.4074V35.9656H131.5V35.4074H131.936C132.694 35.4074 132.805 35.0219 132.558 34.3201L131.976 32.4592L129.251 32.4805ZM130.543 28.344L129.498 31.6936H131.686L130.543 28.344Z" fill="black"/>
<path d="M159.557 35.9866H152.911V35.4284H153.121C153.918 35.4284 154.152 35.0987 154.152 34.3969V28.474C154.152 27.6286 153.73 27.4425 153.171 27.4425H152.935V26.8843H157.146V27.4425H156.784C156.138 27.4425 155.864 27.7722 155.864 28.4448V34.5405C155.864 35.0721 156 35.1997 156.486 35.1997H158.066C158.898 35.1997 159.148 34.7265 159.98 33.4957H160.477L159.557 35.9866Z" fill="black"/>
</svg>
