<svg width="48" height="48" viewBox="0 0 48 48" fill="none" xmlns="http://www.w3.org/2000/svg">
<path d="M24.933 0C25.6659 0.239067 26.329 0.580031 26.775 1.2455C27.1088 1.73601 27.2876 2.31545 27.2884 2.90878C27.4773 3.25131 27.3456 3.5813 27.2265 3.89797C26.775 5.09801 25.7372 5.82697 24.4399 5.87086C24.3855 5.85599 24.3387 5.82097 24.309 5.77288C24.2815 5.72112 24.2614 5.6657 24.2495 5.60828C24.1938 3.88386 24.2307 2.15944 24.2299 0.435023C24.2203 0.277859 24.2714 0.12301 24.3725 0.00235139L24.933 0Z" fill="#19ABB5"/>
<path d="M27.2883 45.0934C27.2256 46.6501 26.3579 47.5515 24.9368 47.9998H24.3756C24.2738 47.8795 24.2224 47.7245 24.2321 47.5672C24.2376 45.8428 24.1859 44.1183 24.2572 42.3939C24.3137 42.1376 24.4971 42.1141 24.7158 42.1368C25.1602 42.1784 25.5892 42.3213 25.9699 42.5546C26.6591 42.9874 27.1506 43.6737 27.3384 44.4656C27.3902 44.6803 27.4058 44.8912 27.2883 45.0934Z" fill="#19ABB5"/>
<path d="M24.3724 0C24.3724 1.9094 24.3724 3.8188 24.3724 5.72821C24.1968 5.87243 23.9946 5.84421 23.7955 5.81286C22.6198 5.62709 21.5773 4.57441 21.4017 3.39867C21.3806 3.2568 21.3688 3.12198 21.4613 2.99892C21.5169 1.37718 22.3854 0.420915 23.9076 0H24.3724Z" fill="#84ECEF"/>
<path d="M24.3686 42.2708L24.3725 47.9998H23.9022C23.388 47.8273 22.877 47.6572 22.4592 47.2818C21.7788 46.6696 21.4739 45.9007 21.4559 45.0008C21.3368 44.8441 21.3838 44.6756 21.4214 44.5078C21.5034 44.1092 21.6663 43.7316 21.8999 43.3983C22.1336 43.0651 22.433 42.7832 22.7798 42.5702C23.1183 42.3602 23.4978 42.225 23.8928 42.1736C24.059 42.1556 24.2275 42.1375 24.3686 42.2708Z" fill="#84ECEF"/>
<path d="M44.1931 15.9988C44.0363 15.9259 43.8874 15.9871 43.7455 16.0388C43.4711 16.1389 43.1809 16.1888 42.8888 16.1862C42.8622 16.1862 42.8347 16.1862 42.8104 16.1862H42.7924C42.48 16.1895 42.1696 16.1364 41.8761 16.0294C41.7193 15.9761 41.5626 15.9118 41.4058 16.0012C41.4033 16.0002 41.4005 16.0002 41.398 16.0012C41.3933 16.0012 41.387 16.0067 41.3815 16.0106C41.2341 16.2207 41.2765 16.4621 41.2765 16.6933C41.2733 19.1138 41.2733 21.535 41.2765 23.957C41.2765 25.578 41.2765 27.1997 41.2765 28.885C39.4627 25.7677 37.6826 22.7068 35.8994 19.6452C35.7231 19.3427 35.8312 19.2063 36.093 19.0589C37.1496 18.4546 38.2141 17.8644 39.2589 17.2436C39.9518 16.8305 40.7106 16.5217 41.3227 15.9753C41.3223 15.9704 41.3223 15.9654 41.3227 15.9604C41.3227 15.9565 41.3227 15.9526 41.3227 15.9502C41.347 15.7488 41.1707 15.6775 41.0515 15.5779C39.719 14.4594 39.6626 12.5665 40.9332 11.3845C41.0531 11.2732 41.2357 11.201 41.2177 10.9886C41.1809 10.875 41.0907 10.8225 40.992 10.766C40.1297 10.2746 39.2675 9.77761 38.4053 9.28302C34.7015 7.15728 30.9945 5.03258 27.2844 2.90894C27.2754 3.35828 27.1633 3.79955 26.9567 4.1987C26.7501 4.59785 26.4546 4.9442 26.093 5.21103C25.6093 5.58492 25.0379 5.69231 24.4634 5.80753C24.4538 5.82775 24.4467 5.84907 24.4422 5.87102C24.4038 6.02778 24.5089 6.15476 24.581 6.28253C24.9501 6.93389 25.3311 7.57898 25.7089 8.2272C27.5378 11.3719 29.3644 14.5177 31.1886 17.6645C31.4739 18.1591 31.4614 18.1802 30.9833 18.4483C29.4381 19.3272 27.8947 20.2101 26.3532 21.0969C26.1964 21.1839 26.0256 21.2591 26.0028 21.4653C26.0028 21.4739 26.0028 21.4833 26.0028 21.4927C26.053 21.7467 26.2819 21.858 26.4379 22.0194C26.952 22.5493 27.0696 23.2414 27.2421 23.9116C27.2515 23.9175 27.2615 23.9225 27.2718 23.9265C27.2772 23.9306 27.2833 23.9335 27.2899 23.9351C27.4874 24.0213 27.6473 23.8912 27.8033 23.8026L32.5062 21.1063C33.0314 20.8053 33.0291 20.7974 33.3434 21.3469C34.5395 23.4287 35.7638 25.4941 36.9592 27.5768C37.4773 28.4782 38.0307 29.36 38.5268 30.2849C38.3951 30.3162 38.3316 30.2378 38.2556 30.1939C34.7793 28.2093 31.3117 26.2074 27.8378 24.2181C27.67 24.1216 27.5015 23.9704 27.2891 24.0613C27.2837 24.063 27.2786 24.0656 27.2742 24.0691C27.2623 24.0735 27.251 24.0792 27.2405 24.0864C27.2198 24.1093 27.2036 24.1359 27.1927 24.1648C27.0053 25.0152 26.6111 25.7324 25.8735 26.2278C25.7951 26.2795 25.7363 26.3469 25.7575 26.4394C25.7623 26.4616 25.7707 26.4828 25.7826 26.5021C25.897 26.6589 26.0624 26.7482 26.2246 26.8407C29.356 28.6224 32.4788 30.4205 35.6047 32.21C36.0374 32.4576 36.4912 32.6755 36.9372 33.0157C36.7322 33.0498 36.524 33.0614 36.3164 33.0502C32.5744 33.0502 28.8327 33.0502 25.0912 33.0502C24.849 33.0502 24.5872 32.9852 24.3764 33.178C24.3764 34.1149 24.3764 35.0516 24.3764 35.988C24.5865 36.1816 24.8467 36.1165 25.0897 36.1181C28.8583 36.1213 32.6267 36.1213 36.3948 36.1181C36.5647 36.1035 36.7359 36.1141 36.9027 36.1495C35.4534 36.9811 34.048 37.7869 32.6411 38.5895C30.5995 39.7559 28.5594 40.9266 26.5209 42.1019C26.3234 42.2155 26.0357 42.2719 25.9723 42.5447C25.963 42.5789 25.9588 42.6143 25.9597 42.6497C26.7584 43.265 27.2609 44.041 27.286 45.0796C28.6634 44.2958 30.0395 43.5096 31.4144 42.7211C34.1625 41.1432 36.9137 39.5717 39.6524 37.9742C40.1823 37.6654 40.7764 37.4522 41.22 36.9976C41.2365 36.8079 41.0797 36.7342 40.97 36.6331C40.071 35.7913 39.7849 34.6257 40.212 33.5354C40.6283 32.4788 41.6104 31.822 42.8096 31.8C42.8182 31.7992 42.8269 31.7992 42.8355 31.8L42.8857 31.7937C43.3379 31.7397 43.74 32.0516 44.1939 31.9873C44.1986 27.9794 44.2035 23.9714 44.2088 19.9634C44.2088 18.6513 44.1978 17.3243 44.1931 15.9988ZM28.4492 7.05695C28.4081 6.99268 28.3636 6.93067 28.3159 6.87118C28.3355 6.84766 28.3543 6.82258 28.3747 6.79907C30.8244 8.20996 33.2739 9.61875 35.7231 11.0255C36.9255 11.7137 38.1318 12.3932 39.3349 13.0752C39.5035 13.1716 39.7535 13.2366 39.759 13.4506C39.759 13.6231 39.5301 13.6803 39.382 13.7642C37.7532 14.7047 36.1197 15.6383 34.4964 16.5859C34.1742 16.7756 34.0316 16.7019 33.8513 16.3884C32.061 13.2735 30.2603 10.163 28.4492 7.05695Z" fill="#84ECEF"/>
<path d="M41.2185 37.0125C40.3743 36.3603 39.8664 35.5428 39.904 34.4306C39.9502 32.9131 41.2851 31.6488 42.812 31.7028C42.9813 31.88 42.9578 32.1057 42.9586 32.3205C42.9633 33.8129 42.9633 35.3056 42.9586 36.7985C42.9586 37.0148 42.9711 37.2382 42.8018 37.4154C42.2257 37.4757 41.7233 37.2406 41.2185 37.0125Z" fill="#84ECEF"/>
<path d="M42.9546 15.6851C42.9546 15.856 42.9687 16.0347 42.8888 16.1899C42.8681 16.2306 42.8417 16.268 42.8104 16.3012C42.3111 16.3702 41.8698 16.1547 41.4183 16.0065C41.4121 16.0073 41.4058 16.0073 41.3995 16.0065C41.3843 16.0055 41.3695 16.0014 41.356 15.9944C41.3426 15.9874 41.3307 15.9776 41.3211 15.9658C41.3156 15.9594 41.3106 15.9526 41.3063 15.9454C39.7527 14.8676 39.7088 13.3909 40.0968 12.3829C40.3218 11.7966 40.7474 11.3772 41.2169 10.9939C41.724 10.7721 42.2241 10.5307 42.8018 10.5926C42.968 10.769 42.9539 10.9924 42.9539 11.2087C42.9586 12.6975 42.9588 14.1896 42.9546 15.6851Z" fill="#84ECEF"/>
<path d="M42.8081 16.2982C42.8081 14.3935 42.806 12.4893 42.8018 10.5857C43.3763 10.5708 43.9417 10.7317 44.4223 11.0469C44.9029 11.362 45.2758 11.8164 45.4911 12.3493C45.7132 12.891 45.7637 13.4878 45.6359 14.0591C45.508 14.6304 45.208 15.1487 44.7763 15.5442C44.5952 15.7103 44.3844 15.8483 44.1923 15.9988C43.7448 16.1595 43.3082 16.3789 42.8081 16.2982Z" fill="#19ABB5"/>
<path d="M42.8041 37.4149C42.8041 35.5102 42.8062 33.6061 42.8104 31.7024C43.3113 31.624 43.751 31.8396 44.1954 32.001C45.1721 32.6352 45.7396 33.5021 45.7027 34.7021C45.6533 36.2212 44.3334 37.4565 42.8041 37.4149Z" fill="#19ABB5"/>
<path d="M24.3662 26.7371C23.8685 26.7974 23.4256 26.5975 22.9765 26.4361C22.0296 25.8192 21.4598 24.9797 21.4778 23.815C21.4919 22.8422 21.9716 22.1062 22.699 21.5066C23.2242 21.2268 23.758 20.9783 24.3756 21.0191C24.5465 21.1962 24.5214 21.4227 24.5222 21.6375C24.5269 23.1325 24.5269 24.6278 24.5222 26.1233C24.5206 26.3357 24.5457 26.5631 24.3662 26.7371Z" fill="#84ECEF"/>
<path d="M27.2906 23.9093V23.9367C27.2906 23.9806 27.2906 24.0229 27.2906 24.0668V24.0919C27.1731 25.1234 26.6495 25.8947 25.7802 26.4387L25.759 26.4465C25.3099 26.6143 24.8725 26.8306 24.3685 26.735C24.3685 24.8292 24.3714 22.9237 24.3771 21.0185C24.9838 20.9472 25.4949 21.2082 26.0075 21.4669L26.053 21.4896C26.8141 22.1175 27.2844 22.8966 27.2906 23.9093Z" fill="#19ABB5"/>
<path d="M4.49773 19.9768C4.49773 23.9842 4.50269 27.9922 4.51262 32.0007C4.96645 32.0649 5.36856 31.753 5.82083 31.8071L5.87099 31.8133C5.87959 31.8126 5.88825 31.8126 5.89686 31.8133C7.09611 31.8353 8.07825 32.4921 8.49446 33.5487C8.92164 34.639 8.63555 35.8046 7.7365 36.6464C7.62676 36.7475 7.47 36.8212 7.48646 37.0109C7.92775 37.4655 8.52189 37.6787 9.05411 37.9875C11.7928 39.585 14.5409 41.1566 17.2921 42.7344C18.667 43.5235 20.0431 44.3096 21.4206 45.0929C21.4456 44.0536 21.9481 43.2776 22.7468 42.6631C22.7477 42.6276 22.7435 42.5923 22.7342 42.558C22.6747 42.2853 22.387 42.2288 22.1895 42.1152C20.1515 40.9389 18.1115 39.7681 16.0694 38.6028C14.6624 37.8002 13.257 36.9944 11.8077 36.1628C11.9745 36.1274 12.1457 36.1168 12.3156 36.1314C16.0843 36.1314 19.8526 36.1314 23.6208 36.1314C23.8622 36.1314 24.124 36.1949 24.334 36.0013C24.334 35.0649 24.334 34.1282 24.334 33.1913C24.1232 32.9985 23.8637 33.0635 23.6192 33.0635C19.8777 33.0588 16.136 33.0588 12.394 33.0635C12.1864 33.0747 11.9783 33.0631 11.7732 33.0291C12.2161 32.6889 12.6699 32.471 13.1057 32.2233C16.2316 30.4338 19.3544 28.6357 22.4858 26.8541C22.648 26.7616 22.8134 26.6699 22.9278 26.5154C22.9397 26.4961 22.9482 26.4749 22.9529 26.4527C22.9741 26.3603 22.9145 26.296 22.8369 26.2411C22.0993 25.7434 21.7051 25.0285 21.5177 24.1781C21.5068 24.1492 21.4906 24.1226 21.4699 24.0997C21.4595 24.0926 21.4481 24.0868 21.4362 24.0825C21.4318 24.0789 21.4267 24.0763 21.4213 24.0746C21.2073 23.9798 21.0388 24.1311 20.8727 24.2314C17.3987 26.2207 13.9311 28.2226 10.4548 30.2073C10.3764 30.2512 10.3153 30.3296 10.1836 30.2982C10.6806 29.3733 11.2339 28.4954 11.7513 27.5901C12.9466 25.5075 14.1709 23.4421 15.3671 21.3602C15.6806 20.8115 15.6806 20.8186 16.2042 21.1196L20.9071 23.816C21.0639 23.9045 21.2207 24.0346 21.4206 23.9484C21.4271 23.9468 21.4332 23.9439 21.4386 23.9398C21.449 23.9358 21.4589 23.9308 21.4684 23.9249C21.6408 23.2547 21.7584 22.5626 22.2726 22.0327C22.4293 21.8713 22.6574 21.76 22.7076 21.506C22.7076 21.4966 22.7076 21.4872 22.7076 21.4786C22.6849 21.2724 22.5124 21.1972 22.3572 21.1102C20.8147 20.2271 19.2713 19.3442 17.7272 18.4616C17.249 18.1896 17.2365 18.1685 17.5218 17.6778C19.345 14.53 21.1716 11.3842 23.0015 8.24053C23.3793 7.5923 23.7603 6.94721 24.1295 6.29585C24.2016 6.16809 24.3066 6.04189 24.2682 5.88434C24.2638 5.86239 24.2566 5.84107 24.247 5.82085C23.6733 5.70563 23.1011 5.59825 22.6175 5.22436C22.2526 4.95699 21.9545 4.60887 21.7465 4.2072C21.5384 3.80554 21.4261 3.36121 21.4182 2.90894C17.7117 5.03311 14.0061 7.15806 10.3012 9.2838C9.43897 9.77839 8.57676 10.2753 7.71455 10.7668C7.61579 10.8232 7.52565 10.8758 7.48881 10.9894C7.47078 11.2018 7.65341 11.2739 7.77334 11.3852C9.04392 12.5673 8.99062 14.4602 7.65498 15.5787C7.53584 15.6783 7.35948 15.7496 7.38377 15.951C7.38377 15.951 7.38377 15.9573 7.38377 15.9612C7.38415 15.9662 7.38415 15.9712 7.38377 15.9761C7.99594 16.5248 8.75469 16.8313 9.44759 17.2443C10.4924 17.8651 11.5569 18.4554 12.6135 19.0597C12.8753 19.207 12.9834 19.3434 12.8071 19.646C11.0239 22.7076 9.2438 25.7685 7.43002 28.8857C7.43002 27.2005 7.43002 25.5788 7.43002 23.9578C7.43002 21.5358 7.43002 19.1146 7.43002 16.6941C7.43002 16.4629 7.47235 16.2238 7.32499 16.0114L7.30853 16.002C7.30729 16.0015 7.30595 16.0012 7.30461 16.0012C7.30326 16.0012 7.30193 16.0015 7.30069 16.002C7.14392 15.9126 6.98716 15.9769 6.83039 16.0302C6.53688 16.1372 6.22647 16.1903 5.9141 16.187H5.89607C5.87021 16.187 5.84277 16.187 5.81769 16.187C5.52559 16.1896 5.2354 16.1397 4.96097 16.0396C4.81909 15.9879 4.67095 15.9267 4.5134 15.9996C4.50791 17.3243 4.49694 18.6513 4.49773 19.9768ZM14.8544 16.3908C14.6741 16.7043 14.5315 16.778 14.2093 16.5883C12.586 15.6375 10.9525 14.7071 9.32375 13.7665C9.1756 13.6826 8.94359 13.6254 8.94673 13.453C8.95221 13.239 9.20225 13.1739 9.37078 13.0775C10.574 12.3932 11.7803 11.716 12.9827 11.0278C15.4329 9.62215 17.8824 8.21335 20.331 6.80142C20.3514 6.82494 20.3702 6.85002 20.3898 6.87353C20.3421 6.93302 20.2976 6.99503 20.2566 7.0593C18.4522 10.1669 16.6515 13.2774 14.8544 16.3908Z" fill="#84ECEF"/>
<path d="M7.48729 37.0125C8.33304 36.3603 8.83939 35.5428 8.80569 34.4306C8.75944 32.9131 7.42458 31.6488 5.89769 31.7028C5.72838 31.88 5.7519 32.1057 5.75111 32.3205C5.74641 33.8129 5.74641 35.3056 5.75111 36.7985C5.75111 37.0148 5.73857 37.2382 5.90788 37.4154C6.48007 37.4757 6.98329 37.2406 7.48729 37.0125Z" fill="#19ABB5"/>
<path d="M5.75109 15.6851C5.75109 15.856 5.73698 16.0347 5.81693 16.1899C5.83764 16.2306 5.86403 16.268 5.89532 16.3012C6.39461 16.3702 6.83591 16.1547 7.28739 16.0065C7.29364 16.0073 7.29996 16.0073 7.3062 16.0065C7.32138 16.0055 7.33619 16.0014 7.34968 15.9944C7.36317 15.9874 7.37506 15.9776 7.38459 15.9658C7.39017 15.9594 7.39516 15.9526 7.39948 15.9454C8.95302 14.8676 8.99692 13.3909 8.60892 12.3829C8.38397 11.7966 7.95835 11.3772 7.48884 10.9939C6.98248 10.7721 6.48162 10.5307 5.90394 10.5926C5.73777 10.769 5.75188 10.9924 5.75188 11.2087C5.74561 12.6975 5.74534 14.1896 5.75109 15.6851Z" fill="#19ABB5"/>
<path d="M5.89766 16.2982C5.89766 14.3935 5.89975 12.4893 5.90393 10.5857C5.32941 10.5708 4.76404 10.7317 4.28344 11.0469C3.80285 11.362 3.42995 11.8164 3.21462 12.3493C2.9922 12.8907 2.94119 13.4873 3.06845 14.0585C3.19572 14.6298 3.49514 15.1484 3.92634 15.5442C4.1074 15.7103 4.31825 15.8483 4.51029 15.9988C4.96177 16.1595 5.39758 16.3789 5.89766 16.2982Z" fill="#84ECEF"/>
<path d="M5.90398 37.4149C5.90398 35.5102 5.90189 33.6061 5.89771 31.7024C5.39685 31.624 4.96104 31.8396 4.51269 32.001C3.53604 32.6352 2.96855 33.5021 3.00539 34.7021C3.05242 36.2212 4.37239 37.4565 5.90398 37.4149Z" fill="#84ECEF"/>
<path d="M21.4174 34.715C21.4801 36.2709 22.3478 37.1731 23.7689 37.6214H24.3301C24.4317 37.501 24.4831 37.3461 24.4735 37.1888C24.468 35.4643 24.5198 33.7399 24.4484 32.0155C24.392 31.7592 24.2086 31.7357 23.9899 31.7584C23.5453 31.7997 23.1162 31.9426 22.7358 32.1762C22.0465 32.6089 21.5549 33.2952 21.3672 34.0872C21.3155 34.3019 21.2998 34.5128 21.4174 34.715Z" fill="#84ECEF"/>
<path d="M24.3372 31.8916V37.6214H24.8075C25.3217 37.4489 25.8328 37.2788 26.2505 36.9026C26.9309 36.2912 27.2358 35.5223 27.2538 34.6224C27.373 34.4657 27.326 34.2971 27.2883 34.1286C27.2066 33.7302 27.0441 33.3527 26.8109 33.0195C26.5777 32.6862 26.2787 32.4043 25.9323 32.191C25.5938 31.981 25.2143 31.8458 24.8193 31.7944C24.6468 31.7771 24.4752 31.7591 24.3372 31.8916Z" fill="#19ABB5"/>
</svg>
