<svg width="124" height="32" viewBox="0 0 124 32" fill="none" xmlns="http://www.w3.org/2000/svg">
<g opacity="0.4">
<path d="M19.9076 23.2607L14.2046 25.7426V25.505C13.0693 25.7954 11.9076 25.9538 10.7195 26.0066C5.35974 25.9538 1.10891 23.1551 1.05611 19.8284V18.5875C2.79868 21.1485 6.41584 22.8647 10.7195 22.7855C12.1452 22.8383 13.5446 22.6535 14.9175 22.2838L15.4191 21.0429C13.8878 21.5182 12.3036 21.7822 10.7195 21.7822C5.35974 21.8086 1.10891 19.0099 1.05611 15.604V14.6007C2.79868 16.9769 6.38944 18.6667 10.7195 18.5875C12.5941 18.6931 14.4686 18.3498 16.1584 17.5842L16.396 16.3432C14.6271 17.2145 12.6733 17.6634 10.6931 17.5842C5.33333 17.6634 1.08251 14.8647 1.0297 11.4059V10.4026C2.77228 12.8317 6.38944 14.5215 10.6931 14.6007C13.0165 14.5215 15.3135 13.9406 17.3993 12.8845L17.637 11.4059C15.9208 12.6733 13.3861 13.5182 10.7195 13.6238C5.33333 13.4917 1.08251 10.6931 1.0297 7.18152C1.08251 3.85478 5.33333 1.0297 10.6931 1.0033C13.8878 1.0561 16.8449 2.19142 18.6139 3.9868L18.7987 4.25082H20.0396L19.8548 3.9604C18.0858 1.58416 14.5743 0 10.6667 0C4.75248 0 0 3.27393 0 7.18152V20.066C0.211221 23.8944 4.83168 27.0099 10.6667 27.0099C14.5743 26.9835 18.033 25.4521 19.9076 23.2607Z" fill="black"/>
<path d="M17.5842 32L19.5908 23.4983L13.835 26.0066L17.3465 11.2475H10.5875L12.33 3.98679H33.8482L32.1056 11.2475H25.1089L23.604 15.2607L31.3663 12.0132L17.5842 32ZM21.0957 21.7294L20.0924 26.7195L28.3564 14.2046L21.5974 17.2145L24.6073 10.2178H31.3663L32.6073 4.96368H13.0957L11.8548 10.2178H18.6139L15.3663 24.2112L21.0957 21.7294Z" fill="black"/>
<path d="M47.2079 8.84488C47.2079 9.21452 47.1023 9.55775 46.9703 9.87459C46.8119 10.1914 46.6007 10.4818 46.3367 10.7195C45.7294 11.1947 44.9901 11.4587 44.2244 11.4059C43.802 11.4323 43.3796 11.3531 42.9835 11.1947C42.5875 11.0363 42.2442 10.7723 41.9538 10.4554C41.3994 9.82178 41.1353 8.92409 41.1353 7.78878V7.33993C41.1089 6.67986 41.2409 6.0462 41.505 5.43894C41.7426 4.91089 42.1122 4.48844 42.5875 4.17161C43.1683 3.85478 43.8284 3.69637 44.4885 3.74917C45.1485 3.80198 45.7822 4.0396 46.3103 4.43564C46.8647 4.93729 47.1815 5.65016 47.2343 6.38944H45.703C45.703 5.9934 45.571 5.62376 45.307 5.33333C45.0165 5.09571 44.6205 4.9901 44.2508 5.0165C44.0396 4.9901 43.802 5.0429 43.5908 5.14851C43.3796 5.25412 43.2211 5.38614 43.0891 5.57095C42.8251 5.94059 42.6931 6.52145 42.6931 7.28713V7.84158C42.6931 8.66006 42.8251 9.24092 43.0627 9.61056C43.1947 9.79538 43.3532 9.95379 43.5644 10.033C43.7756 10.1386 43.9868 10.165 44.2244 10.165C44.6205 10.1914 44.9901 10.0858 45.2805 9.84818C45.5446 9.58416 45.6766 9.21452 45.6766 8.84488H47.2079Z" fill="black"/>
<path d="M54.363 7.76238C54.3894 8.42244 54.2574 9.08251 53.967 9.68977C53.7294 10.2178 53.3333 10.6667 52.8581 10.9835C52.3564 11.2739 51.7756 11.4323 51.1947 11.4323C50.6138 11.4323 50.033 11.2739 49.5313 10.9835C49.0297 10.6667 48.6337 10.2442 48.396 9.71617C48.132 9.10891 47.9736 8.47525 48 7.81518V7.44555C47.9736 6.78548 48.132 6.12541 48.396 5.49175C48.6337 4.9637 49.0297 4.51485 49.5313 4.19802C50.033 3.90759 50.6138 3.74918 51.1947 3.74918C51.7756 3.74918 52.3564 3.90759 52.8581 4.19802C53.3597 4.51485 53.7294 4.9637 53.9934 5.49175C54.2574 6.09901 54.4158 6.75908 54.3894 7.41914V7.76238H54.363ZM52.8053 7.41914C52.8053 6.62706 52.6733 6.0462 52.3828 5.62376C52.2508 5.43894 52.066 5.28053 51.8548 5.17492C51.6436 5.06931 51.4059 5.0165 51.1947 5.0165C50.9571 5.0165 50.7195 5.06931 50.5346 5.17492C50.3234 5.28053 50.1386 5.43894 50.0066 5.62376C49.7162 6.0198 49.5841 6.62706 49.5841 7.39274V7.76238C49.5577 8.36964 49.6898 9.0033 50.0066 9.53135C50.1386 9.71617 50.3234 9.87459 50.5346 9.9802C50.7459 10.0858 50.9835 10.1386 51.2211 10.1386C51.4587 10.1386 51.6964 10.0858 51.9076 9.9802C52.1188 9.87459 52.3036 9.71617 52.4356 9.53135C52.6997 9.13531 52.8581 8.52805 52.8581 7.76238V7.41914H52.8053Z" fill="black"/>
<path d="M57.1089 11.3003H55.5776V3.82837H57.1089V11.3003Z" fill="black"/>
<path d="M64.6072 11.3003H63.0759L60.0924 6.38943V11.3003H58.561V3.82837H60.0924L63.1023 8.73926V3.82837H64.6336V11.3003H64.6072Z" fill="black"/>
<path d="M71.4191 5.09569H69.1221V11.3267H67.6171V5.09569H65.3729V3.85477H71.4455V5.09569H71.4191Z" fill="black"/>
<path d="M76.8053 8.07919H73.8482V10.0858H77.3069V11.3267H72.2904V3.85477H77.2805V5.09569H73.8218V6.86467H76.7789V8.07919H76.8053Z" fill="black"/>
<path d="M79.7624 10.0594H83.0363V11.3003H78.231V3.82837H79.7624V10.0594Z" fill="black"/>
<path d="M88.3961 8.07919H85.439V10.0858H88.8977V11.3267H83.8812V3.85477H88.8713V5.09569H85.4126V6.86467H88.3697V8.07919H88.3961Z" fill="black"/>
<path d="M95.736 10.3762C95.4191 10.7459 95.0231 11.0099 94.5742 11.1419C94.0462 11.3267 93.4653 11.4324 92.8845 11.406C92.2772 11.4324 91.6964 11.2739 91.1947 10.9835C90.693 10.6931 90.297 10.2706 90.0594 9.74259C89.769 9.16173 89.6369 8.50166 89.6633 7.8416V7.33994C89.6369 6.67988 89.769 6.01981 90.033 5.41255C90.2706 4.8845 90.6402 4.46206 91.1155 4.17163C91.6171 3.8812 92.198 3.72278 92.7789 3.74919C93.6765 3.74919 94.363 3.96041 94.8647 4.38285C95.3927 4.8581 95.7096 5.51816 95.7624 6.23103H94.2574C94.231 5.8614 94.0726 5.54457 93.8086 5.28054C93.5445 5.06932 93.2013 4.96371 92.8317 4.99011C92.594 4.99011 92.3564 5.01651 92.1452 5.12212C91.934 5.22773 91.7492 5.38615 91.6171 5.57097C91.3531 5.96701 91.1947 6.54787 91.1947 7.31354V7.78879C91.1947 8.58087 91.3531 9.16173 91.6435 9.55777C91.802 9.76899 91.9868 9.92741 92.2244 10.033C92.462 10.1386 92.6997 10.1914 92.9637 10.165C93.5445 10.165 93.9406 10.033 94.2046 9.79539V8.50166H92.8053V7.36635H95.736V10.3762Z" fill="black"/>
<path d="M99.7228 8.58084H98.5083V11.3267H96.9769V3.85477H99.7492C100.62 3.85477 101.307 4.03958 101.782 4.43562C102.02 4.64685 102.205 4.88447 102.337 5.1749C102.469 5.46533 102.521 5.78216 102.495 6.09899C102.521 6.54784 102.389 6.99668 102.152 7.36632C101.914 7.73596 101.545 7.99998 101.149 8.1848L102.759 11.2475V11.3267H101.096L99.7228 8.58084ZM98.5083 7.31351H99.7492C100.066 7.33992 100.409 7.23431 100.647 7.02308C100.753 6.91747 100.832 6.78546 100.885 6.65345C100.937 6.52144 100.964 6.36302 100.964 6.2046C100.964 6.04619 100.937 5.91417 100.911 5.75576C100.858 5.62374 100.779 5.49173 100.673 5.35972C100.541 5.25411 100.409 5.1749 100.251 5.12209C100.092 5.06929 99.934 5.04289 99.7492 5.06929H98.5083V7.31351Z" fill="black"/>
<path d="M107.881 9.76896H105.188L104.686 11.3003H103.05L105.822 3.82837H107.248L110.046 11.3003H108.409L107.881 9.76896ZM105.611 8.52804H107.485L106.535 5.72936L105.611 8.52804Z" fill="black"/>
<path d="M112.29 8.68645V11.3267H110.759V3.85477H113.663C114.165 3.85477 114.667 3.96038 115.142 4.1716C115.538 4.35642 115.881 4.67325 116.119 5.04289C116.356 5.43893 116.462 5.88777 116.462 6.33662C116.488 6.65345 116.409 6.99668 116.277 7.28711C116.145 7.57754 115.96 7.84157 115.696 8.05279C115.195 8.47523 114.508 8.68645 113.611 8.68645H112.29ZM112.29 7.41912H113.663C114.007 7.44553 114.323 7.33992 114.587 7.1287C114.693 7.02309 114.772 6.89107 114.852 6.75906C114.904 6.62704 114.931 6.46863 114.931 6.31021C114.931 6.1518 114.904 5.99338 114.852 5.83497C114.799 5.67655 114.719 5.54454 114.614 5.41253C114.508 5.30691 114.35 5.2013 114.191 5.1485C114.033 5.09569 113.875 5.06929 113.716 5.06929H112.317V7.41912H112.29Z" fill="black"/>
<path d="M123.591 11.3003H122.059V8.1056H119.05V11.3003H117.518V3.82837H119.05V6.86467H122.059V3.82837H123.591V11.3003Z" fill="black"/>
<path d="M45.9406 19.3003H44.0396V24.4752H42.7459V19.3003H40.8713V18.2706H45.9406V19.3003Z" fill="black"/>
<path d="M47.7888 20.3564C47.9472 20.1716 48.132 20.0132 48.3432 19.9076C48.5545 19.802 48.7921 19.7492 49.0297 19.7492C50.033 19.7492 50.5347 20.33 50.5611 21.4917V24.4488H49.3201V21.5181C49.3465 21.3069 49.2673 21.0957 49.1617 20.9373C49.0825 20.8581 49.0033 20.8053 48.8977 20.7789C48.7921 20.7525 48.6865 20.7261 48.5809 20.7525C48.4224 20.7525 48.264 20.7789 48.132 20.8581C48 20.9373 47.868 21.0429 47.7888 21.1749V24.4488H46.5479V17.8746H47.7888V20.3564Z" fill="black"/>
<path d="M53.5974 24.5809C53.2805 24.5809 52.9901 24.5545 52.6997 24.4488C52.4092 24.3432 52.1452 24.1848 51.934 23.9736C51.7228 23.7624 51.538 23.4984 51.4323 23.2079C51.3267 22.9175 51.2739 22.6271 51.2739 22.3102V22.1782C51.2739 21.7558 51.3531 21.3333 51.538 20.9373C51.6964 20.5941 51.9604 20.3036 52.3036 20.0924C52.6469 19.8812 53.0429 19.7756 53.4389 19.802C53.7294 19.7756 53.9934 19.8284 54.2574 19.934C54.5214 20.0396 54.7591 20.198 54.9439 20.4092C55.3135 20.8053 55.4983 21.3861 55.4983 22.099V22.6007H52.5677C52.5941 22.8911 52.7261 23.1287 52.9373 23.3399C53.1485 23.5248 53.4125 23.6304 53.703 23.604C53.9142 23.604 54.1254 23.5776 54.3366 23.472C54.5215 23.3927 54.7063 23.2343 54.8383 23.0759L55.4455 23.7624C55.2607 24.0264 54.9967 24.2376 54.7063 24.3696C54.3366 24.5017 53.967 24.5809 53.5974 24.5809ZM53.4653 20.7789C53.3597 20.7789 53.2541 20.8053 53.1485 20.8317C53.0429 20.8845 52.9637 20.9373 52.8845 21.0165C52.7261 21.2277 52.6205 21.4653 52.5941 21.7294H54.3102V21.6238C54.3102 21.3861 54.231 21.1749 54.099 20.9901C54.0198 20.9109 53.9142 20.8581 53.8086 20.8053C53.6766 20.7789 53.571 20.7789 53.4653 20.7789Z" fill="black"/>
<path d="M58.7195 24.4753V20.7525H58.033V19.8548H58.7195V19.4588C58.6931 19.2475 58.7459 19.0099 58.8251 18.7987C58.9043 18.5875 59.0099 18.4026 59.1683 18.2442C59.5116 17.9538 59.9604 17.7954 60.4093 17.8218C60.6205 17.8218 60.8317 17.8482 61.0429 17.901V18.8515C60.9109 18.8251 60.8053 18.7987 60.6733 18.8251C60.198 18.8251 59.9868 19.0363 59.9868 19.4852V19.8548H60.9109V20.7525H59.9604V24.4753H58.7195Z" fill="black"/>
<path d="M64.2904 24.0264C64.132 24.2112 63.9472 24.3696 63.736 24.4488C63.5247 24.5544 63.2871 24.5808 63.0495 24.5808C62.8383 24.6072 62.627 24.5544 62.4422 24.5016C62.2574 24.4224 62.0726 24.3168 61.9142 24.1584C61.6237 23.8152 61.4917 23.3663 61.5181 22.9175V19.8812H62.7591V22.8647C62.7591 23.3399 62.9703 23.5775 63.4191 23.5775C63.5775 23.6039 63.7624 23.5511 63.9208 23.4983C64.0792 23.4191 64.2112 23.3135 64.2904 23.1551V19.8812H65.5313V24.5016H64.3696L64.2904 24.0264Z" fill="black"/>
<path d="M67.9076 18.7195V19.8548H68.6997V20.7525H67.9076V23.0495C67.9076 23.1815 67.934 23.3135 68.0132 23.4192C68.066 23.472 68.1188 23.4984 68.198 23.5248C68.2508 23.5512 68.33 23.5512 68.4093 23.5512C68.5413 23.5512 68.6469 23.5512 68.7789 23.5248V24.4489C68.5413 24.5281 68.2772 24.5545 68.0396 24.5545C67.1683 24.5545 66.7195 24.1056 66.7195 23.2343V20.7525H66.033V19.8548H66.7195V18.7195H67.9076Z" fill="black"/>
<path d="M72.1585 24.0264C72 24.2112 71.8152 24.3696 71.604 24.4488C71.3928 24.5544 71.1551 24.5808 70.9175 24.5808C70.7063 24.6072 70.4951 24.5544 70.3103 24.5016C70.1254 24.4224 69.9406 24.3168 69.7822 24.1584C69.4918 23.8152 69.3598 23.3663 69.3862 22.9175V19.8812H70.6271V22.8647C70.6271 23.3399 70.8383 23.5775 71.2872 23.5775C71.4456 23.6039 71.6304 23.5511 71.7888 23.4983C71.9472 23.4191 72.0792 23.3135 72.1585 23.1551V19.8812H73.3994V24.5016H72.2377L72.1585 24.0264Z" fill="black"/>
<path d="M76.8845 21.0165C76.7261 20.9901 76.5941 20.9901 76.4356 20.9901C75.9604 20.9901 75.67 21.1485 75.5115 21.4654V24.5017H74.2706V19.8812H75.4323L75.4587 20.4357C75.5644 20.2508 75.6964 20.0924 75.8812 19.9604C76.066 19.8548 76.2772 19.7756 76.4885 19.802C76.6205 19.802 76.7525 19.8284 76.8845 19.8548V21.0165Z" fill="black"/>
<path d="M79.5248 24.5809C79.208 24.5809 78.9175 24.5545 78.6271 24.4488C78.3367 24.3432 78.0726 24.1848 77.8614 23.9736C77.6502 23.7624 77.4654 23.4984 77.3598 23.2079C77.2542 22.9175 77.2014 22.6271 77.2014 22.3102V22.1782C77.2014 21.7558 77.2806 21.3333 77.4654 20.9373C77.6238 20.5941 77.8878 20.3036 78.2311 20.0924C78.5743 19.8812 78.9703 19.7756 79.3664 19.802C79.6568 19.7756 79.9208 19.8284 80.1849 19.934C80.4489 20.0396 80.6865 20.198 80.8713 20.4092C81.241 20.8053 81.4258 21.3861 81.4258 22.099V22.6007H78.4687C78.4951 22.8911 78.6271 23.1287 78.8383 23.3399C79.0495 23.5248 79.3136 23.6304 79.604 23.604C79.8152 23.604 80.0264 23.5776 80.2377 23.472C80.4225 23.3927 80.6073 23.2343 80.7393 23.0759L81.3466 23.7624C81.1618 24.0264 80.8977 24.2376 80.6073 24.3696C80.2377 24.5017 79.8944 24.5809 79.5248 24.5809ZM79.3664 20.7789C79.2608 20.7789 79.1552 20.8053 79.0495 20.8317C78.9439 20.8845 78.8647 20.9373 78.7855 21.0165C78.6271 21.2277 78.5215 21.4653 78.4951 21.7294H80.2113V21.6238C80.2113 21.3861 80.1321 21.1749 80 20.9901C79.9208 20.9109 79.8152 20.8581 79.7096 20.8053C79.604 20.7789 79.4984 20.7789 79.3664 20.7789Z" fill="black"/>
<path d="M84.1188 22.1254C84.1188 21.703 84.198 21.2805 84.3829 20.9109C84.5413 20.5677 84.8053 20.2772 85.1485 20.066C85.4918 19.8548 85.8878 19.7756 86.3103 19.7756C86.6007 19.7756 86.8647 19.802 87.1287 19.9076C87.3928 20.0132 87.6304 20.1452 87.8416 20.3564C88.2641 20.7789 88.4753 21.3333 88.5017 21.9142V22.231C88.5281 22.8647 88.3169 23.4719 87.9208 23.9472C87.4984 24.3696 86.9175 24.5809 86.3367 24.5809C85.7294 24.5809 85.1749 24.3432 84.7525 23.9472C84.3301 23.4719 84.1188 22.8383 84.1452 22.2046V22.1254H84.1188ZM85.3334 22.231C85.307 22.5743 85.3862 22.9439 85.571 23.2343C85.6502 23.3399 85.7558 23.4191 85.8878 23.4983C86.0198 23.5512 86.1518 23.5776 86.2839 23.604C86.4159 23.604 86.5479 23.5776 86.6799 23.5247C86.8119 23.4719 86.9175 23.3663 86.9967 23.2607C87.1815 22.9175 87.2872 22.5479 87.2607 22.1518C87.2872 21.8086 87.1815 21.4389 86.9967 21.1485C86.9175 21.0429 86.8119 20.9373 86.6799 20.8845C86.5479 20.8317 86.4159 20.8053 86.2839 20.8053C86.1518 20.8053 86.0198 20.8317 85.8878 20.8845C85.7558 20.9373 85.6502 21.0429 85.571 21.1485C85.4126 21.4653 85.307 21.835 85.3334 22.231Z" fill="black"/>
<path d="M89.5841 24.4753V20.7525H88.8977V19.8548H89.5841V19.4588C89.5577 19.2475 89.6105 19.0099 89.6898 18.7987C89.769 18.5875 89.8746 18.4026 90.033 18.2442C90.3762 17.9538 90.8251 17.7954 91.2739 17.8218C91.4851 17.8218 91.6964 17.8482 91.9076 17.901V18.8515C91.7756 18.8251 91.67 18.7987 91.5379 18.8251C91.0627 18.8251 90.8515 19.0363 90.8515 19.4852V19.8548H91.7756V20.7525H90.8515V24.4753H89.5841Z" fill="black"/>
<path d="M95.736 19.8548L95.7624 20.3828C95.9208 20.198 96.132 20.0396 96.3433 19.934C96.5809 19.8284 96.8185 19.7756 97.0825 19.802C97.3466 19.7756 97.5842 19.8284 97.7954 19.9604C98.0066 20.0924 98.1915 20.2772 98.2971 20.5149C98.4555 20.2772 98.6667 20.0924 98.9043 19.9868C99.1419 19.8548 99.406 19.802 99.6964 19.8284C99.9076 19.802 100.119 19.8548 100.304 19.9076C100.488 19.9868 100.673 20.0924 100.805 20.2508C101.069 20.6469 101.201 21.0957 101.175 21.571V24.5281H99.934V21.571C99.9604 21.3597 99.9076 21.1749 99.7756 20.9901C99.6964 20.9109 99.6172 20.8581 99.5116 20.8317C99.406 20.8053 99.3268 20.7789 99.2212 20.8053C99.0627 20.8053 98.8779 20.8317 98.7459 20.9373C98.6139 21.0429 98.5083 21.1749 98.4555 21.3333V24.5017H97.2146V21.5446C97.241 21.3333 97.1882 21.1221 97.0561 20.9637C96.9769 20.8845 96.8977 20.8581 96.8185 20.8053C96.7129 20.7789 96.6337 20.7525 96.5281 20.7789C96.3697 20.7789 96.2113 20.8053 96.0792 20.8845C95.9472 20.9637 95.8416 21.0693 95.7624 21.2277V24.5017H94.5215V19.8812H95.736V19.8548Z" fill="black"/>
<path d="M101.941 22.1254C101.941 21.703 102.02 21.2805 102.205 20.9109C102.363 20.5677 102.627 20.2772 102.97 20.066C103.314 19.8548 103.71 19.7756 104.132 19.7756C104.422 19.7756 104.686 19.802 104.951 19.9076C105.215 20.0132 105.452 20.1452 105.663 20.3564C106.086 20.7789 106.297 21.3333 106.323 21.9142V22.231C106.35 22.8647 106.139 23.4719 105.743 23.9472C105.32 24.3696 104.739 24.5809 104.158 24.5809C103.578 24.5809 102.997 24.3432 102.574 23.9472C102.152 23.4719 101.941 22.8383 101.967 22.2046V22.1254H101.941ZM103.182 22.231C103.155 22.5743 103.234 22.9439 103.419 23.2343C103.498 23.3399 103.604 23.4191 103.736 23.4983C103.868 23.5512 104 23.5776 104.132 23.604C104.264 23.6304 104.396 23.5776 104.528 23.5247C104.66 23.4719 104.766 23.3663 104.845 23.2607C105.03 22.9175 105.135 22.5479 105.109 22.1518C105.135 21.8086 105.03 21.4389 104.845 21.1485C104.766 21.0429 104.66 20.9373 104.528 20.8845C104.396 20.8317 104.264 20.8053 104.132 20.8053C104 20.8053 103.868 20.8317 103.736 20.8845C103.604 20.9373 103.498 21.0429 103.419 21.1485C103.234 21.4653 103.155 21.835 103.182 22.231Z" fill="black"/>
<path d="M108.224 19.8548L108.251 20.3828C108.409 20.1716 108.62 20.0132 108.832 19.9076C109.069 19.802 109.307 19.7492 109.571 19.7492C109.782 19.7228 109.967 19.7756 110.178 19.8284C110.363 19.9076 110.548 20.0132 110.68 20.1716C110.944 20.5413 111.076 20.9901 111.05 21.4654V24.4489H109.809V21.4918C109.835 21.2805 109.756 21.0693 109.65 20.9109C109.571 20.8581 109.492 20.8053 109.386 20.7525C109.281 20.7261 109.175 20.6997 109.096 20.7261C108.937 20.7261 108.779 20.7525 108.647 20.8317C108.515 20.9109 108.383 21.0165 108.33 21.1749V24.4489H107.089V19.8284H108.224V19.8548Z" fill="black"/>
<path d="M114.139 24.5809C113.822 24.5809 113.531 24.5545 113.241 24.4488C112.95 24.3432 112.686 24.1848 112.475 23.9736C112.264 23.7624 112.079 23.4984 111.974 23.2079C111.868 22.9175 111.815 22.6271 111.815 22.3102V22.1782C111.815 21.7558 111.894 21.3333 112.079 20.9373C112.238 20.5941 112.502 20.3036 112.845 20.0924C113.188 19.8812 113.584 19.7756 113.98 19.802C114.271 19.7756 114.535 19.8284 114.799 19.934C115.063 20.0396 115.3 20.198 115.485 20.4092C115.855 20.8053 116.04 21.3861 116.04 22.099V22.6007H113.083C113.109 22.8911 113.241 23.1287 113.452 23.3399C113.663 23.5248 113.927 23.6304 114.218 23.604C114.429 23.604 114.64 23.5776 114.851 23.472C115.036 23.3927 115.221 23.2343 115.353 23.0759L115.96 23.7624C115.776 24.0264 115.512 24.2376 115.221 24.3696C114.851 24.5017 114.482 24.5809 114.139 24.5809ZM113.98 20.7789C113.875 20.7789 113.769 20.8053 113.663 20.8317C113.558 20.8845 113.479 20.9373 113.399 21.0165C113.241 21.2277 113.135 21.4653 113.109 21.7294H114.825V21.6238C114.825 21.3861 114.746 21.1749 114.614 20.9901C114.535 20.9109 114.429 20.8581 114.323 20.8053C114.218 20.7789 114.086 20.7789 113.98 20.7789Z" fill="black"/>
<path d="M118.389 22.7327L119.234 19.8548H120.554L118.706 25.1881L118.601 25.4257C118.495 25.6897 118.31 25.9274 118.073 26.0858C117.835 26.2442 117.545 26.3234 117.254 26.3234C117.069 26.3234 116.884 26.297 116.7 26.2442V25.3201H116.884C117.069 25.3201 117.254 25.2937 117.413 25.2145C117.545 25.1353 117.624 25.0033 117.677 24.8713L117.835 24.5016L116.224 19.8548H117.545L118.389 22.7327Z" fill="black"/>
</g>
</svg>
