<svg width="18" height="20" viewBox="0 0 18 20" fill="none" xmlns="http://www.w3.org/2000/svg">
<path d="M15.1755 4.27729C15.0406 4.20752 14.9091 4.13104 14.7818 4.04813C14.4115 3.80333 14.072 3.51489 13.7706 3.18901C13.0165 2.32613 12.7348 1.45076 12.6311 0.837875H12.6352C12.5486 0.32915 12.5844 0 12.5898 0H9.15501V13.2818C9.15501 13.4602 9.15501 13.6364 9.14751 13.8106C9.14751 13.8322 9.14542 13.8522 9.14417 13.8756C9.14417 13.8851 9.14417 13.8951 9.14209 13.9051C9.14209 13.9076 9.14209 13.9101 9.14209 13.9126C9.10588 14.3892 8.95312 14.8495 8.69724 15.2532C8.44136 15.6568 8.09021 15.9914 7.67466 16.2275C7.24158 16.4739 6.75175 16.6032 6.25348 16.6025C4.65315 16.6025 3.35613 15.2976 3.35613 13.686C3.35613 12.0744 4.65315 10.7695 6.25348 10.7695C6.55642 10.7692 6.85749 10.8169 7.14552 10.9107L7.14969 7.41338C6.2753 7.30043 5.38699 7.36992 4.54081 7.61747C3.69462 7.86502 2.90892 8.28524 2.23327 8.85164C1.64124 9.36603 1.14352 9.97979 0.762509 10.6653C0.617516 10.9153 0.0704598 11.9198 0.00421307 13.5502C-0.0374515 14.4755 0.240451 15.4342 0.372945 15.8305V15.8388C0.456274 16.0721 0.779174 16.8683 1.3054 17.5395C1.72973 18.078 2.23105 18.5509 2.79324 18.9432V18.9349L2.80157 18.9432C4.46441 20.0732 6.30806 19.999 6.30806 19.999C6.62722 19.9861 7.69633 19.999 8.91044 19.4236C10.257 18.7857 11.0237 17.8354 11.0237 17.8354C11.5134 17.2675 11.9029 16.6204 12.1753 15.9217C12.4861 15.1047 12.5898 14.1247 12.5898 13.7331V6.68675C12.6315 6.71175 13.1865 7.07881 13.1865 7.07881C13.1865 7.07881 13.986 7.59129 15.2335 7.92502C16.1284 8.16251 17.3342 8.21251 17.3342 8.21251V4.80268C16.9117 4.84851 16.0538 4.71518 15.1755 4.27729Z" fill="black"/>
</svg>
