<svg width="108" height="95" viewBox="0 0 108 95" fill="none" xmlns="http://www.w3.org/2000/svg">
<rect x="20" y="20" width="88" height="75" rx="8" fill="url(#paint0_linear_290_206)"/>
<rect width="88" height="75" rx="8" fill="url(#paint1_linear_290_206)"/>
<path d="M34.5847 39.901C38.3429 40.8743 42.102 41.847 45.8621 42.8191C45.4677 44.4277 45.0618 46.0308 44.6845 47.6438C44.5678 48.1016 44.3824 48.2593 43.8983 48.1333C40.4749 47.2479 37.0428 46.3862 33.6138 45.5124C33.2923 45.4304 32.9952 45.3547 33.1167 44.8981C33.5428 43.2975 33.9561 41.6963 34.3845 40.0964C34.4056 40.0136 34.5168 39.9641 34.5847 39.901Z" fill="url(#paint2_linear_290_206)"/>
<path d="M45.8306 52.2747L48.6999 57.0752C45.4401 59.0109 42.1864 60.9568 38.9388 62.9129C38.5898 63.1222 38.4059 63.0805 38.2082 62.7267C37.4558 61.4249 36.6955 60.1237 35.8973 58.8492C35.5421 58.2788 35.9584 58.1515 36.3007 57.9483L45.8306 52.2747Z" fill="url(#paint3_linear_290_206)"/>
<path d="M47.7989 26.9654C49.6669 30.1179 51.5171 33.2789 53.4168 36.4085C53.7798 37.0197 53.7347 37.2676 53.1139 37.5969C51.9157 38.2278 50.7703 38.9267 49.6387 39.6524C49.1019 39.998 48.8696 39.8817 48.5666 39.361C47.4531 37.4407 46.2884 35.5489 45.142 33.6461C44.4972 32.5429 43.8616 31.4343 43.2071 30.339C43.0093 30.0059 42.8904 29.7396 43.3364 29.5057C44.8409 28.6909 46.2292 27.6702 47.7989 26.9654Z" fill="url(#paint4_linear_290_206)"/>
<path fill-rule="evenodd" clip-rule="evenodd" d="M63.1112 35.4427C63.0839 35.9364 63.0701 36.4282 63.0581 36.9231C63.0528 37.1558 63.0484 37.389 63.0439 37.6226L63.0439 37.6229C63.0335 38.163 63.0232 38.7051 63.0024 39.2483C62.9222 41.3338 62.9016 43.4397 62.9312 45.522C62.9546 47.3617 63.0001 49.2007 63.0456 51.0399L63.0456 51.04C63.0926 52.9415 63.1396 54.8432 63.1623 56.7461C63.1904 59.129 63.2239 61.5417 63.2699 63.9057C63.274 63.9693 63.2827 64.0371 63.2917 64.1061C63.3261 64.3717 63.3628 64.655 63.1439 64.7866C62.904 64.9276 62.711 64.7665 62.5176 64.6052C62.4331 64.5347 62.3485 64.4641 62.2599 64.4187C62.2293 64.4021 62.2025 64.3801 62.1755 64.3579C62.1543 64.3404 62.1328 64.3228 62.1093 64.3076C60.4623 63.2292 58.8473 62.0966 57.2427 60.9537C56.9715 60.7597 56.6954 60.5695 56.419 60.3791C55.926 60.0395 55.432 59.6991 54.963 59.3353C53.8187 58.4523 52.2851 58.0278 50.884 58.5188C49.5274 58.9979 48.2992 60.1839 48.0549 61.6415C47.9458 62.353 48.003 63.0802 48.2219 63.7659C48.4409 64.4516 48.8157 65.0774 49.3169 65.594C51.4332 67.7793 53.354 70.1375 55.2763 72.4974C55.4895 72.7592 55.7027 73.0209 55.9162 73.2825C56.4631 73.9529 57.0163 74.6171 57.5692 75.2809L57.5693 75.281L57.5693 75.281C59.0145 77.016 60.4579 78.7488 61.781 80.5866C61.9869 81.0886 62.4003 81.0687 62.7962 81.0496C62.8616 81.0464 62.9266 81.0433 62.99 81.0426C67.4053 80.9877 71.817 80.8956 76.2287 80.8036C76.457 80.799 76.6867 80.8047 76.9167 80.8104H76.9168H76.917C77.685 80.8296 78.4556 80.8488 79.181 80.4848C79.2631 80.4187 79.3283 80.3339 79.3711 80.2376L79.3802 80.208L79.4646 80.2143C79.6772 80.2304 79.8891 80.2465 80.1013 80.2421C84.028 80.1742 87.9556 80.1058 91.8842 80.0367C91.9711 79.8736 92.057 79.7096 92.1428 79.5456L92.1431 79.545C92.229 79.3809 92.315 79.2167 92.402 79.0534L92.5086 78.8651C93.3468 77.3846 94.1844 75.9053 94.6621 74.2556C95.2238 72.3161 95.3047 70.3397 95.2254 68.3406C95.1895 67.4286 95.1855 66.516 95.1815 65.6037V65.6036V65.6035V65.6034V65.6034C95.1745 63.9773 95.1674 62.3519 94.9795 60.7314L94.9816 60.7287C95.0148 60.5856 95.0577 60.4425 95.1006 60.2994C95.1944 59.987 95.2879 59.6751 95.2797 59.3653C95.2564 56.5972 95.2239 53.8242 95.1122 51.057C95.0587 50.2698 94.7615 49.5187 94.2619 48.908C93.7622 48.2973 93.0848 47.8573 92.3237 47.6491C91.577 47.4579 90.7907 47.4884 90.061 47.7367C89.3312 47.9851 88.6896 48.4406 88.2145 49.0476C88.1637 49.1114 88.1282 49.1919 88.0921 49.2736C88.0063 49.468 87.9174 49.6696 87.6119 49.6721C87.6006 49.5319 87.5885 49.3927 87.5766 49.2567L87.5765 49.2553C87.5636 49.1067 87.551 48.9619 87.5401 48.8239C87.4209 46.6356 86.238 45.2527 84.0843 44.7479C82.3416 44.3401 80.5411 45.2481 79.5512 46.985C79.4996 47.0807 79.4664 47.1875 79.4331 47.2947C79.3647 47.5143 79.2959 47.7354 79.0675 47.8655C79.0675 47.8655 79.0675 47.8655 79.0675 47.8655C78.9875 47.0392 78.6371 46.2624 78.0705 45.6556C77.5039 45.0488 76.7528 44.6461 75.9339 44.5098C75.0983 44.3673 74.239 44.5 73.4854 44.8879C72.7317 45.2758 72.1244 45.898 71.7547 46.6608C71.724 46.7265 71.7015 46.7966 71.6789 46.8668C71.6259 47.0316 71.5728 47.1966 71.4141 47.3053C71.4141 47.3063 71.414 47.3072 71.414 47.3081C71.4138 47.308 71.4136 47.3078 71.4135 47.3076C71.2836 47.1897 71.3258 46.5267 71.3516 46.1201C71.3597 45.9925 71.3662 45.8901 71.3653 45.8378C71.3409 44.6036 71.3469 43.3679 71.3528 42.132V42.1319V42.1318C71.3659 39.3949 71.3791 36.6573 71.0635 33.9344C70.9393 32.9664 70.7166 32.2224 70.0102 31.5237C69.4576 30.9935 68.7704 30.6246 68.0231 30.4571C66.5374 30.1096 64.8817 30.5513 63.9664 31.8223C63.2348 32.8332 63.1754 34.0875 63.118 35.2988L63.1112 35.4427Z" fill="url(#paint5_linear_290_206)"/>
<rect x="59.5501" y="78.9827" width="34" height="11" fill="url(#paint6_linear_290_206)"/>
<defs>
<linearGradient id="paint0_linear_290_206" x1="70" y1="-70.5" x2="64" y2="95" gradientUnits="userSpaceOnUse">
<stop stop-color="white" stop-opacity="0.33"/>
<stop offset="1" stop-color="white" stop-opacity="0"/>
</linearGradient>
<linearGradient id="paint1_linear_290_206" x1="50" y1="-90.5" x2="44" y2="75" gradientUnits="userSpaceOnUse">
<stop stop-color="white"/>
<stop offset="1" stop-color="white" stop-opacity="0"/>
</linearGradient>
<linearGradient id="paint2_linear_290_206" x1="33.701" y1="42.6052" x2="45.2204" y2="45.5408" gradientUnits="userSpaceOnUse">
<stop stop-color="#FEFEFE" stop-opacity="0.75"/>
<stop offset="1" stop-color="#FEFEFE" stop-opacity="0"/>
</linearGradient>
<linearGradient id="paint3_linear_290_206" x1="36.3387" y1="56.1658" x2="48.1636" y2="59.1793" gradientUnits="userSpaceOnUse">
<stop stop-color="#FEFEFE" stop-opacity="0.75"/>
<stop offset="1" stop-color="#FEFEFE" stop-opacity="0"/>
</linearGradient>
<linearGradient id="paint4_linear_290_206" x1="45.0501" y1="28.4827" x2="52.0501" y2="38.9827" gradientUnits="userSpaceOnUse">
<stop stop-color="#FEFEFE" stop-opacity="0.75"/>
<stop offset="1" stop-color="#FEFEFE" stop-opacity="0"/>
</linearGradient>
<linearGradient id="paint5_linear_290_206" x1="71.6406" y1="30.3428" x2="71.6406" y2="81.057" gradientUnits="userSpaceOnUse">
<stop stop-color="white" stop-opacity="0.75"/>
<stop offset="1" stop-color="white" stop-opacity="0"/>
</linearGradient>
<linearGradient id="paint6_linear_290_206" x1="76.5501" y1="78.9827" x2="76.5501" y2="89.9827" gradientUnits="userSpaceOnUse">
<stop stop-color="white" stop-opacity="0.75"/>
<stop offset="1" stop-color="white" stop-opacity="0"/>
</linearGradient>
</defs>
</svg>
