<svg width="56" height="56" viewBox="0 0 56 56" fill="none" xmlns="http://www.w3.org/2000/svg">
<path d="M15.4924 34.1558H5V44.6482H15.4924V34.1558Z" fill="#B6145A"/>
<path d="M33.9562 17.3965H24.2301V27.8889H33.9562V17.3965Z" fill="#B6145A"/>
<path d="M16.0439 20.6482H5.49414L10.2498 17.0886H20.8997L16.0439 20.6482Z" fill="#EC1651"/>
<path d="M29.6374 32.7451H19.9329L24.4665 29.3789H33.6482L29.6374 32.7451Z" fill="#EC1651"/>
<path d="M17.4548 21.7796V32.6444L22.4109 28.9775V18.1055L17.4548 21.7796Z" fill="#EC1651"/>
<path d="M30.0099 34.1844V44.6768L34.701 40.1934V29.8872L30.0099 34.1844Z" fill="#EC1651"/>
<path d="M35.6536 29.2998V39.4055L38.0815 37.1422V27.3804L35.6536 29.2998Z" fill="#EC1651"/>
<path d="M35.2095 17.3965V27.6955L38.0815 25.375V15.4985L35.2095 17.3965Z" fill="#EC1651"/>
<path d="M34.701 15.6991H24.7816L27.5103 13.9158H37.5372L34.701 15.6991Z" fill="#EC1651"/>
<path d="M22.7261 15.6991H12.2265L14.8621 13.9158H25.1038L22.7261 15.6991Z" fill="#EC1651"/>
<path d="M26.5578 56.0001H19.4315L22.3966 50.3635V42.5354H23.829V50.3635L26.5578 56.0001Z" fill="#EC1651"/>
<path d="M17.4548 34.1846V44.677H20.6061V40.745H25.6195V44.677H28.7708V34.1846H17.4548Z" fill="#B6145A"/>
<path d="M50.1997 21.2282C50.1936 20.3587 50.1338 19.4905 50.0207 18.6284L43.5748 20.9059H36.8997V22.3383H43.5748L49.9204 24.5584C50.1202 23.4599 50.2137 22.3447 50.1997 21.2282V21.2282Z" fill="#EC1651"/>
<path d="M19.5389 6.30705e-06C18.672 0.00376542 17.8061 0.0611646 16.9463 0.171889L19.2167 6.6534V14.4386H20.6491V6.6534L22.8693 0.307926C21.7712 0.102123 20.6562 -0.000928816 19.5389 6.30705e-06Z" fill="#EC1651"/>
</svg>
