<svg width="108" height="96" viewBox="0 0 108 96" fill="none" xmlns="http://www.w3.org/2000/svg">
<rect x="20" y="20" width="88" height="75" rx="8" fill="url(#paint0_linear_290_208)"/>
<rect width="88" height="75" rx="8" fill="url(#paint1_linear_290_208)"/>
<path d="M71.8486 46.0984C80.237 46.108 85.2329 50.921 85.9081 57.8421C86.5007 63.927 86.9215 70.0505 88.3338 76.0351C88.7985 78.077 89.4455 80.073 90.2672 81.9991C90.4474 82.4116 90.6976 82.8352 90.6289 83.2945C90.5285 83.9628 90.1641 84.4881 89.4573 84.6146C88.6652 84.7521 88.1083 84.3891 87.7837 83.663C86.7901 81.4278 86.015 79.1017 85.4694 76.7172C84.2868 71.6292 83.8935 66.4215 83.3255 61.2414C83.089 59.0934 82.9446 56.9138 82.2254 54.8443C80.6674 50.3201 75.5368 48.6561 72.0357 49.1429C67.3162 49.7948 64.8011 52.8806 63.4012 57.1187C62.5087 59.8264 62.5225 62.7045 61.9215 65.4727C60.9589 69.8731 59.8932 74.2447 57.8773 78.3151C57.4637 79.2058 56.9149 80.0273 56.2505 80.7505C55.4886 81.5412 54.6099 81.603 53.9416 80.9567C53.3146 80.3489 53.3778 79.5486 54.0874 78.729C55.6385 76.9413 56.3165 74.7095 57.0315 72.5271C58.4177 68.3 59.2895 63.9614 59.8382 59.5404C60.2727 56.0489 61.509 52.8297 63.9457 50.1812C66.4567 47.4612 69.5838 46.13 71.8486 46.0984Z" fill="url(#paint2_linear_290_208)"/>
<path d="M80.3759 60.3516C80.1641 64.0548 79.2345 67.6013 78.1165 71.1038C75.8805 78.1046 73.1426 84.8909 69.394 91.2344C69.1093 91.7171 68.7875 92.1768 68.4314 92.6095C67.8607 93.304 67.0054 93.4443 66.3894 92.93C65.6922 92.3483 65.6248 91.6071 66.1061 90.8673C70.4185 84.2542 73.1591 76.9454 75.5711 69.4935C76.412 66.9 77.0132 64.2348 77.3671 61.5315C77.5637 60.0106 77.4413 58.5144 76.7373 57.131C76.0579 55.793 74.9991 54.9432 73.4452 54.8758C71.8913 54.8084 70.864 55.6349 70.1449 56.9C69.1792 58.5709 68.5801 60.4281 68.3874 62.3483C67.6132 70.6362 64.2304 77.8667 59.5865 84.609C59.4875 84.7465 59.3872 84.8964 59.2799 85.0339C58.5772 85.9346 57.7672 86.134 57.0288 85.6032C56.2738 85.0532 56.2216 84.2515 56.8995 83.304C59.6521 79.4242 61.9044 75.2129 63.6033 70.7696C64.5659 68.2944 64.8409 65.6885 65.2342 63.0991C65.6289 60.5372 66.1707 58.0111 67.4166 55.6995C68.8522 53.0386 71.2793 51.625 73.7848 51.9179C76.8253 52.2727 79.0846 54.202 79.9441 57.1434C80.2439 58.1968 80.3099 59.2749 80.3759 60.3516Z" fill="url(#paint3_linear_290_208)"/>
<path d="M87.9006 47.4352C87.8264 48.0018 87.6008 48.468 87.0865 48.7237C86.4952 49.018 85.9273 48.919 85.4254 48.5065C84.0565 47.3619 82.5784 46.3546 81.0126 45.499C71.0469 40.1635 61.6575 45.136 58.1372 54.6107C57.2502 56.9938 57.0536 59.5131 56.641 61.9911C56.146 64.9559 55.5684 67.9042 54.3033 70.6544C53.8192 71.7119 53.2444 72.7171 52.407 73.5298C51.6259 74.293 50.7183 74.3549 50.0954 73.71C49.4724 73.065 49.5453 72.2757 50.281 71.4905C51.7717 69.8898 52.2983 67.8533 52.8566 65.8304C53.7133 62.7213 53.8041 59.4636 54.5824 56.3502C56.4526 48.8695 60.6509 43.3153 68.2884 41.0257C73.3187 39.5296 78.1096 40.5871 82.6476 43.0596C84.2369 43.942 85.7408 44.9699 87.1402 46.1302C87.5678 46.4781 87.8607 46.8866 87.9006 47.4352Z" fill="url(#paint4_linear_290_208)"/>
<path d="M73.5139 30.9471C66.0634 31.141 59.7268 34.0879 54.1025 38.8033C53.8618 39.0054 53.6349 39.2268 53.3957 39.4317C52.6091 40.1069 51.7455 40.1275 51.1597 39.4895C50.5739 38.8514 50.644 38.0373 51.4471 37.2783C52.0068 36.7502 52.5967 36.2524 53.1977 35.7739C58.1261 31.8451 63.6308 29.1374 69.9056 28.2615C76.4223 27.3511 82.4674 28.8487 88.0574 32.2714C90.2635 33.6301 92.3278 35.2066 94.2194 36.9771C95.182 37.8778 95.336 38.6988 94.6525 39.4097C94.0337 40.0533 93.1467 39.9598 92.2653 39.1526C89.0447 36.1933 85.5024 33.7442 81.3398 32.2934C78.8109 31.4161 76.2119 30.9127 73.5139 30.9471Z" fill="url(#paint5_linear_290_208)"/>
<path d="M73.2334 34.7495C80.402 34.8087 86.6094 37.0983 91.344 42.6827C94.5797 46.5015 96.3302 51.0353 97.4289 55.8524C97.6462 56.8054 97.8154 57.768 98.0134 58.7251C98.221 59.7248 97.7617 60.5897 96.905 60.7878C96.0799 60.9858 95.3112 60.3849 95.1297 59.3012C94.5164 55.6695 93.5813 52.1423 91.8665 48.8502C88.5346 42.4668 83.3503 38.7539 76.1611 37.8601C73.446 37.5383 70.697 37.6478 68.0161 38.1846C67.1072 38.3579 66.3385 37.9357 66.1817 37.1024C66.0112 36.1976 66.4306 35.576 67.2969 35.3642C69.2428 34.9049 71.234 34.7468 73.2334 34.7495Z" fill="url(#paint6_linear_290_208)"/>
<path d="M74.4628 59.8207C73.6377 70.6623 70.4749 80.8507 63.2747 89.5237C63.1222 89.7159 62.9593 89.8995 62.7865 90.0737C62.1622 90.6774 61.2642 90.7613 60.7238 90.2112C60.0926 89.58 59.9991 88.8485 60.5959 88.1485C61.9008 86.6391 63.0956 85.038 64.1713 83.3575C67.3341 78.3314 69.339 72.8625 70.512 67.0594C71.0159 64.5202 71.3554 61.9512 71.5282 59.3683C71.6011 58.3424 72.2158 57.8061 73.1605 57.8914C73.9842 57.967 74.4985 58.6326 74.4628 59.8207Z" fill="url(#paint7_linear_290_208)"/>
<path d="M80.9576 81.5657C79.5192 85.3212 77.9721 88.7893 76.0153 92.0594C75.4969 92.9298 74.9675 93.7962 74.3872 94.6254C73.8371 95.4119 72.9639 95.5948 72.2928 95.0819C71.5736 94.5319 71.4499 93.7673 71.9367 93.0412C75.4639 87.7744 77.7755 81.948 79.8368 76.0046C80.0898 75.2786 80.5244 74.7588 81.3495 74.7918C82.2062 74.8261 82.6187 75.3625 82.7989 76.1807C83.4864 79.3435 84.1162 82.5324 85.4474 85.5151C85.8297 86.3732 86.2587 87.212 86.6644 88.0605C87.1017 88.9763 86.9311 89.7629 86.212 90.174C85.4928 90.5852 84.581 90.2978 84.0956 89.4466C82.8682 87.2546 81.915 84.92 81.2573 82.4953C81.1913 82.267 81.1102 82.0415 80.9576 81.5657Z" fill="url(#paint8_linear_290_208)"/>
<path d="M48.0024 58.7428C48.8275 51.1108 51.4004 44.4414 57.6916 39.6518C58.8334 38.7849 60.0771 38.0612 61.3949 37.4969C62.5596 36.9991 63.4314 37.2453 63.789 38.146C64.1465 39.0467 63.767 39.6765 62.5843 40.2004C57.8071 42.3195 54.7928 46.0668 52.8539 50.789C51.7854 53.4018 51.2738 56.13 50.9617 58.9147C50.8338 60.0519 50.2136 60.5648 49.2524 60.4411C48.4562 60.3448 47.9611 59.6435 48.0024 58.7428Z" fill="url(#paint9_linear_290_208)"/>
<path d="M94.9262 76.7502C94.856 77.4378 94.5425 77.926 93.8481 78.1254C93.1041 78.3385 92.5376 78.0759 92.1622 77.4296C91.4168 76.1452 91.0222 74.7288 90.7526 73.289C90.0651 69.6683 89.9977 65.9829 89.6883 62.3237C89.4476 59.4648 89.1575 56.621 88.0725 53.923C87.6971 52.992 88.0615 52.1119 88.8577 51.819C89.6539 51.5261 90.3841 51.8988 90.7829 52.8105C91.9848 55.6158 92.3148 58.6012 92.6022 61.599C92.9474 65.2211 92.9639 68.8721 93.6157 72.4626C93.8012 73.6003 94.1321 74.7095 94.6003 75.7629C94.7364 76.0737 94.9688 76.3652 94.9262 76.7502Z" fill="url(#paint10_linear_290_208)"/>
<defs>
<linearGradient id="paint0_linear_290_208" x1="70" y1="-70.5" x2="64" y2="95" gradientUnits="userSpaceOnUse">
<stop stop-color="white" stop-opacity="0.33"/>
<stop offset="1" stop-color="white" stop-opacity="0"/>
</linearGradient>
<linearGradient id="paint1_linear_290_208" x1="50" y1="-90.5" x2="44" y2="75" gradientUnits="userSpaceOnUse">
<stop stop-color="white"/>
<stop offset="1" stop-color="white" stop-opacity="0"/>
</linearGradient>
<linearGradient id="paint2_linear_290_208" x1="72.0754" y1="46.0984" x2="72.0754" y2="84.6433" gradientUnits="userSpaceOnUse">
<stop stop-color="white" stop-opacity="0.75"/>
<stop offset="1" stop-color="white" stop-opacity="0"/>
</linearGradient>
<linearGradient id="paint3_linear_290_208" x1="68.4003" y1="51.8799" x2="68.4003" y2="93.2394" gradientUnits="userSpaceOnUse">
<stop stop-color="white" stop-opacity="0.75"/>
<stop offset="1" stop-color="white" stop-opacity="0"/>
</linearGradient>
<linearGradient id="paint4_linear_290_208" x1="68.7874" y1="40.3364" x2="68.7874" y2="74.1519" gradientUnits="userSpaceOnUse">
<stop stop-color="white" stop-opacity="0.75"/>
<stop offset="1" stop-color="white" stop-opacity="0"/>
</linearGradient>
<linearGradient id="paint5_linear_290_208" x1="72.9234" y1="28" x2="72.9234" y2="39.9535" gradientUnits="userSpaceOnUse">
<stop stop-color="white" stop-opacity="0.75"/>
<stop offset="1" stop-color="white" stop-opacity="0"/>
</linearGradient>
<linearGradient id="paint6_linear_290_208" x1="82.1036" y1="34.7495" x2="82.1036" y2="60.8252" gradientUnits="userSpaceOnUse">
<stop stop-color="white" stop-opacity="0.75"/>
<stop offset="1" stop-color="white" stop-opacity="0"/>
</linearGradient>
<linearGradient id="paint7_linear_290_208" x1="67.3301" y1="57.8826" x2="67.3301" y2="90.5791" gradientUnits="userSpaceOnUse">
<stop stop-color="white" stop-opacity="0.75"/>
<stop offset="1" stop-color="white" stop-opacity="0"/>
</linearGradient>
<linearGradient id="paint8_linear_290_208" x1="79.2739" y1="74.7903" x2="79.2739" y2="95.3703" gradientUnits="userSpaceOnUse">
<stop stop-color="white" stop-opacity="0.75"/>
<stop offset="1" stop-color="white" stop-opacity="0"/>
</linearGradient>
<linearGradient id="paint9_linear_290_208" x1="55.9591" y1="37.2437" x2="55.9591" y2="60.4591" gradientUnits="userSpaceOnUse">
<stop stop-color="white" stop-opacity="0.75"/>
<stop offset="1" stop-color="white" stop-opacity="0"/>
</linearGradient>
<linearGradient id="paint10_linear_290_208" x1="91.4277" y1="51.7209" x2="91.4277" y2="78.1981" gradientUnits="userSpaceOnUse">
<stop stop-color="white" stop-opacity="0.75"/>
<stop offset="1" stop-color="white" stop-opacity="0"/>
</linearGradient>
</defs>
</svg>
