<svg width="48" height="43" viewBox="0 0 48 43" fill="none" xmlns="http://www.w3.org/2000/svg">
<path d="M8.50396 14.3508V32.4414L24.0042 42.7776V24.6871L8.50396 14.3508Z" fill="#B6145A"/>
<path d="M39.5044 14.3508V32.4414L24.0042 42.7776V24.6871L39.5044 14.3508Z" fill="#B6145A"/>
<path d="M48 20.0145L32.4997 30.3508L24.0042 24.6871L39.5044 14.3508L48 20.0145Z" fill="#EC1651"/>
<path d="M0 20.0145L15.5002 30.3508L24.0041 24.6871L8.50391 14.3508L0 20.0145Z" fill="#EC1651"/>
<path d="M33.1411 9.16188C33.1411 10.9739 32.6037 12.7453 31.597 14.252C30.5902 15.7587 29.1594 16.9328 27.4852 17.6263C25.8111 18.3197 23.969 18.5012 22.1918 18.1477C20.4146 17.7942 18.782 16.9217 17.5007 15.6404C16.2194 14.3591 15.3469 12.7265 14.9933 10.9493C14.6398 9.17205 14.8212 7.32993 15.5147 5.65582C16.2081 3.9817 17.3825 2.55071 18.8891 1.54399C20.3958 0.537273 22.1671 0 23.9792 0C26.4091 0 28.7394 0.965349 30.4576 2.68353C32.1758 4.40172 33.1411 6.732 33.1411 9.16188V9.16188Z" fill="#EC1651"/>
<path d="M31.317 9.16179C31.3154 10.6078 30.8851 12.0209 30.0805 13.2224C29.276 14.4239 28.1333 15.3598 26.7969 15.912C25.4605 16.4642 23.9904 16.6079 22.5724 16.3248C21.1544 16.0417 19.8521 15.3445 18.8302 14.3214C17.8084 13.2984 17.1127 11.9954 16.8312 10.5771C16.5497 9.15874 16.6951 7.68876 17.2488 6.35299C17.8025 5.01723 18.7398 3.87562 19.9422 3.07244C21.1446 2.26926 22.5581 1.84058 24.0041 1.84058C24.9655 1.83948 25.9176 2.02828 26.8059 2.39591C27.6941 2.76355 28.5011 3.30285 29.1805 3.98302C29.8599 4.66318 30.3984 5.47081 30.765 6.3595C31.1316 7.24819 31.3192 8.20044 31.317 9.16179V9.16179Z" fill="#B6145A"/>
<path d="M24.7787 9.76147H23.2379C22.6038 9.75708 21.9971 9.50277 21.5495 9.05363C21.1019 8.60448 20.8496 7.9969 20.8475 7.36282C20.852 6.73704 21.1034 6.13836 21.5471 5.69702C21.7648 5.47621 22.0241 5.30061 22.31 5.18053C22.5959 5.06045 22.9028 4.99819 23.2129 4.99731H26.5445V6.20498H23.2129C23.0581 6.20244 22.9045 6.23147 22.7613 6.29018C22.6182 6.34888 22.4884 6.43617 22.38 6.54659C22.1578 6.767 22.032 7.06651 22.0302 7.37949C22.0271 7.53429 22.0559 7.68807 22.1146 7.83132C22.1733 7.97458 22.2609 8.10427 22.3717 8.21239C22.4793 8.32506 22.6085 8.41479 22.7516 8.47633C22.8947 8.53787 23.0488 8.56989 23.2046 8.57048H24.7454L24.7787 9.76147Z" fill="white"/>
<path d="M24.7787 13.3431H21.4471V12.1354H24.7787C24.9338 12.1354 25.0874 12.1044 25.2305 12.0443C25.3735 11.9843 25.503 11.8964 25.6116 11.7857C25.7214 11.6765 25.8086 11.5467 25.868 11.4038C25.9275 11.2608 25.9581 11.1076 25.9581 10.9528C25.9581 10.798 25.9275 10.6445 25.868 10.5016C25.8086 10.3586 25.7214 10.229 25.6116 10.1199C25.503 10.0091 25.3735 9.92108 25.2305 9.86102C25.0874 9.80095 24.9338 9.7699 24.7787 9.76992H23.2379V8.56226H24.7787C25.4045 8.56677 26.0032 8.81829 26.4445 9.26196C26.6689 9.48354 26.847 9.74738 26.9686 10.0383C27.0902 10.3293 27.1529 10.6415 27.1529 10.9568C27.1529 11.2722 27.0902 11.5844 26.9686 11.8753C26.847 12.1663 26.6689 12.4301 26.4445 12.6517C26.0013 13.0916 25.4031 13.3399 24.7787 13.3431V13.3431Z" fill="white"/>
<path d="M24.6039 4.55591H23.3962V13.7594H24.6039V4.55591Z" fill="white"/>
<path d="M37.2139 8.67871H34.3237V9.64487H37.2139V8.67871Z" fill="#B6145A"/>
<path d="M36.6392 5.27222L36.8891 6.20506L34.0906 6.95467L33.8407 6.02183L36.6392 5.27222Z" fill="#B6145A"/>
<path d="M36.8891 12.1104L36.6392 13.0433L33.8407 12.2937L34.0906 11.3608L36.8891 12.1104Z" fill="#B6145A"/>
<path d="M13.6763 8.67871H10.7861V9.64487H13.6763V8.67871Z" fill="#B6145A"/>
<path d="M11.3675 5.19262L11.1161 6.12549L13.9148 6.87958L14.1661 5.94671L11.3675 5.19262Z" fill="#B6145A"/>
<path d="M13.8956 11.3694L11.0964 12.1216L11.3471 13.0546L14.1463 12.3024L13.8956 11.3694Z" fill="#B6145A"/>
</svg>
