<svg width="59" height="36" viewBox="0 0 59 36" fill="none" xmlns="http://www.w3.org/2000/svg">
<path d="M58.2834 17.6351L55.2201 8.81334C54.0065 9.24019 52.5083 8.13523 51.8722 6.34411C51.2361 4.55299 51.7383 2.76205 52.9519 2.34356L52.115 0L43.3267 3.06324L44.1637 5.4068C45.3857 4.98832 46.8755 6.09308 47.5116 7.87583C48.1477 9.65858 47.6539 11.4581 46.4319 11.885L47.0764 13.7179L16.9454 23.8537L17.9498 26.7412L18.9458 29.6203L48.8843 18.8654L49.5203 20.7067C56.2747 18.3548 53.2532 31.4533 53.2532 31.4533L55.5214 31.7463C57.042 29.7681 58.0828 27.464 58.562 25.0154C59.0413 22.5668 58.9459 20.0406 58.2834 17.6351V17.6351Z" fill="#EC1651"/>
<path d="M27.4243 23.4185C27.0178 22.2488 26.1635 21.2885 25.0491 20.7486C23.9348 20.2087 22.6516 20.1334 21.4818 20.5393L2.95959 26.984C1.83687 27.4259 0.928776 28.2853 0.425563 29.3819C-0.0776497 30.4785 -0.136923 31.7273 0.260177 32.8667C0.657277 34.006 1.47992 34.9476 2.55574 35.4939C3.63157 36.0402 4.87708 36.1489 6.03129 35.7973L24.5451 29.3608C25.7148 28.9544 26.6751 28.1002 27.215 26.9858C27.7549 25.8715 27.8302 24.5883 27.4243 23.4185V23.4185Z" fill="#B6145A"/>
</svg>
