<svg width="135" height="28" viewBox="0 0 135 28" fill="none" xmlns="http://www.w3.org/2000/svg">
<g opacity="0.4">
<path d="M88.3658 25.3474C86.3579 25.3474 84.8842 24.9605 83.9079 24.1868C83.0789 23.5605 82.6184 22.5842 82.6184 21.5342H86.6158C86.8 22.3079 87.1316 22.75 88.4211 22.75C89.8395 22.75 90.4289 21.9763 90.4289 20.2263V18.6789H90.3553C89.8579 19.95 88.5684 20.7421 87.1868 20.6131C83.8895 20.6131 82.2132 18.7342 82.2132 15.0684C82.1395 13.5026 82.6737 11.9921 83.7053 10.8131C84.6263 9.85525 85.9158 9.32104 87.2605 9.33946C88.55 9.21052 89.8026 9.87367 90.4105 11.0158H90.4842V9.59736H94.4263V19.8579C94.4263 21.7368 93.9658 23.0816 93.0079 23.9289C91.9763 24.8868 90.4842 25.3474 88.3658 25.3474ZM88.4947 12.121C87.2053 12.121 86.4316 13.2263 86.4316 15.0868C86.4316 17.021 87.1316 18.0526 88.4211 18.0526C89.5263 18.0526 90.4105 17.15 90.4105 16.0447V14.571C90.4105 13.0237 89.7105 12.121 88.4947 12.121ZM50.8237 21.4605C49.4053 21.5895 48.0053 21.221 46.8263 20.4289C46.0526 19.7658 45.5921 18.8079 45.5368 17.7763H49.2211C49.2947 18.55 49.8105 18.9368 50.7684 18.9368C51.6711 18.9368 52.2421 18.6053 52.2421 17.9789C52.2421 17.4631 51.9105 17.2053 51.0816 17.0763L49.2026 16.8184C46.9553 16.5605 45.7211 15.271 45.7211 13.2631C45.7026 12.2316 46.1263 11.2553 46.8816 10.5553C49.1105 9.00788 52.0579 8.9342 54.3605 10.371C55.1342 11.0158 55.5763 11.9552 55.5763 12.95H51.9474C51.9289 12.2868 51.3763 11.771 50.7316 11.7895H50.6579C49.6263 11.7895 49.4237 12.25 49.4237 12.6921C49.4237 13.1342 49.6079 13.4658 50.5289 13.5947L52.5368 13.8526C53.4211 13.8895 54.2684 14.2395 54.9316 14.8105C55.5763 15.4368 55.9079 16.321 55.8342 17.2053C56 19.8579 53.9921 21.4789 50.8237 21.4605ZM39.2184 21.4053C35.4789 21.4053 33.3421 19.2131 33.3421 15.271C33.2868 13.6868 33.8395 12.1395 34.8895 10.9421C36.0316 9.81841 37.6158 9.22894 39.2184 9.32104C41.2263 9.32104 42.7737 9.89209 43.7316 10.9974C44.7079 12.25 45.2053 13.7974 45.15 15.3816V16.2842H37.4684C37.5974 17.9605 38.1132 18.7342 39.3474 18.7342C40.0842 18.8631 40.8026 18.3842 40.9684 17.6289H45.0395C44.7632 20.0421 42.7553 21.4053 39.2184 21.4053ZM39.2184 11.7895C38.1132 11.7895 37.5974 12.5631 37.4684 14.1105H40.95V13.9816C40.821 12.5079 40.25 11.7895 39.2184 11.7895ZM113.197 21.35C111.945 21.4237 110.729 20.9447 109.845 20.0605C108.997 19.0842 108.555 17.8131 108.611 16.5053C108.537 15.2342 108.979 13.9816 109.845 13.0237C110.747 12.1579 111.945 11.6974 113.197 11.7342C116.034 11.7342 117.784 13.5395 117.784 16.5053C117.784 19.471 115.961 21.35 113.197 21.35ZM113.197 13.6131C111.705 13.6131 111.392 15.2342 111.392 16.5789C111.392 18.5868 112.037 19.5447 113.197 19.5447C114.358 19.5447 115.003 18.5131 115.003 16.5789C115.003 14.6447 114.358 13.6131 113.197 13.6131ZM103.968 21.35C102.716 21.4237 101.5 20.9447 100.616 20.0605C99.8053 19.0842 99.3816 17.85 99.4553 16.5789C99.4553 13.6131 101.205 11.8079 104.042 11.8079C106.621 11.8079 108.168 13.0974 108.242 15.2895H105.608C105.553 14.5158 105.221 13.6131 104.061 13.6131C102.439 13.6131 102.255 15.4737 102.255 16.5789C102.255 18.5868 102.845 19.5447 104.061 19.5447C104.945 19.5447 105.663 18.8447 105.682 17.9605C105.682 17.9421 105.682 17.9421 105.682 17.9237V17.7395H108.261C108.261 18.7895 107.818 19.7658 107.026 20.4658C106.105 21.0553 105.055 21.3684 103.968 21.35ZM60.6237 21.2763C59.6289 21.3684 58.6342 21.0737 57.8421 20.4474C57.0684 19.6368 56.6632 18.5316 56.7368 17.4079V6.44736H60.7526V9.61578H63.1474V12.4526H60.8263V16.6526C60.8263 17.8684 61.2132 18.3289 62.3184 18.3289C62.5763 18.3474 62.8342 18.3105 63.0921 18.2553V21.1474C62.2447 21.2026 61.4711 21.2763 60.6237 21.2763ZM127.253 21.0921H124.545V15.7316C124.6 15.2158 124.508 14.7184 124.287 14.2579C124.029 13.871 123.587 13.6684 123.126 13.7421C122.021 13.7421 121.376 14.5158 121.376 15.8053V21.0921H118.668V11.9921H121.247V13.4842C121.782 12.4158 122.887 11.7526 124.084 11.8079C125.632 11.8079 126.534 12.4526 126.921 13.6868H126.976C127.492 12.5079 128.671 11.771 129.942 11.8079C132.005 11.8079 132.982 12.9131 132.982 15.1605V21.0921H130.274V15.75C130.329 15.2342 130.237 14.7368 130.016 14.2763C129.758 13.8895 129.316 13.6868 128.855 13.7605C127.75 13.7605 127.105 14.5342 127.105 15.8237L127.253 21.0921ZM73.721 21.0921H69.5947V9.61578H73.5921V11.4763H73.6658C74.3842 10.1131 75.8579 9.2842 77.4053 9.41315C78.8789 9.41315 79.9289 9.79999 80.5737 10.5737C81.2368 11.5684 81.5316 12.7474 81.4026 13.9263V21.0921H77.2763V14.571C77.3316 14 77.221 13.4105 76.9447 12.8947C76.65 12.4895 76.1526 12.2684 75.6553 12.3237C74.4395 12.3237 73.7947 13.0974 73.7947 14.6447L73.721 21.0921ZM13.9816 21.0921H9.85526V9.61578H13.8526V11.4763H13.9079C14.6263 10.1131 16.1 9.2842 17.6474 9.41315C19.121 9.41315 20.171 9.79999 20.8158 10.5737C21.4789 11.5684 21.7737 12.7474 21.6632 13.9263V21.0921H17.5368V14.571C17.5921 14 17.4816 13.4105 17.2053 12.8947C16.9105 12.4895 16.4132 12.2684 15.9158 12.3237C14.6816 12.3237 14.0368 13.0974 14.0368 14.6447L13.9816 21.0921ZM98.6263 21.0921H95.7895V18.3842H98.6263V21.0921ZM68.2316 21.0921H64.1053V9.61578H68.2316V21.0921ZM29.7868 21.0921H25.5316L21.4605 9.61578H25.6053L27.0789 14.5895C27.4658 16.0079 27.7974 17.5 27.7974 17.5553H27.871C28.0737 16.5789 28.2579 15.621 28.5158 14.6447L30.0079 9.67104H34.0053L29.7868 21.0921ZM8.30789 21.0921H4.05263V4.84473H8.30789V21.0921Z" fill="black"/>
<path d="M63.9763 8.38158L68.2316 7.6079V3.4079L63.9763 4.18158V8.38158Z" fill="black"/>
</g>
</svg>
