<svg width="57" height="36" viewBox="0 0 57 36" fill="none" xmlns="http://www.w3.org/2000/svg">
<path d="M14.9254 31.3745C14.9254 31.3014 14.911 31.2291 14.883 31.1615C14.8551 31.094 14.814 31.0326 14.7623 30.9809C14.7106 30.9292 14.6493 30.8884 14.5818 30.8604C14.5143 30.8324 14.4419 30.8179 14.3689 30.8179C14.2958 30.8179 14.2234 30.8324 14.1559 30.8604C14.0884 30.8884 14.027 30.9292 13.9753 30.9809C13.9236 31.0326 13.8826 31.094 13.8547 31.1615C13.8267 31.2291 13.8124 31.3014 13.8124 31.3745V33.1991C13.8123 33.3476 13.8706 33.49 13.9747 33.5958C14.0788 33.7016 14.2204 33.7622 14.3689 33.7646C14.4427 33.7646 14.5158 33.75 14.5839 33.7214C14.652 33.6929 14.7139 33.6511 14.7657 33.5985C14.8175 33.5458 14.8582 33.4835 14.8856 33.4149C14.913 33.3464 14.9266 33.273 14.9254 33.1991V31.3745Z" fill="#B6145A"/>
<path d="M12.0973 33.0532C12.0818 33.2005 12.1248 33.3479 12.2169 33.4639C12.309 33.5799 12.4429 33.6552 12.5899 33.6735C12.6625 33.6837 12.7366 33.6791 12.8075 33.6602C12.8784 33.6412 12.9447 33.6084 13.0026 33.5633C13.0605 33.5182 13.1087 33.4617 13.1444 33.3976C13.18 33.3335 13.2024 33.2629 13.2103 33.19L13.4384 31.3653C13.4511 31.2217 13.4076 31.0786 13.317 30.9664C13.2263 30.8542 13.0956 30.7815 12.9525 30.7637C12.8093 30.746 12.665 30.7846 12.5497 30.8713C12.4344 30.958 12.3572 31.0861 12.3345 31.2286L12.0973 33.0532Z" fill="#B6145A"/>
<path d="M10.4459 32.6699C10.4198 32.809 10.4477 32.9527 10.5239 33.0719C10.6 33.1912 10.7186 33.277 10.8557 33.3118C10.9929 33.3467 11.1382 33.3281 11.262 33.2597C11.3859 33.1913 11.479 33.0783 11.5225 32.9436L11.9787 31.119C11.9978 31.0477 12.0027 30.9732 11.9928 30.9001C11.9829 30.8269 11.9586 30.7566 11.9212 30.6929C11.8838 30.6292 11.8343 30.5735 11.7752 30.5292C11.7161 30.4849 11.6488 30.4528 11.5772 30.4348C11.4333 30.4016 11.2822 30.426 11.1561 30.5027C11.03 30.5794 10.9388 30.7023 10.9021 30.8453L10.4459 32.6699Z" fill="#B6145A"/>
<path d="M8.86772 32.0953C8.84124 32.1635 8.82847 32.2363 8.83019 32.3095C8.83192 32.3827 8.84808 32.4548 8.87775 32.5218C8.90741 32.5887 8.95008 32.6493 9.00315 32.6998C9.05622 32.7502 9.11865 32.7898 9.18701 32.816C9.25459 32.844 9.32714 32.8582 9.40028 32.8577C9.47342 32.8572 9.54569 32.8418 9.61288 32.8129C9.68007 32.784 9.74075 32.7421 9.7914 32.6893C9.84205 32.6365 9.88165 32.5741 9.90778 32.5058L10.5829 30.7724C10.6373 30.6345 10.6348 30.4806 10.5758 30.3446C10.5167 30.2086 10.4061 30.1014 10.2682 30.047C10.1302 29.9926 9.97631 29.9951 9.84029 30.0541C9.70427 30.1132 9.59727 30.2238 9.54283 30.3617L8.86772 32.0953Z" fill="#B6145A"/>
<path d="M7.38977 31.347C7.32203 31.4791 7.30898 31.6325 7.35335 31.7742C7.39773 31.9158 7.49599 32.0344 7.62698 32.1043C7.75772 32.1716 7.90978 32.1844 8.04995 32.1399C8.19013 32.0955 8.30697 31.9974 8.37503 31.8671L9.28735 30.234C9.32245 30.1694 9.34441 30.0984 9.35194 30.0253C9.35947 29.9521 9.35243 29.8783 9.33122 29.8079C9.31002 29.7375 9.27511 29.6718 9.22843 29.615C9.18176 29.5582 9.12422 29.5112 9.05927 29.4767C8.92827 29.4082 8.7757 29.3938 8.63418 29.4364C8.49266 29.479 8.37348 29.5754 8.30209 29.7048L7.38977 31.347Z" fill="#B6145A"/>
<path d="M6.03043 30.4347C5.94801 30.5564 5.91624 30.7053 5.94178 30.8501C5.96732 30.9948 6.0482 31.1241 6.1673 31.2102C6.289 31.2926 6.43795 31.3244 6.58269 31.2989C6.72744 31.2733 6.8566 31.1923 6.94274 31.0732L8.00106 29.5497C8.04299 29.4898 8.07267 29.4222 8.08848 29.3508C8.1043 29.2795 8.10587 29.2057 8.09316 29.1337C8.08045 29.0617 8.05372 28.9929 8.01442 28.9312C7.97513 28.8696 7.92409 28.8161 7.86419 28.7742C7.80429 28.7323 7.73668 28.7027 7.66529 28.6869C7.5939 28.6711 7.52013 28.6693 7.44812 28.682C7.37612 28.6947 7.30732 28.7215 7.24566 28.7608C7.184 28.8001 7.13068 28.8513 7.08874 28.9112L6.03043 30.4347Z" fill="#B6145A"/>
<path d="M4.78965 29.3674C4.6876 29.4744 4.63062 29.6165 4.63062 29.7643C4.63062 29.9122 4.6876 30.0541 4.78965 30.161C4.89392 30.2647 5.03489 30.323 5.18189 30.323C5.32889 30.323 5.46997 30.2647 5.57423 30.161L6.80584 28.7652C6.8554 28.7112 6.8936 28.6478 6.91821 28.5787C6.94281 28.5097 6.95331 28.4365 6.94905 28.3634C6.9448 28.2902 6.92592 28.2186 6.89348 28.1529C6.86104 28.0871 6.81578 28.0286 6.76029 27.9807C6.6501 27.8829 6.50555 27.8327 6.35848 27.8413C6.2114 27.8498 6.0737 27.9165 5.9756 28.0264L4.78965 29.3674Z" fill="#B6145A"/>
<path d="M3.6766 28.1723C3.56669 28.2704 3.50017 28.4081 3.49162 28.5552C3.48307 28.7023 3.53314 28.8468 3.63094 28.957C3.73786 29.0591 3.88004 29.1158 4.02785 29.1158C4.17566 29.1158 4.31773 29.0591 4.42465 28.957L5.81138 27.7253C5.91344 27.6184 5.97042 27.4762 5.97042 27.3284C5.97042 27.1806 5.91344 27.0384 5.81138 26.9315C5.71045 26.823 5.5716 26.758 5.42372 26.7495C5.27584 26.741 5.13036 26.7899 5.01767 26.886L3.6766 28.1723Z" fill="#B6145A"/>
<path d="M2.71867 26.8493C2.65873 26.8912 2.60764 26.9444 2.56832 27.0061C2.529 27.0677 2.50218 27.1365 2.48947 27.2085C2.47676 27.2806 2.47842 27.3545 2.49426 27.4259C2.5101 27.4973 2.53983 27.5647 2.5818 27.6246C2.66794 27.7437 2.7971 27.8247 2.94184 27.8502C3.08659 27.8758 3.23554 27.844 3.35724 27.7616L4.88085 26.694C4.94078 26.6521 4.99187 26.5989 5.03119 26.5372C5.07051 26.4756 5.09733 26.4068 5.11004 26.3348C5.12275 26.2627 5.12109 26.189 5.10525 26.1176C5.08941 26.0462 5.05969 25.9786 5.01772 25.9187C4.93157 25.7996 4.80242 25.7186 4.65767 25.6931C4.51292 25.6675 4.36398 25.6993 4.24227 25.7817L2.71867 26.8493Z" fill="#B6145A"/>
<path d="M1.9157 25.4078C1.78629 25.4792 1.68993 25.5983 1.64731 25.7399C1.60468 25.8814 1.61917 26.0341 1.68762 26.1651C1.7221 26.23 1.76912 26.2874 1.82594 26.3341C1.88276 26.3808 1.94831 26.4158 2.01872 26.437C2.08913 26.4582 2.16296 26.4653 2.2361 26.4577C2.30925 26.4502 2.38019 26.4282 2.44481 26.3931L4.08702 25.4808C4.21472 25.4078 4.30953 25.2885 4.35196 25.1476C4.39439 25.0067 4.38122 24.855 4.3151 24.7235C4.24205 24.5958 4.12287 24.5009 3.982 24.4585C3.84113 24.416 3.68934 24.4293 3.55791 24.4955L1.9157 25.4078Z" fill="#B6145A"/>
<path d="M1.28635 23.8752C1.14981 23.9302 1.04004 24.0362 0.980424 24.1708C0.920804 24.3053 0.915939 24.4579 0.966949 24.596C0.992173 24.6651 1.03107 24.7284 1.08132 24.7822C1.13158 24.8359 1.19223 24.8789 1.25951 24.9087C1.32679 24.9385 1.39942 24.9546 1.473 24.9557C1.54658 24.9568 1.61956 24.9429 1.68771 24.9152L3.42114 24.2492C3.48943 24.2228 3.55189 24.1834 3.60489 24.1329C3.6579 24.0824 3.70042 24.0219 3.73007 23.9549C3.75972 23.888 3.77584 23.8159 3.77762 23.7427C3.7794 23.6695 3.76678 23.5967 3.74042 23.5284C3.71407 23.4601 3.67453 23.3977 3.62405 23.3447C3.57356 23.2917 3.51312 23.2491 3.44619 23.2195C3.37927 23.1898 3.30722 23.1738 3.23404 23.172C3.16086 23.1703 3.08795 23.1829 3.01966 23.2092L1.28635 23.8752Z" fill="#B6145A"/>
<path d="M0.839234 22.2604C0.767949 22.2789 0.700979 22.3113 0.642227 22.3557C0.583474 22.4001 0.534057 22.4559 0.496782 22.5194C0.459507 22.5829 0.435073 22.6531 0.42495 22.7261C0.414827 22.7991 0.419187 22.8733 0.437758 22.9446C0.456328 23.0159 0.488763 23.0827 0.533199 23.1415C0.577635 23.2002 0.633259 23.2497 0.696796 23.2869C0.760334 23.3242 0.830527 23.3488 0.903493 23.3589C0.976458 23.369 1.05071 23.3645 1.12199 23.346L2.94663 22.8898C3.08922 22.8532 3.2115 22.7617 3.28674 22.6352C3.36197 22.5087 3.38409 22.3574 3.3481 22.2147C3.3311 22.1435 3.29996 22.0764 3.25656 22.0174C3.21316 21.9584 3.15836 21.9087 3.09541 21.8712C3.03246 21.8338 2.96261 21.8095 2.89005 21.7995C2.81749 21.7896 2.7436 21.7942 2.67289 21.8133L0.839234 22.2604Z" fill="#B6145A"/>
<path d="M0.602027 20.5816C0.455032 20.5999 0.321068 20.6752 0.228949 20.7912C0.136829 20.9072 0.0938705 21.0548 0.109341 21.2022C0.129782 21.3493 0.20728 21.4823 0.325058 21.5728C0.442836 21.6633 0.59139 21.7037 0.738785 21.6855L2.56342 21.4574C2.70875 21.437 2.84048 21.3609 2.9307 21.2452C3.02093 21.1294 3.06261 20.983 3.04697 20.8371C3.02874 20.6908 2.95314 20.5576 2.83682 20.4669C2.7205 20.3763 2.57303 20.3355 2.42666 20.3536L0.602027 20.5816Z" fill="#B6145A"/>
<path d="M0.556499 18.8209C0.409636 18.8233 0.269463 18.8826 0.165602 18.9864C0.061741 19.0903 0.00235026 19.2307 4.79718e-09 19.3775C-1.93056e-05 19.526 0.0582605 19.6684 0.162373 19.7742C0.266485 19.88 0.40807 19.9407 0.556499 19.9431H2.38113C2.45499 19.9431 2.52806 19.9284 2.59618 19.8998C2.6643 19.8713 2.72613 19.8295 2.77793 19.7769C2.82973 19.7242 2.87056 19.6617 2.89798 19.5931C2.92541 19.5246 2.93884 19.4514 2.93763 19.3775C2.93763 19.2299 2.87895 19.0883 2.77459 18.984C2.67022 18.8796 2.52873 18.8209 2.38113 18.8209H0.556499Z" fill="#B6145A"/>
<path d="M0.738785 17.1148C0.59139 17.0967 0.442836 17.1373 0.325058 17.2278C0.20728 17.3182 0.129782 17.4513 0.109341 17.5984C0.0938705 17.7457 0.136829 17.8933 0.228949 18.0093C0.321068 18.1253 0.455032 18.2006 0.602027 18.2189L2.42666 18.447C2.49864 18.4573 2.57192 18.4529 2.64226 18.4345C2.7126 18.4162 2.77851 18.384 2.83626 18.3399C2.89402 18.2957 2.94242 18.2403 2.97859 18.1773C3.01477 18.1142 3.038 18.0447 3.04697 17.9726C3.06515 17.8252 3.02462 17.6765 2.93416 17.5588C2.84369 17.441 2.71051 17.3634 2.56342 17.3429L0.738785 17.1148Z" fill="#B6145A"/>
<path d="M1.12205 15.4545C0.978264 15.4207 0.826926 15.4435 0.699522 15.5182C0.572119 15.5929 0.478432 15.7138 0.437811 15.8559C0.40398 15.9996 0.426769 16.151 0.501512 16.2784C0.576256 16.4058 0.697273 16.4995 0.839287 16.5401L2.66392 16.9963C2.73521 17.0139 2.80925 17.0174 2.88186 17.0063C2.95447 16.9952 3.02413 16.9698 3.08689 16.9317C3.14965 16.8935 3.20422 16.8431 3.24748 16.7838C3.29074 16.7244 3.32191 16.6572 3.33902 16.5858C3.37501 16.443 3.35289 16.2918 3.27766 16.1652C3.20243 16.0387 3.08014 15.9472 2.93755 15.9107L1.12205 15.4545Z" fill="#B6145A"/>
<path d="M1.68771 13.8855C1.62021 13.8579 1.54783 13.8442 1.47489 13.8454C1.40196 13.8466 1.32996 13.8625 1.26341 13.8924C1.19686 13.9223 1.13706 13.9655 1.08767 14.0191C1.03828 14.0728 1.00032 14.1359 0.976082 14.2047C0.925071 14.3427 0.929936 14.4953 0.989557 14.6299C1.04918 14.7644 1.15895 14.8705 1.29548 14.9254L3.02879 15.5914C3.09708 15.6178 3.16988 15.6304 3.24306 15.6286C3.31624 15.6268 3.3884 15.6108 3.45533 15.5812C3.52225 15.5515 3.58269 15.5088 3.63318 15.4558C3.68366 15.4028 3.7232 15.3405 3.74956 15.2722C3.77591 15.204 3.78854 15.1311 3.78675 15.058C3.78497 14.9848 3.76885 14.9126 3.7392 14.8457C3.70955 14.7788 3.66703 14.7182 3.61402 14.6677C3.56102 14.6173 3.49856 14.5778 3.43027 14.5515L1.68771 13.8855Z" fill="#B6145A"/>
<path d="M2.44481 12.4348C2.38019 12.3997 2.30925 12.3778 2.2361 12.3702C2.16296 12.3627 2.08913 12.3697 2.01872 12.3909C1.94831 12.4122 1.88276 12.4472 1.82594 12.4939C1.76912 12.5405 1.7221 12.598 1.68762 12.6629C1.61917 12.7939 1.60468 12.9466 1.64731 13.0881C1.68993 13.2296 1.78629 13.3488 1.9157 13.4202L3.55791 14.3325C3.62261 14.3673 3.69344 14.3889 3.7665 14.3962C3.83957 14.4036 3.91347 14.3965 3.98378 14.3753C4.0541 14.3541 4.11948 14.3193 4.17633 14.2728C4.23319 14.2263 4.28035 14.1691 4.3151 14.1044C4.34984 14.0397 4.37146 13.9688 4.3788 13.8957C4.38614 13.8227 4.37904 13.7489 4.35786 13.6786C4.33668 13.6083 4.30188 13.5428 4.2554 13.4859C4.20893 13.429 4.15171 13.3819 4.08702 13.3471L2.44481 12.4348Z" fill="#B6145A"/>
<path d="M3.35724 11.0388C3.23554 10.9564 3.08659 10.9246 2.94184 10.9501C2.7971 10.9757 2.66794 11.0567 2.5818 11.1758C2.53983 11.2357 2.5101 11.3031 2.49426 11.3744C2.47842 11.4458 2.47676 11.5198 2.48947 11.5918C2.50218 11.6639 2.529 11.7326 2.56832 11.7943C2.60764 11.856 2.65873 11.9092 2.71867 11.9511L4.24227 13.0184C4.36398 13.1009 4.51292 13.1329 4.65767 13.1073C4.80242 13.0818 4.93157 13.0008 5.01772 12.8817C5.05969 12.8218 5.08941 12.7542 5.10525 12.6828C5.12109 12.6114 5.12275 12.5376 5.11004 12.4656C5.09733 12.3936 5.07051 12.3248 5.03119 12.2632C4.99187 12.2015 4.94078 12.148 4.88085 12.1061L3.35724 11.0388Z" fill="#B6145A"/>
<path d="M4.42465 9.79831C4.31773 9.69625 4.17566 9.63928 4.02785 9.63928C3.88004 9.63928 3.73786 9.69625 3.63094 9.79831C3.53314 9.9085 3.48307 10.0528 3.49162 10.1999C3.50017 10.347 3.56669 10.4847 3.6766 10.5828L5.06322 11.8236C5.17591 11.9198 5.32139 11.9687 5.46927 11.9602C5.61714 11.9517 5.75611 11.8864 5.85704 11.778C5.9591 11.671 6.01596 11.5289 6.01596 11.3811C6.01596 11.2332 5.9591 11.0911 5.85704 10.9841L4.42465 9.79831Z" fill="#B6145A"/>
<path d="M5.61989 8.69419C5.52306 8.58298 5.38602 8.51491 5.23891 8.50465C5.0918 8.49438 4.94655 8.54293 4.8352 8.63962C4.73315 8.74654 4.67628 8.8885 4.67628 9.03631C4.67628 9.18412 4.73315 9.3263 4.8352 9.43322L6.06692 10.82C6.16503 10.9299 6.30272 10.9965 6.4498 11.0051C6.59687 11.0136 6.74132 10.9634 6.8515 10.8656C6.90699 10.8177 6.95225 10.7592 6.98469 10.6934C7.01713 10.6277 7.03601 10.5561 7.04026 10.483C7.04452 10.4098 7.03413 10.3364 7.00953 10.2674C6.98492 10.1983 6.94662 10.1349 6.89705 10.0809L5.61989 8.69419Z" fill="#B6145A"/>
<path d="M6.94274 7.72716C6.8566 7.60807 6.72744 7.52708 6.58269 7.50153C6.43795 7.47599 6.289 7.50776 6.1673 7.59018C6.0482 7.67632 5.96732 7.80559 5.94178 7.95034C5.91624 8.09509 5.94801 8.24403 6.03043 8.36574L7.08874 9.88923C7.12983 9.95016 7.1827 10.0022 7.24432 10.0423C7.30595 10.0823 7.37509 10.1094 7.44746 10.1222C7.51982 10.135 7.59402 10.1332 7.66562 10.1166C7.73723 10.1001 7.80473 10.0694 7.86419 10.0262C7.98328 9.94007 8.06416 9.8108 8.08971 9.66605C8.11525 9.52131 8.08348 9.37236 8.00106 9.25066L6.94274 7.72716Z" fill="#B6145A"/>
<path d="M8.37503 6.96099C8.30371 6.83394 8.1862 6.73932 8.04683 6.69683C7.90747 6.65434 7.75705 6.66726 7.62698 6.73291C7.49599 6.80275 7.39773 6.92134 7.35335 7.063C7.30898 7.20466 7.32203 7.35811 7.38977 7.49021L8.30209 9.1322C8.37348 9.26161 8.49266 9.35796 8.63418 9.40059C8.7757 9.44322 8.92827 9.42872 9.05927 9.36027C9.12422 9.3258 9.18176 9.279 9.22843 9.22218C9.27511 9.16536 9.31002 9.0997 9.33122 9.02929C9.35243 8.95888 9.35947 8.88505 9.35194 8.8119C9.34441 8.73876 9.32245 8.66782 9.28735 8.6032L8.37503 6.96099Z" fill="#B6145A"/>
<path d="M8.53926 8.52089L8.01015 7.53552C9.97499 6.48569 12.1687 5.93728 14.3964 5.93897V7.06132C12.3532 7.05529 10.3406 7.55674 8.53926 8.52089Z" fill="#B6145A"/>
<path d="M30.6355 7.37146H28.4094V9.60663H30.6355V7.37146Z" fill="white"/>
<path d="M39.7586 7.37146H37.5326V9.60663H39.7586V7.37146Z" fill="white"/>
<path d="M53.7718 2.98307C52.8239 2.0362 51.6987 1.28544 50.4604 0.773557C49.2222 0.261677 47.8953 -0.00108545 46.5555 4.08064e-06H21.6218C20.2816 -0.00119468 18.9543 0.261734 17.7158 0.773779C16.4772 1.28583 15.3518 2.03694 14.4037 2.98418C13.4556 3.93143 12.7035 5.05615 12.1903 6.29422C11.6771 7.5323 11.4131 8.85942 11.4131 10.1996V12.8453C11.4155 13.3454 11.6151 13.8244 11.9688 14.1781C12.3224 14.5317 12.8014 14.7314 13.3015 14.7338H20.8646C21.3648 14.7314 21.8437 14.5317 22.1974 14.1781C22.551 13.8244 22.7507 13.3454 22.7531 12.8453V9.25079C22.7531 8.74993 22.9521 8.26966 23.3062 7.9155C23.6604 7.56134 24.1408 7.36223 24.6416 7.36223H43.5357C44.0358 7.36463 44.5147 7.56431 44.8684 7.91795C45.222 8.27159 45.4218 8.75066 45.4242 9.25079V12.8453C45.4266 13.3454 45.6263 13.8244 45.9799 14.1781C46.3336 14.5317 46.8125 14.7314 47.3127 14.7338H54.8667C55.3675 14.7338 55.8478 14.5349 56.202 14.1808C56.5561 13.8266 56.7551 13.3461 56.7551 12.8453V10.1996C56.7562 8.85978 56.4933 7.53289 55.9814 6.29467C55.4696 5.05645 54.7187 3.93103 53.7718 2.98307Z" fill="#EC1651"/>
<path d="M22.7531 12.8453V11.3309H11.4131V12.8453C11.4155 13.3454 11.6151 13.8245 11.9688 14.1781C12.3224 14.5318 12.8014 14.7315 13.3015 14.7339H20.8646C21.3648 14.7315 21.8437 14.5318 22.1974 14.1781C22.551 13.8245 22.7507 13.3454 22.7531 12.8453Z" fill="#B6145A"/>
<path d="M56.7551 12.8453V11.3309H45.4242V12.8453C45.4266 13.3454 45.6263 13.8245 45.9799 14.1781C46.3336 14.5318 46.8125 14.7315 47.3127 14.7339H54.8667C55.3675 14.7339 55.8478 14.535 56.202 14.1808C56.5561 13.8266 56.7551 13.3462 56.7551 12.8453Z" fill="#B6145A"/>
<path d="M43.9371 10.3456C43.7656 10.1103 43.5403 9.91964 43.2801 9.78919C43.0211 9.6644 42.7375 9.59877 42.45 9.59741H25.7272C25.4395 9.59784 25.1558 9.66352 24.897 9.78919C24.6368 9.91964 24.4115 10.1103 24.2401 10.3456L16.6131 20.5635C16.2559 21.0417 15.9786 21.5747 15.792 22.1418C15.6005 22.7089 15.505 23.3041 15.5093 23.9027V33.4181C15.5108 34.1024 15.783 34.7584 16.2665 35.2427C16.753 35.7228 17.4075 35.9945 18.0911 36H50.0221C50.3643 36.0024 50.7035 35.9367 51.0201 35.8069C51.3366 35.6771 51.6242 35.4857 51.8661 35.2438C52.1081 35.0019 52.2995 34.7142 52.4293 34.3976C52.5591 34.0811 52.6246 33.7419 52.6222 33.3998V23.9209C52.6219 23.3227 52.5265 22.7282 52.3395 22.16C52.1529 21.593 51.8756 21.06 51.5183 20.5817L43.9371 10.3456Z" fill="#EC1651"/>
<path d="M52.668 33.418V33.0441H15.5094V33.418C15.5109 34.1024 15.7831 34.7583 16.2666 35.2427C16.7531 35.7228 17.4076 35.9945 18.0912 36H50.0222C50.3643 36.0024 50.7036 35.9367 51.0202 35.8069C51.3367 35.677 51.6243 35.4857 51.8662 35.2438C52.1082 35.0019 52.2996 34.7142 52.4294 34.3976C52.5592 34.0811 52.6247 33.7419 52.6223 33.3998L52.668 33.418Z" fill="#B6145A"/>
<path d="M34.084 12.0151C32.2476 12.0169 30.4529 12.5631 28.9268 13.5847C27.4007 14.6063 26.2117 16.0576 25.5101 17.7548C24.8086 19.452 24.626 21.319 24.9854 23.12C25.3448 24.9209 26.23 26.5749 27.5292 27.8729C28.8284 29.1708 30.4834 30.0544 32.2847 30.412C34.086 30.7696 35.9529 30.5851 37.6494 29.8819C39.3459 29.1787 40.7959 27.9885 41.816 26.4614C42.8361 24.9343 43.3805 23.1389 43.3805 21.3025C43.3805 20.082 43.14 18.8737 42.6727 17.7463C42.2054 16.6189 41.5205 15.5946 40.6571 14.732C39.7937 13.8695 38.7688 13.1856 37.641 12.7194C36.5131 12.2532 35.3044 12.0139 34.084 12.0151ZM27.1139 17.2792C27.2815 17.036 27.5345 16.8648 27.8226 16.7995C28.1106 16.7341 28.4127 16.7794 28.6688 16.9264C28.925 17.0734 29.1164 17.3114 29.2053 17.5931C29.2941 17.8747 29.2738 18.1796 29.1484 18.447C28.9808 18.6902 28.7279 18.8614 28.4399 18.9268C28.1518 18.9921 27.8496 18.9469 27.5935 18.7998C27.3373 18.6528 27.1459 18.4146 27.057 18.133C26.9682 17.8513 26.9885 17.5466 27.1139 17.2792ZM26.0375 21.3025C26.0357 21.0693 26.1031 20.8408 26.2313 20.6461C26.3596 20.4513 26.5427 20.2991 26.7576 20.2086C26.9724 20.1181 27.2093 20.0936 27.4382 20.138C27.6671 20.1824 27.8777 20.2936 28.0432 20.4578C28.2087 20.6221 28.3217 20.8318 28.3678 21.0603C28.414 21.2889 28.3912 21.5261 28.3024 21.7417C28.2136 21.9573 28.0628 22.1416 27.8691 22.2713C27.6754 22.4011 27.4474 22.4702 27.2143 22.4702C27.0602 22.4714 26.9073 22.4422 26.7646 22.384C26.6218 22.3259 26.4921 22.24 26.3827 22.1315C26.2733 22.0229 26.1865 21.8938 26.1272 21.7515C26.068 21.6092 26.0375 21.4566 26.0375 21.3025ZM28.7196 25.7547C28.5866 25.8313 28.4398 25.8811 28.2876 25.901C28.1354 25.921 27.9808 25.9108 27.8326 25.8709C27.6843 25.8311 27.5454 25.7624 27.4236 25.6689C27.3019 25.5754 27.1997 25.4587 27.1231 25.3257C27.0464 25.1927 26.9967 25.046 26.9767 24.8938C26.9568 24.7416 26.967 24.587 27.0068 24.4388C27.0466 24.2905 27.1153 24.1516 27.2088 24.0298C27.3023 23.9081 27.4188 23.8058 27.5518 23.7291C27.6845 23.6511 27.8313 23.6004 27.9838 23.5797C28.1363 23.559 28.2915 23.5689 28.4401 23.6089C28.5887 23.6488 28.7278 23.7179 28.8495 23.8122C28.9711 23.9065 29.0727 24.0241 29.1484 24.1581C29.3011 24.4272 29.3418 24.7456 29.2615 25.0444C29.1813 25.3432 28.9866 25.5983 28.7196 25.7547ZM30.0607 14.3325C30.3291 14.196 30.6396 14.1674 30.9283 14.2529C31.2171 14.3385 31.4621 14.5315 31.6129 14.7922C31.7637 15.0528 31.8088 15.3612 31.739 15.6542C31.6692 15.9471 31.4898 16.2023 31.2376 16.3669C30.9692 16.5034 30.6587 16.5317 30.37 16.4462C30.0812 16.3607 29.8363 16.1678 29.6855 15.9072C29.5347 15.6465 29.4895 15.3379 29.5593 15.045C29.6291 14.7521 29.8085 14.4971 30.0607 14.3325ZM31.6664 27.8437C31.5083 28.1113 31.2515 28.3063 30.9512 28.3865C30.6509 28.4667 30.3311 28.4258 30.0607 28.2727C29.8621 28.1561 29.7023 27.9833 29.6016 27.7762C29.5009 27.569 29.4637 27.3367 29.4947 27.1084C29.5257 26.8802 29.6235 26.6663 29.7758 26.4935C29.9281 26.3207 30.128 26.1967 30.3506 26.1373C30.5731 26.0779 30.8083 26.0855 31.0265 26.1594C31.2446 26.2332 31.436 26.3701 31.5766 26.5525C31.7173 26.7349 31.8009 26.9548 31.8168 27.1846C31.8328 27.4144 31.7804 27.6436 31.6664 27.8437ZM34.084 13.2466C34.3172 13.2448 34.5456 13.3124 34.7403 13.4406C34.9351 13.5688 35.0873 13.7521 35.1778 13.967C35.2682 14.1818 35.2929 14.4187 35.2485 14.6476C35.2041 14.8765 35.0927 15.0871 34.9285 15.2526C34.7643 15.4181 34.5547 15.5309 34.3261 15.5771C34.0976 15.6232 33.8605 15.6006 33.6449 15.5118C33.4293 15.423 33.245 15.2721 33.1153 15.0784C32.9855 14.8847 32.9162 14.6567 32.9162 14.4236C32.9186 14.1146 33.0424 13.819 33.2609 13.6006C33.4794 13.3821 33.7751 13.2582 34.084 13.2558V13.2466ZM34.084 29.34C33.791 29.3141 33.5182 29.1795 33.3195 28.9625C33.1208 28.7455 33.0107 28.462 33.0107 28.1678C33.0107 27.8736 33.1208 27.5898 33.3195 27.3728C33.5182 27.1558 33.791 27.0212 34.084 26.9953C34.2467 26.9809 34.4105 27.0006 34.5651 27.053C34.7198 27.1054 34.8619 27.1893 34.9823 27.2995C35.1027 27.4098 35.1988 27.5439 35.2646 27.6933C35.3304 27.8428 35.3644 28.0045 35.3644 28.1678C35.3644 28.331 35.3304 28.4925 35.2646 28.642C35.1988 28.7914 35.1027 28.9255 34.9823 29.0358C34.8619 29.146 34.7198 29.2299 34.5651 29.2823C34.4105 29.3347 34.2467 29.3544 34.084 29.34ZM38.5361 15.929C38.4195 16.1276 38.2468 16.2874 38.0397 16.3881C37.8325 16.4888 37.6003 16.526 37.372 16.495C37.1438 16.464 36.9297 16.3662 36.7569 16.2139C36.5841 16.0616 36.4602 15.8615 36.4008 15.639C36.3414 15.4165 36.3491 15.1814 36.423 14.9632C36.4968 14.7451 36.6336 14.5537 36.816 14.4131C36.9984 14.2724 37.2183 14.1887 37.4481 14.1728C37.6779 14.1568 37.9073 14.2093 38.1074 14.3233C38.242 14.4008 38.3599 14.5041 38.4544 14.6274C38.5489 14.7506 38.6181 14.8913 38.658 15.0414C38.6978 15.1915 38.7076 15.3479 38.6867 15.5018C38.6658 15.6557 38.6146 15.8041 38.5361 15.9381V15.929ZM39.0288 18.4379C38.9508 18.3052 38.8998 18.1583 38.8791 18.0058C38.8585 17.8533 38.8684 17.6982 38.9083 17.5496C38.9482 17.401 39.0174 17.2619 39.1117 17.1402C39.206 17.0186 39.3236 16.917 39.4576 16.8413C39.7266 16.6886 40.045 16.6479 40.3438 16.7282C40.6426 16.8084 40.8978 17.0031 41.0541 17.2701C41.1308 17.4031 41.1805 17.5498 41.2005 17.702C41.2204 17.8542 41.2102 18.009 41.1704 18.1572C41.1306 18.3055 41.0619 18.4444 40.9684 18.5662C40.8749 18.6879 40.7584 18.79 40.6254 18.8666C40.4924 18.9433 40.3456 18.993 40.1934 19.013C40.0412 19.0329 39.8865 19.0227 39.7382 18.9829C39.59 18.9431 39.451 18.8744 39.3293 18.7809C39.2076 18.6874 39.1055 18.5709 39.0288 18.4379ZM40.9629 22.4611C40.732 22.4611 40.5061 22.3925 40.3141 22.2642C40.1221 22.1359 39.9724 21.9537 39.884 21.7403C39.7956 21.527 39.7725 21.292 39.8175 21.0655C39.8626 20.8389 39.9738 20.631 40.1371 20.4676C40.3005 20.3043 40.5085 20.1931 40.7351 20.148C40.9616 20.103 41.1963 20.126 41.4097 20.2144C41.6231 20.3028 41.8055 20.4525 41.9338 20.6445C42.0621 20.8365 42.1306 21.0624 42.1306 21.2933C42.1318 21.4474 42.1026 21.6003 42.0444 21.743C41.9863 21.8858 41.9004 22.0156 41.7918 22.125C41.6833 22.2344 41.5541 22.3212 41.4118 22.3805C41.2696 22.4397 41.1171 22.4702 40.9629 22.4702V22.4611Z" fill="#B6145A"/>
<path d="M38.5453 21.3024C38.5453 22.1848 38.2837 23.0474 37.7935 23.781C37.3033 24.5147 36.6065 25.0865 35.7913 25.4241C34.9762 25.7618 34.0791 25.8502 33.2138 25.678C32.3484 25.5059 31.5534 25.0809 30.9295 24.457C30.3056 23.8331 29.8807 23.0383 29.7086 22.1729C29.5365 21.3075 29.6247 20.4104 29.9624 19.5952C30.3001 18.78 30.8719 18.0832 31.6055 17.593C32.3392 17.1028 33.2017 16.8413 34.0841 16.8413C35.2673 16.8413 36.402 17.3112 37.2387 18.1479C38.0753 18.9845 38.5453 20.1192 38.5453 21.3024Z" fill="#EC1651"/>
<path d="M40.3517 28.6193L41.4008 27.5701L39.3025 25.9827L38.7643 26.5301L40.3517 28.6193Z" fill="#B6145A"/>
</svg>
