<svg width="36" height="36" viewBox="0 0 36 36" fill="none" xmlns="http://www.w3.org/2000/svg">
<circle cx="18" cy="18" r="17" fill="#EA1651" stroke="white" stroke-width="2"/>
<path d="M12.5677 11.7786C12.5674 12.25 12.3793 12.7021 12.0446 13.0353C11.7099 13.3685 11.2561 13.5556 10.7829 13.5554C10.3098 13.5551 9.85621 13.3676 9.52184 13.0341C9.18748 12.7005 8.99976 12.2483 9 11.7768C9.00024 11.3053 9.1884 10.8533 9.52311 10.52C9.85781 10.1868 10.3116 9.99976 10.7847 10C11.2578 10.0002 11.7115 10.1878 12.0458 10.5213C12.3802 10.8548 12.5679 11.3071 12.5677 11.7786ZM12.6212 14.8717H9.05352V26H12.6212V14.8717ZM18.2581 14.8717H14.7083V26H18.2225V20.1603C18.2225 16.9072 22.4769 16.605 22.4769 20.1603V26H26V18.9515C26 13.4674 19.703 13.6718 18.2225 16.365L18.2581 14.8717Z" fill="white"/>
</svg>
