<svg width="142" height="36" viewBox="0 0 142 36" fill="none" xmlns="http://www.w3.org/2000/svg">
<path d="M0 18V36H33.6675V31.8534H4.07592V4.07592H33.6675V0H0V18Z" fill="#656565"/>
<path d="M31.9476 6.87961C28.979 7.25658 26.8586 8.81155 26.0576 11.1911C25.8691 11.7801 25.8455 11.9686 25.7984 12.8168C25.7277 14.8194 26.1518 16.0445 27.3063 17.199C28.4372 18.3299 29.9215 18.966 32.9136 19.555C34.8455 19.932 35.7173 20.2382 36.4005 20.7566C37.2251 21.3927 37.5078 22.6649 37.0366 23.6545C36.801 24.1492 36.2356 24.6911 35.7173 24.9267C34.4921 25.4686 32.3717 25.3744 31.123 24.7382C30.5811 24.4555 29.9921 23.8665 29.6859 23.3011C29.4267 22.7827 29.1911 21.9346 29.1911 21.4398V21.0629H25.0445V21.3456C25.0445 22.8534 25.5393 24.5969 26.3167 25.7513C26.7173 26.3639 27.5419 27.2121 28.1073 27.589C29.8037 28.7435 32.1361 29.2854 34.5628 29.0733C36.9188 28.8848 38.5916 28.178 39.8167 26.9058C40.6178 26.0576 41.1126 25.0916 41.3246 23.9136C41.4895 23.0184 41.4424 21.0157 41.2304 20.2854C40.6885 18.4477 39.2984 17.2461 36.8246 16.4215C36.377 16.2801 35.623 16.0681 35.1518 15.9739C33.5026 15.644 32.2068 15.3142 31.712 15.1021C30.5105 14.6074 30.0157 13.9712 30.0157 12.9817C30.0157 11.8744 30.6754 11.1676 31.9948 10.8377C32.7487 10.6492 34.1387 10.6728 34.7749 10.9084C35.9764 11.3325 36.7775 12.2749 36.966 13.4293L37.0366 13.9006H41.1126L41.0654 13.2173C40.9712 11.8037 40.6649 10.9084 39.9581 9.8482C38.9921 8.43459 37.4607 7.46861 35.4581 7.04453C34.9869 6.95029 34.5157 6.90317 33.5262 6.87961C32.7722 6.85605 32.0654 6.87961 31.9476 6.87961ZM50.9607 17.9765V28.6964H55.0366V7.25658H50.9607V17.9765ZM63.1649 7.82202C62.9529 8.1283 61.7042 10.1074 60.3377 12.2278L57.8639 16.0445V19.932L60.7853 24.2906L63.7068 28.6728H68.678L68.5366 28.4843C68.466 28.3665 66.8639 26.0105 64.979 23.2304C62.3167 19.343 61.5393 18.1178 61.5393 17.9765C61.5393 17.8351 62.3639 16.4922 64.8848 12.6047C66.7225 9.75395 68.2539 7.37437 68.2775 7.32725C68.3246 7.25657 67.8298 7.23301 65.945 7.23301H63.5419L63.1649 7.82202ZM80.8822 7.30369C80.8822 7.35081 75.9345 28.1309 75.8403 28.4608L75.7932 28.6728H80.1047L80.623 26.411C80.9057 25.1623 81.1413 24.1021 81.1649 24.055C81.1885 23.9843 81.9424 23.9608 84.7696 23.9843L88.3272 24.0079L88.8455 26.3168L89.3639 28.6257L91.5314 28.6492C93.5811 28.6728 93.6989 28.6492 93.6518 28.555C93.6283 28.4843 92.4974 23.7252 91.1309 18C89.7644 12.2513 88.6335 7.49217 88.6099 7.39793L88.5864 7.25658H84.7461C82.6021 7.25658 80.8822 7.28013 80.8822 7.30369ZM84.9581 9.35343C84.9581 9.37699 85.5 11.733 86.1597 14.6309L87.3377 19.8848L84.7225 19.9084C83.2853 19.9084 82.1073 19.9084 82.0838 19.9084C82.0602 19.8848 83.4031 13.9712 84.2984 10.1309L84.4869 9.35343H84.7225C84.8639 9.32987 84.9581 9.32987 84.9581 9.35343ZM104.254 17.9765V28.6964H118.084V24.8325H108.33V7.28013H104.254V17.9765ZM127.414 17.9765V28.6964H141.385V24.8325H131.49V11.2147H141.385V7.28013H127.414V17.9765Z" fill="#656565"/>
<path d="M134.317 17.9999V19.979H138.251V16.0444H134.317V17.9999Z" fill="#656565"/>
</svg>
