<svg width="48" height="44" viewBox="0 0 48 44" fill="none" xmlns="http://www.w3.org/2000/svg">
<path d="M12.8688 0.827799L11.5703 1.34875L18.8763 19.5598L20.1749 19.0388L12.8688 0.827799Z" fill="#B6145A"/>
<path d="M19.9139 -4.1728e-05L15.1603 19.0374L16.5176 19.3763L21.2713 0.338889L19.9139 -4.1728e-05Z" fill="#B6145A"/>
<path d="M47.6386 9.66148C47.6386 9.28962 47.4914 8.93297 47.2293 8.66922C46.9671 8.40548 46.6113 8.25616 46.2394 8.25391H1.39909C1.02723 8.25616 0.671421 8.40548 0.409276 8.66922C0.147131 8.93297 -6.82922e-06 9.28962 2.37721e-10 9.66148V34.8799H47.6386V9.66148Z" fill="#EC1651"/>
<path d="M11.739 40.4935H6.13394V43.9999H11.739V40.4935Z" fill="#B6145A"/>
<path d="M42.1443 40.4935H36.5392V43.9999H42.1443V40.4935Z" fill="#B6145A"/>
<path d="M46.2394 9.66148V33.4809H1.39909V9.66148H46.2394ZM46.2394 8.25391H1.39909C1.02723 8.25616 0.671421 8.40548 0.409276 8.66922C0.147131 8.93297 -6.82922e-06 9.28962 2.37721e-10 9.66148V34.8799H47.6386V9.66148C47.6386 9.28962 47.4914 8.93297 47.2293 8.66922C46.9671 8.40548 46.6113 8.25616 46.2394 8.25391Z" fill="#B6145A"/>
<path d="M0 34.88V39.0859C0.00223801 39.4562 0.15034 39.811 0.412244 40.0729C0.674147 40.3348 1.02871 40.4829 1.39909 40.4851H46.2394C46.6098 40.4829 46.9644 40.3348 47.2263 40.0729C47.4882 39.811 47.6363 39.4562 47.6386 39.0859V34.88H0Z" fill="#B6145A"/>
</svg>
