<svg width="56" height="56" viewBox="0 0 56 56" fill="none" xmlns="http://www.w3.org/2000/svg">
<g clip-path="url(#clip0_259_38)">
<path d="M28.0001 2.63089e-06C22.4617 3.1512e-06 17.0477 1.64276 12.4428 4.71998C7.838 7.7972 4.24915 12.1708 2.13025 17.2878C0.0113552 22.4048 -0.542467 28.0353 0.538904 33.4671C1.62028 38.8989 4.28825 43.8882 8.20534 47.8036C12.1224 51.719 17.1127 54.3846 22.545 55.4636C27.9773 56.5426 33.6075 55.9864 38.7236 53.8653C43.8397 51.7442 48.2119 48.1536 51.2871 43.5474C54.3624 38.9412 56.0025 33.5264 56.0001 27.988C56.0001 24.3115 55.2758 20.6712 53.8685 17.2748C52.4612 13.8783 50.3985 10.7924 47.7983 8.19336C45.1981 5.59428 42.1113 3.53304 38.7143 2.12724C35.3172 0.721425 31.6765 -0.00159166 28.0001 2.63089e-06V2.63089e-06Z" fill="#EC1651"/>
<path d="M51.2302 27.9879C51.2302 32.5824 49.8678 37.0736 47.3153 40.8938C44.7627 44.714 41.1346 47.6916 36.8899 49.4498C32.6451 51.2081 27.9743 51.668 23.4681 50.7717C18.9618 49.8754 14.8226 47.6631 11.5738 44.4143C8.32502 41.1655 6.11254 37.0262 5.2162 32.52C4.31986 28.0138 4.77989 23.343 6.53813 19.0982C8.29636 14.8534 11.2738 11.2253 15.094 8.6727C18.9142 6.12014 23.4056 4.75781 28.0001 4.75781C34.1611 4.75781 40.0698 7.20525 44.4263 11.5618C48.7828 15.9183 51.2302 21.8268 51.2302 27.9879V27.9879Z" fill="#84ECEF"/>
<path d="M28 4.75781V27.9879H51.2302C51.2302 21.8268 48.7828 15.9183 44.4262 11.5618C40.0697 7.20525 34.1611 4.75781 28 4.75781V4.75781Z" fill="#B6145A"/>
<path d="M29.323 14.5891H26.6893V25.1119H29.323V14.5891Z" fill="#EC1651"/>
<path d="M41.4114 26.6772H30.8886V29.311H41.4114V26.6772Z" fill="#EC1651"/>
<path d="M32.8549 27.9879C32.8549 28.948 32.5701 29.8868 32.0367 30.6852C31.5032 31.4836 30.745 32.1057 29.8579 32.4731C28.9708 32.8406 27.9947 32.9366 27.0529 32.7493C26.1112 32.562 25.2462 32.0996 24.5672 31.4206C23.8883 30.7417 23.4259 29.8769 23.2385 28.9352C23.0512 27.9934 23.1473 27.0171 23.5148 26.13C23.8822 25.2429 24.5045 24.4846 25.3029 23.9512C26.1013 23.4177 27.0399 23.1331 28.0001 23.1331C29.2877 23.1331 30.5224 23.6446 31.4329 24.5551C32.3433 25.4655 32.8549 26.7003 32.8549 27.9879Z" fill="#EC1651"/>
<path d="M30.2332 27.9882C30.2356 28.4333 30.1057 28.869 29.8599 29.2401C29.6141 29.6112 29.2636 29.901 28.8528 30.0724C28.442 30.2439 27.9896 30.2894 27.5529 30.2031C27.1162 30.1169 26.715 29.9027 26.4002 29.588C26.0855 29.2732 25.8714 28.872 25.7851 28.4353C25.6989 27.9986 25.7444 27.5462 25.9158 27.1354C26.0873 26.7246 26.377 26.3743 26.7481 26.1285C27.1192 25.8827 27.555 25.7528 28.0001 25.7552C28.5924 25.7552 29.1603 25.9903 29.5791 26.4091C29.9979 26.8279 30.2332 27.3959 30.2332 27.9882V27.9882Z" fill="#EC1651"/>
<path d="M29.3108 27.9879C29.3132 28.2506 29.2374 28.5081 29.0929 28.7275C28.9485 28.9469 28.742 29.1183 28.4998 29.22C28.2576 29.3216 27.9905 29.3488 27.7328 29.2982C27.475 29.2475 27.2383 29.1212 27.0525 28.9355C26.8668 28.7498 26.7405 28.5129 26.6898 28.2552C26.6392 27.9974 26.6664 27.7305 26.7681 27.4883C26.8697 27.2461 27.0411 27.0395 27.2605 26.8951C27.4799 26.7507 27.7374 26.6749 28.0001 26.6773C28.3467 26.6805 28.6782 26.8194 28.9234 27.0646C29.1685 27.3097 29.3076 27.6412 29.3108 27.9879V27.9879Z" fill="#EC1651"/>
</g>
<defs>
<clipPath id="clip0_259_38">
<rect width="56" height="56" fill="white"/>
</clipPath>
</defs>
</svg>
