<svg width="133" height="28" viewBox="0 0 133 28" fill="none" xmlns="http://www.w3.org/2000/svg">
<g opacity="0.4">
<path d="M27.6404 14.15C27.6404 18.5975 27.6404 23.0152 27.6404 27.4627C27.6404 27.8806 27.4912 28 27.1031 28C21.2825 28 15.4619 28 9.64131 28C9.31296 28 9.07417 27.9105 8.83537 27.6717C5.96985 24.8061 3.16402 21.9406 0.298492 19.0751C0.119397 18.896 0 18.687 0 18.4184C0 12.5082 0 6.5981 0 0.658097C0 0.270056 0.149246 0.180511 0.477587 0.180511C9.34281 0.180511 18.2379 0.180511 27.1628 0.180511C27.5807 0.180511 27.6404 0.329759 27.6404 0.717799C27.6404 5.10564 27.6404 9.64272 27.6404 14.15Z" fill="black"/>
<path d="M80.4437 9.88151C80.4437 6.77719 80.4437 3.76241 80.4437 0.717791C80.4437 0.389449 80.5034 0.2402 80.8616 0.299899C81.3989 0.359597 81.8765 0.359597 82.3839 0.299899C82.7122 0.299899 82.7719 0.389447 82.7719 0.68794C82.7719 2.03116 82.7719 3.37437 82.7719 4.68774C82.7719 8.53829 82.7719 12.4187 82.7719 16.3289C82.7719 16.717 82.6824 16.8065 82.2944 16.8065C81.7272 16.7468 81.1004 16.8065 80.4736 16.8065C80.1751 16.8065 80.0557 16.7468 79.996 16.4185C79.0408 12.8067 78.0259 9.16512 77.0707 5.58321C77.011 5.43397 77.011 5.28472 76.8916 5.16533C76.8916 8.89648 76.8916 12.5978 76.8916 16.3289C76.8916 16.717 76.8021 16.8662 76.4141 16.8065C75.9365 16.7468 75.4589 16.7468 74.9813 16.8065C74.5933 16.8662 74.5634 16.717 74.5634 16.3886C74.5634 13.5828 74.5634 10.7471 74.5634 8.001C74.5634 5.61306 74.5634 3.19527 74.5634 0.807335C74.5634 0.478993 74.6231 0.389447 74.9813 0.389447C75.7872 0.449146 76.5932 0.449146 77.4289 0.389447C77.7274 0.389447 77.8468 0.478996 77.9065 0.777488C78.6826 3.73256 79.4885 6.65779 80.2348 9.61286C80.3243 9.64271 80.3243 9.79196 80.4437 9.88151Z" fill="black"/>
<path d="M36.2668 8.03087C37.6996 8.6577 38.0876 9.85167 38.1175 11.1949C38.1772 12.1501 38.207 13.1649 38.0279 14.0604C37.6996 15.6723 36.5952 16.6871 34.9236 16.7468C33.4312 16.8065 31.9685 16.7468 30.4761 16.8065C30.1477 16.8065 30.1776 16.6274 30.1776 16.4185C30.1776 14.6872 30.1776 13.0157 30.1776 11.3143C30.1776 7.79207 30.1776 4.24001 30.1776 0.717803C30.1776 0.389462 30.2373 0.299911 30.5955 0.299911C31.9685 0.35961 33.3715 0.210363 34.7445 0.359609C36.8041 0.598403 37.61 1.40433 37.8488 3.46393C37.9384 4.26986 37.9384 5.04594 37.7891 5.85187C37.61 6.7772 37.1623 7.55328 36.2668 8.03087Z" fill="black"/>
<path d="M68.7726 8.598C68.7726 10.0905 68.7726 11.6128 68.7726 13.0754C68.7726 13.7321 68.6234 14.4186 68.3548 15.0454C67.9667 15.8514 67.3996 16.4185 66.534 16.717C65.4295 17.105 64.2953 17.1349 63.1311 16.717C61.6088 16.1499 60.982 14.8663 60.9223 13.3739C60.8626 10.18 60.8328 6.98614 60.9223 3.79227C61.0118 0.867048 63.0714 -0.0284289 65.3698 0.210365C67.4593 0.449159 68.6234 1.79238 68.6533 4.03107C68.8025 5.55338 68.7726 7.07569 68.7726 8.598Z" fill="black"/>
<path d="M52.1168 7.94133C52.1765 6.92645 52.0272 5.25489 52.1765 3.64303C52.4153 0.867052 54.3256 -0.0284253 56.5046 0.210369C58.5642 0.449163 59.6089 1.64313 59.7582 3.88183C59.8179 4.44896 59.7582 5.0161 59.7582 5.64293C59.7582 5.88173 59.6686 5.94143 59.4597 5.94143C58.8329 5.94143 58.206 5.94143 57.609 5.94143C57.3702 5.94143 57.3105 5.85188 57.3105 5.64293C57.3105 5.0161 57.3105 4.44896 57.3105 3.82213C57.2508 2.86695 56.6539 2.32967 55.639 2.53861C55.1614 2.62816 54.833 2.9565 54.7435 3.49379C54.6838 3.73258 54.6838 4.03107 54.6838 4.26987C54.6838 7.1354 54.6838 10.0009 54.6838 12.8665C54.6838 13.0455 54.6838 13.2545 54.7435 13.4336C54.833 14.2395 55.3106 14.6276 56.1166 14.5679C56.8926 14.5082 57.3105 14.0903 57.3702 13.3142C57.4299 12.5381 57.4299 11.7919 57.3702 11.0158C57.3702 10.7173 57.4299 10.5979 57.7583 10.6278C58.3254 10.6875 58.9522 10.6278 59.5791 10.6278C59.7283 10.6278 59.8776 10.6278 59.8776 10.8666C59.8179 12.0008 59.9671 13.1649 59.7283 14.2694C59.3403 15.8812 58.2359 16.8364 56.5643 16.9856C56.0867 17.0453 55.5494 17.0453 55.0718 16.9259C53.4003 16.5976 52.3854 15.4335 52.266 13.7619C52.266 13.5231 52.2063 13.2843 52.2063 13.1052C52.0571 11.5531 52.1168 10.0905 52.1168 7.94133Z" fill="black"/>
<path d="M94.7713 4.77729C94.3833 4.77729 93.9057 4.92654 93.6371 4.71759C93.3386 4.5385 93.5475 4.00121 93.4878 3.61317C93.3983 2.83709 92.9505 2.4192 92.2342 2.4192C91.4581 2.4192 91.0999 2.80725 90.9805 3.55348C90.8312 4.50865 91.1297 5.37428 91.7566 6.12051C92.1745 6.65779 92.7117 7.13538 93.1893 7.61297C93.846 8.2398 94.4728 8.80694 95.0101 9.58302C96.0549 11.1053 96.2638 12.8366 95.7265 14.5977C95.3385 15.8514 94.5325 16.5677 93.2789 16.8065C92.4729 16.9856 91.6969 16.9558 90.8909 16.7468C89.4582 16.4185 88.5627 15.2544 88.3538 13.553C88.2941 13.0157 88.3538 12.5082 88.2941 11.971C88.2941 11.7322 88.3836 11.6725 88.5925 11.6725C89.2194 11.6725 89.8462 11.6725 90.4432 11.6725C90.682 11.6725 90.7417 11.762 90.7417 12.0008C90.7417 12.5381 90.682 13.0157 90.8312 13.5231C90.9805 14.15 91.3685 14.4783 92.0849 14.4783C92.7416 14.4783 93.1893 14.1798 93.3684 13.5828C93.6072 12.7172 93.4281 11.8516 92.9505 11.1053C92.5326 10.4486 91.9357 9.85166 91.3387 9.34423C90.7118 8.77709 90.1447 8.23981 89.6074 7.58312C88.4135 6.06081 88.115 4.32955 88.5925 2.5386C88.9209 1.10584 89.8761 0.299905 91.3685 0.0611111C92.0252 -0.0284366 92.652 -0.028433 93.2789 0.120813C94.7116 0.449155 95.6668 1.49387 95.8459 3.04604C95.9056 3.46392 95.9355 3.91166 95.9355 4.38925C95.9355 4.62805 95.8758 4.71759 95.637 4.71759C95.3982 4.77729 95.0997 4.83699 94.7713 4.77729C94.7713 4.83699 94.7713 4.83699 94.7713 4.77729Z" fill="black"/>
<path d="M99.5771 9.79196C99.5771 7.64281 99.5771 5.49367 99.5771 3.31467C99.5771 2.68784 99.5771 2.68784 99.0099 2.68784C98.4428 2.68784 97.8757 2.68784 97.2488 2.68784C96.9503 2.68784 96.8608 2.62814 96.8608 2.3595C96.8608 1.79236 96.8608 1.22522 96.8608 0.598389C96.8608 0.359595 96.9205 0.299896 97.1593 0.299896C99.6368 0.299896 102.084 0.299896 104.562 0.299896C104.801 0.299896 104.86 0.359595 104.86 0.598389C104.86 1.22522 104.86 1.79236 104.86 2.41919C104.86 2.65799 104.801 2.74753 104.562 2.74753C103.905 2.74753 103.219 2.74753 102.592 2.74753C102.204 2.74753 102.174 2.83708 102.174 3.16543C102.174 7.55326 102.174 11.9411 102.174 16.3289C102.174 16.717 102.084 16.8662 101.696 16.8662C101.129 16.8065 100.562 16.8065 99.9651 16.8662C99.6368 16.8662 99.5771 16.7767 99.5771 16.4483C99.5771 14.1798 99.5771 12.0008 99.5771 9.79196Z" fill="black"/>
<path d="M46.0574 9.7621C46.0574 7.52341 46.0574 5.31457 46.0574 3.07588C46.0574 2.74753 45.9678 2.65799 45.6693 2.68784C45.0425 2.74753 44.3858 2.68784 43.759 2.68784C43.4306 2.68784 43.3709 2.59829 43.3709 2.29979C43.3709 1.73266 43.3709 1.19538 43.3709 0.62824C43.3709 0.389446 43.4306 0.299896 43.6993 0.299896C46.1469 0.299896 48.6244 0.299896 51.0422 0.299896C51.2213 0.299896 51.3407 0.359595 51.3407 0.598389C51.3407 1.22522 51.3407 1.85206 51.3407 2.41919C51.3407 2.65799 51.2511 2.71769 51.0422 2.71769C50.3855 2.71769 49.699 2.71769 49.0721 2.71769C48.7438 2.71769 48.6543 2.80723 48.6543 3.13557C48.6543 7.52341 48.6543 11.9113 48.6543 16.2991C48.6543 16.717 48.505 16.8364 48.117 16.8364C47.5797 16.7767 47.0722 16.7767 46.5051 16.8364C46.1768 16.8364 46.0275 16.7468 46.0275 16.4185C46.0872 14.1798 46.0574 11.9411 46.0574 9.7621Z" fill="black"/>
<path d="M109.368 2.38935C109.278 2.56845 109.308 2.77739 109.308 2.92664C109.308 7.40403 109.308 11.8516 109.308 16.3289C109.308 16.4782 109.397 16.717 109.218 16.7468C108.98 16.8065 108.651 16.8065 108.412 16.7468C108.323 16.7468 108.353 16.508 108.353 16.4185C108.353 15.523 108.353 14.5678 108.353 13.6425C108.353 9.34423 108.353 5.04594 108.353 0.747645C108.353 0.359604 108.412 0.210357 108.83 0.210357C109.726 0.270056 109.726 0.21036 110.084 1.07599C111.517 5.16533 113.009 9.34423 114.412 13.4336C114.472 13.5828 114.502 13.7321 114.561 13.8515C114.711 13.6724 114.651 13.4634 114.651 13.3142C114.651 9.10543 114.651 4.86684 114.651 0.658096C114.651 0.50885 114.561 0.270058 114.74 0.240208C114.979 0.18051 115.278 0.18051 115.546 0.240208C115.636 0.240208 115.606 0.419304 115.606 0.538701C115.606 1.25508 115.606 1.97146 115.606 2.62815C115.606 7.16523 115.606 11.7023 115.606 16.2394C115.606 16.5677 115.517 16.717 115.188 16.6573C114.412 16.5976 114.412 16.6573 114.173 15.9409C112.651 11.4934 111.069 7.07568 109.547 2.62815C109.457 2.68785 109.427 2.5386 109.368 2.38935Z" fill="black"/>
<path d="M86.9807 8.59799C86.9807 11.165 86.9807 13.7619 86.9807 16.3289C86.9807 16.717 86.921 16.8662 86.5031 16.8065C85.936 16.7468 85.3091 16.8065 84.6823 16.8065C84.4435 16.8065 84.354 16.717 84.354 16.4782C84.354 15.3738 84.354 14.2395 84.354 13.1351C84.354 9.04573 84.354 4.92654 84.354 0.83719C84.354 0.44915 84.4435 0.299902 84.8315 0.3596C85.3987 0.419299 85.9658 0.419299 86.5926 0.3596C86.8911 0.3596 86.9807 0.449149 86.9807 0.747641C86.9807 3.34452 86.9807 5.97126 86.9807 8.59799Z" fill="black"/>
<path d="M72.862 8.59801C72.862 11.165 72.862 13.7918 72.862 16.3887C72.862 16.7767 72.7724 16.8662 72.3844 16.8065C71.8471 16.7468 71.3397 16.7468 70.8024 16.8065C70.3845 16.8662 70.2353 16.717 70.2353 16.2394C70.2353 12.0904 70.2353 7.97117 70.2353 3.82213C70.2353 2.7774 70.2353 1.76253 70.2353 0.717808C70.2353 0.329768 70.3248 0.240217 70.7128 0.299916C71.28 0.359614 71.8173 0.359614 72.3844 0.299916C72.7724 0.299916 72.862 0.389465 72.862 0.777505C72.862 3.40424 72.862 5.97127 72.862 8.59801Z" fill="black"/>
<path d="M42.1471 8.56815C42.1471 11.1949 42.1471 13.8216 42.1471 16.4484C42.1471 16.7767 42.0874 16.8662 41.7591 16.8662C41.192 16.8065 40.6248 16.8065 39.998 16.8662C39.6696 16.8662 39.5204 16.7767 39.5801 16.4484C39.5801 12.7172 39.5801 9.01589 39.5801 5.28473C39.5801 3.79227 39.5801 2.26996 39.5801 0.807348C39.5801 0.508856 39.6398 0.419312 39.9681 0.419312C40.5353 0.47901 41.1024 0.47901 41.7292 0.419312C42.1173 0.419312 42.2068 0.508857 42.2068 0.896897C42.0874 3.34453 42.1471 5.97127 42.1471 8.56815Z" fill="black"/>
<path d="M116.919 8.59799C116.919 5.97125 116.919 3.40422 116.919 0.777486C116.919 0.389446 117.009 0.299896 117.397 0.299896C119.248 0.299896 121.128 0.359595 122.979 0.299896C123.456 0.299896 123.367 0.538691 123.367 0.837183C123.367 1.07598 123.456 1.37447 122.979 1.37447C121.457 1.31477 119.934 1.37447 118.412 1.37447C118.084 1.37447 118.024 1.46402 118.024 1.76251C118.024 3.73256 118.024 5.67276 118.024 7.58311C118.024 7.91146 118.084 8.001 118.412 8.001C119.666 8.001 120.889 8.001 122.143 8.001C122.561 8.001 122.531 8.2398 122.531 8.47859C122.531 8.71738 122.68 9.04572 122.143 9.01587C120.889 8.95617 119.666 9.01587 118.412 9.01587C118.084 9.01587 118.024 9.10542 118.024 9.43377C118.024 11.4337 118.024 13.4336 118.024 15.4335C118.024 15.7618 118.084 15.911 118.442 15.911C119.934 15.911 121.397 15.911 122.889 15.911C123.307 15.911 123.367 16.0603 123.367 16.4483C123.367 16.7767 123.307 16.9259 122.889 16.9259C121.039 16.8662 119.158 16.9259 117.308 16.9259C116.979 16.9259 116.89 16.8364 116.89 16.5379C116.919 13.7918 116.919 11.2247 116.919 8.59799Z" fill="black"/>
<path d="M129.038 9.07558C129.038 11.5232 129.038 13.941 129.038 16.3886C129.038 16.717 128.979 16.9259 128.62 16.8065C128.471 16.8065 128.322 16.8065 128.202 16.8065C128.023 16.8065 127.904 16.7468 127.964 16.5677C127.964 16.4782 127.964 16.3886 127.964 16.2394C127.964 11.4337 127.964 6.59809 127.964 1.79236C127.964 1.40432 127.874 1.31477 127.486 1.31477C126.68 1.37447 125.815 1.31477 125.009 1.31477C124.71 1.31477 124.621 1.25507 124.621 0.926732C124.621 0.299898 124.621 0.299896 125.247 0.299896C127.486 0.299896 129.725 0.299896 131.963 0.299896C132.501 0.299896 132.352 0.598391 132.381 0.867035C132.441 1.19538 132.322 1.34462 131.963 1.34462C131.098 1.28492 130.292 1.34462 129.426 1.34462C129.098 1.34462 129.038 1.43417 129.038 1.73266C129.038 4.1803 129.038 6.59809 129.038 9.07558Z" fill="black"/>
<path d="M105.129 15.8215C105.129 15.6424 105.189 15.4335 105.129 15.2842C105.039 14.8663 105.278 14.8066 105.666 14.7469C106.144 14.7469 106.293 14.8365 106.233 15.3141C106.174 15.7021 106.233 16.12 106.233 16.5081C106.233 16.7468 106.174 16.8364 105.935 16.8364C105.159 16.8961 105.159 16.8961 105.159 16.12C105.129 16.0006 105.129 15.9111 105.129 15.8215Z" fill="black"/>
<path d="M85.9957 25.0151C86.1748 23.6719 86.4136 22.3286 86.6225 20.9556C86.6225 20.8063 86.6225 20.6272 86.8613 20.6571C87.1001 20.6571 87.0404 20.8362 87.1001 20.9854C87.2792 22.2391 87.4881 23.5226 87.6672 24.7464C87.6672 24.836 87.6672 24.9852 87.8165 25.0748C88.0553 23.7017 88.2344 22.3585 88.4731 21.0153C88.4731 20.9556 88.4731 20.866 88.4731 20.8362C88.4731 20.6869 88.5329 20.5974 88.7119 20.5974C88.8612 20.6571 88.8015 20.7466 88.8015 20.8362C88.7119 21.4929 88.6224 22.1794 88.4731 22.8361C88.3239 23.7316 88.1747 24.6569 88.0553 25.5524C87.9956 25.7016 88.0553 25.8807 87.8165 25.8807C87.518 25.8807 87.518 25.7016 87.518 25.4927C87.3389 24.239 87.1299 23.0152 86.8911 21.672C86.712 22.2092 86.6523 22.6868 86.5628 23.1644C86.4136 23.9405 86.324 24.7464 86.1748 25.4927C86.1151 25.6419 86.1748 25.8807 85.8763 25.8807C85.5479 25.8807 85.5778 25.7016 85.5479 25.4927C85.3091 24.0002 85.0703 22.4779 84.8315 21.0153C84.8315 20.866 84.7718 20.7765 84.7718 20.6272C84.7718 20.5675 84.8614 20.5377 84.9211 20.5377C85.1002 20.5377 85.1002 20.7168 85.1002 20.8362C85.2793 21.9705 85.4882 23.1644 85.6673 24.3285C85.727 24.5076 85.727 24.7166 85.7569 24.8957C85.8464 24.9852 85.8464 25.0748 85.8166 25.1942C85.9061 25.2539 85.9061 25.1046 85.9957 25.0151Z" fill="black"/>
<path d="M116.919 24.9255C116.919 23.6718 116.919 22.3883 116.919 21.1645C116.919 21.0153 116.919 20.9257 116.919 20.7765C116.919 20.6869 116.979 20.6272 117.069 20.6272C117.158 20.6272 117.218 20.6869 117.218 20.7765C117.218 20.866 117.218 20.9556 117.218 21.075C117.218 22.5674 117.218 24.0897 117.218 25.5524C117.218 25.7016 117.367 25.8807 117.069 25.9404C116.77 26.0001 116.77 25.7911 116.74 25.6121C116.263 24.239 115.785 22.8958 115.248 21.5227C115.248 21.6123 115.188 21.7018 115.188 21.851C115.188 23.1047 115.188 24.3882 115.188 25.6121C115.188 25.7613 115.278 25.9404 115.039 25.9404C114.8 25.9404 114.89 25.7016 114.89 25.6121C114.89 24.0897 114.89 22.5674 114.89 21.0451C114.89 20.8959 114.8 20.7168 115.069 20.6571C115.308 20.6571 115.367 20.8063 115.457 20.9854C115.875 22.2391 116.352 23.5226 116.8 24.7464C116.86 24.7763 116.86 24.8658 116.919 24.9255C116.86 24.9255 116.919 24.9255 116.919 24.9255Z" fill="black"/>
<path d="M96.9205 21.5227C96.9205 22.8659 96.9205 24.1494 96.9205 25.4927C96.9205 25.6419 96.9205 25.7315 96.9205 25.8807C96.9205 25.9702 96.8309 26.0299 96.7712 26.0299C96.6817 26.0299 96.622 25.9702 96.622 25.8807C96.622 25.7911 96.622 25.7016 96.622 25.5524C96.622 24.1196 96.622 22.6868 96.622 21.2242C96.622 21.0451 96.4429 20.7466 96.8011 20.6571C97.1294 20.5974 97.1294 20.8959 97.219 21.075C97.6369 22.2689 98.0846 23.5226 98.5025 24.6867C98.5622 24.7464 98.5622 24.836 98.6517 24.8658C98.6517 23.9703 98.6517 23.045 98.6517 22.0898C98.6517 21.672 98.6517 21.2242 98.6517 20.8063C98.6517 20.7168 98.6517 20.5675 98.801 20.5675C98.9502 20.5675 98.9502 20.7168 98.9502 20.8063C98.9502 22.4182 98.9502 24.0599 98.9502 25.6718C98.9502 25.7613 98.9502 25.8508 98.801 25.9105C98.6219 25.9105 98.5025 25.821 98.4726 25.6718C98.1443 24.7166 97.816 23.8211 97.4578 22.8659C97.3085 22.3883 97.1294 21.9704 96.9802 21.4929C96.9503 21.5227 96.9205 21.5227 96.9205 21.5227Z" fill="black"/>
<path d="M64.5042 24.9852C64.5042 23.7017 64.5042 22.4481 64.5042 21.2242C64.5042 21.075 64.5042 20.9854 64.5042 20.8362C64.5042 20.7466 64.5639 20.6869 64.6535 20.6869C64.8027 20.6869 64.8027 20.7466 64.8027 20.8362C64.8027 20.9257 64.8027 21.0153 64.8027 21.1645C64.8027 22.5973 64.8027 24.0301 64.8027 25.4927C64.8027 25.6419 64.9519 25.9106 64.6535 25.9703C64.3251 26.0598 64.3251 25.7315 64.2654 25.5524C63.8475 24.2987 63.3998 23.0749 62.9819 21.8212C62.9222 21.7317 62.8923 21.6421 62.8028 21.5824C62.8028 22.8361 62.8028 24.1196 62.8028 25.3434C62.8028 25.5225 62.9819 25.9703 62.6536 25.9703C62.3252 25.9703 62.4745 25.5524 62.4745 25.3434C62.4745 23.9107 62.4745 22.4779 62.4745 21.0451C62.4745 20.8959 62.3849 20.7168 62.6536 20.6571C62.8923 20.5974 62.9819 20.7466 63.0416 20.9556C63.4595 22.2093 63.9072 23.4331 64.3848 24.6867C64.3848 24.7763 64.3848 24.8658 64.5042 24.9852Z" fill="black"/>
<path d="M99.4875 23.3137C99.4875 22.5376 99.4875 21.8212 99.4875 21.075C99.4875 20.7466 99.5771 20.6571 99.9054 20.6869C100.055 20.6869 100.234 20.6869 100.443 20.6869C101.458 20.6869 101.816 20.9854 101.875 21.9705C101.935 22.9853 101.965 23.9703 101.816 24.9255C101.726 25.6419 101.338 25.9404 100.681 25.9702C99.5472 26.0299 99.5472 26.0299 99.5472 24.8658C99.4875 24.3584 99.4875 23.8211 99.4875 23.3137Z" fill="black"/>
<path d="M114.203 23.3435C114.203 24.1196 114.203 24.8658 114.203 25.6419C114.203 25.7911 114.293 25.9702 114.024 25.9702C113.726 25.9702 113.845 25.7911 113.845 25.6419C113.845 25.0151 113.845 24.3882 113.845 23.8211C113.845 23.5226 113.755 23.4928 113.517 23.4928C113.099 23.5525 112.561 23.3137 112.263 23.5823C112.024 23.8211 112.203 24.3584 112.173 24.7763C112.173 25.1046 112.173 25.4031 112.173 25.7314C112.173 25.821 112.233 25.9702 112.024 26.0299C111.845 26.0299 111.845 25.9404 111.845 25.7911C111.845 24.1793 111.845 22.5973 111.845 20.9854C111.845 20.8362 111.845 20.7466 112.024 20.7466C112.263 20.7466 112.203 20.9257 112.203 21.0451C112.203 21.6719 112.203 22.2988 112.203 22.8659C112.203 23.1644 112.293 23.254 112.591 23.1943C113.009 23.1346 113.547 23.3435 113.785 23.1047C114.084 22.8659 113.845 22.3286 113.875 21.9107C113.875 21.5824 113.875 21.2839 113.875 20.9556C113.875 20.866 113.815 20.7168 114.024 20.6571C114.263 20.6571 114.203 20.8063 114.203 20.9556C114.203 21.7316 114.203 22.5376 114.203 23.3435Z" fill="black"/>
<path d="M73.9664 23.4331C74.5037 23.6122 74.6231 24.0002 74.6231 24.448C74.6231 24.8957 74.5634 25.3136 74.6828 25.7315C74.6828 25.821 74.832 25.9106 74.6231 25.9703C74.4739 26.03 74.3246 25.9106 74.3246 25.7912C74.2649 25.6121 74.2649 25.4031 74.2649 25.224C74.2649 25.0748 74.2649 24.9255 74.2649 24.7464C74.2649 23.851 73.8769 23.4928 72.9217 23.6122C72.6829 23.6719 72.7426 23.7913 72.7426 23.9405C72.7426 24.5077 72.7426 25.1345 72.7426 25.7016C72.7426 25.7912 72.8023 25.9404 72.5934 26.0001C72.4143 26.0001 72.4143 25.8509 72.4143 25.7016C72.4143 24.1196 72.4143 22.5078 72.4143 20.9257C72.4143 20.687 72.5038 20.6273 72.7128 20.6273C72.8023 20.6273 72.8918 20.6273 73.0112 20.6273C74.7425 20.478 74.7425 21.2839 74.6231 22.6868C74.5336 23.0749 74.2948 23.254 73.9664 23.4331Z" fill="black"/>
<path d="M35.4609 23.4331C35.9385 23.6121 36.0877 23.9703 36.0877 24.4479C36.0877 24.8658 36.028 25.3136 36.1474 25.7314C36.1474 25.821 36.2967 25.9105 36.0877 25.9702C35.9385 26.0299 35.8489 25.9702 35.7892 25.821C35.7295 25.6717 35.7295 25.5225 35.7295 25.4031C35.7295 25.1643 35.7295 24.9255 35.7295 24.7464C35.7295 23.8509 35.3116 23.4928 34.3863 23.6122C34.1475 23.6719 34.2072 23.7912 34.2072 23.9405C34.2072 24.5076 34.2072 25.1345 34.2072 25.7016C34.2072 25.7911 34.2669 25.9404 34.058 26.0001C33.8789 26.0001 33.8789 25.8508 33.8789 25.7016C33.8789 24.1196 33.8789 22.5077 33.8789 20.9257C33.8789 20.7466 33.9386 20.6272 34.1177 20.6272C34.446 20.6272 34.7744 20.6272 35.1326 20.6272C35.6997 20.6869 36.028 21.0153 36.0877 21.5227C36.1474 21.8212 36.0877 22.1495 36.0877 22.4182C36.0877 22.9256 35.9683 23.1047 35.4609 23.4331Z" fill="black"/>
<path d="M58.415 23.4331C58.9522 23.6122 59.0716 24.0002 59.0716 24.4778C59.0716 24.8957 59.0119 25.2837 59.1313 25.7315C59.1313 25.821 59.2806 25.9106 59.0716 25.9703C58.9224 26.0299 58.7731 25.9703 58.7731 25.7912C58.7134 25.4628 58.7135 25.1345 58.7135 24.7763C58.7135 23.8211 58.4747 23.5823 57.4598 23.5823C57.221 23.5823 57.1314 23.6719 57.1314 23.9107C57.1314 24.4778 57.1314 25.1046 57.1314 25.6718C57.1314 25.7613 57.1911 25.9106 56.9822 25.9703C56.8031 25.9703 56.8031 25.8807 56.8031 25.6718C56.8031 24.0897 56.8031 22.4779 56.8031 20.8959C56.8031 20.6571 56.8926 20.5974 57.1016 20.5974C57.1911 20.5974 57.2807 20.5974 57.4299 20.5974C59.1612 20.4481 59.1612 21.3138 59.0119 22.6868C58.9821 23.0749 58.7433 23.254 58.415 23.4331Z" fill="black"/>
<path d="M55.5793 23.4331C56.0569 23.6122 56.2061 24.0002 56.2061 24.4778C56.2061 24.8658 56.1464 25.2837 56.2658 25.6718C56.2658 25.7613 56.4449 25.9105 56.2061 25.9702C56.027 26.0299 55.9076 25.9105 55.9076 25.7314C55.9076 25.4927 55.8479 25.2539 55.8479 25.0151C55.8479 24.836 55.8479 24.5972 55.8479 24.3882C55.7882 23.7614 54.9525 23.3435 54.4152 23.6122C54.2659 23.7017 54.3256 23.7912 54.3256 23.9405C54.3256 24.5076 54.3256 25.0748 54.3256 25.7016C54.3256 25.8508 54.3853 26.0001 54.1465 26.0001C53.9077 26.0001 53.9674 25.821 53.9674 25.7016C53.9674 24.1196 53.9674 22.5376 53.9674 20.9854C53.9674 20.8063 54.0271 20.6571 54.2659 20.6869C54.4152 20.6869 54.5644 20.6869 54.6838 20.6869C55.2509 20.6869 55.8778 20.6272 56.1763 21.3138C56.4449 22.06 56.2061 22.9555 55.5793 23.4331Z" fill="black"/>
<path d="M126.441 23.4032C126.441 23.9405 126.441 24.4181 126.441 24.9255C126.501 25.4628 126.77 25.7315 127.217 25.7315C127.635 25.7315 127.934 25.433 127.994 24.9554C127.994 24.7166 127.994 24.4778 127.994 24.2987C127.994 23.9704 128.083 23.4928 127.456 23.642C127.367 23.642 127.277 23.5823 127.277 23.4928C127.277 23.4032 127.337 23.3435 127.456 23.3435C127.635 23.3435 127.874 23.3435 128.083 23.3435C128.232 23.3435 128.262 23.4331 128.262 23.5823C128.262 24.1495 128.322 24.7166 128.202 25.2539C128.053 25.821 127.725 26.1195 127.098 26.1195C126.531 26.1195 126.203 25.821 126.053 25.3136C125.904 24.8957 125.994 24.448 125.994 23.9704C125.994 23.3137 125.994 22.6272 125.994 21.9705C125.994 21.2541 126.382 20.8362 126.949 20.7168C127.844 20.6273 128.471 21.3436 128.292 22.2391C128.292 22.3287 128.232 22.4182 128.143 22.4182C127.994 22.4182 127.964 22.3287 127.964 22.2391C127.964 22.0899 127.964 22.0003 127.964 21.8511C127.904 21.3138 127.635 21.0451 127.158 21.0451C126.74 21.0451 126.441 21.3436 126.382 21.8511C126.412 22.2988 126.441 22.8361 126.441 23.4032Z" fill="black"/>
<path d="M51.1616 22.9555C51.1616 22.2391 51.1616 21.672 51.1616 21.0451C51.1616 20.8959 51.0123 20.6272 51.3108 20.6272C51.6392 20.6272 51.4899 20.9257 51.4899 21.0451C51.4899 22.2391 51.4899 23.4331 51.4899 24.627C51.4899 24.9255 51.5496 25.1942 51.7287 25.4031C51.9675 25.6419 52.266 25.7016 52.5347 25.5822C52.863 25.4927 53.0123 25.1942 53.0719 24.8658C53.1316 24.3882 53.1316 23.9703 53.1316 23.4928C53.1316 22.6271 53.1316 21.7615 53.1316 20.9257C53.1316 20.7765 53.0421 20.5974 53.3107 20.5974C53.5495 20.5974 53.46 20.8362 53.46 20.9257C53.46 22.1197 53.46 23.254 53.46 24.4479C53.46 24.627 53.4003 24.8658 53.3704 25.0748C53.2212 25.6121 52.8929 25.8807 52.3556 25.8807C51.7884 25.8807 51.4004 25.6419 51.2511 25.1046C51.0123 24.4479 51.1914 23.642 51.1616 22.9555Z" fill="black"/>
<path d="M125.456 23.3435C125.456 23.8808 125.456 24.3584 125.456 24.8658C125.456 25.5822 125.038 26.0001 124.412 26.0001C123.695 26.0598 123.218 25.7016 123.158 24.9852C123.068 23.851 123.068 22.7465 123.158 21.5824C123.218 20.866 123.695 20.5675 124.412 20.6272C124.979 20.6869 125.427 21.0451 125.427 21.7317C125.456 22.2391 125.456 22.7764 125.456 23.3435Z" fill="black"/>
<path d="M120.113 23.3137C120.113 23.8509 120.113 24.3285 120.113 24.836C120.113 25.5523 119.695 25.9702 119.069 26.0299C118.352 26.0896 117.875 25.7314 117.815 24.9852C117.755 23.8808 117.755 22.7764 117.815 21.7018C117.875 20.9854 118.352 20.5974 119.069 20.6571C119.695 20.7168 120.083 21.1347 120.113 21.851C120.113 21.9107 120.113 21.9107 120.113 21.9406C120.113 22.3585 120.113 22.8361 120.113 23.3137Z" fill="black"/>
<path d="M47.7588 23.3435C47.7588 23.8808 47.7588 24.3584 47.7588 24.8658C47.7588 25.5822 47.3409 26.0001 46.7141 26.0001C45.9977 26.0598 45.5201 25.7016 45.4604 24.9852C45.3708 23.851 45.3708 22.7465 45.4604 21.5824C45.5201 20.866 45.9977 20.5675 46.7141 20.6272C47.2812 20.6869 47.7289 21.0451 47.7289 21.7317C47.7588 22.2391 47.7588 22.7764 47.7588 23.3435Z" fill="black"/>
<path d="M95.9653 25.7314C96.025 25.9105 95.9653 25.9702 95.8758 25.9702C95.7265 25.9702 95.6967 25.9702 95.637 25.821C95.5773 25.5822 95.5474 25.4031 95.4877 25.1643C95.428 24.8658 95.3086 24.7763 95.0101 24.836C94.9206 24.836 94.831 24.836 94.7116 24.836C93.7565 24.836 93.7565 24.836 93.5177 25.7314C93.458 25.8807 93.458 26.0598 93.2789 25.9702C93.0401 25.9105 93.1893 25.7314 93.2192 25.6419C93.5475 24.1196 93.8759 22.5973 94.2341 21.0153C94.2937 20.8362 94.2937 20.6272 94.5624 20.6272C94.8907 20.6272 94.8609 20.866 94.8907 21.0153C95.2191 22.5376 95.5474 24.0599 95.9056 25.6419C95.9653 25.6718 95.9952 25.7314 95.9653 25.7314Z" fill="black"/>
<path d="M31.0134 23.4927C31.0134 22.8361 31.0134 22.3585 31.0134 21.8212C31.0731 21.1048 31.4014 20.6869 31.9685 20.6272C32.864 20.5675 33.4908 21.3436 33.2521 22.2391C33.1924 22.3286 33.1924 22.3883 33.073 22.3883C32.9834 22.3883 32.9237 22.3286 32.9237 22.2092C32.9237 22.0301 32.9237 21.8212 32.864 21.6421C32.8043 21.2242 32.5655 20.9854 32.1476 20.9854C31.7297 20.9854 31.3716 21.2242 31.3417 21.6421C31.2522 22.7764 31.2522 23.9405 31.3417 25.0748C31.4014 25.4926 31.67 25.7314 32.1178 25.7314C32.5357 25.7314 32.8342 25.4926 32.8939 25.0748C32.9536 24.836 32.8939 24.5972 32.9536 24.3584C32.9536 24.2688 33.0133 24.1196 33.1327 24.1793C33.2819 24.1793 33.2819 24.2688 33.2819 24.4181C33.2819 24.7464 33.2819 25.0449 33.1924 25.3733C33.0431 25.9105 32.6551 26.1493 32.1476 26.1493C31.5805 26.1493 31.2522 25.9105 31.1029 25.3733C30.9238 24.627 31.0731 23.9703 31.0134 23.4927Z" fill="black"/>
<path d="M48.2961 23.4928C48.2961 22.8361 48.2364 22.2988 48.2961 21.8212C48.3558 20.9556 48.8334 20.5377 49.6393 20.6869C50.2661 20.7765 50.8333 21.7914 50.5348 22.3585C50.4751 22.448 50.4452 22.448 50.3557 22.448C50.2661 22.448 50.2064 22.3883 50.2064 22.2988C50.2064 22.1197 50.2064 21.9107 50.2064 21.7317C50.1467 21.2541 49.8781 20.9556 49.4303 20.9556C49.0125 20.9556 48.6543 21.1944 48.6244 21.672C48.5647 22.7764 48.5647 23.9106 48.6244 25.0151C48.6841 25.433 48.9528 25.7315 49.4005 25.7315C49.8482 25.7315 50.1169 25.4927 50.1766 25.0151C50.2363 24.7763 50.1766 24.5375 50.2363 24.2987C50.2363 24.2091 50.2363 24.1196 50.3855 24.1196C50.5348 24.1196 50.5646 24.1793 50.5646 24.2987C50.5646 24.6867 50.5646 25.0151 50.4751 25.4031C50.296 25.8807 49.9378 26.0598 49.3706 26.0598C48.8334 26.0598 48.505 25.7613 48.3558 25.2837C48.2065 24.5972 48.3259 23.9703 48.2961 23.4928Z" fill="black"/>
<path d="M65.7579 23.3137C65.7579 23.851 65.7579 24.3584 65.7579 24.8957C65.8176 25.433 66.0862 25.7016 66.5638 25.7016C66.9817 25.7016 67.2802 25.4031 67.3399 24.8957C67.3399 24.7166 67.3399 24.5076 67.3399 24.3285C67.3399 24.239 67.3399 24.0897 67.4891 24.0897C67.6384 24.0897 67.6682 24.1793 67.6682 24.2688C67.6682 24.5972 67.6682 24.9255 67.5787 25.2837C67.4294 25.7613 67.0414 26.0598 66.4743 26.0001C65.937 26.0001 65.6086 25.7613 65.4295 25.224C65.34 24.8957 65.34 24.5972 65.34 24.2688C65.34 23.4629 65.34 22.657 65.34 21.8212C65.34 21.0153 65.7579 20.5675 66.4444 20.5675C67.2503 20.5675 67.8772 21.4332 67.6384 22.1794C67.5787 22.2689 67.5488 22.3286 67.4891 22.3286C67.3996 22.3286 67.31 22.2689 67.31 22.1794C67.31 22.0003 67.31 21.7914 67.31 21.6123C67.2503 21.1347 66.9817 20.8362 66.534 20.8362C66.0862 20.8362 65.7579 21.075 65.7579 21.5526C65.6982 22.2092 65.7579 22.7764 65.7579 23.3137Z" fill="black"/>
<path d="M109.069 23.4928C109.069 22.8361 109.069 22.2988 109.069 21.8212C109.129 21.0153 109.547 20.5675 110.323 20.6272C111.039 20.6869 111.606 21.6421 111.338 22.2988C111.278 22.3883 111.248 22.3883 111.159 22.3883C111.069 22.3883 111.009 22.2988 111.009 22.2093C111.009 22.0302 111.009 21.8212 110.95 21.6421C110.89 21.2242 110.651 20.9854 110.233 20.9854C109.815 20.9854 109.457 21.2242 109.427 21.6421C109.338 22.7764 109.338 23.9405 109.427 25.0748C109.487 25.4927 109.756 25.7315 110.203 25.7315C110.651 25.7315 110.86 25.4927 110.979 25.0748C111.039 24.836 111.039 24.5972 111.039 24.3584C111.039 24.2092 111.039 24.1196 111.218 24.1196C111.368 24.1196 111.368 24.2092 111.368 24.3584C111.368 24.6867 111.368 24.9852 111.278 25.3136C111.129 25.8509 110.741 26.0897 110.233 26.0897C109.666 26.0897 109.338 25.8509 109.189 25.3136C108.98 24.5972 109.069 23.9704 109.069 23.4928Z" fill="black"/>
<path d="M39.8487 23.3435C39.8487 22.5674 39.8487 21.7615 39.8487 21.0153C39.8487 20.7168 39.9383 20.6869 40.2368 20.6272C41.8486 20.5675 42.0874 20.8063 42.0874 22.448C42.0874 23.4629 41.7591 23.7913 40.7442 23.7316C40.3263 23.7316 40.1771 23.8211 40.2069 24.2987C40.2666 24.7763 40.2069 25.1942 40.2069 25.6718C40.2069 25.7613 40.2666 25.9106 40.0577 25.9703C39.8786 25.9703 39.8786 25.821 39.8786 25.6718C39.8487 24.9255 39.8487 24.1495 39.8487 23.3435Z" fill="black"/>
<path d="M79.3094 25.3434C79.6378 23.9107 79.9363 22.4779 80.2646 21.0451C80.2646 20.9854 80.2646 20.8959 80.3243 20.866C80.3243 20.7168 80.4139 20.6272 80.5631 20.6869C80.7422 20.7466 80.6526 20.866 80.6526 20.9854C80.3542 22.269 80.1154 23.5226 79.8467 24.8061C79.787 25.1046 79.6975 25.3733 79.6676 25.7016C79.6079 25.8807 79.5781 26.03 79.3393 26.03C79.1005 26.03 79.0408 25.8807 79.0109 25.7315C78.6826 24.1495 78.3543 22.5674 77.9961 21.0451C77.9364 20.9556 77.8468 20.7466 78.0856 20.7168C78.2647 20.7168 78.2647 20.866 78.3244 21.0153C78.6527 22.5077 78.9512 23.9704 79.2796 25.4628C79.2497 25.3434 79.2497 25.3434 79.3094 25.3434Z" fill="black"/>
<path d="M90.4133 26.03C89.6373 26.03 89.0701 25.3136 89.2791 24.5972C89.3388 24.5076 89.3388 24.4479 89.4582 24.4479C89.5776 24.4479 89.6074 24.5375 89.6074 24.627C89.6074 24.8061 89.6074 25.0151 89.6671 25.1643C89.7567 25.4927 89.9955 25.7016 90.3835 25.7315C90.7715 25.7315 91.0402 25.5822 91.1596 25.1942C91.3387 24.627 91.2193 24.1495 90.7417 23.8211C90.4432 23.5823 90.1149 23.3435 89.8462 23.045C89.4283 22.657 89.2791 22.1496 89.3686 21.5526C89.5179 20.8959 89.9059 20.5974 90.6223 20.6571C91.1894 20.7168 91.5178 21.075 91.5775 21.7018C91.5775 21.8511 91.667 22.0302 91.4282 22.0302C91.1894 22.0302 91.279 21.8511 91.2491 21.7317C91.1596 21.1645 90.8611 20.866 90.3835 20.9257C89.8164 20.9854 89.5179 21.7018 89.7567 22.2988C89.8462 22.5973 90.085 22.7764 90.2939 22.9555C90.5924 23.1943 90.8611 23.3734 91.0999 23.6122C91.5775 24.0301 91.667 24.7464 91.4282 25.3434C91.2491 25.7912 90.8909 26.03 90.4133 26.03Z" fill="black"/>
<path d="M106.413 23.3137C106.413 22.5376 106.413 21.8212 106.413 21.075C106.413 20.7765 106.502 20.6869 106.801 20.6869C107.278 20.6869 107.756 20.6869 108.233 20.6869C108.323 20.6869 108.532 20.6272 108.532 20.8362C108.532 21.0451 108.383 20.9854 108.233 20.9854C107.845 20.9854 107.517 20.9854 107.129 20.9854C106.83 20.9854 106.741 21.0451 106.741 21.3138C106.801 21.8511 106.741 22.3585 106.741 22.8958C106.741 23.0749 106.801 23.1943 106.98 23.1943C107.308 23.1943 107.607 23.1943 107.935 23.1943C108.024 23.1943 108.174 23.1943 108.174 23.3435C108.174 23.4928 108.084 23.4928 107.935 23.4928C107.636 23.4928 107.368 23.4928 107.069 23.4928C106.83 23.4928 106.681 23.5525 106.741 23.8211C106.741 24.3584 106.741 24.8658 106.741 25.433C106.741 25.6718 106.83 25.7613 107.069 25.7315C107.457 25.7315 107.845 25.7315 108.203 25.7315C108.293 25.7315 108.502 25.6718 108.502 25.8807C108.502 26.0598 108.353 26.03 108.263 26.03C107.726 26.03 107.248 26.03 106.741 26.03C106.442 26.03 106.413 25.9404 106.413 25.7016C106.413 24.836 106.413 24.0599 106.413 23.3137Z" fill="black"/>
<path d="M59.788 23.3137C59.788 22.5376 59.788 21.8212 59.788 21.075C59.788 20.7765 59.8477 20.6571 60.1761 20.6869C60.6537 20.7466 61.1909 20.6869 61.6685 20.6869C61.7581 20.6869 61.967 20.6869 61.9073 20.866C61.9073 21.0153 61.7581 21.0153 61.6685 21.0153C61.2805 21.0153 60.8626 21.0153 60.4746 21.0153C60.2955 21.0153 60.1761 21.075 60.1761 21.3138C60.1761 21.8511 60.1761 22.3585 60.1761 22.9256C60.1761 23.1644 60.2656 23.2241 60.4746 23.2241C60.7731 23.2241 61.0417 23.2241 61.3402 23.2241C61.4297 23.2241 61.6387 23.1644 61.6387 23.3734C61.6387 23.6122 61.4596 23.5525 61.3402 23.5525C61.0417 23.5525 60.773 23.5525 60.5343 23.5525C60.2955 23.5525 60.2059 23.6122 60.2059 23.851C60.2059 24.3883 60.2059 24.8957 60.2059 25.4628C60.2059 25.7613 60.2955 25.7912 60.5343 25.7912C60.9223 25.7912 61.3103 25.7912 61.6685 25.7912C61.8178 25.7912 61.9073 25.7912 61.9073 25.9703C61.9073 26.1195 61.7581 26.1195 61.6685 26.1195C61.1312 26.1195 60.6537 26.1195 60.1462 26.1195C59.9074 26.1195 59.8179 26.0598 59.8179 25.7912C59.788 24.8658 59.788 24.0599 59.788 23.3137Z" fill="black"/>
<path d="M82.1153 23.3137C82.1153 22.5376 82.1153 21.7914 82.1153 21.0153C82.1153 20.7168 82.2048 20.6272 82.5033 20.6272C82.9809 20.6272 83.5182 20.6272 83.9958 20.6272C84.0853 20.6272 84.2943 20.5675 84.2346 20.7765C84.2346 20.9257 84.0853 20.9257 83.9958 20.9257C83.6077 20.9257 83.2197 20.9257 82.8615 20.9257C82.6227 20.9257 82.4735 20.9854 82.5332 21.2541C82.5332 21.7914 82.5332 22.2988 82.5332 22.8361C82.5332 23.0749 82.5929 23.1346 82.8316 23.1346C83.16 23.1346 83.4585 23.1346 83.7868 23.1346C83.8764 23.1346 83.9659 23.1346 83.9659 23.2838C83.9659 23.4331 83.8764 23.4629 83.7868 23.4629C83.4883 23.4629 83.16 23.4629 82.8913 23.4629C82.6526 23.4629 82.563 23.5226 82.563 23.7614C82.563 24.3286 82.563 24.8658 82.563 25.433C82.563 25.6718 82.6526 25.7315 82.8615 25.7315C83.2495 25.7315 83.6674 25.7315 84.0555 25.7315C84.2047 25.7315 84.2943 25.7315 84.2943 25.9106C84.2943 26.0598 84.145 26.0598 84.0555 26.0598C83.5182 26.0598 83.0107 26.0598 82.4735 26.0598C82.2347 26.0598 82.175 25.9703 82.175 25.7315C82.1153 24.8658 82.1153 24.1196 82.1153 23.3137Z" fill="black"/>
<path d="M76.3544 20.6869C76.5931 20.6869 76.832 20.6869 77.0707 20.6869C77.1603 20.6869 77.3692 20.6272 77.3692 20.8362C77.3692 21.0451 77.1901 20.9854 77.0707 20.9854C76.6827 20.9854 76.2947 20.9854 75.9365 20.9854C75.6977 20.9854 75.6081 21.075 75.638 21.3138C75.638 21.8511 75.638 22.3585 75.638 22.8958C75.638 23.1346 75.7275 23.1943 75.9663 23.1943C76.2648 23.1943 76.5335 23.1943 76.8319 23.1943C76.9215 23.1943 77.1304 23.1346 77.0707 23.3435C77.0707 23.4928 76.9215 23.4928 76.8319 23.4928C76.5335 23.4928 76.2051 23.4928 75.9365 23.4928C75.6977 23.4928 75.638 23.5525 75.638 23.7913C75.638 24.3584 75.638 24.8957 75.638 25.4628C75.638 25.7016 75.7275 25.7613 75.9365 25.7613C76.3245 25.7613 76.7126 25.7613 77.0707 25.7613C77.22 25.7613 77.3692 25.7016 77.3692 25.9404C77.3692 26.1195 77.1901 26.0897 77.0707 26.0897C76.5335 26.0897 76.0559 26.0897 75.5484 26.0897C75.3096 26.0897 75.2499 26.0001 75.2499 25.7613C75.2499 24.239 75.2499 22.657 75.2499 21.1347C75.2499 20.8362 75.3395 20.7466 75.638 20.7466C75.8171 20.6869 76.0559 20.6869 76.3544 20.6869Z" fill="black"/>
<path d="M37.9981 23.433C38.3264 22.5376 38.6249 21.7018 38.8936 20.9556C38.9533 20.8063 38.9533 20.6272 39.1921 20.6571C39.4309 20.7466 39.2518 20.8959 39.1921 21.0451C39.0428 21.4332 38.9533 21.851 38.7742 22.1794C38.2966 23.2838 38.0578 24.3882 38.1473 25.5822C38.1473 25.7314 38.2966 25.9702 37.9682 25.9702C37.6697 25.9702 37.7891 25.7314 37.7891 25.5822C38.0279 24.0002 37.3116 22.657 36.834 21.2541C36.7743 21.1645 36.7444 21.0153 36.6847 20.9257C36.625 20.8362 36.5952 20.7466 36.7444 20.6869C36.834 20.6272 36.9832 20.6869 36.9832 20.8362C37.0728 21.1347 37.1623 21.3735 37.2817 21.6421C37.5503 22.2092 37.7593 22.7764 37.9981 23.433Z" fill="black"/>
<path d="M130.023 23.4331C130.322 22.6272 130.59 21.8511 130.829 21.1347C130.889 21.0451 130.919 20.8959 130.978 20.8063C131.038 20.7168 131.068 20.6273 131.217 20.6571C131.367 20.6869 131.307 20.8362 131.277 20.9556C131.128 21.3436 130.978 21.7615 130.859 22.1496C130.381 23.254 130.083 24.3883 130.232 25.6419C130.232 25.7912 130.322 26.03 130.053 26.03C129.784 26.03 129.874 25.7912 129.874 25.7016C130.113 24.1793 129.456 22.7764 128.979 21.4033C128.919 21.3138 128.889 21.2242 128.889 21.1645C128.889 21.0153 128.65 20.8362 128.889 20.7466C129.128 20.6571 129.128 20.8959 129.188 21.075C129.426 21.7615 129.695 22.5376 130.023 23.4331Z" fill="black"/>
<path d="M69.3398 23.4331C69.6681 22.5376 69.9666 21.7615 70.2353 20.9556C70.295 20.8063 70.295 20.6272 70.5338 20.6571C70.7725 20.7466 70.5935 20.8959 70.5935 21.0451C70.4442 21.4332 70.3547 21.8511 70.1756 22.1794C69.698 23.2838 69.4592 24.3882 69.5487 25.5822C69.5487 25.7315 69.698 25.9702 69.3696 25.9702C69.0711 25.9702 69.1905 25.7315 69.1905 25.5822C69.4293 24.0599 68.7727 22.657 68.2354 21.2839C68.1757 21.1944 68.1458 21.0451 68.0861 20.9556C68.0264 20.866 67.9369 20.7168 68.1458 20.6571C68.3249 20.5974 68.3846 20.7168 68.4443 20.8362C68.5339 21.1347 68.6234 21.4033 68.7727 21.7018C68.9517 22.2391 69.1308 22.8361 69.3398 23.4331Z" fill="black"/>
<path d="M43.5202 23.4331C43.5202 22.7764 43.5202 22.06 43.5202 21.3735C43.5202 20.9854 43.3709 20.8959 43.0426 20.9556C42.8635 20.9556 42.4755 21.1048 42.4755 20.8063C42.4755 20.5675 42.8038 20.6571 43.0128 20.6571C43.5799 20.6571 44.1172 20.6571 44.6843 20.6571C44.7739 20.6571 44.9828 20.6571 44.9231 20.8362C44.9231 20.9854 44.7739 20.9854 44.6843 20.9854C44.4455 20.9854 44.1172 20.8959 43.9082 21.0451C43.7291 21.2242 43.8485 21.6123 43.8485 21.9107C43.8485 23.1644 43.8485 24.4479 43.8485 25.6717C43.8485 25.821 43.9381 26.0001 43.6993 26.0598C43.4008 26.0598 43.5202 25.8807 43.5202 25.7314C43.5202 24.8658 43.5202 24.1494 43.5202 23.4331Z" fill="black"/>
<path d="M104.562 23.4331C104.562 22.7764 104.562 22.0899 104.562 21.4332C104.562 21.0451 104.472 20.8959 104.084 20.9556C103.905 20.9556 103.517 21.1347 103.517 20.8063C103.517 20.5675 103.846 20.7168 104.054 20.6571C104.592 20.6571 105.099 20.6571 105.666 20.6571C105.756 20.6571 105.965 20.5974 105.965 20.8063C105.965 21.0153 105.816 20.9556 105.726 20.9556C104.92 21.0451 104.92 21.0451 104.92 21.8511C104.92 23.1047 104.92 24.3883 104.92 25.6121C104.92 25.7613 105.01 25.9404 104.771 25.9404C104.472 25.9404 104.592 25.7016 104.592 25.5524C104.562 24.8658 104.562 24.1495 104.562 23.4331Z" fill="black"/>
<path d="M120.68 23.3137C120.68 22.5376 120.68 21.7914 120.68 21.0153C120.68 20.866 120.621 20.687 120.86 20.687C121.098 20.687 121.039 20.866 121.039 21.0153C121.039 22.3884 121.098 23.7913 121.039 25.1643C121.039 25.5822 121.188 25.7016 121.576 25.6419C121.874 25.5822 122.143 25.6419 122.382 25.6419C122.531 25.6419 122.68 25.5822 122.71 25.7912C122.71 26.03 122.531 25.9404 122.412 25.9404C121.934 25.9404 121.516 25.9404 121.039 25.9404C120.74 25.9404 120.71 25.8509 120.71 25.6121C120.68 24.8658 120.68 24.0599 120.68 23.3137Z" fill="black"/>
<path d="M81.2198 23.3435C81.2198 22.5675 81.2198 21.7615 81.2198 21.0153C81.2198 20.866 81.1302 20.687 81.3989 20.687C81.6974 20.687 81.578 20.866 81.578 21.0153C81.578 22.5973 81.578 24.1196 81.578 25.7016C81.578 25.7912 81.6675 26.0001 81.4287 26.0001C81.1899 26.0001 81.2496 25.821 81.2496 25.6718C81.2198 24.8658 81.2198 24.1196 81.2198 23.3435Z" fill="black"/>
<path d="M85.9957 25.0151C86.0554 25.1643 85.9957 25.3136 85.9061 25.433C85.8166 25.2837 85.8464 25.1345 85.8464 25.0449C85.8464 25.0748 85.9061 25.0748 85.9957 25.0151Z" fill="black"/>
<path d="M18.8349 14.6275C18.8349 14.6275 18.8349 14.6574 18.8349 14.6275C20.4169 15.523 20.7452 16.717 20.3273 18.2095C19.8497 19.9407 18.7155 20.8362 16.9842 20.9257C16.3275 20.9854 15.7007 20.9257 15.0739 20.7765C14.6858 20.6869 14.5067 20.7168 14.447 21.1645C14.3575 21.7914 14.1485 22.3585 14.0291 22.9853C13.9694 23.2838 13.8799 23.3734 13.5516 23.2838C13.1635 23.1346 12.5964 23.2241 12.4173 22.8958C12.2382 22.5973 12.5665 22.1197 12.5964 21.7018C12.6859 21.3138 12.7755 20.9257 12.8949 20.5974C12.9546 20.3586 12.8949 20.269 12.6561 20.2094C11.7009 19.9109 11.7009 19.9109 11.4621 20.866C11.3129 21.3436 11.2233 21.8212 11.1338 22.3585C11.0741 22.5973 10.9845 22.657 10.8054 22.5376H10.7457C10.3278 22.448 9.73085 22.448 9.55176 22.1496C9.31296 21.9108 9.6413 21.3735 9.73085 20.9556C9.8204 20.5675 9.8801 20.2392 10.0293 19.9109C10.1189 19.6124 10.0293 19.5228 9.79055 19.493C8.92492 19.3139 8.05929 19.0751 7.22351 18.8661C6.98472 18.8064 6.92502 18.7169 7.04442 18.4781C7.22351 18.0602 7.43246 17.6125 7.61155 17.1946C7.7011 16.9558 7.85035 16.9558 8.02944 17.0155C8.32794 17.105 8.59658 17.1647 8.92492 17.1946C9.31296 17.2841 9.55176 17.105 9.6413 16.717C10.2084 14.3888 10.8353 12.0307 11.4024 9.70242C11.492 9.22483 11.3129 8.83679 10.8353 8.68755C10.5069 8.598 10.1786 8.50845 9.8801 8.44875C9.5816 8.38905 9.55176 8.26966 9.6413 8.03086C9.79055 7.61298 9.73085 6.98614 10.0293 6.74735C10.3278 6.50855 10.895 6.89659 11.3129 6.98614C11.8501 7.07569 12.3277 7.22493 12.8352 7.37418C13.1337 7.43388 13.2232 7.43388 13.3128 7.07569C13.462 6.419 13.6411 5.73247 13.7903 5.07579C13.85 4.83699 13.9396 4.77729 14.1784 4.83699C14.5963 4.98624 15.1933 4.92654 15.4321 5.22503C15.6112 5.52353 15.2828 6.03096 15.1933 6.419C15.1037 6.74734 15.044 7.13538 14.8948 7.46373C14.8351 7.64282 14.8948 7.70252 15.0739 7.79207C16.0887 8.12041 16.0887 8.12041 16.3275 7.13539C16.4171 6.6578 16.5663 6.23991 16.6559 5.76232C16.7156 5.52353 16.8051 5.46383 16.9842 5.58322C17.4021 5.73247 17.9991 5.67277 18.2379 5.97126C18.4767 6.26976 18.0886 6.77719 18.0588 7.16523C17.9692 7.58312 17.6707 8.12041 17.7603 8.50845C17.8498 8.83679 18.5364 8.89649 18.8946 9.07559C19.1334 9.22483 19.3722 9.31438 19.5513 9.46362C20.5661 10.1203 21.0437 11.0456 20.8945 12.2396C20.7452 13.3739 20.1781 14.2395 19.0438 14.6275C18.8946 14.5678 18.8349 14.6275 18.8349 14.6275Z" fill="#FEFEFE"/>
<path d="M35.6101 12.0904C35.6101 12.5082 35.6101 12.956 35.5504 13.3739C35.4609 14.0903 35.1326 14.4186 34.4162 14.4783C33.9983 14.538 33.5207 14.4783 33.073 14.4783C32.8939 14.4783 32.7745 14.4186 32.7745 14.2395C32.7745 12.7172 32.7745 11.2247 32.7745 9.70241C32.7745 9.52332 32.8342 9.40392 33.0133 9.46362C33.4013 9.46362 33.7893 9.46362 34.1475 9.46362C34.9535 9.52332 35.4012 9.88151 35.4907 10.7173C35.5504 11.1352 35.5504 11.6128 35.6101 12.0904Z" fill="#FEFEFE"/>
<path d="M32.7446 4.83699C32.7446 4.21016 32.7446 3.64302 32.7446 3.01619C32.7446 2.7774 32.8043 2.62815 33.073 2.68785C33.4013 2.74754 33.7296 2.68785 34.0878 2.68785C34.7445 2.68785 35.1326 3.01619 35.2221 3.64302C35.3713 4.4191 35.3713 5.16534 35.2221 5.94142C35.0729 6.5981 34.6848 6.98614 33.9684 7.04584C32.7148 7.13539 32.7148 7.13538 32.7148 5.91157C32.7446 5.55337 32.7446 5.16533 32.7446 4.83699Z" fill="#FEFEFE"/>
<path d="M66.1758 8.59798C66.1758 10.0307 66.1758 11.4635 66.1758 12.8963C66.1758 13.1351 66.1758 13.3739 66.1161 13.6127C65.9668 14.2693 65.5489 14.6275 64.8624 14.6275C64.146 14.6275 63.758 14.2992 63.5789 13.6127C63.5192 13.3739 63.5192 13.1948 63.5192 12.956C63.5192 10.0009 63.5192 7.07567 63.5192 4.12059C63.5192 3.8818 63.5192 3.64301 63.6087 3.40421C63.7878 2.74753 64.1759 2.44904 64.8922 2.44904C65.5489 2.44904 65.937 2.77738 66.1459 3.40421C66.2056 3.64301 66.2355 3.9415 66.2355 4.18029C66.1758 5.7026 66.1758 7.13537 66.1758 8.59798Z" fill="#FEFEFE"/>
<path d="M99.8756 23.3137C99.8756 22.657 99.8756 21.9705 99.8756 21.3138C99.8756 21.0153 99.9651 20.9854 100.264 20.9854C101.278 20.9854 101.547 21.2242 101.547 22.2391C101.547 23.045 101.547 23.9107 101.547 24.7166C101.547 25.5225 100.741 26.0001 100.025 25.6718C99.8756 25.6121 99.9352 25.4927 99.9352 25.3434C99.8756 24.6868 99.8756 24.0301 99.8756 23.3137Z" fill="white"/>
<path d="M72.7127 22.1197C72.7127 21.8809 72.7724 21.6421 72.7127 21.4033C72.653 21.0153 72.862 20.9257 73.1903 20.9854C73.5784 21.0451 73.9963 20.9257 74.1455 21.4033C74.3246 21.9406 74.3843 22.5077 74.0858 23.0152C73.9366 23.254 72.9814 23.4331 72.8023 23.3137C72.7127 23.254 72.7127 23.1644 72.7127 23.0749C72.7127 22.7167 72.7127 22.448 72.7127 22.1197Z" fill="white"/>
<path d="M34.2072 22.1197C34.2072 21.9406 34.1475 21.7914 34.2072 21.6421C34.2669 21.4033 34.0281 21.075 34.3863 21.0153C34.9535 20.9257 35.5206 21.075 35.64 21.4332C35.7892 21.9108 35.7892 22.3883 35.64 22.8659C35.5504 23.1943 34.5057 23.5226 34.2669 23.2838C34.1774 23.2241 34.2072 23.1346 34.2072 23.045C34.2072 22.7167 34.2072 22.3883 34.2072 22.1197Z" fill="white"/>
<path d="M57.221 22.1197C57.221 21.8809 57.221 21.6421 57.221 21.463C57.1613 21.075 57.3105 20.9854 57.6986 20.9854C58.5642 21.0451 58.803 21.2242 58.803 22.0899C58.803 22.1794 58.803 22.269 58.803 22.4182C58.803 23.1346 58.0269 23.6122 57.3702 23.3137C57.221 23.254 57.2807 23.1644 57.2807 23.0749C57.221 22.7167 57.221 22.4481 57.221 22.1197Z" fill="white"/>
<path d="M54.3555 22.1197C54.3555 21.9406 54.2958 21.7913 54.3555 21.6421C54.4152 21.4033 54.1167 21.075 54.5346 20.9854C55.2509 20.8959 55.6688 21.075 55.8181 21.5525C55.9076 21.9406 55.9076 22.3585 55.8181 22.7465C55.7285 23.1644 54.8032 23.5525 54.3853 23.3137C54.2958 23.254 54.2958 23.1644 54.2958 23.0749C54.3555 22.7167 54.3555 22.448 54.3555 22.1197Z" fill="white"/>
<path d="M123.486 23.3137C123.486 22.7764 123.486 22.2988 123.486 21.7913C123.546 21.2242 123.785 20.9257 124.262 20.9257C124.74 20.9257 125.068 21.1645 125.128 21.7316C125.188 22.7764 125.188 23.8211 125.128 24.836C125.128 25.4031 124.74 25.7016 124.262 25.6419C123.785 25.6419 123.546 25.3136 123.486 24.7763C123.486 24.2987 123.486 23.8211 123.486 23.3137Z" fill="white"/>
<path d="M119.785 23.3435C119.785 23.8211 119.785 24.239 119.785 24.7166C119.725 25.3434 119.457 25.6718 118.979 25.6718C118.442 25.6718 118.173 25.3434 118.173 24.7166C118.173 23.7017 118.173 22.7465 118.173 21.7615C118.173 21.2242 118.472 20.9556 118.89 20.8959C119.367 20.8362 119.695 21.075 119.755 21.6123C119.785 22.2093 119.725 22.7764 119.785 23.3435Z" fill="white"/>
<path d="M45.8186 23.3137C45.8186 22.7764 45.8186 22.2988 45.8186 21.7913C45.8783 21.2242 46.1171 20.9257 46.5947 20.9257C47.0723 20.9257 47.4006 21.1645 47.4603 21.7316C47.52 22.7764 47.52 23.8211 47.4603 24.836C47.4603 25.4031 47.0723 25.7016 46.5947 25.6419C46.1171 25.6419 45.8783 25.3136 45.8186 24.7763C45.7589 24.2987 45.8186 23.8211 45.8186 23.3137Z" fill="white"/>
<path d="M94.6221 21.2541C94.8609 22.2689 95.0997 23.3137 95.3385 24.2987C95.3982 24.4778 95.2788 24.4778 95.1594 24.4778C94.7415 24.4778 94.2937 24.4778 93.8162 24.4778C94.0549 23.3734 94.2937 22.2689 94.5325 21.2242C94.5624 21.2541 94.6221 21.2541 94.6221 21.2541Z" fill="white"/>
<path d="M40.1771 22.2092C40.1771 21.9705 40.2368 21.672 40.1771 21.4332C40.1174 21.0153 40.3263 20.8959 40.7144 20.9556C41.5203 21.0153 41.7292 21.1944 41.7591 22.0003C41.7591 22.1495 41.7591 22.2391 41.7591 22.3883C41.7591 23.2838 41.2815 23.6719 40.386 23.4928C40.2069 23.4331 40.2069 23.3435 40.2069 23.1943C40.1771 22.8659 40.1771 22.5376 40.1771 22.2092Z" fill="white"/>
<path d="M14.9843 18.5676C14.1187 18.5079 13.3128 18.3288 12.4471 18.09C12.268 18.0303 12.1486 17.9408 12.268 17.7617C12.5068 16.7468 12.7456 15.7618 13.0441 14.8066C13.1038 14.6574 13.1038 14.5081 13.3426 14.5678C14.3575 14.8066 15.4022 15.0454 16.2977 15.6126C16.835 15.9409 17.2529 16.4185 17.1932 17.105C17.1335 17.9109 16.626 18.4482 15.8201 18.5975C15.5216 18.5676 15.2828 18.5676 14.9843 18.5676Z" fill="black"/>
<path d="M15.8798 13.2843C15.0739 13.2843 14.3873 13.1052 13.7306 12.8963C13.4919 12.8366 13.4919 12.747 13.5516 12.5083C13.7903 11.6128 13.9694 10.7471 14.2082 9.82182C14.2679 9.67257 14.2978 9.58302 14.5067 9.64272C15.4022 9.88152 16.3574 10.0308 17.1335 10.6576C17.5514 10.9859 17.7603 11.4635 17.6707 12.0008C17.5812 12.5381 17.2827 12.8963 16.7753 13.1052C16.4171 13.2843 16.1186 13.3142 15.8798 13.2843Z" fill="black"/>
</g>
</svg>
