<svg width="164" height="36" viewBox="0 0 164 36" fill="none" xmlns="http://www.w3.org/2000/svg">
<path d="M29.1774 3.75732H35.4543V4.84484H35.2839C33.3445 4.84484 33.0542 5.82087 33.0542 7.1587V14.1003C33.0542 20.3246 29.127 21.4962 26.2451 21.4962C21.8846 21.5046 19.1164 19.3233 19.1164 15.0595V6.7422C19.1164 5.34758 18.7777 4.84905 17.4209 4.84905H17.0128V3.75732H24.5981V4.84484H24.1774C23.1593 4.84484 22.4567 5.37492 22.4567 6.738V15.0595C22.4567 18.463 24.6381 19.6367 26.8425 19.6367C30.0167 19.6367 31.5923 17.5711 31.5923 14.502V7.72034C31.5923 5.73883 31.1085 4.84484 29.6045 4.84484H29.1774V3.75732Z" fill="black"/>
<path d="M49.7981 21.5278H36.809V20.4382H37.2297C38.78 20.4382 39.2406 19.7966 39.2406 18.4293V6.86C39.2406 5.21295 38.416 4.85115 37.3264 4.85115H36.8573V3.75732H45.0737V4.84484H44.3711C43.109 4.84484 42.5768 5.48641 42.5768 6.799V18.7091C42.5768 19.7419 42.8439 19.9922 43.7884 19.9922H46.8658C48.4898 19.9922 48.9694 19.0709 50.5975 16.6708H51.5672L49.7981 21.5278Z" fill="black"/>
<path d="M60.1222 18.3452C60.1222 19.7966 60.5092 20.4381 62.2257 20.4381H62.8083V21.5257H54.0872V20.4381H54.9118C56.2454 20.4381 56.7776 19.8239 56.7776 18.3452V5.68835H53.9168C52.051 5.68835 51.7607 6.0228 51.3 8.98034H50.3072L50.7426 3.75732H66.155L66.5905 8.97613H65.6039C65.1369 6.05015 64.8466 5.68835 62.9808 5.68835H60.1222V18.3452Z" fill="black"/>
<path d="M74.2956 18.402C74.2956 19.826 74.8278 20.4381 76.2098 20.4381H76.9355V21.5257H68.4542V20.4381H68.8412C70.3137 20.4381 70.9447 20.0174 70.9447 18.402V7.39008C70.9447 6.05015 70.6292 5.26975 69.0053 5.26975H68.4962V4.17803C69.7079 4.09389 70.6292 4.03919 71.622 3.95505C72.9872 3.84567 74.731 3.75732 75.604 3.75732C79.1652 3.75732 81.1047 4.28741 82.3163 5.68203C83.091 6.56051 83.5076 7.69782 83.4837 8.86885C83.4837 10.9892 82.1522 12.6552 79.8973 13.3619C81.4959 14.8975 82.3457 16.7822 84.0664 18.7638C85.0593 19.9081 85.4631 20.2699 86.9903 20.4466V21.4983C86.4581 21.5257 86.4896 21.5257 85.7618 21.5257C82.758 21.5257 81.5212 21.0229 80.3811 19.7124C79.1694 18.3178 77.7643 15.7158 76.214 14.1697H74.2998L74.2956 18.402ZM74.2956 13.0001H75.2401C78.1724 13.0001 79.8678 11.9673 79.8678 8.98244C79.8678 5.99756 77.9052 4.96474 75.5535 4.96474H74.2914L74.2956 13.0001Z" fill="black"/>
<path d="M99.3021 5.29289H94.0013V11.9841H97.9264C99.26 11.9841 99.7439 11.4541 99.7439 9.9753H100.714V15.537H99.7439C99.7439 14.0309 99.4283 13.5281 97.5625 13.5281H94.0013V18.5408C94.0013 19.7398 94.1948 19.9922 94.8974 19.9922H98.9445C100.52 19.9922 101.271 19.4895 101.732 17.1462H102.653L102.363 21.5278H88.3828V20.4382H88.7614C90.1666 20.4382 90.6546 19.7966 90.6546 18.4293V6.88314C90.6546 5.37703 90.2192 4.84694 88.5511 4.84694H88.3008V3.75732H101.654L101.896 7.80448H100.974C100.733 5.90501 100.417 5.29289 99.3021 5.29289Z" fill="black"/>
<path d="M116.677 3.75732H122.954V4.84484H122.784C120.844 4.84484 120.554 5.82087 120.554 7.1587V14.1003C120.554 20.3246 116.627 21.4962 113.745 21.4962C109.382 21.5046 106.622 19.3233 106.622 15.0595V6.7422C106.622 5.34758 106.284 4.84905 104.927 4.84905H104.506V3.75732H112.091V4.84484H111.671C110.653 4.84484 109.95 5.37492 109.95 6.738V15.0595C109.95 18.463 112.131 19.6367 114.336 19.6367C117.51 19.6367 119.086 17.5711 119.086 14.502V7.72034C119.086 5.73883 118.602 4.84484 117.098 4.84484H116.677V3.75732Z" fill="black"/>
<path d="M128.453 7.33329H128.404L127.868 17.6762C127.771 19.5189 127.794 20.4108 129.856 20.4381V21.5257H124.479V20.4381C126.372 20.4108 126.418 19.7966 126.538 17.4806L127.071 6.96307C127.144 5.5411 127.071 4.92687 125.447 4.84273V3.75732H130.56L135.287 15.4781L139.818 3.75732H145.028V4.84484C143.282 4.95632 143.162 4.95632 143.282 6.96517L143.867 17.6741C143.987 20.0195 144.061 20.2699 146 20.436V21.5236H138.366V20.4381H138.787C139.805 20.4381 140.653 20.4381 140.653 18.6249C140.653 18.179 140.63 17.7309 140.604 17.3123L140.045 6.99252H139.997L134.559 21.1155H133.968L128.453 7.33329Z" fill="black"/>
<path d="M25.6141 30.0511C25.5059 30.7562 25.3211 31.4475 25.063 32.1125C24.8753 32.0534 24.6791 32.0264 24.4824 32.0326C24.0196 32.0326 23.5295 32.2429 22.7996 32.2429C22.323 32.2431 21.8512 32.1479 21.4119 31.9631C20.9726 31.7783 20.5747 31.5075 20.2416 31.1667C19.9084 30.8259 19.6467 30.422 19.4719 29.9786C19.2971 29.5352 19.2127 29.0614 19.2236 28.5849C19.2222 28.0924 19.3189 27.6046 19.5083 27.1499C19.6976 26.6952 19.9757 26.2829 20.3263 25.937C20.6769 25.5911 21.093 25.3186 21.5502 25.1354C22.0074 24.9522 22.4965 24.862 22.9889 24.8701C24.0112 24.8701 24.6717 25.335 24.8821 25.335C24.9217 25.3344 24.9605 25.3236 24.9947 25.3037C25.029 25.2839 25.0575 25.2555 25.0777 25.2214H25.3238L25.4122 27.2029H25.0062C24.6907 26.0818 23.9944 25.4486 23.0499 25.4486C21.6448 25.4486 20.6709 26.6707 20.6709 28.4608C20.6709 30.2846 21.7521 31.6876 23.1572 31.6876C24.0617 31.6876 24.8085 31.0881 25.2123 30.0574L25.6141 30.0511Z" fill="black"/>
<path d="M41.6029 29.4579L41.1822 30.9408C41.0055 31.5193 41.016 31.7822 41.9583 31.7822H42.0867V32.224H39.4888V31.7822H39.6361C40.1073 31.7822 40.3534 31.534 40.5995 30.7305L42.2823 25.1709L42.175 24.8428H43.6306L45.5974 30.7536C45.8519 31.5004 46.0686 31.7276 46.5798 31.7738V32.2156H43.3824V31.7738H43.7274C44.3269 31.7738 44.4152 31.4688 44.2196 30.9135L43.759 29.441L41.6029 29.4579ZM42.6252 26.1848L41.7985 28.8352H43.5297L42.6252 26.1848Z" fill="black"/>
<path d="M62.659 30.9412C62.659 31.5975 62.8694 31.7826 63.5151 31.7826H63.8096V32.2244H60.4714V31.7826H60.6186C61.1592 31.7826 61.3064 31.6459 61.3064 31.1368V26.1305C61.3064 25.6088 61.1592 25.4742 60.6186 25.4742H60.4082V25.0325C60.7911 25.0093 61.3212 24.942 62.0006 24.9084C62.68 24.8747 63.288 24.8516 63.5635 24.8516C65.4567 24.8516 66.2665 25.9033 66.2665 27.0708C66.2665 28.3834 65.3031 29.2227 63.7886 29.2227C63.4121 29.2213 63.0366 29.1833 62.6674 29.1091L62.659 30.9412ZM62.659 28.6421C62.8905 28.7013 63.129 28.7282 63.3679 28.722C64.2808 28.722 64.7941 28.1099 64.7941 27.0013C64.7941 25.9496 64.264 25.348 63.3595 25.348C63.1238 25.3449 62.8886 25.3703 62.659 25.4237V28.6421Z" fill="black"/>
<path d="M80.2717 25.0303H83.3975V25.472H83.2313C82.6991 25.472 82.4845 25.7328 82.4845 26.3134V30.9559C82.4845 31.5112 82.6507 31.7825 83.2502 31.7825H83.3975V32.2243H80.2717V31.7825H80.4105C80.9322 31.7825 81.1278 31.4986 81.1278 31V26.3218C81.1278 25.7328 80.9511 25.4804 80.4 25.4804H80.2717V25.0303Z" fill="black"/>
<path d="M101.401 30.9408C101.401 31.5298 101.559 31.7822 102.255 31.7822H102.491V32.2239H98.9529V31.7822H99.2874C99.828 31.7822 100.045 31.534 100.045 30.9408V25.6189H98.8856C98.1284 25.6189 98.0106 25.7557 97.8339 26.9547H97.43L97.6067 24.8364H97.9201C97.972 24.9003 98.0355 24.9539 98.1073 24.9942C98.2002 25.021 98.2968 25.0324 98.3934 25.0278H103.074C103.162 25.0441 103.254 25.0347 103.337 25.0008C103.421 24.9669 103.493 24.9099 103.545 24.8364H103.858L104.035 26.9547H103.631C103.444 25.7662 103.326 25.6189 102.579 25.6189H101.42L101.401 30.9408Z" fill="black"/>
<path d="M119.285 29.4579L118.865 30.9408C118.688 31.5193 118.699 31.7822 119.641 31.7822H119.769V32.224H117.171V31.7822H117.319C117.79 31.7822 118.036 31.534 118.282 30.7305L119.965 25.1709L119.858 24.8428H121.313L123.28 30.7536C123.535 31.5004 123.751 31.7276 124.262 31.7738V32.2156H121.065V31.7738H121.41C122.009 31.7738 122.098 31.4688 121.902 30.9135L121.442 29.441L119.285 29.4579ZM120.308 26.1848L119.481 28.8352H121.212L120.308 26.1848Z" fill="black"/>
<path d="M143.265 32.2327H138.007V31.791H138.173C138.804 31.791 138.989 31.5301 138.989 30.9748V26.2882C138.989 25.6193 138.655 25.472 138.213 25.472H138.026V25.0303H141.358V25.472H141.071C140.56 25.472 140.344 25.7328 140.344 26.265V31.0884C140.344 31.5091 140.451 31.61 140.836 31.61H142.085C142.744 31.61 142.941 31.2356 143.6 30.2617H143.993L143.265 32.2327Z" fill="black"/>
</svg>
