<svg width="129" height="30" viewBox="0 0 129 30" fill="none" xmlns="http://www.w3.org/2000/svg">
<g clip-path="url(#clip0_274_112)">
<path d="M25.9733 25.227C25.2926 25.9597 24.5393 26.6215 23.7251 27.2023C21.1826 29.0259 18.132 30.0061 15.0031 30.0048C12.3319 30.0046 9.70915 29.2912 7.40588 27.9383C5.10262 26.5854 3.20236 24.6421 1.90141 22.3091C0.600462 19.9761 -0.0539796 17.3381 0.00569849 14.6675C0.0653766 11.997 0.83701 9.39081 2.24088 7.11826C2.30964 7.00575 2.3784 6.9099 2.44924 6.78905L2.6576 6.46609C2.91597 6.09104 3.19379 5.72988 3.49105 5.3826L3.66816 5.17424C3.69508 5.13901 3.72432 5.10559 3.75567 5.07423C3.82026 4.99713 3.88694 4.92421 3.96403 4.85128L4.04113 4.77002L6.2081 7.81836L6.2331 7.85587C6.18309 7.91629 6.13308 7.98088 6.08724 8.04339C6.03624 8.10296 5.98892 8.16558 5.94556 8.23092C4.32668 10.3909 3.53419 13.0589 3.71142 15.7523C3.88864 18.4458 5.02388 20.9869 6.91182 22.9162C8.79976 24.8454 11.3157 26.0353 14.0048 26.2708C16.6938 26.5062 19.3783 25.7716 21.5727 24.1998L20.3226 22.4475L18.1827 19.445C19.0398 18.8298 19.7022 17.9815 20.0913 17.0009C20.4175 16.1717 20.5362 15.2754 20.437 14.3898C20.3378 13.5043 20.0238 12.6564 19.5223 11.9199C19.0207 11.1834 18.3469 10.5806 17.5592 10.1639C16.7716 9.74723 15.8941 9.52927 15.0031 9.52901H14.7655C13.7112 9.57403 12.693 9.92598 11.836 10.5417L9.68358 7.54541C10.5071 6.9572 11.4224 6.50941 12.3923 6.22022H12.4027C13.2463 5.96677 14.1222 5.83693 15.0031 5.83475C15.276 5.83475 15.5448 5.84725 15.8115 5.87017C17.4189 6.01047 18.9607 6.57338 20.2804 7.50181C21.6 8.43024 22.6507 9.69115 23.3258 11.1567C24.0009 12.6222 24.2765 14.2402 24.1245 15.8466C23.9725 17.4529 23.3984 18.9905 22.4604 20.3034L23.7689 22.1349L25.9733 25.227Z" fill="#999999"/>
<path fill-rule="evenodd" clip-rule="evenodd" d="M18.1734 19.4326C17.5918 19.8655 16.9297 20.1781 16.2258 20.352C15.5219 20.526 14.7905 20.5578 14.0742 20.4457C13.3579 20.3335 12.6711 20.0796 12.0541 19.6989C11.4371 19.3182 10.9022 18.8182 10.4807 18.2282C10.0593 17.6383 9.75968 16.9702 9.5995 16.2631C9.43932 15.556 9.42177 14.824 9.54788 14.1101C9.67398 13.3961 9.9412 12.7144 10.3339 12.105C10.7266 11.4955 11.2369 10.9705 11.835 10.5606L18.1734 19.4326Z" fill="#999999"/>
<path d="M43.8255 16.4238L45.8403 17.9073C44.5297 19.6576 42.9878 20.4202 41.2834 20.4202C40.5596 20.4344 39.8403 20.304 39.1674 20.0368C38.4946 19.7696 37.8818 19.3709 37.3649 18.8641C36.848 18.3572 36.4374 17.7523 36.1571 17.0848C35.8768 16.4174 35.7324 15.7007 35.7324 14.9767C35.7324 14.2528 35.8768 13.5361 36.1571 12.8686C36.4374 12.2012 36.848 11.5963 37.3649 11.0894C37.8818 10.5825 38.4946 10.1838 39.1674 9.91664C39.8403 9.64944 40.5596 9.51911 41.2834 9.53327C43.017 9.53327 44.5881 10.3417 45.8966 12.0899L43.8546 13.588C43.0316 12.4858 42.1877 12.0461 41.2834 12.0461C40.5081 12.0461 39.7646 12.3541 39.2163 12.9023C38.6681 13.4506 38.3601 14.1941 38.3601 14.9694C38.3601 15.7448 38.6681 16.4883 39.2163 17.0365C39.7646 17.5848 40.5081 17.8928 41.2834 17.8928C42.194 17.8928 43.0024 17.5031 43.8255 16.4238Z" fill="#999999"/>
<path d="M49.4813 13.9254C50.1521 13.5911 50.8926 13.4204 51.642 13.4275L51.069 15.7486C50.2023 15.7486 49.4813 16.1883 49.4813 16.7321V20.2742H47.1602V13.5441H49.4813V13.9254Z" fill="#999999"/>
<path d="M53.5372 23.375L55.052 19.6432L52.5684 13.5444H54.9041L56.2126 16.7178L57.4899 13.5444H59.8277L55.8417 23.375H53.5372Z" fill="#999999"/>
<path d="M67.9088 16.9093C67.9086 17.8401 67.54 18.733 66.8836 19.393C66.5583 19.714 66.1726 19.9675 65.7489 20.1388C65.3251 20.3101 64.8716 20.3958 64.4145 20.391C63.9888 20.3787 63.5777 20.233 63.2394 19.9743V23.3831H60.9141V13.5442H63.2352V13.8526C63.5711 13.5894 63.9837 13.4431 64.4104 13.4359C64.8676 13.4294 65.3215 13.5135 65.746 13.6834C66.1705 13.8533 66.5571 14.1055 66.8836 14.4256C67.54 15.0856 67.9086 15.9785 67.9088 16.9093ZM65.5876 16.9093C65.5852 16.677 65.514 16.4506 65.3832 16.2587C65.2523 16.0667 65.0676 15.9178 64.8523 15.8306C64.637 15.7434 64.4007 15.7219 64.1731 15.7687C63.9456 15.8155 63.737 15.9286 63.5736 16.0938C63.4102 16.2589 63.2993 16.4687 63.2549 16.6967C63.2105 16.9247 63.2345 17.1608 63.324 17.3751C63.4135 17.5895 63.5643 17.7727 63.7577 17.9015C63.951 18.0303 64.1781 18.099 64.4104 18.099C64.5658 18.0982 64.7195 18.0668 64.8628 18.0066C65.0061 17.9463 65.1361 17.8585 65.2454 17.748C65.3547 17.6375 65.4412 17.5066 65.4999 17.3627C65.5587 17.2188 65.5885 17.0647 65.5876 16.9093Z" fill="#999999"/>
<path d="M69.4374 17.8197V15.7049H68.6289V13.5441H69.4374V11.4438H71.7585V13.5441H73.4358V15.7049H71.7585V17.7885C71.7526 17.8376 71.7664 17.8871 71.7968 17.9262C71.8273 17.9652 71.8719 17.9906 71.921 17.9968H73.3316L73.9338 20.2742H71.8856C71.5633 20.2754 71.2439 20.2126 70.9459 20.0895C70.648 19.9665 70.3774 19.7856 70.1497 19.5574C69.9221 19.3292 69.7419 19.0581 69.6197 18.7599C69.4974 18.4616 69.4354 18.1421 69.4374 17.8197Z" fill="#999999"/>
<path d="M81.649 16.9095C81.6477 17.8409 81.2776 18.7339 80.6197 19.3932C79.9682 20.0429 79.0853 20.4071 78.1652 20.4059C77.6998 20.4172 77.2369 20.3354 76.8036 20.1652C76.3704 19.9949 75.9755 19.7398 75.6424 19.4146C75.3092 19.0895 75.0445 18.7011 74.8637 18.2721C74.683 17.8431 74.5898 17.3823 74.5898 16.9168C74.5898 16.4513 74.683 15.9905 74.8637 15.5616C75.0445 15.1326 75.3092 14.7441 75.6424 14.419C75.9755 14.0939 76.3704 13.8387 76.8036 13.6685C77.2369 13.4983 77.6998 13.4164 78.1652 13.4278C78.6199 13.4244 79.0707 13.5109 79.4919 13.6822C79.9131 13.8534 80.2964 14.1062 80.6197 14.4259C81.2776 15.0852 81.6477 15.9781 81.649 16.9095ZM79.3258 16.9095C79.313 16.6083 79.1844 16.3237 78.9668 16.1151C78.7492 15.9064 78.4594 15.79 78.1579 15.79C77.8564 15.79 77.5666 15.9064 77.349 16.1151C77.1313 16.3237 77.0027 16.6083 76.99 16.9095C76.9834 17.0671 77.0086 17.2243 77.0643 17.3718C77.12 17.5193 77.205 17.654 77.3141 17.7678C77.4232 17.8816 77.5542 17.9722 77.6992 18.034C77.8442 18.0959 78.0002 18.1278 78.1579 18.1278C78.3155 18.1278 78.4716 18.0959 78.6166 18.034C78.7616 17.9722 78.8926 17.8816 79.0017 17.7678C79.1108 17.654 79.1958 17.5193 79.2514 17.3718C79.3071 17.2243 79.3324 17.0671 79.3258 16.9095Z" fill="#999999"/>
<path d="M89.8326 16.9096C89.8322 17.8412 89.462 18.7345 88.8033 19.3933C88.4782 19.7141 88.0929 19.9675 87.6695 20.1388C87.2461 20.31 86.793 20.3959 86.3363 20.3913C85.9099 20.3795 85.498 20.2337 85.159 19.9746V23.3834H82.8379V13.5446H85.159V13.8529C85.4957 13.5897 85.909 13.4434 86.3363 13.4362C86.793 13.4317 87.2461 13.5175 87.6695 13.6888C88.0929 13.8601 88.4782 14.1134 88.8033 14.4343C89.4599 15.091 89.83 15.9809 89.8326 16.9096ZM87.5115 16.9096C87.509 16.6772 87.4378 16.4508 87.3069 16.2588C87.1759 16.0668 86.9911 15.9179 86.7756 15.8307C86.5602 15.7436 86.3238 15.7222 86.0962 15.7692C85.8686 15.8162 85.66 15.9295 85.4967 16.0948C85.3334 16.2602 85.2227 16.4701 85.1785 16.6983C85.1343 16.9264 85.1586 17.1626 85.2484 17.3769C85.3382 17.5913 85.4894 17.7742 85.683 17.9028C85.8766 18.0314 86.1039 18.0998 86.3363 18.0994C86.4916 18.0985 86.6453 18.0671 86.7884 18.0068C86.9316 17.9466 87.0614 17.8587 87.1706 17.7482C87.2797 17.6377 87.366 17.5067 87.4245 17.3628C87.483 17.2189 87.5126 17.0649 87.5115 16.9096Z" fill="#999999"/>
<path d="M97.768 16.9095C97.7675 17.8407 97.3981 18.7337 96.7408 19.3932C96.0889 20.0423 95.2062 20.4065 94.2863 20.4059C93.8209 20.4172 93.358 20.3354 92.9247 20.1652C92.4915 19.9949 92.0966 19.7398 91.7635 19.4146C91.4303 19.0895 91.1656 18.7011 90.9848 18.2721C90.8041 17.8431 90.7109 17.3823 90.7109 16.9168C90.7109 16.4513 90.8041 15.9905 90.9848 15.5616C91.1656 15.1326 91.4303 14.7441 91.7635 14.419C92.0966 14.0939 92.4915 13.8387 92.9247 13.6685C93.358 13.4983 93.8209 13.4164 94.2863 13.4278C94.7409 13.4248 95.1917 13.5114 95.6128 13.6826C96.034 13.8539 96.4173 14.1064 96.7408 14.4259C97.3981 15.0854 97.7675 15.9784 97.768 16.9095ZM95.4469 16.9095C95.4341 16.6083 95.3055 16.3237 95.0879 16.1151C94.8703 15.9064 94.5805 15.79 94.279 15.79C93.9775 15.79 93.6877 15.9064 93.4701 16.1151C93.2524 16.3237 93.1238 16.6083 93.1111 16.9095C93.1045 17.0671 93.1297 17.2243 93.1854 17.3718C93.2411 17.5193 93.3261 17.654 93.4352 17.7678C93.5443 17.8816 93.6753 17.9722 93.8203 18.034C93.9653 18.0959 94.1213 18.1278 94.279 18.1278C94.4366 18.1278 94.5927 18.0959 94.7377 18.034C94.8827 17.9722 95.0137 17.8816 95.1228 17.7678C95.2319 17.654 95.3169 17.5193 95.3725 17.3718C95.4282 17.2243 95.4535 17.0671 95.4469 16.9095Z" fill="#999999"/>
<path d="M99.0918 20.2746V9.50439H101.43V20.2746H99.0918Z" fill="#999999"/>
<path d="M103.484 11.3109C103.484 11.1372 103.518 10.965 103.584 10.8044C103.65 10.6438 103.747 10.4978 103.87 10.3748C103.993 10.2519 104.139 10.1544 104.299 10.088C104.46 10.0216 104.632 9.98752 104.805 9.98779C105.156 9.98779 105.493 10.1272 105.741 10.3753C105.989 10.6235 106.129 10.96 106.129 11.3109C106.129 11.6618 105.989 11.9983 105.741 12.2465C105.493 12.4946 105.156 12.634 104.805 12.634C104.632 12.6345 104.459 12.6007 104.299 12.5344C104.138 12.468 103.992 12.3706 103.869 12.2476C103.747 12.1246 103.649 11.9785 103.583 11.8177C103.517 11.657 103.484 11.4847 103.484 11.3109ZM103.647 13.5445H105.968V20.2746H103.647V13.5445Z" fill="#999999"/>
<path d="M108.406 17.8197V15.7049H107.6V13.5441H108.406V11.4438H110.729V13.5441H112.396V15.7049H110.729V17.7885C110.723 17.8373 110.737 17.8865 110.767 17.9255C110.797 17.9645 110.841 17.9901 110.89 17.9968H112.307L112.909 20.2742H110.867C110.543 20.277 110.223 20.2155 109.923 20.0932C109.624 19.9709 109.352 19.7903 109.123 19.5619C108.894 19.3335 108.713 19.0619 108.589 18.7628C108.466 18.4637 108.404 18.1431 108.406 17.8197Z" fill="#999999"/>
<path d="M118.283 13.8529V13.5445H120.619V20.2746H118.283V19.9662C117.959 20.2425 117.546 20.3907 117.12 20.3829C116.663 20.3829 116.21 20.2929 115.788 20.1179C115.366 19.9429 114.982 19.6865 114.658 19.3632C114.335 19.0399 114.079 18.656 113.904 18.2336C113.729 17.8112 113.639 17.3584 113.639 16.9012C113.639 16.444 113.729 15.9912 113.904 15.5688C114.079 15.1464 114.335 14.7626 114.658 14.4393C114.982 14.1159 115.366 13.8595 115.788 13.6845C116.21 13.5095 116.663 13.4195 117.12 13.4195C117.548 13.4163 117.962 13.5706 118.283 13.8529ZM118.283 16.9095C118.279 16.679 118.207 16.4549 118.076 16.2653C117.944 16.0757 117.76 15.9291 117.546 15.844C117.331 15.7589 117.097 15.7391 116.871 15.787C116.646 15.835 116.439 15.9485 116.278 16.1134C116.117 16.2783 116.008 16.4872 115.966 16.7138C115.923 16.9403 115.948 17.1745 116.038 17.3867C116.128 17.599 116.279 17.7799 116.472 17.9067C116.664 18.0335 116.89 18.1005 117.12 18.0993C117.432 18.0949 117.729 17.9673 117.947 17.7443C118.165 17.5214 118.286 17.2213 118.283 16.9095Z" fill="#999999"/>
<path d="M127.788 14.3967C128.395 15.0106 128.734 15.8401 128.73 16.7033V20.2746H126.409V16.7033C126.409 16.4518 126.309 16.2107 126.131 16.0329C125.953 15.8551 125.712 15.7552 125.461 15.7552C125.209 15.7552 124.968 15.8551 124.79 16.0329C124.613 16.2107 124.513 16.4518 124.513 16.7033V20.2746H122.189V13.5445H124.513V13.8529C124.629 13.5737 125.138 13.4361 125.467 13.4361C125.897 13.4326 126.323 13.514 126.721 13.6756C127.12 13.8372 127.482 14.0759 127.788 14.3779V14.3967Z" fill="#999999"/>
<path fill-rule="evenodd" clip-rule="evenodd" d="M29.9994 15.0007C29.9994 17.7299 29.2702 20.3965 27.8535 22.7299L25.4368 19.334C26.3118 17.2507 26.541 14.9382 26.0827 12.709C26.0618 12.6465 26.0618 12.5632 26.041 12.5007V12.4799C26.0202 12.3965 25.9993 12.334 25.9785 12.2507C25.9577 12.1674 25.9577 12.1257 25.9368 12.0632C25.8952 11.9174 25.8535 11.7924 25.8118 11.6465C25.8118 11.6049 25.791 11.5632 25.7702 11.5215C25.7702 11.5007 25.7493 11.4799 25.7493 11.459C25.7077 11.334 25.666 11.209 25.6243 11.084C25.6035 11.0007 25.5618 10.9174 25.5202 10.834C25.4785 10.7507 25.4577 10.6674 25.416 10.584C25.3743 10.5007 25.3535 10.4174 25.3118 10.334C25.2285 10.1674 25.166 10.0007 25.0827 9.83404C25.041 9.77154 25.0202 9.68821 24.9785 9.62571L24.9577 9.60488C24.9577 9.60488 24.9577 9.60488 24.9577 9.58404C24.916 9.50071 24.8743 9.43821 24.8327 9.35488C24.791 9.27154 24.7493 9.18821 24.6868 9.12571C24.5827 8.95904 24.4785 8.79238 24.3743 8.62571C23.7702 7.72988 23.041 6.93821 22.2285 6.27154L22.041 6.10488L21.791 5.91738C21.7285 5.85488 21.6452 5.81321 21.5619 5.75071C21.4785 5.68821 21.416 5.64654 21.3535 5.60488C21.2702 5.54238 21.1869 5.50071 21.1035 5.43821C21.0202 5.37571 20.9785 5.35488 20.9369 5.33404C20.8952 5.31321 20.8327 5.27154 20.7702 5.22988C17.8327 3.50071 14.291 3.18821 11.1035 4.35488C10.2702 4.66738 8.52018 5.70904 8.45768 5.75071L6.29102 2.79238L6.58268 2.60488C7.31185 2.10488 8.08268 1.66738 8.87435 1.31321C13.041 -0.56179 17.8119 -0.415957 21.8744 1.66738C22.0202 1.72988 22.166 1.81321 22.291 1.89654C22.3535 1.93821 22.4368 1.97988 22.4993 2.02154L22.6868 2.14654C22.7493 2.18821 22.8119 2.22988 22.8744 2.27154C23.0202 2.35488 23.1452 2.43821 23.291 2.52154L23.4577 2.62571C23.541 2.66738 23.6035 2.72988 23.6868 2.79238C23.7702 2.85488 23.8535 2.89654 23.916 2.95904L24.041 3.06321L24.2493 3.22988C24.4368 3.37571 24.6243 3.54238 24.8118 3.68821C24.9993 3.83404 25.166 4.00071 25.3535 4.16738L25.6035 4.41738C25.6868 4.50071 25.7702 4.58404 25.8535 4.66738C26.0202 4.83404 26.166 5.00071 26.3119 5.16738L26.4993 5.39654C26.5618 5.47988 26.6244 5.54238 26.6869 5.62571C26.7494 5.70904 26.791 5.75071 26.8327 5.81321C26.8744 5.87571 26.9369 5.93821 26.9785 6.00071L27.1243 6.18821C27.1868 6.27154 27.2494 6.35488 27.291 6.43821C27.3327 6.52154 27.416 6.60488 27.4577 6.68821C27.4785 6.72988 27.5202 6.77154 27.541 6.81321C27.5618 6.85488 27.6035 6.89654 27.6244 6.93821L27.7493 7.14654C27.8118 7.25071 27.8744 7.35488 27.9369 7.45904L28.0618 7.68821L28.1869 7.91738C28.1869 7.91738 28.1868 7.93821 28.2077 7.93821L28.2285 7.95904C28.2285 7.95904 28.2285 7.97988 28.2494 7.97988C28.2494 7.97988 28.2493 8.00071 28.2702 8.00071L28.3952 8.22988L28.416 8.25071C28.4577 8.33404 28.4994 8.41738 28.541 8.52154C28.5827 8.62571 28.6244 8.70904 28.666 8.81321L28.7702 9.06321L28.8744 9.29238L28.9577 9.50071C28.9994 9.60488 29.041 9.68821 29.0619 9.77154C29.0827 9.79238 29.0827 9.81321 29.0827 9.85488C29.1244 9.95904 29.166 10.0632 29.1869 10.1674C29.2702 10.3965 29.3327 10.6257 29.3952 10.8757C29.416 10.9799 29.4577 11.1049 29.4785 11.209V11.2507C29.541 11.5007 29.6035 11.7299 29.6452 11.9799C29.666 12.1049 29.6869 12.2299 29.7077 12.334C29.7077 12.3549 29.7077 12.3757 29.7077 12.3757C29.7285 12.4799 29.7493 12.584 29.7702 12.6882L29.8119 13.0424V13.0632C29.8327 13.1882 29.8327 13.3132 29.8535 13.4382C29.8744 13.6674 29.8952 13.8965 29.916 14.1465C29.9994 14.4382 29.9994 14.709 29.9994 15.0007Z" fill="#999999"/>
<path d="M25.9583 25.2298C25.2708 25.959 24.5208 26.6257 23.7083 27.209C21.1875 29.0215 18.125 30.0007 15 30.0007C6.70833 30.0007 0 23.2923 0 15.0007C0 12.209 0.770833 9.47985 2.22917 7.12568C2.29167 7.02152 2.375 6.91735 2.4375 6.79235L2.64583 6.47985C2.89583 6.10485 3.1875 5.75068 3.47917 5.39651L3.66667 5.18818C3.6875 5.14651 3.72917 5.12568 3.75 5.08401C3.8125 5.00068 3.875 4.93818 3.95833 4.85485L4.04167 4.77151L6.20833 7.81318L6.22917 7.85485C6.1875 7.91735 6.125 7.97985 6.08333 8.04235C6.04167 8.10485 5.97917 8.16735 5.9375 8.22985C2.1875 13.2298 3.20833 20.3132 8.20833 24.0423C12.1458 27.0007 17.5625 27.0632 21.5625 24.1882L20.3125 22.4382L18.1875 19.4382C19.0417 18.8132 19.7083 17.9798 20.1042 17.0007C21.2083 14.1882 19.8333 11.0215 17.0208 9.91735C16.375 9.66735 15.7083 9.54235 15.0208 9.54235H14.7917C13.7292 9.58401 12.7292 9.93818 11.8542 10.5632L9.6875 7.54235C10.5208 6.95902 11.4167 6.50068 12.3958 6.20901C13.2292 5.95901 14.125 5.83402 15 5.83402C15.2708 5.83402 15.5417 5.85485 15.8125 5.87568C20.8542 6.31318 24.5625 10.7507 24.125 15.7923C23.9792 17.4173 23.3958 18.9798 22.4583 20.3132L23.7708 22.1465L25.9583 25.2298Z" fill="#999999"/>
<path fill-rule="evenodd" clip-rule="evenodd" d="M18.1659 19.438C15.7492 21.2297 12.3326 20.7297 10.5409 18.313C8.74925 15.8963 9.24925 12.4797 11.6659 10.688C11.7284 10.6463 11.7909 10.6047 11.8326 10.563L18.1659 19.438Z" fill="#999999"/>
<path d="M43.8124 16.4175L45.8332 17.8966C44.5207 19.6466 42.9791 20.4175 41.2707 20.4175C38.2707 20.48 35.7707 18.0841 35.7291 15.0841C35.6874 12.0841 38.0624 9.58415 41.0624 9.54248C41.1249 9.54248 41.2082 9.54248 41.2707 9.54248C42.9999 9.54248 44.5832 10.355 45.8749 12.105L43.8332 13.605C43.0207 12.5008 42.1666 12.0633 41.2707 12.0633C39.6666 12.0633 38.3541 13.3758 38.3541 14.98C38.3541 16.5841 39.6666 17.8966 41.2707 17.8966C42.1874 17.8966 42.9999 17.5008 43.8124 16.4175Z" fill="#999999"/>
<path d="M49.4792 13.9174C50.1459 13.5841 50.8959 13.4174 51.6459 13.4174L51.0834 15.7299C50.2084 15.7299 49.5 16.1674 49.5 16.7091V20.2507H47.1875V13.5424H49.5V13.9174H49.4792Z" fill="#999999"/>
<path d="M53.5208 23.3758L55.0416 19.6466L52.5625 13.5425H54.8958L56.2083 16.7091L57.4791 13.5425H59.8125L55.8333 23.3758H53.5208Z" fill="#999999"/>
<path d="M67.8965 16.8967C67.8965 17.8342 67.5215 18.73 66.8757 19.3759C66.209 20.0217 65.334 20.3759 64.3965 20.3759C63.9798 20.355 63.5632 20.2092 63.2298 19.9592V23.3759H60.8965V13.5425H63.209V13.855C63.5423 13.5842 63.959 13.4384 64.3757 13.4384C65.2923 13.4175 66.1882 13.7717 66.8548 14.4384C67.5215 15.0842 67.8965 15.98 67.8965 16.8967ZM65.584 16.8967C65.584 16.2509 65.0423 15.73 64.3965 15.73C63.7507 15.73 63.2298 16.2717 63.2298 16.9175C63.2298 17.5634 63.7715 18.0842 64.3965 18.0842C65.0632 18.0842 65.584 17.5634 65.584 16.8967Z" fill="#999999"/>
<path d="M69.416 17.8135V15.7093H68.6035V13.5426H69.416V11.4385H71.7285V13.5426H73.3952V15.7093H71.7285V17.7926C71.7077 17.8968 71.791 17.9801 71.8952 18.001H73.3119L73.916 20.2718H71.8744C70.5202 20.2718 69.4369 19.1885 69.416 17.8343C69.416 17.8343 69.416 17.8343 69.416 17.8135Z" fill="#999999"/>
<path d="M81.6454 16.8966C81.6454 17.8341 81.2704 18.73 80.6245 19.3758C79.9787 20.0216 79.0829 20.3966 78.1662 20.3966C76.2495 20.4383 74.6454 18.9175 74.5829 17.0008C74.5412 15.0841 76.062 13.48 77.9787 13.4175C78.0412 13.4175 78.0829 13.4175 78.1454 13.4175C79.062 13.4175 79.937 13.7716 80.6037 14.4175C81.2704 15.0841 81.6245 15.98 81.6454 16.8966ZM79.312 16.8966C79.2912 16.2508 78.7495 15.7508 78.1037 15.7716C77.4995 15.7925 77.0204 16.2925 76.9787 16.8966C76.9579 17.5425 77.4579 18.0841 78.1037 18.105C78.7495 18.1258 79.2912 17.6258 79.312 16.98C79.312 16.98 79.312 16.9383 79.312 16.8966Z" fill="#999999"/>
<path d="M89.8119 16.8963C89.8119 17.8338 89.4369 18.7297 88.791 19.3755C88.1244 20.0213 87.2493 20.3755 86.3327 20.3755C85.916 20.3547 85.4993 20.2088 85.166 19.9588V23.3755H82.8535V13.5422H85.166V13.8547C85.4993 13.5838 85.916 13.438 86.3327 13.438C87.2493 13.438 88.1452 13.7922 88.791 14.438C89.4369 15.0838 89.8119 15.9797 89.8119 16.8963ZM87.4993 16.8963C87.4993 16.2505 86.9577 15.7297 86.3118 15.7297C85.666 15.7297 85.1452 16.2713 85.1452 16.9172C85.1452 17.563 85.6868 18.0838 86.3327 18.0838C86.9785 18.0838 87.4993 17.563 87.4993 16.8963C87.4993 16.9172 87.4993 16.8963 87.4993 16.8963Z" fill="#999999"/>
<path d="M97.7509 16.8966C97.7509 17.8341 97.3759 18.73 96.73 19.3758C96.0842 20.0216 95.1884 20.3966 94.2717 20.3966C92.355 20.4383 90.7508 18.9175 90.6883 17.0008C90.6467 15.0841 92.1675 13.48 94.0842 13.4175C94.1467 13.4175 94.1883 13.4175 94.2508 13.4175C95.1675 13.4175 96.0425 13.7716 96.7092 14.4175C97.3759 15.0841 97.7509 15.98 97.7509 16.8966ZM95.4384 16.8966C95.4175 16.2508 94.8758 15.7508 94.23 15.7716C93.6258 15.7925 93.1467 16.2925 93.105 16.8966C93.0842 17.5425 93.5842 18.0841 94.23 18.105C94.8758 18.1258 95.4175 17.6258 95.4384 16.98C95.4384 16.98 95.4384 16.9383 95.4384 16.8966Z" fill="#999999"/>
<path d="M99.084 20.2713V9.50049H101.417V20.2713H99.084Z" fill="#999999"/>
<path d="M103.479 11.313C103.479 10.5838 104.062 10.0005 104.791 10.0005C105.52 10.0005 106.124 10.5838 106.124 11.313C106.124 12.0422 105.541 12.6463 104.791 12.6463C104.062 12.6255 103.479 12.0422 103.479 11.313ZM103.624 13.5422H105.937V20.2713H103.624V13.5422Z" fill="#999999"/>
<path d="M108.396 17.8135V15.7093H107.584V13.5426H108.396V11.4385H110.73V13.5426H112.396V15.7093H110.73V17.7926C110.709 17.8968 110.792 17.9801 110.896 18.001H112.313L112.917 20.2718H110.876C109.521 20.2926 108.417 19.2093 108.417 17.8551C108.396 17.8343 108.396 17.8343 108.396 17.8135Z" fill="#999999"/>
<path d="M118.271 13.8549V13.5424H120.604V20.2716H118.271V19.9591C117.938 20.2299 117.542 20.3757 117.104 20.3757C115.187 20.3757 113.625 18.8132 113.625 16.8966C113.625 14.9799 115.187 13.4174 117.104 13.4174C117.521 13.4174 117.938 13.5632 118.271 13.8549ZM118.271 16.8966C118.25 16.2507 117.729 15.7299 117.083 15.7507C116.437 15.7716 115.917 16.2924 115.937 16.9382C115.958 17.5841 116.479 18.0841 117.104 18.0841C117.75 18.0841 118.271 17.5632 118.271 16.8966Z" fill="#999999"/>
<path d="M127.77 14.3967C128.374 15.0009 128.708 15.8342 128.708 16.7092V20.2717H126.395V16.7092C126.395 16.1884 125.979 15.7509 125.458 15.7509C124.937 15.7509 124.499 16.1675 124.499 16.6884V20.2509H122.166V13.5425H124.499V13.855C124.624 13.5842 125.124 13.4384 125.458 13.4384C126.312 13.4175 127.145 13.7717 127.77 14.3967Z" fill="#999999"/>
</g>
<defs>
<clipPath id="clip0_274_112">
<rect width="129" height="30" fill="white"/>
</clipPath>
</defs>
</svg>
