<svg width="53" height="36" viewBox="0 0 53 36" fill="none" xmlns="http://www.w3.org/2000/svg">
<path d="M17.1947 0H0V10.2597H17.1947V0Z" fill="black"/>
<path d="M2.49554 5.22103V5.20379C2.49554 3.52225 3.7883 2.20459 5.53497 2.20459C6.71281 2.20459 7.47123 2.69871 7.98259 3.40734L6.77985 4.33812C6.45043 3.92635 6.07122 3.66206 5.51964 3.66206C4.71143 3.66206 4.14453 4.34578 4.14453 5.18656V5.20379C4.14453 6.06946 4.71335 6.74361 5.51964 6.74361C6.12102 6.74361 6.47533 6.46399 6.82198 6.04265L8.02472 6.89874C7.48081 7.6495 6.74729 8.20108 5.46985 8.20108C3.82278 8.20491 2.49554 6.94279 2.49554 5.22103Z" fill="white"/>
<path d="M8.53607 2.3208H10.3249L11.6349 5.97117L12.9449 2.3208H14.6992L12.3588 8.1296H10.8764L8.53607 2.3208Z" fill="white"/>
<path d="M52.2849 10.2593H0V35.9996H52.2849V10.2593Z" fill="#333333"/>
<path d="M8.53223 18.936H10.8573V25.2868H14.9194V27.3246H8.53223V18.936Z" fill="white"/>
<path d="M19.8338 18.8745H22.0746L25.6464 27.3225H23.1548L22.5438 25.8248H19.309L18.7096 27.3225H16.262L19.8338 18.8745ZM21.8716 24.0168L20.937 21.6324L19.9909 24.0168H21.8716Z" fill="white"/>
<path d="M27.4793 18.936H31.7808C32.8361 18.936 33.5792 19.1984 34.0695 19.6906C34.4047 20.0258 34.6096 20.4701 34.6096 21.0447V21.0677C34.6096 22.0387 34.058 22.6132 33.3149 22.9369C34.3338 23.272 34.9811 23.8485 34.9811 24.9862V25.0091C34.9811 26.4474 33.8071 27.3227 31.8057 27.3227H27.4793V18.936ZM31.2063 22.2781C31.913 22.2781 32.3094 22.0387 32.3094 21.5465V21.5235C32.3094 21.0677 31.9494 20.8034 31.2561 20.8034H29.745V22.2781H31.2063ZM31.5414 25.4554C32.2482 25.4554 32.6561 25.1796 32.6561 24.6893V24.6663C32.6561 24.2105 32.296 23.9117 31.5185 23.9117H29.745V25.4573H31.5414V25.4554Z" fill="white"/>
<path d="M36.4309 26.0769L37.7256 24.5314C38.553 25.1902 39.4761 25.5388 40.4471 25.5388C41.0695 25.5388 41.4066 25.3223 41.4066 24.9642V24.9393C41.4066 24.5926 41.1308 24.3992 39.9932 24.1368C38.2082 23.7289 36.8293 23.2252 36.8293 21.4996V21.4766C36.8293 19.9196 38.0646 18.7915 40.0774 18.7915C41.5043 18.7915 42.617 19.1745 43.5286 19.9062L42.3661 21.5475C41.6 21.0074 40.7612 20.7201 40.0181 20.7201C39.455 20.7201 39.1792 20.9595 39.1792 21.2602V21.2832C39.1792 21.6662 39.4665 21.8348 40.629 22.0991C42.5595 22.5185 43.7565 23.1409 43.7565 24.7114V24.7344C43.7565 26.4485 42.4025 27.4674 40.3647 27.4674C38.8766 27.4674 37.4613 27 36.4309 26.0769Z" fill="white"/>
</svg>
