<svg width="108" height="95" viewBox="0 0 108 95" fill="none" xmlns="http://www.w3.org/2000/svg">
<rect x="20" y="20" width="88" height="75" rx="8" fill="url(#paint0_linear_290_207)"/>
<rect width="88" height="75" rx="8" fill="url(#paint1_linear_290_207)"/>
<path d="M71.4385 86.4905C74.5718 85.5834 77.5493 84.381 80.1488 82.3219C84.3953 78.9565 87.0369 74.6598 88.0803 69.3408C89.3184 63.0222 87.7379 57.3754 83.9961 52.2836C81.3999 48.7478 77.8852 46.4096 73.7475 44.9817C73.3938 44.86 73.0579 44.688 72.7155 44.5403C75.3539 44.3927 77.7781 45.3354 80.217 46.1045C84.8707 47.573 89.1918 49.7912 93.3052 52.3842C97.1622 54.8181 100.821 57.5312 104.114 60.7083C104.782 61.3574 105.529 61.9334 106.166 62.589C108.5 64.9888 108.556 65.7888 106.241 68.0605C103.362 70.9155 100.26 73.5362 96.9643 75.8979C90.0388 80.8015 82.5909 84.5465 74.197 86.1805C73.3013 86.3623 72.391 86.6446 71.4385 86.4905Z" fill="url(#paint2_linear_290_207)"/>
<path d="M67.2586 87C79.1327 87 88.7586 77.3741 88.7586 65.5C88.7586 53.6259 79.1327 44 67.2586 44C55.3845 44 45.7586 53.6259 45.7586 65.5C45.7586 77.3741 55.3845 87 67.2586 87Z" fill="url(#paint3_linear_290_207)"/>
<path d="M67.1612 76.0732C73.0544 76.0732 77.8317 71.2958 77.8317 65.4027C77.8317 59.5095 73.0544 54.7322 67.1612 54.7322C61.2681 54.7322 56.4907 59.5095 56.4907 65.4027C56.4907 71.2958 61.2681 76.0732 67.1612 76.0732Z" fill="url(#paint4_linear_290_207)"/>
<path d="M62.0142 44.5015C59.5186 45.4199 57.07 46.4049 54.9054 48.0227C49.8752 51.7807 46.8457 56.6795 46.2129 62.9672C45.3318 71.7441 48.7962 78.4975 55.9212 83.4839C57.7661 84.782 59.9242 85.4538 62.0158 86.2424C59.2946 86.3495 56.7666 85.47 54.2661 84.5954C51.8467 83.7484 49.4338 82.8656 47.1443 81.6746C42.8085 79.4313 38.696 76.7804 34.8625 73.7578C32.6395 71.9972 30.6875 69.951 28.5342 68.1272C26.4962 66.4023 26.4605 65.0004 28.5959 62.7563C32.3843 58.7736 36.6571 55.2815 41.3141 52.3616C45.0689 50.0023 48.9811 47.9545 53.1838 46.5201C56.0477 45.5335 58.9231 44.4918 62.0142 44.5015Z" fill="url(#paint5_linear_290_207)"/>
<path d="M67.0492 63.0937C66.3207 62.7805 65.5012 62.6215 65.0712 61.828C64.2112 60.2427 65.0794 58.6476 67.059 58.2014C68.6005 58.401 69.5416 59.2772 69.5789 60.5494C69.6163 61.8215 68.7206 62.714 67.0492 63.0937Z" fill="url(#paint6_linear_290_207)"/>
<defs>
<linearGradient id="paint0_linear_290_207" x1="70" y1="-70.5" x2="64" y2="95" gradientUnits="userSpaceOnUse">
<stop stop-color="white" stop-opacity="0.33"/>
<stop offset="1" stop-color="white" stop-opacity="0"/>
</linearGradient>
<linearGradient id="paint1_linear_290_207" x1="50" y1="-90.5" x2="44" y2="75" gradientUnits="userSpaceOnUse">
<stop stop-color="white"/>
<stop offset="1" stop-color="white" stop-opacity="0"/>
</linearGradient>
<linearGradient id="paint2_linear_290_207" x1="109.264" y1="64.5264" x2="71.4563" y2="68.9075" gradientUnits="userSpaceOnUse">
<stop stop-color="white" stop-opacity="0.75"/>
<stop offset="1" stop-color="white" stop-opacity="0"/>
</linearGradient>
<linearGradient id="paint3_linear_290_207" x1="54.0941" y1="48.6245" x2="72.2677" y2="87" gradientUnits="userSpaceOnUse">
<stop stop-color="white" stop-opacity="0.75"/>
<stop offset="1" stop-color="white" stop-opacity="0"/>
</linearGradient>
<linearGradient id="paint4_linear_290_207" x1="77.7846" y1="63.9585" x2="57.5828" y2="72.0717" gradientUnits="userSpaceOnUse">
<stop stop-color="white" stop-opacity="0.75"/>
<stop offset="1" stop-color="white" stop-opacity="0"/>
</linearGradient>
<linearGradient id="paint5_linear_290_207" x1="26.996" y1="65.419" x2="64.3978" y2="66.9605" gradientUnits="userSpaceOnUse">
<stop stop-color="white" stop-opacity="0.75"/>
<stop offset="1" stop-color="white" stop-opacity="0"/>
</linearGradient>
<linearGradient id="paint6_linear_290_207" x1="65.128" y1="60.4699" x2="69.7526" y2="61.0378" gradientUnits="userSpaceOnUse">
<stop stop-color="white" stop-opacity="0.75"/>
<stop offset="1" stop-color="white" stop-opacity="0"/>
</linearGradient>
</defs>
</svg>
