<svg width="56" height="56" viewBox="0 0 56 56" fill="none" xmlns="http://www.w3.org/2000/svg">
<path d="M43.264 16.51H32.4541V15H23.1841V16.54H12.374C10.2038 16.5376 8.07123 17.1065 6.19068 18.1897C4.31012 19.2729 2.74798 20.8324 1.66126 22.7109C0.574539 24.5895 0.00154772 26.7209 3.13166e-06 28.8911C-0.00154146 31.0613 0.568303 33.1939 1.65235 35.074C2.73639 36.9541 4.29641 38.5154 6.17542 39.6013C8.05443 40.6872 10.1862 41.2594 12.3564 41.26C14.5267 41.2606 16.6588 40.6898 18.5385 39.605C20.4181 38.5201 21.979 36.9596 23.0641 35.0801H32.5741C33.6602 36.9552 35.2207 38.5115 37.0986 39.5928C38.9766 40.674 41.1059 41.2421 43.273 41.24C45.44 41.2379 47.5683 40.6655 49.4441 39.5806C51.3199 38.4956 52.8773 36.9361 53.9597 35.0588C55.0422 33.1815 55.6116 31.0525 55.6108 28.8855C55.6101 26.7185 55.0391 24.5899 53.9553 22.7134C52.8715 20.8369 51.313 19.2784 49.4364 18.1948C47.5598 17.1112 45.431 16.5406 43.264 16.54V16.51Z" fill="#EC1651"/>
<path d="M13.924 22.6902H10.834V35.0502H13.924V22.6902Z" fill="#B6145A"/>
<path d="M18.554 27.3301H6.19397V30.4201H18.554V27.3301Z" fill="#B6145A"/>
<path d="M39.794 27.7201C41.0753 27.7201 42.114 26.6814 42.114 25.4001C42.114 24.1188 41.0753 23.0801 39.794 23.0801C38.5127 23.0801 37.474 24.1188 37.474 25.4001C37.474 26.6814 38.5127 27.7201 39.794 27.7201Z" fill="#B6145A"/>
<path d="M46.744 27.7201C48.0253 27.7201 49.064 26.6814 49.064 25.4001C49.064 24.1188 48.0253 23.0801 46.744 23.0801C45.4627 23.0801 44.4241 24.1188 44.4241 25.4001C44.4241 26.6814 45.4627 27.7201 46.744 27.7201Z" fill="#B6145A"/>
<path d="M39.644 34.67C40.9253 34.67 41.964 33.6313 41.964 32.35C41.964 31.0687 40.9253 30.03 39.644 30.03C38.3627 30.03 37.324 31.0687 37.324 32.35C37.324 33.6313 38.3627 34.67 39.644 34.67Z" fill="#B6145A"/>
<path d="M46.744 34.67C48.0253 34.67 49.064 33.6313 49.064 32.35C49.064 31.0687 48.0253 30.03 46.744 30.03C45.4627 30.03 44.4241 31.0687 44.4241 32.35C44.4241 33.6313 45.4627 34.67 46.744 34.67Z" fill="#B6145A"/>
<path d="M26.264 28.1001H23.1741V29.6401H26.264V28.1001Z" fill="#B6145A"/>
<path d="M32.444 28.1001H29.354V29.6401H32.444V28.1001Z" fill="#B6145A"/>
</svg>
