<svg width="56" height="56" viewBox="0 0 56 56" fill="none" xmlns="http://www.w3.org/2000/svg">
<path d="M52.192 39.372C51.8011 38.9387 51.297 38.6229 50.7364 38.4604C50.1759 38.2979 49.5811 38.2952 49.019 38.4523C48.6984 38.5406 48.3896 38.6671 48.0993 38.8293L38.9024 44.0347C39.2235 44.8662 39.2235 45.7876 38.9024 46.6191L38.6081 47.3365C38.3215 48.0509 37.8276 48.663 37.1899 49.0942C36.5523 49.5253 35.8002 49.7556 35.0305 49.7554C34.6405 49.7567 34.2528 49.6975 33.8808 49.5805L27.6453 47.4562C27.4624 47.394 27.3117 47.2615 27.2263 47.0882C27.1409 46.9148 27.1279 46.7147 27.1901 46.5318C27.2523 46.3488 27.3846 46.1982 27.5579 46.1128C27.7313 46.0274 27.9315 46.0144 28.1144 46.0766L34.3223 48.1917C34.9 48.3667 35.5222 48.3194 36.0667 48.059C36.6113 47.7987 37.0388 47.344 37.2653 46.7846L37.5504 46.0674C37.7636 45.5545 37.7676 44.9784 37.5613 44.4627C37.355 43.947 36.9549 43.5327 36.4468 43.3083C36.4468 43.3083 23.0193 36.475 21.603 36.1623C20.2291 36.0432 18.8474 36.0432 17.4735 36.1623C16.8667 36.1613 16.266 36.2832 15.7077 36.5209L4 41.3769L4.11036 53.6823L4.53344 55.9999L15.5698 49.8012C15.9838 49.5706 16.4677 49.4987 16.9309 49.5989L34.2395 53.48C34.5624 53.5847 34.907 53.6035 35.2393 53.5341C35.5716 53.4647 35.8801 53.3097 36.1341 53.0846L51.8701 43.1334C52.1542 42.9188 52.39 42.6469 52.5621 42.3352C52.7343 42.0235 52.8389 41.6793 52.8692 41.3246C52.8996 40.9698 52.855 40.6126 52.7383 40.2762C52.6216 39.9398 52.4355 39.6318 52.192 39.372Z" fill="#EC1651"/>
<path d="M37.4217 39.6939C35.6132 39.6939 33.8453 39.1576 32.3418 38.1527C30.8382 37.1477 29.6665 35.7194 28.9749 34.0484C28.2832 32.3774 28.1027 30.5389 28.4562 28.7653C28.8097 26.9917 29.6813 25.3628 30.9607 24.0847C32.2401 22.8065 33.8699 21.9366 35.6438 21.5849C37.4177 21.2332 39.2561 21.4157 40.9264 22.109C42.5967 22.8023 44.0238 23.9754 45.0272 25.4799C46.0306 26.9845 46.5652 28.7529 46.5634 30.5614C46.561 32.9843 45.5967 35.3072 43.8826 37.0197C42.1684 38.7321 39.8446 39.6939 37.4217 39.6939ZM37.4217 23.0659C35.9396 23.0678 34.4913 23.5087 33.2598 24.3334C32.0284 25.1582 31.0691 26.3297 30.5032 27.6994C29.9373 29.0692 29.7902 30.576 30.0805 32.0294C30.3707 33.4828 31.0853 34.8173 32.134 35.8646C33.1826 36.912 34.5182 37.6251 35.9719 37.9135C37.4256 38.202 38.9323 38.0529 40.3014 37.4853C41.6705 36.9178 42.8406 35.9571 43.6638 34.7247C44.487 33.4923 44.9263 32.0434 44.9263 30.5614C44.9239 28.5726 44.1321 26.6662 42.725 25.2608C41.3179 23.8554 39.4104 23.0659 37.4217 23.0659V23.0659Z" fill="#B6145A"/>
<path d="M36.9158 36.7786V35.252C36.0993 35.2532 35.2991 35.0237 34.6074 34.5898L34.966 33.5781C35.6105 34.0024 36.3649 34.2293 37.1365 34.231C38.2126 34.231 38.9759 33.6149 38.9759 32.7504C38.9759 31.8859 38.3873 31.4077 37.2745 30.911C35.7386 30.3041 34.7913 29.6142 34.7913 28.299C34.8006 27.6845 35.0385 27.0953 35.4584 26.6465C35.8784 26.1976 36.4503 25.9211 37.0629 25.8709V24.3535H37.9826V25.8159C38.6698 25.8195 39.3445 25.9999 39.9416 26.34L39.5645 27.3333C38.9877 26.9948 38.3295 26.8199 37.6608 26.8274C36.502 26.8274 36.0697 27.5174 36.0697 28.1243C36.0697 28.9061 36.6215 29.3014 37.909 29.8441C39.4633 30.4695 40.2451 31.2604 40.2451 32.6031C40.234 33.2483 39.9844 33.8665 39.5446 34.3386C39.1048 34.8107 38.5058 35.1032 37.8631 35.1599V36.7786H36.9158Z" fill="#B6145A"/>
<path d="M27.9856 24.482V23.1854C27.2897 23.1883 26.6073 22.9939 26.0175 22.6245L26.3302 21.7598C26.8762 22.1207 27.5151 22.3157 28.1696 22.3209C28.3537 22.3452 28.5409 22.3312 28.7194 22.28C28.8979 22.2288 29.064 22.1416 29.2072 22.0234C29.3505 21.9052 29.4678 21.7585 29.552 21.593C29.6361 21.4274 29.6852 21.2462 29.6962 21.0608C29.6962 20.3526 29.1996 19.9113 28.2431 19.5342C26.9371 19.0192 26.1278 18.4306 26.1278 17.3086C26.1354 16.7839 26.3385 16.2808 26.6975 15.8981C27.0564 15.5153 27.5453 15.2805 28.0684 15.2393V13.9424H28.8593V15.1933C29.4466 15.1985 30.0227 15.3536 30.5332 15.6439L30.2113 16.49C29.7229 16.1959 29.1626 16.0431 28.5926 16.0485C27.6085 16.0485 27.2315 16.6463 27.2315 17.1521C27.2315 17.8235 27.7097 18.1547 28.8225 18.6145C30.1469 19.1571 30.8183 19.8285 30.8183 20.969C30.809 21.5193 30.5961 22.0465 30.2207 22.4491C29.8453 22.8517 29.3341 23.1008 28.7858 23.1485V24.482H27.9856Z" fill="#B6145A"/>
<path d="M40.2451 13.63C38.8972 13.63 37.5796 13.2303 36.4589 12.4815C35.3382 11.7327 34.4647 10.6681 33.9489 9.42288C33.4331 8.17761 33.2981 6.8074 33.5611 5.48544C33.824 4.16347 34.4731 2.94925 35.4262 1.99617C36.3793 1.04308 37.5936 0.393915 38.9156 0.13096C40.2375 -0.131996 41.6077 0.00292504 42.853 0.518731C44.0983 1.03454 45.1627 1.90809 45.9115 3.0288C46.6603 4.14951 47.06 5.46704 47.06 6.81491C47.0551 8.62085 46.3356 10.3515 45.0586 11.6285C43.7816 12.9055 42.051 13.6251 40.2451 13.63V13.63ZM40.2451 1.22332C39.1392 1.22332 38.058 1.55126 37.1385 2.16569C36.2189 2.78012 35.5022 3.65334 35.079 4.67509C34.6558 5.69685 34.545 6.82123 34.7608 7.90592C34.9765 8.99061 35.5091 9.98694 36.2911 10.769C37.0731 11.551 38.0695 12.0834 39.1542 12.2992C40.2389 12.5149 41.3632 12.4042 42.385 11.981C43.4067 11.5578 44.28 10.8411 44.8944 9.92157C45.5088 9.00201 45.8368 7.92085 45.8368 6.81491C45.8344 5.33263 45.2445 3.9119 44.1963 2.86377C43.1482 1.81564 41.7274 1.22575 40.2451 1.22332V1.22332Z" fill="#B6145A"/>
<path d="M39.868 11.4318V10.2914C39.2565 10.2915 38.6572 10.1194 38.139 9.79473L38.4149 9.04995C38.8977 9.3606 39.4594 9.52657 40.0335 9.5282C40.8337 9.5282 41.3671 9.06818 41.3671 8.42439C41.3671 7.78061 40.9349 7.42197 40.0979 7.09088C38.9483 6.64023 38.2585 6.1713 38.2585 5.14125C38.2572 4.6764 38.432 4.22824 38.7476 3.887C39.0633 3.54575 39.4965 3.33672 39.96 3.30186V2.17065H40.6589V3.25583C41.1718 3.26312 41.6746 3.39904 42.1213 3.65124L41.8362 4.39624C41.4095 4.13753 40.9188 4.00377 40.4199 4.01004C39.5553 4.01004 39.2334 4.5341 39.2334 4.98475C39.2334 5.4354 39.6473 5.85858 40.6222 6.26325C41.781 6.73229 42.3696 7.32089 42.3696 8.32335C42.3604 8.80459 42.1744 9.26564 41.847 9.61847C41.5196 9.9713 41.0738 10.1911 40.5946 10.2362V11.4042L39.868 11.4318Z" fill="#B6145A"/>
<path d="M28.0775 25.5766C26.831 25.5101 25.6315 25.0795 24.6272 24.3381C23.6229 23.5967 22.858 22.577 22.4272 21.4054C21.9965 20.2339 21.9187 18.9618 22.2036 17.7464C22.4885 16.5311 23.1235 15.4258 24.03 14.5677C24.9365 13.7095 26.0747 13.1361 27.3039 12.9183C28.533 12.7004 29.799 12.8477 30.9452 13.342C32.0915 13.8362 33.0676 14.6557 33.7529 15.6991C34.4381 16.7425 34.8023 17.9639 34.8005 19.2122C34.7996 19.5884 34.7658 19.9641 34.6993 20.3344C35.1767 20.2068 35.6622 20.1115 36.1525 20.0493C36.1665 19.7705 36.1665 19.491 36.1525 19.2122C36.1542 17.7126 35.7224 16.2447 34.9093 14.9847C34.0961 13.7247 32.9362 12.7264 31.5691 12.1102C30.2019 11.494 28.6858 11.2859 27.2032 11.5111C25.7206 11.7363 24.3347 12.3852 23.2123 13.3797C22.0898 14.3741 21.2786 15.6717 20.8764 17.1164C20.4741 18.561 20.4979 20.0912 20.9449 21.5227C21.3919 22.9541 22.243 24.226 23.3958 25.185C24.5487 26.1441 25.9541 26.7495 27.443 26.9286C27.6217 26.4632 27.8338 26.0114 28.0775 25.5766Z" fill="#B6145A"/>
</svg>
