<svg width="688" height="884" viewBox="0 0 688 884" fill="none" xmlns="http://www.w3.org/2000/svg">
<path d="M382.431 833.44L346.821 839.51L342.281 833.31L337.821 814.69L338.091 803.46L333.111 798.48L330.561 793.49L321.421 775.54L321.141 761.34L325.211 752.99L382.431 833.44Z" fill="url(#paint0_linear_436_326)"/>
<path d="M467.841 683.6L382.431 833.44L325.211 752.99V752.98L328.171 746.95L331.611 739.9L333.961 730.81L332.751 728L328.211 717.43L329.061 716.85L330.631 715.78L323.771 699.72L325.281 698.49L323.661 697.15L323.331 695.35L467.841 683.6Z" fill="url(#paint1_linear_436_326)"/>
<path d="M497.901 750.56L499.961 753.02L498.571 758.2L489.181 768.29L483.201 770.55L474.101 777.64L467.841 683.6L493.381 684.87L492.531 687.11L488.031 693.81L487.731 701.22L491.141 704.07L489.801 708.75L490.591 710.12L489.621 713.26L491.991 716.54L492.891 723.71V723.72L498.331 727.56L498.271 730.52L498.191 735.34L498.051 742.17L497.901 750.56Z" fill="url(#paint2_linear_436_326)"/>
<path d="M556.641 753.91L514.051 802.25V802.08L514.081 798.87L515.271 797.21L521.701 788.19L519.501 780.12L517.681 771.29L521.151 763.8L531.801 760.72L533.261 760.67L533.081 758.29L535.751 756.93L537.401 758.12L537.831 754.38L541.291 754.56L542.271 753.01L542.151 752.68L541.291 750.28L542.941 748.33L543.301 746.85L545.861 745.9L548.161 744.47L548.291 738.89L550.541 737.53L552.741 739.9L555.001 743.76V748.03L556.081 752.66L556.641 753.91Z" fill="url(#paint3_linear_436_326)"/>
<path d="M467.751 806.86L465.761 811.17L467.141 812.32L464.901 817.59L449.601 824.98L449.451 827.5L451.311 828.21L450.181 833.04L450.501 836.04L449.071 839.85L382.431 833.44L467.841 683.6L474.101 777.64L462.011 787.06L461.471 790.73L463.371 792.75L465.941 799.39L465.951 799.66L466.001 802.08L467.181 802.19L466.821 805.24L467.751 806.86Z" fill="url(#paint4_linear_436_326)"/>
<path d="M558.591 758.29L557.531 760.29L556.821 761.62L554.321 759.49L553.101 760.72L555.121 764.1L552.921 769.39L550.611 779.24L547.881 785.59L546.471 793.41L545.791 794.82V794.83L543.971 798.64L542.341 805.04L541.041 808.96L539.291 816.85L536.971 820.52L534.001 821.36L530.821 822.24L529.511 822.69L526.941 823.56L522.911 821.83L520.791 822.12L517.561 817.08L516.101 815.53L516.221 809.19L514.021 806.28L514.041 803.6L514.051 802.25L556.641 753.91L558.591 758.29Z" fill="url(#paint5_linear_436_326)"/>
<path d="M183.391 619.75L179.271 615.7L170.101 612.04L171.251 610.7L168.971 606.98L168.921 603.99L183.391 619.75Z" fill="url(#paint6_linear_436_326)"/>
<path d="M556.061 609.78L550.741 619.53L541.431 632.72L538.911 636.26L536.411 638.56L523.661 650.29L506.121 666.4L504.591 669.68L496.371 676.89L493.381 684.87L467.841 683.6L497.521 564.29L511.851 578.03L511.861 578.05L512.391 578.54H513.601L513.911 579.07L514.351 579.83L514.511 580.13L515.621 582.05L510.991 586.49L517.861 591.37L519.691 592.66L524.201 593.66L530.221 590.71L533.081 591.47L534.011 591.2L541.651 589.02L556.061 609.78Z" fill="url(#paint7_linear_436_326)"/>
<path d="M497.411 564.18L497.521 564.29L467.841 683.6L395.381 559.25L480.711 540.84L486.761 546.21L492.531 561.63L493.821 561.33L494.981 563.29L497.411 564.18Z" fill="url(#paint8_linear_436_326)"/>
<path d="M265.351 536.39L236.511 629.31L230.881 627.46L228.071 627.31L225.341 626.35L223.641 627.11L218.671 626.8L216.271 627.6L203.781 631.77L193.891 627.62L188.011 622.29L187.961 622.24L184.071 620.43L183.401 619.77L183.391 619.75L168.921 603.99V603.98L168.891 601.71L165.081 598.59L165.251 596.79L161.281 594.02L161.261 594.01L159.881 590.53L157.691 590.68L155.981 586.94V586.9H155.991L156.791 583.88L150.701 583.4L149.081 581.11L147.531 580.67H147.521L147.201 580.31L148.041 578.73L146.821 577.48L148.061 573.24L147.351 569.92L144.531 567.29L144.261 567.04L148.311 559.6L148.351 557.5L265.351 536.39Z" fill="url(#paint9_linear_436_326)"/>
<path d="M467.841 683.6L323.331 695.35L322.881 693L306.931 672.11L395.381 559.25L467.841 683.6Z" fill="url(#paint10_linear_436_326)"/>
<path d="M276.161 619.73L269.521 619.48L268.381 619.43L265.991 620.22L262.371 619.79L261.191 620.62L257.561 620.79L253.371 623.79L250.461 623.88L246.741 626.2L246.611 626.28L240.921 627.18L237.631 629.68L236.511 629.31L265.351 536.39L276.161 619.73Z" fill="url(#paint11_linear_436_326)"/>
<path d="M395.381 559.25L306.931 672.11L306.521 671.56L307.291 669.74L306.671 669.32L305.351 668.4L303.621 664.25L305.931 662.59V658.63L308.961 655.43L306.861 652.9L309.891 648.81L309.361 645.03L310.751 641.54L308.681 637.59L308.641 633.94L307.891 634.17H307.881L306.081 634.7L301.501 629.72L300.531 631.01L288.231 632.84L283.081 629.04L283.891 625.92L282.101 625.14L280.801 622.44L277.711 619.79L276.161 619.73L265.351 536.39L395.381 559.25Z" fill="url(#paint12_linear_436_326)"/>
<path d="M480.711 540.84L395.381 559.25L360.821 462.3L363.081 462.97L368.911 464.69L372.581 460.67L371.051 455.63L374.561 451.68L472.671 515.03L475.321 518.44L478.311 538.7L480.711 540.84Z" fill="url(#paint13_linear_436_326)"/>
<path d="M450.791 469.34L449.261 467.6L448.461 468.34L447.321 469.38L448.721 474.01L453.641 480.06L454.311 483.26L457.231 485.7L457.781 490.86L463.271 501.1L464.301 503.01L468.131 506.94L466.431 506.99L467.981 508.98L472.671 515.03L374.561 451.68V451.67L374.591 451.65L382.831 448.76L386.791 448.72L389.931 450.23L390.891 452.06L399.421 454.5H402.451L403.131 456.51L404.891 457.41L405.221 457.33L408.421 456.63L425.831 462.09L438.191 457.28L445.061 458.11L448.161 457.19L449.801 458.23L450.791 469.34Z" fill="url(#paint14_linear_436_326)"/>
<path d="M395.381 559.25L265.351 536.39L339.041 451.64L340.081 451.47L343.041 452.89L343.721 457.22L360.811 462.3H360.821L395.381 559.25Z" fill="url(#paint15_linear_436_326)"/>
<path d="M339.041 451.64L265.351 536.39L243.421 431.3L244.491 430.7L249.801 429.93L251.271 428.03L254.491 427.21L257.951 425.31L265.391 424.89L265.911 424.76H265.921L315.831 431.86L316.591 433.16L311.031 440.34L312.781 443.01L320.931 447.63L324.091 448.18L325.821 449.63L329.401 448.2L335.141 449.93L337.511 451.89L339.041 451.64Z" fill="url(#paint16_linear_436_326)"/>
<path d="M265.351 536.39L148.351 557.5L148.441 553.02L151.561 545.71L150.431 538.08L148.881 536.63L231.631 433.38L232.211 434.14L237.691 434.37L238.061 434.26L243.421 431.3L265.351 536.39Z" fill="url(#paint17_linear_436_326)"/>
<path d="M231.631 433.38L148.881 536.63L148.401 536.18L149.531 535.12L148.851 533.74L150.461 532.07L145.021 525.35L146.821 517.8L152.141 509.76L151.841 507.43L158.541 501.46L158.991 496.95L165.731 488.61L167.451 483.38L170.351 481.61L171.571 480.86L171.701 480.83L171.771 480.81L175.541 480.54L185.601 471.33L190.801 466.58L189.821 457.09L192.621 454.04L192.711 451.58L196.361 448.7L197.061 446.44L200.421 445.33L219.241 429.03L221.581 431.67L222.591 432.79L228.071 433.49L228.921 434.68L231.121 432.72L231.631 433.38Z" fill="url(#paint18_linear_436_326)"/>
<path d="M382.431 833.44L360.311 863.07L354.051 853.69L353.481 848.55L349.571 843.25L346.821 839.51L382.431 833.44Z" fill="url(#paint19_linear_436_326)"/>
<path d="M382.971 880.06L382.091 880.42L378.101 880.47L376.601 881.85L374.091 881.77L371.211 883.38L364.591 880.82L364.471 878.64L362.291 880.03L362.371 877.31L358.721 872.16L359.041 869.82L360.541 870.69L360.861 863.89L360.311 863.07L382.431 833.44L382.971 880.06Z" fill="url(#paint20_linear_436_326)"/>
<path d="M449.071 839.85L447.341 844.51L444.411 845.71L431.751 862.14H429.971L414.011 876.08L407.121 876.63L405.631 878.13L402.291 878.17L401.571 879.51L399.151 879.06H399.141L394.271 878.17L390.891 879.35L388.091 877.97L382.971 880.06L382.431 833.44L449.071 839.85Z" fill="url(#paint21_linear_436_326)"/>
<mask id="mask0_436_326" style="mask-type:alpha" maskUnits="userSpaceOnUse" x="144" y="424" width="415" height="460">
<path d="M382.431 833.44L346.821 839.51L342.281 833.31L337.821 814.69L338.091 803.46L333.111 798.48L330.561 793.49L321.421 775.54L321.141 761.34L325.211 752.99L382.431 833.44Z" fill="url(#paint22_linear_436_326)"/>
<path d="M467.841 683.6L382.431 833.44L325.211 752.99V752.98L328.171 746.95L331.611 739.9L333.961 730.81L332.751 728L328.211 717.43L329.061 716.85L330.631 715.78L323.771 699.72L325.281 698.49L323.661 697.15L323.331 695.35L467.841 683.6Z" fill="url(#paint23_linear_436_326)"/>
<path d="M497.901 750.56L499.961 753.02L498.571 758.2L489.181 768.29L483.201 770.55L474.101 777.64L467.841 683.6L493.381 684.87L492.531 687.11L488.031 693.81L487.731 701.22L491.141 704.07L489.801 708.75L490.591 710.12L489.621 713.26L491.991 716.54L492.891 723.71V723.72L498.331 727.56L498.271 730.52L498.191 735.34L498.051 742.17L497.901 750.56Z" fill="url(#paint24_linear_436_326)"/>
<path d="M556.641 753.91L514.051 802.25V802.08L514.081 798.87L515.271 797.21L521.701 788.19L519.501 780.12L517.681 771.29L521.151 763.8L531.801 760.72L533.261 760.67L533.081 758.29L535.751 756.93L537.401 758.12L537.831 754.38L541.291 754.56L542.271 753.01L542.151 752.68L541.291 750.28L542.941 748.33L543.301 746.85L545.861 745.9L548.161 744.47L548.291 738.89L550.541 737.53L552.741 739.9L555.001 743.76V748.03L556.081 752.66L556.641 753.91Z" fill="url(#paint25_linear_436_326)"/>
<path d="M467.751 806.86L465.761 811.17L467.141 812.32L464.901 817.59L449.601 824.98L449.451 827.5L451.311 828.21L450.181 833.04L450.501 836.04L449.071 839.85L382.431 833.44L467.841 683.6L474.101 777.64L462.011 787.06L461.471 790.73L463.371 792.75L465.941 799.39L465.951 799.66L466.001 802.08L467.181 802.19L466.821 805.24L467.751 806.86Z" fill="url(#paint26_linear_436_326)"/>
<path d="M558.591 758.29L557.531 760.29L556.821 761.62L554.321 759.49L553.101 760.72L555.121 764.1L552.921 769.39L550.611 779.24L547.881 785.59L546.471 793.41L545.791 794.82V794.83L543.971 798.64L542.341 805.04L541.041 808.96L539.291 816.85L536.971 820.52L534.001 821.36L530.821 822.24L529.511 822.69L526.941 823.56L522.911 821.83L520.791 822.12L517.561 817.08L516.101 815.53L516.221 809.19L514.021 806.28L514.041 803.6L514.051 802.25L556.641 753.91L558.591 758.29Z" fill="url(#paint27_linear_436_326)"/>
<path d="M183.391 619.75L179.271 615.7L170.101 612.04L171.251 610.7L168.971 606.98L168.921 603.99L183.391 619.75Z" fill="url(#paint28_linear_436_326)"/>
<path d="M556.061 609.78L550.741 619.53L541.431 632.72L538.911 636.26L536.411 638.56L523.661 650.29L506.121 666.4L504.591 669.68L496.371 676.89L493.381 684.87L467.841 683.6L497.521 564.29L511.851 578.03L511.861 578.05L512.391 578.54H513.601L513.911 579.07L514.351 579.83L514.511 580.13L515.621 582.05L510.991 586.49L517.861 591.37L519.691 592.66L524.201 593.66L530.221 590.71L533.081 591.47L534.011 591.2L541.651 589.02L556.061 609.78Z" fill="url(#paint29_linear_436_326)"/>
<path d="M497.411 564.18L497.521 564.29L467.841 683.6L395.381 559.25L480.711 540.84L486.761 546.21L492.531 561.63L493.821 561.33L494.981 563.29L497.411 564.18Z" fill="url(#paint30_linear_436_326)"/>
<path d="M265.351 536.39L236.511 629.31L230.881 627.46L228.071 627.31L225.341 626.35L223.641 627.11L218.671 626.8L216.271 627.6L203.781 631.77L193.891 627.62L188.011 622.29L187.961 622.24L184.071 620.43L183.401 619.77L183.391 619.75L168.921 603.99V603.98L168.891 601.71L165.081 598.59L165.251 596.79L161.281 594.02L161.261 594.01L159.881 590.53L157.691 590.68L155.981 586.94V586.9H155.991L156.791 583.88L150.701 583.4L149.081 581.11L147.531 580.67H147.521L147.201 580.31L148.041 578.73L146.821 577.48L148.061 573.24L147.351 569.92L144.531 567.29L144.261 567.04L148.311 559.6L148.351 557.5L265.351 536.39Z" fill="url(#paint31_linear_436_326)"/>
<path d="M467.841 683.6L323.331 695.35L322.881 693L306.931 672.11L395.381 559.25L467.841 683.6Z" fill="url(#paint32_linear_436_326)"/>
<path d="M276.161 619.73L269.521 619.48L268.381 619.43L265.991 620.22L262.371 619.79L261.191 620.62L257.561 620.79L253.371 623.79L250.461 623.88L246.741 626.2L246.611 626.28L240.921 627.18L237.631 629.68L236.511 629.31L265.351 536.39L276.161 619.73Z" fill="url(#paint33_linear_436_326)"/>
<path d="M395.381 559.25L306.931 672.11L306.521 671.56L307.291 669.74L306.671 669.32L305.351 668.4L303.621 664.25L305.931 662.59V658.63L308.961 655.43L306.861 652.9L309.891 648.81L309.361 645.03L310.751 641.54L308.681 637.59L308.641 633.94L307.891 634.17H307.881L306.081 634.7L301.501 629.72L300.531 631.01L288.231 632.84L283.081 629.04L283.891 625.92L282.101 625.14L280.801 622.44L277.711 619.79L276.161 619.73L265.351 536.39L395.381 559.25Z" fill="url(#paint34_linear_436_326)"/>
<path d="M480.711 540.84L395.381 559.25L360.821 462.3L363.081 462.97L368.911 464.69L372.581 460.67L371.051 455.63L374.561 451.68L472.671 515.03L475.321 518.44L478.311 538.7L480.711 540.84Z" fill="url(#paint35_linear_436_326)"/>
<path d="M450.791 469.34L449.261 467.6L448.461 468.34L447.321 469.38L448.721 474.01L453.641 480.06L454.311 483.26L457.231 485.7L457.781 490.86L463.271 501.1L464.301 503.01L468.131 506.94L466.431 506.99L467.981 508.98L472.671 515.03L374.561 451.68V451.67L374.591 451.65L382.831 448.76L386.791 448.72L389.931 450.23L390.891 452.06L399.421 454.5H402.451L403.131 456.51L404.891 457.41L405.221 457.33L408.421 456.63L425.831 462.09L438.191 457.28L445.061 458.11L448.161 457.19L449.801 458.23L450.791 469.34Z" fill="url(#paint36_linear_436_326)"/>
<path d="M395.381 559.25L265.351 536.39L339.041 451.64L340.081 451.47L343.041 452.89L343.721 457.22L360.811 462.3H360.821L395.381 559.25Z" fill="url(#paint37_linear_436_326)"/>
<path d="M339.041 451.64L265.351 536.39L243.421 431.3L244.491 430.7L249.801 429.93L251.271 428.03L254.491 427.21L257.951 425.31L265.391 424.89L265.911 424.76H265.921L315.831 431.86L316.591 433.16L311.031 440.34L312.781 443.01L320.931 447.63L324.091 448.18L325.821 449.63L329.401 448.2L335.141 449.93L337.511 451.89L339.041 451.64Z" fill="url(#paint38_linear_436_326)"/>
<path d="M265.351 536.39L148.351 557.5L148.441 553.02L151.561 545.71L150.431 538.08L148.881 536.63L231.631 433.38L232.211 434.14L237.691 434.37L238.061 434.26L243.421 431.3L265.351 536.39Z" fill="url(#paint39_linear_436_326)"/>
<path d="M231.631 433.38L148.881 536.63L148.401 536.18L149.531 535.12L148.851 533.74L150.461 532.07L145.021 525.35L146.821 517.8L152.141 509.76L151.841 507.43L158.541 501.46L158.991 496.95L165.731 488.61L167.451 483.38L170.351 481.61L171.571 480.86L171.701 480.83L171.771 480.81L175.541 480.54L185.601 471.33L190.801 466.58L189.821 457.09L192.621 454.04L192.711 451.58L196.361 448.7L197.061 446.44L200.421 445.33L219.241 429.03L221.581 431.67L222.591 432.79L228.071 433.49L228.921 434.68L231.121 432.72L231.631 433.38Z" fill="url(#paint40_linear_436_326)"/>
<path d="M382.431 833.44L360.311 863.07L354.051 853.69L353.481 848.55L349.571 843.25L346.821 839.51L382.431 833.44Z" fill="url(#paint41_linear_436_326)"/>
<path d="M382.971 880.06L382.091 880.42L378.101 880.47L376.601 881.85L374.091 881.77L371.211 883.38L364.591 880.82L364.471 878.64L362.291 880.03L362.371 877.31L358.721 872.16L359.041 869.82L360.541 870.69L360.861 863.89L360.311 863.07L382.431 833.44L382.971 880.06Z" fill="url(#paint42_linear_436_326)"/>
<path d="M449.071 839.85L447.341 844.51L444.411 845.71L431.751 862.14H429.971L414.011 876.08L407.121 876.63L405.631 878.13L402.291 878.17L401.571 879.51L399.151 879.06H399.141L394.271 878.17L390.891 879.35L388.091 877.97L382.971 880.06L382.431 833.44L449.071 839.85Z" fill="url(#paint43_linear_436_326)"/>
</mask>
<g mask="url(#mask0_436_326)">
<path opacity="0.2" d="M517.971 694.53L489.721 796.11L448.411 784.03L429.941 866.51L408.151 864.96L402.341 913.43L347.051 871.69L387.291 779.41L460.371 751.92L528.861 659.57L517.971 694.53Z" fill="#84ECEF"/>
<path opacity="0.3" d="M501.791 636.46L557.681 672.29L516.721 725.05L504.181 804.48L447.761 838.69L458.061 851.06L422.581 861.97L403.941 917.7L327.161 886.48L288.261 880.81L306.791 851.1L382.611 650.42L501.791 636.46Z" fill="#84ECEF"/>
<path opacity="0.2" d="M247.141 733.85L183.751 779.62L243.751 807.42L269.911 854.42L271.801 930.86L224.941 896.51C224.941 896.51 190.101 882.81 188.061 881.14C187.151 880.4 165.841 875.81 142.431 870.93L88.051 726.35L296.741 661.61L247.141 733.85Z" fill="#84ECEF"/>
<path opacity="0.2" d="M345.781 921.03L284.861 887.87L284.651 848.42L236.901 882.67L88.891 796.62L159.061 695.21L240.051 684.99L295.931 656.11L324.321 707.97L384.591 688.16L417.741 772.84L473.061 799.15L434.521 940.49L380.201 965.87L345.781 921.03Z" fill="#84ECEF"/>
<path opacity="0.2" d="M173.501 540.39L142.891 658.29L239.051 714.7L362.841 735.55L375.471 791.71L300.301 764.76L302.201 781.1L246.361 767.99L233.621 839.37L126.441 778.29L45.361 562.71L79.031 522.32L173.501 540.39Z" fill="#84ECEF"/>
<path d="M207.881 858.55C208.191 859.37 209.601 859.6 211.041 859.06C212.481 858.52 213.381 857.42 213.041 856.6C212.701 855.78 211.321 855.54 209.881 856.08C208.441 856.62 207.571 857.73 207.881 858.55Z" fill="#84ECEF"/>
<path opacity="0.2" d="M96.611 560.74L142.711 465.91L181.161 485.24L214.191 407.44L235.351 412.89L249.801 366.26L296.661 417.28L240.451 500.8L163.611 514.66L79.601 593.16L96.611 560.74Z" fill="#84ECEF"/>
<path opacity="0.3" d="M251.921 418.39L308.711 466.94L254.931 519.45L228.721 606.07L160.551 635.53L170.141 650.9L128.901 657.6L99.551 716.87L18.751 670.24L-23.739 657.93L1.48099 627.66L116.901 415.61L251.921 418.39Z" fill="#84ECEF"/>
<path opacity="0.2" d="M319.971 845.14L390.571 811.55L336.571 773.39L319.311 722.39L331.231 646.86L371.131 689.09C371.131 689.09 402.931 708.84 404.641 710.85C405.401 711.75 425.531 720.1 447.641 729.12L475.071 881.12L258.141 907.19L319.971 845.14Z" fill="#84ECEF"/>
<path opacity="0.2" d="M455.991 920.53L386.741 916.81L369.571 881.28L341.201 932.75L170.561 918.74L190.291 797L258.991 752.94L297.021 702.82L344.951 737.42L390.841 693.61L457.201 755.79L518.451 755.75L544.471 899.92L506.351 946.2L455.991 920.53Z" fill="#84ECEF"/>
<path opacity="0.2" d="M413.591 964.49L464.941 854.04L380.521 781.22L262.521 738.41L260.211 680.89L329.301 720.95L330.371 704.54L382.931 727.49L408.331 659.57L502.741 738.97L543.651 965.63L503.261 999.29L413.591 964.49Z" fill="#84ECEF"/>
<path opacity="0.2" d="M236.571 761.59L295.801 873.71L352.511 748.39L461.911 788.14L525.351 841.58L585.511 734.93L495.511 660.81L467.511 744.63L341.511 687.05L324.871 744.14L315.211 742.79L291.311 737.06L288.401 750.72C288.401 750.72 287.551 760.92 283.641 761.62C279.731 762.32 236.571 761.59 236.571 761.59Z" fill="#84ECEF"/>
<path d="M153.131 673.14C153.441 673.97 154.851 674.2 156.291 673.66C157.731 673.12 158.631 672.02 158.291 671.19C157.951 670.36 156.571 670.19 155.141 670.68C153.711 671.17 152.821 672.29 153.131 673.14Z" fill="#84ECEF"/>
<path opacity="0.2" d="M410.011 836.26L340.751 832.53L323.581 797.01L295.211 848.48L124.581 834.47L144.301 712.73L213.001 668.67L251.031 618.55L298.961 653.15L344.851 609.34L411.211 671.52L472.461 671.48L498.481 815.65L460.361 861.93L410.011 836.26Z" fill="#84ECEF"/>
<path opacity="0.2" d="M423.301 710.14L482.511 822.24L539.241 696.92L648.621 736.65L712.091 790.14L772.191 683.51L682.191 609.39L654.251 693.14L528.251 635.56L511.651 692.62L501.991 691.27L478.101 685.55L475.181 699.2C475.181 699.2 474.331 709.4 470.421 710.1C466.511 710.8 423.301 710.14 423.301 710.14Z" fill="#84ECEF"/>
</g>
<path d="M322.301 466.03L344.261 345.28V473.14L322.301 466.03Z" fill="#19ABB5"/>
<path d="M372.011 466.03L344.261 473.14V345.28L372.011 466.03Z" fill="url(#paint44_linear_436_326)"/>
<path d="M344.261 353.93C349.938 353.93 354.541 349.328 354.541 343.65C354.541 337.973 349.938 333.37 344.261 333.37C338.583 333.37 333.981 337.973 333.981 343.65C333.981 349.328 338.583 353.93 344.261 353.93Z" fill="url(#paint45_linear_436_326)"/>
<g opacity="0.25">
<path d="M344.161 373.32C360.266 373.32 373.321 360.265 373.321 344.16C373.321 328.055 360.266 315 344.161 315C328.056 315 315.001 328.055 315.001 344.16C315.001 360.265 328.056 373.32 344.161 373.32Z" stroke="url(#paint46_linear_436_326)" stroke-width="5" stroke-miterlimit="10"/>
</g>
<defs>
<linearGradient id="paint0_linear_436_326" x1="321.141" y1="796.25" x2="382.431" y2="796.25" gradientUnits="userSpaceOnUse">
<stop stop-color="#FCD7DF"/>
<stop offset="1" stop-color="#F83058"/>
</linearGradient>
<linearGradient id="paint1_linear_436_326" x1="323.331" y1="758.52" x2="467.841" y2="758.52" gradientUnits="userSpaceOnUse">
<stop stop-color="#FCD7DF"/>
<stop offset="1" stop-color="#F83058"/>
</linearGradient>
<linearGradient id="paint2_linear_436_326" x1="467.841" y1="730.62" x2="499.961" y2="730.62" gradientUnits="userSpaceOnUse">
<stop stop-color="#FCD7DF"/>
<stop offset="1" stop-color="#F83058"/>
</linearGradient>
<linearGradient id="paint3_linear_436_326" x1="514.051" y1="769.89" x2="556.641" y2="769.89" gradientUnits="userSpaceOnUse">
<stop stop-color="#FCD7DF"/>
<stop offset="1" stop-color="#F83058"/>
</linearGradient>
<linearGradient id="paint4_linear_436_326" x1="382.431" y1="761.73" x2="474.101" y2="761.73" gradientUnits="userSpaceOnUse">
<stop stop-color="#FCD7DF"/>
<stop offset="1" stop-color="#F83058"/>
</linearGradient>
<linearGradient id="paint5_linear_436_326" x1="514.021" y1="788.74" x2="558.591" y2="788.74" gradientUnits="userSpaceOnUse">
<stop stop-color="#FCD7DF"/>
<stop offset="1" stop-color="#F83058"/>
</linearGradient>
<linearGradient id="paint6_linear_436_326" x1="168.921" y1="611.87" x2="183.391" y2="611.87" gradientUnits="userSpaceOnUse">
<stop stop-color="#FCD7DF"/>
<stop offset="1" stop-color="#F83058"/>
</linearGradient>
<linearGradient id="paint7_linear_436_326" x1="467.841" y1="624.58" x2="556.061" y2="624.58" gradientUnits="userSpaceOnUse">
<stop stop-color="#FCD7DF"/>
<stop offset="1" stop-color="#F83058"/>
</linearGradient>
<linearGradient id="paint8_linear_436_326" x1="395.381" y1="612.22" x2="497.521" y2="612.22" gradientUnits="userSpaceOnUse">
<stop stop-color="#FCD7DF"/>
<stop offset="1" stop-color="#F83058"/>
</linearGradient>
<linearGradient id="paint9_linear_436_326" x1="144.261" y1="584.08" x2="265.351" y2="584.08" gradientUnits="userSpaceOnUse">
<stop stop-color="#FCD7DF"/>
<stop offset="1" stop-color="#F83058"/>
</linearGradient>
<linearGradient id="paint10_linear_436_326" x1="306.931" y1="627.3" x2="467.841" y2="627.3" gradientUnits="userSpaceOnUse">
<stop stop-color="#FCD7DF"/>
<stop offset="1" stop-color="#F83058"/>
</linearGradient>
<linearGradient id="paint11_linear_436_326" x1="236.511" y1="583.04" x2="276.161" y2="583.04" gradientUnits="userSpaceOnUse">
<stop stop-color="#FCD7DF"/>
<stop offset="1" stop-color="#F83058"/>
</linearGradient>
<linearGradient id="paint12_linear_436_326" x1="265.351" y1="604.25" x2="395.381" y2="604.25" gradientUnits="userSpaceOnUse">
<stop stop-color="#FCD7DF"/>
<stop offset="1" stop-color="#F83058"/>
</linearGradient>
<linearGradient id="paint13_linear_436_326" x1="360.821" y1="505.47" x2="480.711" y2="505.47" gradientUnits="userSpaceOnUse">
<stop stop-color="#FCD7DF"/>
<stop offset="1" stop-color="#F83058"/>
</linearGradient>
<linearGradient id="paint14_linear_436_326" x1="374.561" y1="481.87" x2="472.671" y2="481.87" gradientUnits="userSpaceOnUse">
<stop stop-color="#FCD7DF"/>
<stop offset="1" stop-color="#F83058"/>
</linearGradient>
<linearGradient id="paint15_linear_436_326" x1="265.351" y1="505.36" x2="395.381" y2="505.36" gradientUnits="userSpaceOnUse">
<stop stop-color="#FCD7DF"/>
<stop offset="1" stop-color="#F83058"/>
</linearGradient>
<linearGradient id="paint16_linear_436_326" x1="243.421" y1="480.58" x2="339.041" y2="480.58" gradientUnits="userSpaceOnUse">
<stop stop-color="#FCD7DF"/>
<stop offset="1" stop-color="#F83058"/>
</linearGradient>
<linearGradient id="paint17_linear_436_326" x1="148.351" y1="494.4" x2="265.351" y2="494.4" gradientUnits="userSpaceOnUse">
<stop stop-color="#FCD7DF"/>
<stop offset="1" stop-color="#F83058"/>
</linearGradient>
<linearGradient id="paint18_linear_436_326" x1="145.021" y1="482.83" x2="231.631" y2="482.83" gradientUnits="userSpaceOnUse">
<stop stop-color="#FCD7DF"/>
<stop offset="1" stop-color="#F83058"/>
</linearGradient>
<linearGradient id="paint19_linear_436_326" x1="346.821" y1="848.25" x2="382.431" y2="848.25" gradientUnits="userSpaceOnUse">
<stop stop-color="#FCD7DF"/>
<stop offset="1" stop-color="#F83058"/>
</linearGradient>
<linearGradient id="paint20_linear_436_326" x1="358.721" y1="858.41" x2="382.971" y2="858.41" gradientUnits="userSpaceOnUse">
<stop stop-color="#FCD7DF"/>
<stop offset="1" stop-color="#F83058"/>
</linearGradient>
<linearGradient id="paint21_linear_436_326" x1="382.431" y1="856.75" x2="449.071" y2="856.75" gradientUnits="userSpaceOnUse">
<stop stop-color="#FCD7DF"/>
<stop offset="1" stop-color="#F83058"/>
</linearGradient>
<linearGradient id="paint22_linear_436_326" x1="321.141" y1="796.25" x2="382.431" y2="796.25" gradientUnits="userSpaceOnUse">
<stop stop-color="#FCD7DF"/>
<stop offset="1" stop-color="#F83058"/>
</linearGradient>
<linearGradient id="paint23_linear_436_326" x1="323.331" y1="758.52" x2="467.841" y2="758.52" gradientUnits="userSpaceOnUse">
<stop stop-color="#FCD7DF"/>
<stop offset="1" stop-color="#F83058"/>
</linearGradient>
<linearGradient id="paint24_linear_436_326" x1="467.841" y1="730.62" x2="499.961" y2="730.62" gradientUnits="userSpaceOnUse">
<stop stop-color="#FCD7DF"/>
<stop offset="1" stop-color="#F83058"/>
</linearGradient>
<linearGradient id="paint25_linear_436_326" x1="514.051" y1="769.89" x2="556.641" y2="769.89" gradientUnits="userSpaceOnUse">
<stop stop-color="#FCD7DF"/>
<stop offset="1" stop-color="#F83058"/>
</linearGradient>
<linearGradient id="paint26_linear_436_326" x1="382.431" y1="761.73" x2="474.101" y2="761.73" gradientUnits="userSpaceOnUse">
<stop stop-color="#FCD7DF"/>
<stop offset="1" stop-color="#F83058"/>
</linearGradient>
<linearGradient id="paint27_linear_436_326" x1="514.021" y1="788.74" x2="558.591" y2="788.74" gradientUnits="userSpaceOnUse">
<stop stop-color="#FCD7DF"/>
<stop offset="1" stop-color="#F83058"/>
</linearGradient>
<linearGradient id="paint28_linear_436_326" x1="168.921" y1="611.87" x2="183.391" y2="611.87" gradientUnits="userSpaceOnUse">
<stop stop-color="#FCD7DF"/>
<stop offset="1" stop-color="#F83058"/>
</linearGradient>
<linearGradient id="paint29_linear_436_326" x1="467.841" y1="624.58" x2="556.061" y2="624.58" gradientUnits="userSpaceOnUse">
<stop stop-color="#FCD7DF"/>
<stop offset="1" stop-color="#F83058"/>
</linearGradient>
<linearGradient id="paint30_linear_436_326" x1="395.381" y1="612.22" x2="497.521" y2="612.22" gradientUnits="userSpaceOnUse">
<stop stop-color="#FCD7DF"/>
<stop offset="1" stop-color="#F83058"/>
</linearGradient>
<linearGradient id="paint31_linear_436_326" x1="144.261" y1="584.08" x2="265.351" y2="584.08" gradientUnits="userSpaceOnUse">
<stop stop-color="#FCD7DF"/>
<stop offset="1" stop-color="#F83058"/>
</linearGradient>
<linearGradient id="paint32_linear_436_326" x1="306.931" y1="627.3" x2="467.841" y2="627.3" gradientUnits="userSpaceOnUse">
<stop stop-color="#FCD7DF"/>
<stop offset="1" stop-color="#F83058"/>
</linearGradient>
<linearGradient id="paint33_linear_436_326" x1="236.511" y1="583.04" x2="276.161" y2="583.04" gradientUnits="userSpaceOnUse">
<stop stop-color="#FCD7DF"/>
<stop offset="1" stop-color="#F83058"/>
</linearGradient>
<linearGradient id="paint34_linear_436_326" x1="265.351" y1="604.25" x2="395.381" y2="604.25" gradientUnits="userSpaceOnUse">
<stop stop-color="#FCD7DF"/>
<stop offset="1" stop-color="#F83058"/>
</linearGradient>
<linearGradient id="paint35_linear_436_326" x1="360.821" y1="505.47" x2="480.711" y2="505.47" gradientUnits="userSpaceOnUse">
<stop stop-color="#FCD7DF"/>
<stop offset="1" stop-color="#F83058"/>
</linearGradient>
<linearGradient id="paint36_linear_436_326" x1="374.561" y1="481.87" x2="472.671" y2="481.87" gradientUnits="userSpaceOnUse">
<stop stop-color="#FCD7DF"/>
<stop offset="1" stop-color="#F83058"/>
</linearGradient>
<linearGradient id="paint37_linear_436_326" x1="265.351" y1="505.36" x2="395.381" y2="505.36" gradientUnits="userSpaceOnUse">
<stop stop-color="#FCD7DF"/>
<stop offset="1" stop-color="#F83058"/>
</linearGradient>
<linearGradient id="paint38_linear_436_326" x1="243.421" y1="480.58" x2="339.041" y2="480.58" gradientUnits="userSpaceOnUse">
<stop stop-color="#FCD7DF"/>
<stop offset="1" stop-color="#F83058"/>
</linearGradient>
<linearGradient id="paint39_linear_436_326" x1="148.351" y1="494.4" x2="265.351" y2="494.4" gradientUnits="userSpaceOnUse">
<stop stop-color="#FCD7DF"/>
<stop offset="1" stop-color="#F83058"/>
</linearGradient>
<linearGradient id="paint40_linear_436_326" x1="145.021" y1="482.83" x2="231.631" y2="482.83" gradientUnits="userSpaceOnUse">
<stop stop-color="#FCD7DF"/>
<stop offset="1" stop-color="#F83058"/>
</linearGradient>
<linearGradient id="paint41_linear_436_326" x1="346.821" y1="848.25" x2="382.431" y2="848.25" gradientUnits="userSpaceOnUse">
<stop stop-color="#FCD7DF"/>
<stop offset="1" stop-color="#F83058"/>
</linearGradient>
<linearGradient id="paint42_linear_436_326" x1="358.721" y1="858.41" x2="382.971" y2="858.41" gradientUnits="userSpaceOnUse">
<stop stop-color="#FCD7DF"/>
<stop offset="1" stop-color="#F83058"/>
</linearGradient>
<linearGradient id="paint43_linear_436_326" x1="382.431" y1="856.75" x2="449.071" y2="856.75" gradientUnits="userSpaceOnUse">
<stop stop-color="#FCD7DF"/>
<stop offset="1" stop-color="#F83058"/>
</linearGradient>
<linearGradient id="paint44_linear_436_326" x1="352.701" y1="365.15" x2="358.481" y2="476.14" gradientUnits="userSpaceOnUse">
<stop offset="0.4" stop-color="#84ECEF"/>
<stop offset="0.51" stop-color="#7EE8EB"/>
<stop offset="0.64" stop-color="#6DDDE0"/>
<stop offset="0.8" stop-color="#52CBCE"/>
<stop offset="0.97" stop-color="#2BB3B6"/>
<stop offset="1" stop-color="#24AEB1"/>
</linearGradient>
<linearGradient id="paint45_linear_436_326" x1="333.981" y1="343.65" x2="354.541" y2="343.65" gradientUnits="userSpaceOnUse">
<stop stop-color="#FCD7DF"/>
<stop offset="1" stop-color="#F83058"/>
</linearGradient>
<linearGradient id="paint46_linear_436_326" x1="364.736" y1="317.375" x2="326.25" y2="362.569" gradientUnits="userSpaceOnUse">
<stop offset="0.47" stop-color="#84ECEF"/>
<stop offset="0.53" stop-color="#88E6EA"/>
<stop offset="0.61" stop-color="#92D5DD"/>
<stop offset="0.7" stop-color="#A3BAC6"/>
<stop offset="0.8" stop-color="#BB93A7"/>
<stop offset="0.91" stop-color="#D96280"/>
<stop offset="1" stop-color="#F83058"/>
</linearGradient>
</defs>
</svg>
