<svg width="701" height="694" viewBox="0 0 701 694" fill="none" xmlns="http://www.w3.org/2000/svg">
<path d="M471.43 643.44L435.82 649.51L431.28 643.31L426.82 624.69L427.09 613.46L422.11 608.48L419.56 603.49L410.42 585.54L410.14 571.34L414.21 562.99L471.43 643.44Z" fill="url(#paint0_linear_173_984)"/>
<path d="M556.84 493.6L471.43 643.44L414.21 562.99V562.98L417.17 556.95L420.61 549.9L422.96 540.81L421.75 538L417.21 527.43L418.06 526.85L419.63 525.78L412.77 509.72L414.28 508.49L412.66 507.15L412.33 505.35L556.84 493.6Z" fill="url(#paint1_linear_173_984)"/>
<path d="M586.9 560.56L588.96 563.02L587.57 568.2L578.18 578.29L572.2 580.55L563.1 587.64L556.84 493.6L582.38 494.87L581.53 497.11L577.03 503.81L576.73 511.22L580.14 514.07L578.8 518.75L579.59 520.12L578.62 523.26L580.99 526.54L581.89 533.71V533.72L587.33 537.56L587.27 540.52L587.19 545.34L587.05 552.17L586.9 560.56Z" fill="url(#paint2_linear_173_984)"/>
<path d="M645.64 563.91L603.05 612.25V612.08L603.08 608.87L604.27 607.21L610.7 598.19L608.5 590.12L606.68 581.29L610.15 573.8L620.8 570.72L622.26 570.67L622.08 568.29L624.75 566.93L626.4 568.12L626.83 564.38L630.29 564.56L631.27 563.01L631.15 562.68L630.29 560.28L631.94 558.33L632.3 556.85L634.86 555.9L637.16 554.47L637.29 548.89L639.54 547.53L641.74 549.9L644 553.76V558.03L645.08 562.66L645.64 563.91Z" fill="url(#paint3_linear_173_984)"/>
<path d="M556.75 616.86L554.76 621.17L556.14 622.32L553.9 627.59L538.6 634.98L538.45 637.5L540.31 638.21L539.18 643.04L539.5 646.04L538.07 649.85L471.43 643.44L556.84 493.6L563.1 587.64L551.01 597.06L550.47 600.73L552.37 602.75L554.94 609.39L554.95 609.66L555 612.08L556.18 612.19L555.82 615.24L556.75 616.86Z" fill="url(#paint4_linear_173_984)"/>
<path d="M647.59 568.29L646.53 570.29L645.82 571.62L643.32 569.49L642.1 570.72L644.12 574.1L641.92 579.39L639.61 589.24L636.88 595.59L635.47 603.41L634.79 604.82V604.83L632.97 608.64L631.34 615.04L630.04 618.96L628.29 626.85L625.97 630.52L623 631.36L619.82 632.24L618.51 632.69L615.94 633.56L611.91 631.83L609.79 632.12L606.56 627.08L605.1 625.53L605.22 619.19L603.02 616.28L603.04 613.6L603.05 612.25L645.64 563.91L647.59 568.29Z" fill="url(#paint5_linear_173_984)"/>
<path d="M272.39 429.75L268.27 425.7L259.1 422.04L260.25 420.7L257.97 416.98L257.92 413.99L272.39 429.75Z" fill="url(#paint6_linear_173_984)"/>
<path d="M645.06 419.78L639.74 429.53L630.43 442.72L627.91 446.26L625.41 448.56L612.66 460.29L595.12 476.4L593.59 479.68L585.37 486.89L582.38 494.87L556.84 493.6L586.52 374.29L600.85 388.03L600.86 388.05L601.39 388.54H602.6L602.91 389.07L603.35 389.83L603.51 390.13L604.62 392.05L599.99 396.49L606.86 401.37L608.69 402.66L613.2 403.66L619.22 400.71L622.08 401.47L623.01 401.2L630.65 399.02L645.06 419.78Z" fill="url(#paint7_linear_173_984)"/>
<path d="M586.41 374.18L586.52 374.29L556.84 493.6L484.38 369.25L569.71 350.84L575.76 356.21L581.53 371.63L582.82 371.33L583.98 373.29L586.41 374.18Z" fill="url(#paint8_linear_173_984)"/>
<path d="M354.35 346.39L325.51 439.31L319.88 437.46L317.07 437.31L314.34 436.35L312.64 437.11L307.67 436.8L305.27 437.6L292.78 441.77L282.89 437.62L277.01 432.29L276.96 432.24L273.07 430.43L272.4 429.77L272.39 429.75L257.92 413.99V413.98L257.89 411.71L254.08 408.59L254.25 406.79L250.28 404.02L250.26 404.01L248.88 400.53L246.69 400.68L244.98 396.94V396.9H244.99L245.79 393.88L239.7 393.4L238.08 391.11L236.53 390.67H236.52L236.2 390.31L237.04 388.73L235.82 387.48L237.06 383.24L236.35 379.92L233.53 377.29L233.26 377.04L237.31 369.6L237.35 367.5L354.35 346.39Z" fill="url(#paint9_linear_173_984)"/>
<path d="M556.84 493.6L412.33 505.35L411.88 503L395.93 482.11L484.38 369.25L556.84 493.6Z" fill="url(#paint10_linear_173_984)"/>
<path d="M365.16 429.73L358.52 429.48L357.38 429.43L354.99 430.22L351.37 429.79L350.19 430.62L346.56 430.79L342.37 433.79L339.46 433.88L335.74 436.2L335.61 436.28L329.92 437.18L326.63 439.68L325.51 439.31L354.35 346.39L365.16 429.73Z" fill="url(#paint11_linear_173_984)"/>
<path d="M484.38 369.25L395.93 482.11L395.52 481.56L396.29 479.74L395.67 479.32L394.35 478.4L392.62 474.25L394.93 472.59V468.63L397.96 465.43L395.86 462.9L398.89 458.81L398.36 455.03L399.75 451.54L397.68 447.59L397.64 443.94L396.89 444.17H396.88L395.08 444.7L390.5 439.72L389.53 441.01L377.23 442.84L372.08 439.04L372.89 435.92L371.1 435.14L369.8 432.44L366.71 429.79L365.16 429.73L354.35 346.39L484.38 369.25Z" fill="url(#paint12_linear_173_984)"/>
<path d="M569.71 350.84L484.38 369.25L449.82 272.3L452.08 272.97L457.91 274.69L461.58 270.67L460.05 265.63L463.56 261.68L561.67 325.03L564.32 328.44L567.31 348.7L569.71 350.84Z" fill="url(#paint13_linear_173_984)"/>
<path d="M539.79 279.34L538.26 277.6L537.46 278.34L536.32 279.38L537.72 284.01L542.64 290.06L543.31 293.26L546.23 295.7L546.78 300.86L552.27 311.1L553.3 313.01L557.13 316.94L555.43 316.99L556.98 318.98L561.67 325.03L463.56 261.68V261.67L463.59 261.65L471.83 258.76L475.79 258.72L478.93 260.23L479.89 262.06L488.42 264.5H491.45L492.13 266.51L493.89 267.41L494.22 267.33L497.42 266.63L514.83 272.09L527.19 267.28L534.06 268.11L537.16 267.19L538.8 268.23L539.79 279.34Z" fill="url(#paint14_linear_173_984)"/>
<path d="M484.38 369.25L354.35 346.39L428.04 261.64L429.08 261.47L432.04 262.89L432.72 267.22L449.81 272.3H449.82L484.38 369.25Z" fill="url(#paint15_linear_173_984)"/>
<path d="M428.04 261.64L354.35 346.39L332.42 241.3L333.49 240.7L338.8 239.93L340.27 238.03L343.49 237.21L346.95 235.31L354.39 234.89L354.91 234.76H354.92L404.83 241.86L405.59 243.16L400.03 250.34L401.78 253.01L409.93 257.63L413.09 258.18L414.82 259.63L418.4 258.2L424.14 259.93L426.51 261.89L428.04 261.64Z" fill="url(#paint16_linear_173_984)"/>
<path d="M354.35 346.39L237.35 367.5L237.44 363.02L240.56 355.71L239.43 348.08L237.88 346.63L320.63 243.38L321.21 244.14L326.69 244.37L327.06 244.26L332.42 241.3L354.35 346.39Z" fill="url(#paint17_linear_173_984)"/>
<path d="M320.63 243.38L237.88 346.63L237.4 346.18L238.53 345.12L237.85 343.74L239.46 342.07L234.02 335.35L235.82 327.8L241.14 319.76L240.84 317.43L247.54 311.46L247.99 306.95L254.73 298.61L256.45 293.38L259.35 291.61L260.57 290.86L260.7 290.83L260.77 290.81L264.54 290.54L274.6 281.33L279.8 276.58L278.82 267.09L281.62 264.04L281.71 261.58L285.36 258.7L286.06 256.44L289.42 255.33L308.24 239.03L310.58 241.67L311.59 242.79L317.07 243.49L317.92 244.68L320.12 242.72L320.63 243.38Z" fill="url(#paint18_linear_173_984)"/>
<path d="M471.43 643.44L449.31 673.07L443.05 663.69L442.48 658.55L438.57 653.25L435.82 649.51L471.43 643.44Z" fill="url(#paint19_linear_173_984)"/>
<path d="M471.97 690.06L471.09 690.42L467.1 690.47L465.6 691.85L463.09 691.77L460.21 693.38L453.59 690.82L453.47 688.64L451.29 690.03L451.37 687.31L447.72 682.16L448.04 679.82L449.54 680.69L449.86 673.89L449.31 673.07L471.43 643.44L471.97 690.06Z" fill="url(#paint20_linear_173_984)"/>
<path d="M538.07 649.85L536.34 654.51L533.41 655.71L520.75 672.14H518.97L503.01 686.08L496.12 686.63L494.63 688.13L491.29 688.17L490.57 689.51L488.15 689.06H488.14L483.27 688.17L479.89 689.35L477.09 687.97L471.97 690.06L471.43 643.44L538.07 649.85Z" fill="url(#paint21_linear_173_984)"/>
<mask id="mask0_173_984" style="mask-type:alpha" maskUnits="userSpaceOnUse" x="233" y="234" width="415" height="460">
<path d="M471.43 643.44L435.82 649.51L431.28 643.31L426.82 624.69L427.09 613.46L422.11 608.48L419.56 603.49L410.42 585.54L410.14 571.34L414.21 562.99L471.43 643.44Z" fill="url(#paint22_linear_173_984)"/>
<path d="M556.84 493.6L471.43 643.44L414.21 562.99V562.98L417.17 556.95L420.61 549.9L422.96 540.81L421.75 538L417.21 527.43L418.06 526.85L419.63 525.78L412.77 509.72L414.28 508.49L412.66 507.15L412.33 505.35L556.84 493.6Z" fill="url(#paint23_linear_173_984)"/>
<path d="M586.9 560.56L588.96 563.02L587.57 568.2L578.18 578.29L572.2 580.55L563.1 587.64L556.84 493.6L582.38 494.87L581.53 497.11L577.03 503.81L576.73 511.22L580.14 514.07L578.8 518.75L579.59 520.12L578.62 523.26L580.99 526.54L581.89 533.71V533.72L587.33 537.56L587.27 540.52L587.19 545.34L587.05 552.17L586.9 560.56Z" fill="url(#paint24_linear_173_984)"/>
<path d="M645.64 563.91L603.05 612.25V612.08L603.08 608.87L604.27 607.21L610.7 598.19L608.5 590.12L606.68 581.29L610.15 573.8L620.8 570.72L622.26 570.67L622.08 568.29L624.75 566.93L626.4 568.12L626.83 564.38L630.29 564.56L631.27 563.01L631.15 562.68L630.29 560.28L631.94 558.33L632.3 556.85L634.86 555.9L637.16 554.47L637.29 548.89L639.54 547.53L641.74 549.9L644 553.76V558.03L645.08 562.66L645.64 563.91Z" fill="url(#paint25_linear_173_984)"/>
<path d="M556.75 616.86L554.76 621.17L556.14 622.32L553.9 627.59L538.6 634.98L538.45 637.5L540.31 638.21L539.18 643.04L539.5 646.04L538.07 649.85L471.43 643.44L556.84 493.6L563.1 587.64L551.01 597.06L550.47 600.73L552.37 602.75L554.94 609.39L554.95 609.66L555 612.08L556.18 612.19L555.82 615.24L556.75 616.86Z" fill="url(#paint26_linear_173_984)"/>
<path d="M647.59 568.29L646.53 570.29L645.82 571.62L643.32 569.49L642.1 570.72L644.12 574.1L641.92 579.39L639.61 589.24L636.88 595.59L635.47 603.41L634.79 604.82V604.83L632.97 608.64L631.34 615.04L630.04 618.96L628.29 626.85L625.97 630.52L623 631.36L619.82 632.24L618.51 632.69L615.94 633.56L611.91 631.83L609.79 632.12L606.56 627.08L605.1 625.53L605.22 619.19L603.02 616.28L603.04 613.6L603.05 612.25L645.64 563.91L647.59 568.29Z" fill="url(#paint27_linear_173_984)"/>
<path d="M272.39 429.75L268.27 425.7L259.1 422.04L260.25 420.7L257.97 416.98L257.92 413.99L272.39 429.75Z" fill="url(#paint28_linear_173_984)"/>
<path d="M645.06 419.78L639.74 429.53L630.43 442.72L627.91 446.26L625.41 448.56L612.66 460.29L595.12 476.4L593.59 479.68L585.37 486.89L582.38 494.87L556.84 493.6L586.52 374.29L600.85 388.03L600.86 388.05L601.39 388.54H602.6L602.91 389.07L603.35 389.83L603.51 390.13L604.62 392.05L599.99 396.49L606.86 401.37L608.69 402.66L613.2 403.66L619.22 400.71L622.08 401.47L623.01 401.2L630.65 399.02L645.06 419.78Z" fill="url(#paint29_linear_173_984)"/>
<path d="M586.41 374.18L586.52 374.29L556.84 493.6L484.38 369.25L569.71 350.84L575.76 356.21L581.53 371.63L582.82 371.33L583.98 373.29L586.41 374.18Z" fill="url(#paint30_linear_173_984)"/>
<path d="M354.35 346.39L325.51 439.31L319.88 437.46L317.07 437.31L314.34 436.35L312.64 437.11L307.67 436.8L305.27 437.6L292.78 441.77L282.89 437.62L277.01 432.29L276.96 432.24L273.07 430.43L272.4 429.77L272.39 429.75L257.92 413.99V413.98L257.89 411.71L254.08 408.59L254.25 406.79L250.28 404.02L250.26 404.01L248.88 400.53L246.69 400.68L244.98 396.94V396.9H244.99L245.79 393.88L239.7 393.4L238.08 391.11L236.53 390.67H236.52L236.2 390.31L237.04 388.73L235.82 387.48L237.06 383.24L236.35 379.92L233.53 377.29L233.26 377.04L237.31 369.6L237.35 367.5L354.35 346.39Z" fill="url(#paint31_linear_173_984)"/>
<path d="M556.84 493.6L412.33 505.35L411.88 503L395.93 482.11L484.38 369.25L556.84 493.6Z" fill="url(#paint32_linear_173_984)"/>
<path d="M365.16 429.73L358.52 429.48L357.38 429.43L354.99 430.22L351.37 429.79L350.19 430.62L346.56 430.79L342.37 433.79L339.46 433.88L335.74 436.2L335.61 436.28L329.92 437.18L326.63 439.68L325.51 439.31L354.35 346.39L365.16 429.73Z" fill="url(#paint33_linear_173_984)"/>
<path d="M484.38 369.25L395.93 482.11L395.52 481.56L396.29 479.74L395.67 479.32L394.35 478.4L392.62 474.25L394.93 472.59V468.63L397.96 465.43L395.86 462.9L398.89 458.81L398.36 455.03L399.75 451.54L397.68 447.59L397.64 443.94L396.89 444.17H396.88L395.08 444.7L390.5 439.72L389.53 441.01L377.23 442.84L372.08 439.04L372.89 435.92L371.1 435.14L369.8 432.44L366.71 429.79L365.16 429.73L354.35 346.39L484.38 369.25Z" fill="url(#paint34_linear_173_984)"/>
<path d="M569.71 350.84L484.38 369.25L449.82 272.3L452.08 272.97L457.91 274.69L461.58 270.67L460.05 265.63L463.56 261.68L561.67 325.03L564.32 328.44L567.31 348.7L569.71 350.84Z" fill="url(#paint35_linear_173_984)"/>
<path d="M539.79 279.34L538.26 277.6L537.46 278.34L536.32 279.38L537.72 284.01L542.64 290.06L543.31 293.26L546.23 295.7L546.78 300.86L552.27 311.1L553.3 313.01L557.13 316.94L555.43 316.99L556.98 318.98L561.67 325.03L463.56 261.68V261.67L463.59 261.65L471.83 258.76L475.79 258.72L478.93 260.23L479.89 262.06L488.42 264.5H491.45L492.13 266.51L493.89 267.41L494.22 267.33L497.42 266.63L514.83 272.09L527.19 267.28L534.06 268.11L537.16 267.19L538.8 268.23L539.79 279.34Z" fill="url(#paint36_linear_173_984)"/>
<path d="M484.38 369.25L354.35 346.39L428.04 261.64L429.08 261.47L432.04 262.89L432.72 267.22L449.81 272.3H449.82L484.38 369.25Z" fill="url(#paint37_linear_173_984)"/>
<path d="M428.04 261.64L354.35 346.39L332.42 241.3L333.49 240.7L338.8 239.93L340.27 238.03L343.49 237.21L346.95 235.31L354.39 234.89L354.91 234.76H354.92L404.83 241.86L405.59 243.16L400.03 250.34L401.78 253.01L409.93 257.63L413.09 258.18L414.82 259.63L418.4 258.2L424.14 259.93L426.51 261.89L428.04 261.64Z" fill="url(#paint38_linear_173_984)"/>
<path d="M354.35 346.39L237.35 367.5L237.44 363.02L240.56 355.71L239.43 348.08L237.88 346.63L320.63 243.38L321.21 244.14L326.69 244.37L327.06 244.26L332.42 241.3L354.35 346.39Z" fill="url(#paint39_linear_173_984)"/>
<path d="M320.63 243.38L237.88 346.63L237.4 346.18L238.53 345.12L237.85 343.74L239.46 342.07L234.02 335.35L235.82 327.8L241.14 319.76L240.84 317.43L247.54 311.46L247.99 306.95L254.73 298.61L256.45 293.38L259.35 291.61L260.57 290.86L260.7 290.83L260.77 290.81L264.54 290.54L274.6 281.33L279.8 276.58L278.82 267.09L281.62 264.04L281.71 261.58L285.36 258.7L286.06 256.44L289.42 255.33L308.24 239.03L310.58 241.67L311.59 242.79L317.07 243.49L317.92 244.68L320.12 242.72L320.63 243.38Z" fill="url(#paint40_linear_173_984)"/>
<path d="M471.43 643.44L449.31 673.07L443.05 663.69L442.48 658.55L438.57 653.25L435.82 649.51L471.43 643.44Z" fill="url(#paint41_linear_173_984)"/>
<path d="M471.97 690.06L471.09 690.42L467.1 690.47L465.6 691.85L463.09 691.77L460.21 693.38L453.59 690.82L453.47 688.64L451.29 690.03L451.37 687.31L447.72 682.16L448.04 679.82L449.54 680.69L449.86 673.89L449.31 673.07L471.43 643.44L471.97 690.06Z" fill="url(#paint42_linear_173_984)"/>
<path d="M538.07 649.85L536.34 654.51L533.41 655.71L520.75 672.14H518.97L503.01 686.08L496.12 686.63L494.63 688.13L491.29 688.17L490.57 689.51L488.15 689.06H488.14L483.27 688.17L479.89 689.35L477.09 687.97L471.97 690.06L471.43 643.44L538.07 649.85Z" fill="url(#paint43_linear_173_984)"/>
</mask>
<g mask="url(#mask0_173_984)">
<path opacity="0.2" d="M606.97 504.53L578.72 606.11L537.41 594.03L518.94 676.51L497.15 674.96L491.34 723.43L436.05 681.69L476.29 589.41L549.37 561.92L617.86 469.57L606.97 504.53Z" fill="#84ECEF"/>
<path opacity="0.3" d="M590.79 446.46L646.68 482.29L605.72 535.05L593.18 614.48L536.76 648.69L547.06 661.06L511.58 671.97L492.94 727.7L416.16 696.48L377.26 690.81L395.79 661.1L471.61 460.42L590.79 446.46Z" fill="#84ECEF"/>
<path opacity="0.2" d="M336.14 543.85L272.75 589.62L332.75 617.42L358.91 664.42L360.8 740.86L313.94 706.51C313.94 706.51 279.1 692.81 277.06 691.14C276.15 690.4 254.84 685.81 231.43 680.93L177.05 536.35L385.74 471.61L336.14 543.85Z" fill="#84ECEF"/>
<path opacity="0.2" d="M434.78 731.03L373.86 697.87L373.65 658.42L325.9 692.67L177.89 606.62L248.06 505.21L329.05 494.99L384.93 466.11L413.32 517.97L473.59 498.16L506.74 582.84L562.06 609.15L523.52 750.49L469.2 775.87L434.78 731.03Z" fill="#84ECEF"/>
<path opacity="0.2" d="M262.5 350.39L231.89 468.29L328.05 524.7L451.84 545.55L464.47 601.71L389.3 574.76L391.2 591.1L335.36 577.99L322.62 649.37L215.44 588.29L134.36 372.71L168.03 332.32L262.5 350.39Z" fill="#84ECEF"/>
<path d="M296.88 668.55C297.19 669.37 298.6 669.6 300.04 669.06C301.48 668.52 302.38 667.42 302.04 666.6C301.7 665.78 300.32 665.54 298.88 666.08C297.44 666.62 296.57 667.73 296.88 668.55Z" fill="#84ECEF"/>
<path opacity="0.2" d="M185.61 370.74L231.71 275.91L270.16 295.24L303.19 217.44L324.35 222.89L338.8 176.26L385.66 227.28L329.45 310.8L252.61 324.66L168.6 403.16L185.61 370.74Z" fill="#84ECEF"/>
<path opacity="0.3" d="M340.92 228.39L397.71 276.94L343.93 329.45L317.72 416.07L249.55 445.53L259.14 460.9L217.9 467.6L188.55 526.87L107.75 480.24L65.26 467.93L90.48 437.66L205.9 225.61L340.92 228.39Z" fill="#84ECEF"/>
<path opacity="0.2" d="M408.97 655.14L479.57 621.55L425.57 583.39L408.31 532.39L420.23 456.86L460.13 499.09C460.13 499.09 491.93 518.84 493.64 520.85C494.4 521.75 514.53 530.1 536.64 539.12L564.07 691.12L347.14 717.19L408.97 655.14Z" fill="#84ECEF"/>
<path opacity="0.2" d="M544.99 730.53L475.74 726.81L458.57 691.28L430.2 742.75L259.56 728.74L279.29 607L347.99 562.94L386.02 512.82L433.95 547.42L479.84 503.61L546.2 565.79L607.45 565.75L633.47 709.92L595.35 756.2L544.99 730.53Z" fill="#84ECEF"/>
<path opacity="0.2" d="M502.59 774.49L553.94 664.04L469.52 591.22L351.52 548.41L349.21 490.89L418.3 530.95L419.37 514.54L471.93 537.49L497.33 469.57L591.74 548.97L632.65 775.63L592.26 809.29L502.59 774.49Z" fill="#84ECEF"/>
<path opacity="0.2" d="M325.57 571.59L384.8 683.71L441.51 558.39L550.91 598.14L614.35 651.58L674.51 544.93L584.51 470.81L556.51 554.63L430.51 497.05L413.87 554.14L404.21 552.79L380.31 547.06L377.4 560.72C377.4 560.72 376.55 570.92 372.64 571.62C368.73 572.32 325.57 571.59 325.57 571.59Z" fill="#84ECEF"/>
<path d="M242.13 483.14C242.44 483.97 243.85 484.2 245.29 483.66C246.73 483.12 247.63 482.02 247.29 481.19C246.95 480.36 245.57 480.19 244.14 480.68C242.71 481.17 241.82 482.29 242.13 483.14Z" fill="#84ECEF"/>
<path opacity="0.2" d="M499.01 646.26L429.75 642.53L412.58 607.01L384.21 658.48L213.58 644.47L233.3 522.73L302 478.67L340.03 428.55L387.96 463.15L433.85 419.34L500.21 481.52L561.46 481.48L587.48 625.65L549.36 671.93L499.01 646.26Z" fill="#84ECEF"/>
<path opacity="0.2" d="M512.3 520.14L571.51 632.24L628.24 506.92L737.62 546.65L801.09 600.14L861.19 493.51L771.19 419.39L743.25 503.14L617.25 445.56L600.65 502.62L590.99 501.27L567.1 495.55L564.18 509.2C564.18 509.2 563.33 519.4 559.42 520.1C555.51 520.8 512.3 520.14 512.3 520.14Z" fill="#84ECEF"/>
</g>
<path d="M411.3 276.03L433.26 155.28V283.14L411.3 276.03Z" fill="#19ABB5"/>
<path d="M461.01 276.03L433.26 283.14V155.28L461.01 276.03Z" fill="url(#paint44_linear_173_984)"/>
<path d="M433.26 163.93C438.937 163.93 443.54 159.328 443.54 153.65C443.54 147.973 438.937 143.37 433.26 143.37C427.583 143.37 422.98 147.973 422.98 153.65C422.98 159.328 427.583 163.93 433.26 163.93Z" fill="url(#paint45_linear_173_984)"/>
<g opacity="0.14">
<path d="M435.82 579.64C670.994 579.64 861.64 388.994 861.64 153.82C861.64 -81.3539 670.994 -272 435.82 -272C200.646 -272 10 -81.3539 10 153.82C10 388.994 200.646 579.64 435.82 579.64Z" stroke="url(#paint46_linear_173_984)" stroke-width="19.36" stroke-miterlimit="10"/>
<path d="M435.82 416.19C580.723 416.19 698.19 298.723 698.19 153.82C698.19 8.91705 580.723 -108.55 435.82 -108.55C290.917 -108.55 173.45 8.91705 173.45 153.82C173.45 298.723 290.917 416.19 435.82 416.19Z" stroke="url(#paint47_linear_173_984)" stroke-width="11.93" stroke-miterlimit="10"/>
<path d="M435.82 342.07C539.788 342.07 624.07 257.788 624.07 153.82C624.07 49.8524 539.788 -34.43 435.82 -34.43C331.852 -34.43 247.57 49.8524 247.57 153.82C247.57 257.788 331.852 342.07 435.82 342.07Z" stroke="url(#paint48_linear_173_984)" stroke-width="8.56" stroke-miterlimit="10"/>
<path d="M435.82 270.06C500.018 270.06 552.06 218.018 552.06 153.82C552.06 89.6224 500.018 37.58 435.82 37.58C371.622 37.58 319.58 89.6224 319.58 153.82C319.58 218.018 371.622 270.06 435.82 270.06Z" stroke="url(#paint49_linear_173_984)" stroke-width="5.28" stroke-miterlimit="10"/>
<path d="M435.82 214.8C469.498 214.8 496.8 187.498 496.8 153.82C496.8 120.142 469.498 92.84 435.82 92.84C402.142 92.84 374.84 120.142 374.84 153.82C374.84 187.498 402.142 214.8 435.82 214.8Z" stroke="url(#paint50_linear_173_984)" stroke-width="2.77" stroke-miterlimit="10"/>
<path d="M435.82 182.98C451.925 182.98 464.98 169.925 464.98 153.82C464.98 137.715 451.925 124.66 435.82 124.66C419.715 124.66 406.66 137.715 406.66 153.82C406.66 169.925 419.715 182.98 435.82 182.98Z" stroke="url(#paint51_linear_173_984)" stroke-width="1.33" stroke-miterlimit="10"/>
</g>
<defs>
<linearGradient id="paint0_linear_173_984" x1="410.14" y1="606.25" x2="471.43" y2="606.25" gradientUnits="userSpaceOnUse">
<stop stop-color="#FCD7DF"/>
<stop offset="1" stop-color="#F83058"/>
</linearGradient>
<linearGradient id="paint1_linear_173_984" x1="412.33" y1="568.52" x2="556.84" y2="568.52" gradientUnits="userSpaceOnUse">
<stop stop-color="#FCD7DF"/>
<stop offset="1" stop-color="#F83058"/>
</linearGradient>
<linearGradient id="paint2_linear_173_984" x1="556.84" y1="540.62" x2="588.96" y2="540.62" gradientUnits="userSpaceOnUse">
<stop stop-color="#FCD7DF"/>
<stop offset="1" stop-color="#F83058"/>
</linearGradient>
<linearGradient id="paint3_linear_173_984" x1="603.05" y1="579.89" x2="645.64" y2="579.89" gradientUnits="userSpaceOnUse">
<stop stop-color="#FCD7DF"/>
<stop offset="1" stop-color="#F83058"/>
</linearGradient>
<linearGradient id="paint4_linear_173_984" x1="471.43" y1="571.73" x2="563.1" y2="571.73" gradientUnits="userSpaceOnUse">
<stop stop-color="#FCD7DF"/>
<stop offset="1" stop-color="#F83058"/>
</linearGradient>
<linearGradient id="paint5_linear_173_984" x1="603.02" y1="598.74" x2="647.59" y2="598.74" gradientUnits="userSpaceOnUse">
<stop stop-color="#FCD7DF"/>
<stop offset="1" stop-color="#F83058"/>
</linearGradient>
<linearGradient id="paint6_linear_173_984" x1="257.92" y1="421.87" x2="272.39" y2="421.87" gradientUnits="userSpaceOnUse">
<stop stop-color="#FCD7DF"/>
<stop offset="1" stop-color="#F83058"/>
</linearGradient>
<linearGradient id="paint7_linear_173_984" x1="556.84" y1="434.58" x2="645.06" y2="434.58" gradientUnits="userSpaceOnUse">
<stop stop-color="#FCD7DF"/>
<stop offset="1" stop-color="#F83058"/>
</linearGradient>
<linearGradient id="paint8_linear_173_984" x1="484.38" y1="422.22" x2="586.52" y2="422.22" gradientUnits="userSpaceOnUse">
<stop stop-color="#FCD7DF"/>
<stop offset="1" stop-color="#F83058"/>
</linearGradient>
<linearGradient id="paint9_linear_173_984" x1="233.26" y1="394.08" x2="354.35" y2="394.08" gradientUnits="userSpaceOnUse">
<stop stop-color="#FCD7DF"/>
<stop offset="1" stop-color="#F83058"/>
</linearGradient>
<linearGradient id="paint10_linear_173_984" x1="395.93" y1="437.3" x2="556.84" y2="437.3" gradientUnits="userSpaceOnUse">
<stop stop-color="#FCD7DF"/>
<stop offset="1" stop-color="#F83058"/>
</linearGradient>
<linearGradient id="paint11_linear_173_984" x1="325.51" y1="393.04" x2="365.16" y2="393.04" gradientUnits="userSpaceOnUse">
<stop stop-color="#FCD7DF"/>
<stop offset="1" stop-color="#F83058"/>
</linearGradient>
<linearGradient id="paint12_linear_173_984" x1="354.35" y1="414.25" x2="484.38" y2="414.25" gradientUnits="userSpaceOnUse">
<stop stop-color="#FCD7DF"/>
<stop offset="1" stop-color="#F83058"/>
</linearGradient>
<linearGradient id="paint13_linear_173_984" x1="449.82" y1="315.47" x2="569.71" y2="315.47" gradientUnits="userSpaceOnUse">
<stop stop-color="#FCD7DF"/>
<stop offset="1" stop-color="#F83058"/>
</linearGradient>
<linearGradient id="paint14_linear_173_984" x1="463.56" y1="291.87" x2="561.67" y2="291.87" gradientUnits="userSpaceOnUse">
<stop stop-color="#FCD7DF"/>
<stop offset="1" stop-color="#F83058"/>
</linearGradient>
<linearGradient id="paint15_linear_173_984" x1="354.35" y1="315.36" x2="484.38" y2="315.36" gradientUnits="userSpaceOnUse">
<stop stop-color="#FCD7DF"/>
<stop offset="1" stop-color="#F83058"/>
</linearGradient>
<linearGradient id="paint16_linear_173_984" x1="332.42" y1="290.58" x2="428.04" y2="290.58" gradientUnits="userSpaceOnUse">
<stop stop-color="#FCD7DF"/>
<stop offset="1" stop-color="#F83058"/>
</linearGradient>
<linearGradient id="paint17_linear_173_984" x1="237.35" y1="304.4" x2="354.35" y2="304.4" gradientUnits="userSpaceOnUse">
<stop stop-color="#FCD7DF"/>
<stop offset="1" stop-color="#F83058"/>
</linearGradient>
<linearGradient id="paint18_linear_173_984" x1="234.02" y1="292.83" x2="320.63" y2="292.83" gradientUnits="userSpaceOnUse">
<stop stop-color="#FCD7DF"/>
<stop offset="1" stop-color="#F83058"/>
</linearGradient>
<linearGradient id="paint19_linear_173_984" x1="435.82" y1="658.25" x2="471.43" y2="658.25" gradientUnits="userSpaceOnUse">
<stop stop-color="#FCD7DF"/>
<stop offset="1" stop-color="#F83058"/>
</linearGradient>
<linearGradient id="paint20_linear_173_984" x1="447.72" y1="668.41" x2="471.97" y2="668.41" gradientUnits="userSpaceOnUse">
<stop stop-color="#FCD7DF"/>
<stop offset="1" stop-color="#F83058"/>
</linearGradient>
<linearGradient id="paint21_linear_173_984" x1="471.43" y1="666.75" x2="538.07" y2="666.75" gradientUnits="userSpaceOnUse">
<stop stop-color="#FCD7DF"/>
<stop offset="1" stop-color="#F83058"/>
</linearGradient>
<linearGradient id="paint22_linear_173_984" x1="410.14" y1="606.25" x2="471.43" y2="606.25" gradientUnits="userSpaceOnUse">
<stop stop-color="#FCD7DF"/>
<stop offset="1" stop-color="#F83058"/>
</linearGradient>
<linearGradient id="paint23_linear_173_984" x1="412.33" y1="568.52" x2="556.84" y2="568.52" gradientUnits="userSpaceOnUse">
<stop stop-color="#FCD7DF"/>
<stop offset="1" stop-color="#F83058"/>
</linearGradient>
<linearGradient id="paint24_linear_173_984" x1="556.84" y1="540.62" x2="588.96" y2="540.62" gradientUnits="userSpaceOnUse">
<stop stop-color="#FCD7DF"/>
<stop offset="1" stop-color="#F83058"/>
</linearGradient>
<linearGradient id="paint25_linear_173_984" x1="603.05" y1="579.89" x2="645.64" y2="579.89" gradientUnits="userSpaceOnUse">
<stop stop-color="#FCD7DF"/>
<stop offset="1" stop-color="#F83058"/>
</linearGradient>
<linearGradient id="paint26_linear_173_984" x1="471.43" y1="571.73" x2="563.1" y2="571.73" gradientUnits="userSpaceOnUse">
<stop stop-color="#FCD7DF"/>
<stop offset="1" stop-color="#F83058"/>
</linearGradient>
<linearGradient id="paint27_linear_173_984" x1="603.02" y1="598.74" x2="647.59" y2="598.74" gradientUnits="userSpaceOnUse">
<stop stop-color="#FCD7DF"/>
<stop offset="1" stop-color="#F83058"/>
</linearGradient>
<linearGradient id="paint28_linear_173_984" x1="257.92" y1="421.87" x2="272.39" y2="421.87" gradientUnits="userSpaceOnUse">
<stop stop-color="#FCD7DF"/>
<stop offset="1" stop-color="#F83058"/>
</linearGradient>
<linearGradient id="paint29_linear_173_984" x1="556.84" y1="434.58" x2="645.06" y2="434.58" gradientUnits="userSpaceOnUse">
<stop stop-color="#FCD7DF"/>
<stop offset="1" stop-color="#F83058"/>
</linearGradient>
<linearGradient id="paint30_linear_173_984" x1="484.38" y1="422.22" x2="586.52" y2="422.22" gradientUnits="userSpaceOnUse">
<stop stop-color="#FCD7DF"/>
<stop offset="1" stop-color="#F83058"/>
</linearGradient>
<linearGradient id="paint31_linear_173_984" x1="233.26" y1="394.08" x2="354.35" y2="394.08" gradientUnits="userSpaceOnUse">
<stop stop-color="#FCD7DF"/>
<stop offset="1" stop-color="#F83058"/>
</linearGradient>
<linearGradient id="paint32_linear_173_984" x1="395.93" y1="437.3" x2="556.84" y2="437.3" gradientUnits="userSpaceOnUse">
<stop stop-color="#FCD7DF"/>
<stop offset="1" stop-color="#F83058"/>
</linearGradient>
<linearGradient id="paint33_linear_173_984" x1="325.51" y1="393.04" x2="365.16" y2="393.04" gradientUnits="userSpaceOnUse">
<stop stop-color="#FCD7DF"/>
<stop offset="1" stop-color="#F83058"/>
</linearGradient>
<linearGradient id="paint34_linear_173_984" x1="354.35" y1="414.25" x2="484.38" y2="414.25" gradientUnits="userSpaceOnUse">
<stop stop-color="#FCD7DF"/>
<stop offset="1" stop-color="#F83058"/>
</linearGradient>
<linearGradient id="paint35_linear_173_984" x1="449.82" y1="315.47" x2="569.71" y2="315.47" gradientUnits="userSpaceOnUse">
<stop stop-color="#FCD7DF"/>
<stop offset="1" stop-color="#F83058"/>
</linearGradient>
<linearGradient id="paint36_linear_173_984" x1="463.56" y1="291.87" x2="561.67" y2="291.87" gradientUnits="userSpaceOnUse">
<stop stop-color="#FCD7DF"/>
<stop offset="1" stop-color="#F83058"/>
</linearGradient>
<linearGradient id="paint37_linear_173_984" x1="354.35" y1="315.36" x2="484.38" y2="315.36" gradientUnits="userSpaceOnUse">
<stop stop-color="#FCD7DF"/>
<stop offset="1" stop-color="#F83058"/>
</linearGradient>
<linearGradient id="paint38_linear_173_984" x1="332.42" y1="290.58" x2="428.04" y2="290.58" gradientUnits="userSpaceOnUse">
<stop stop-color="#FCD7DF"/>
<stop offset="1" stop-color="#F83058"/>
</linearGradient>
<linearGradient id="paint39_linear_173_984" x1="237.35" y1="304.4" x2="354.35" y2="304.4" gradientUnits="userSpaceOnUse">
<stop stop-color="#FCD7DF"/>
<stop offset="1" stop-color="#F83058"/>
</linearGradient>
<linearGradient id="paint40_linear_173_984" x1="234.02" y1="292.83" x2="320.63" y2="292.83" gradientUnits="userSpaceOnUse">
<stop stop-color="#FCD7DF"/>
<stop offset="1" stop-color="#F83058"/>
</linearGradient>
<linearGradient id="paint41_linear_173_984" x1="435.82" y1="658.25" x2="471.43" y2="658.25" gradientUnits="userSpaceOnUse">
<stop stop-color="#FCD7DF"/>
<stop offset="1" stop-color="#F83058"/>
</linearGradient>
<linearGradient id="paint42_linear_173_984" x1="447.72" y1="668.41" x2="471.97" y2="668.41" gradientUnits="userSpaceOnUse">
<stop stop-color="#FCD7DF"/>
<stop offset="1" stop-color="#F83058"/>
</linearGradient>
<linearGradient id="paint43_linear_173_984" x1="471.43" y1="666.75" x2="538.07" y2="666.75" gradientUnits="userSpaceOnUse">
<stop stop-color="#FCD7DF"/>
<stop offset="1" stop-color="#F83058"/>
</linearGradient>
<linearGradient id="paint44_linear_173_984" x1="441.7" y1="175.15" x2="447.48" y2="286.14" gradientUnits="userSpaceOnUse">
<stop offset="0.4" stop-color="#84ECEF"/>
<stop offset="0.51" stop-color="#7EE8EB"/>
<stop offset="0.64" stop-color="#6DDDE0"/>
<stop offset="0.8" stop-color="#52CBCE"/>
<stop offset="0.97" stop-color="#2BB3B6"/>
<stop offset="1" stop-color="#24AEB1"/>
</linearGradient>
<linearGradient id="paint45_linear_173_984" x1="422.98" y1="153.65" x2="443.54" y2="153.65" gradientUnits="userSpaceOnUse">
<stop stop-color="#FCD7DF"/>
<stop offset="1" stop-color="#F83058"/>
</linearGradient>
<linearGradient id="paint46_linear_173_984" x1="718.101" y1="-180.291" x2="156.199" y2="479.546" gradientUnits="userSpaceOnUse">
<stop offset="0.47" stop-color="#84ECEF"/>
<stop offset="0.53" stop-color="#88E6EA"/>
<stop offset="0.61" stop-color="#92D5DD"/>
<stop offset="0.7" stop-color="#A3BAC6"/>
<stop offset="0.8" stop-color="#BB93A7"/>
<stop offset="0.91" stop-color="#D96280"/>
<stop offset="1" stop-color="#F83058"/>
</linearGradient>
<linearGradient id="paint47_linear_173_984" x1="610.264" y1="-53.6506" x2="264.049" y2="352.91" gradientUnits="userSpaceOnUse">
<stop offset="0.47" stop-color="#84ECEF"/>
<stop offset="0.53" stop-color="#88E6EA"/>
<stop offset="0.61" stop-color="#92D5DD"/>
<stop offset="0.7" stop-color="#A3BAC6"/>
<stop offset="0.8" stop-color="#BB93A7"/>
<stop offset="0.91" stop-color="#D96280"/>
<stop offset="1" stop-color="#F83058"/>
</linearGradient>
<linearGradient id="paint48_linear_173_984" x1="561.352" y1="3.77279" x2="312.948" y2="295.483" gradientUnits="userSpaceOnUse">
<stop offset="0.47" stop-color="#84ECEF"/>
<stop offset="0.53" stop-color="#88E6EA"/>
<stop offset="0.61" stop-color="#92D5DD"/>
<stop offset="0.7" stop-color="#A3BAC6"/>
<stop offset="0.8" stop-color="#BB93A7"/>
<stop offset="0.91" stop-color="#D96280"/>
<stop offset="1" stop-color="#F83058"/>
</linearGradient>
<linearGradient id="paint49_linear_173_984" x1="513.852" y1="59.5692" x2="360.461" y2="239.69" gradientUnits="userSpaceOnUse">
<stop offset="0.47" stop-color="#84ECEF"/>
<stop offset="0.53" stop-color="#88E6EA"/>
<stop offset="0.61" stop-color="#92D5DD"/>
<stop offset="0.7" stop-color="#A3BAC6"/>
<stop offset="0.8" stop-color="#BB93A7"/>
<stop offset="0.91" stop-color="#D96280"/>
<stop offset="1" stop-color="#F83058"/>
</linearGradient>
<linearGradient id="paint50_linear_173_984" x1="477.387" y1="102.38" x2="396.912" y2="196.876" gradientUnits="userSpaceOnUse">
<stop offset="0.47" stop-color="#84ECEF"/>
<stop offset="0.53" stop-color="#88E6EA"/>
<stop offset="0.61" stop-color="#92D5DD"/>
<stop offset="0.7" stop-color="#A3BAC6"/>
<stop offset="0.8" stop-color="#BB93A7"/>
<stop offset="0.91" stop-color="#D96280"/>
<stop offset="1" stop-color="#F83058"/>
</linearGradient>
<linearGradient id="paint51_linear_173_984" x1="456.395" y1="127.035" x2="417.909" y2="172.229" gradientUnits="userSpaceOnUse">
<stop offset="0.47" stop-color="#84ECEF"/>
<stop offset="0.53" stop-color="#88E6EA"/>
<stop offset="0.61" stop-color="#92D5DD"/>
<stop offset="0.7" stop-color="#A3BAC6"/>
<stop offset="0.8" stop-color="#BB93A7"/>
<stop offset="0.91" stop-color="#D96280"/>
<stop offset="1" stop-color="#F83058"/>
</linearGradient>
</defs>
</svg>
