<svg width="116" height="36" viewBox="0 0 116 36" fill="none" xmlns="http://www.w3.org/2000/svg">
<path d="M101.187 0C101.187 0.0597739 101.306 0 101.366 0.0597739C101.74 0.145549 102.068 0.366305 102.289 0.679638C102.51 0.992971 102.607 1.37678 102.562 1.75735C102.522 2.02844 102.41 2.28399 102.239 2.49769C102.067 2.71139 101.842 2.87553 101.586 2.97323C101.33 3.07092 101.052 3.09864 100.782 3.05353C100.512 3.00841 100.259 2.8921 100.048 2.71655C99.8377 2.54101 99.6779 2.31257 99.5851 2.05475C99.4922 1.79693 99.4698 1.51903 99.52 1.24965C99.5703 0.98028 99.6914 0.729156 99.8709 0.522123C100.05 0.315091 100.282 0.159627 100.541 0.0717287C100.613 0.0717287 100.709 0.0717287 100.78 0H101.187Z" fill="black"/>
<path d="M26.9835 18.2311H22.7754C22.5483 18.2311 22.5842 18.2311 22.5602 18.4224C22.5132 19.1242 22.5696 19.8291 22.7276 20.5145C22.7276 20.5145 22.7276 20.6101 22.7276 20.6579C22.7957 20.9307 22.936 21.18 23.1338 21.3799C23.3315 21.5797 23.5794 21.7226 23.8514 21.7936C24.2209 21.9008 24.6025 21.961 24.9871 21.973C25.5814 22.0068 26.1776 21.9868 26.7683 21.9132C26.9704 21.8781 27.1701 21.8302 27.3661 21.7697C27.5214 21.7241 27.6635 21.6415 27.78 21.5291C27.8966 21.4167 27.9843 21.2778 28.0355 21.1242C28.1355 20.8439 28.188 20.549 28.1909 20.2515C28.1909 20.2515 28.1909 20.2515 28.1909 20.1798C28.1909 20.108 28.1909 20.0004 28.3822 20.0004H31.2155C31.2872 20.0004 31.3231 20.0004 31.3231 20.0961C31.3552 20.5855 31.3149 21.0769 31.2036 21.5546C31.0096 22.3107 30.5352 22.9647 29.8766 23.3836C29.3329 23.7184 28.7337 23.9532 28.1073 24.077C27.1398 24.2718 26.1523 24.3481 25.1664 24.3042C24.3186 24.3062 23.473 24.218 22.6439 24.0411C22.213 23.9451 21.7954 23.7965 21.4006 23.5988C20.817 23.327 20.3534 22.8506 20.0976 22.2599C19.8527 21.6991 19.6839 21.1081 19.5955 20.5025C19.3784 19.0467 19.3223 17.5713 19.4281 16.1032C19.4674 15.2919 19.6079 14.4886 19.8465 13.7122C19.9992 13.167 20.2911 12.671 20.6936 12.2727C21.096 11.8745 21.5951 11.5878 22.1418 11.4408C22.757 11.2549 23.3902 11.1347 24.0307 11.0822C24.85 11.0104 25.674 11.0104 26.4934 11.0822C27.3067 11.1117 28.1117 11.2566 28.8843 11.5125L29.2549 11.6679C29.9139 11.9599 30.4388 12.4891 30.7254 13.1503C30.9759 13.7341 31.1448 14.3496 31.2275 14.9794C31.3587 16.03 31.4067 17.0893 31.3709 18.1474C31.3709 18.2909 31.3709 18.2909 31.2036 18.2909H26.9835V18.2311ZM25.4294 16.3184H28.1312C28.2746 16.3184 28.2746 16.3184 28.2746 16.1869C28.2746 16.0554 28.2746 15.5891 28.2746 15.3022C28.2614 14.9432 28.1929 14.5883 28.0714 14.2502C28.0142 14.0933 27.9221 13.9514 27.802 13.8354C27.6818 13.7195 27.5368 13.6323 27.378 13.5807C27.1779 13.5013 26.9693 13.4451 26.7564 13.4133C26.0945 13.3276 25.4258 13.3076 24.7599 13.3536C24.3978 13.3738 24.04 13.4422 23.696 13.5568C23.5017 13.6142 23.3251 13.7199 23.1829 13.8642C23.0407 14.0085 22.9375 14.1866 22.883 14.3817C22.7082 14.9833 22.6276 15.6084 22.6439 16.2347C22.6439 16.2944 22.6439 16.3184 22.7276 16.3184H25.4653H25.4294Z" fill="black"/>
<path d="M15.8537 15.7445H14.4908C14.2995 15.7445 14.3234 15.7445 14.3115 15.5771C14.3071 15.3714 14.279 15.1668 14.2278 14.9674C14.1491 14.6931 14.0061 14.4416 13.8107 14.2336C13.6152 14.0257 13.373 13.8674 13.1041 13.772C12.837 13.6623 12.5548 13.5938 12.2672 13.5687C11.5992 13.4928 10.923 13.5373 10.2708 13.7002C10.193 13.717 10.1169 13.741 10.0436 13.772C9.83068 13.8363 9.63819 13.955 9.48514 14.1164C9.3321 14.2779 9.2238 14.4764 9.17093 14.6925C9.05767 15.1108 8.9856 15.5393 8.95574 15.9716C8.88404 16.9865 8.88404 18.0052 8.95574 19.0201C8.97556 19.5472 9.04358 20.0715 9.15898 20.5862C9.21549 20.8643 9.3519 21.1199 9.55151 21.3216C9.75111 21.5233 10.0052 21.6624 10.2827 21.7219C10.6199 21.8075 10.9639 21.8635 11.3108 21.8893C11.8555 21.9428 12.404 21.9428 12.9486 21.8893C13.203 21.865 13.4525 21.8046 13.6898 21.7099C13.8251 21.659 13.9477 21.5791 14.0488 21.4758C14.15 21.3726 14.2274 21.2485 14.2756 21.1122C14.4058 20.7553 14.4784 20.3801 14.4908 20.0004C14.5027 19.8173 14.5027 19.6336 14.4908 19.4505C14.4908 19.2951 14.4908 19.2951 14.6582 19.2951H17.4436C17.5991 19.2951 17.5991 19.2951 17.5991 19.4624C17.5991 19.8569 17.5393 20.2395 17.5154 20.6579C17.4915 21.0763 17.4556 21.2557 17.4197 21.5545C17.3681 22.139 17.1095 22.6859 16.6905 23.0967C16.2756 23.4989 15.7719 23.7979 15.2201 23.9694C14.6719 24.1634 14.1016 24.2879 13.5225 24.34C12.6656 24.4415 11.8014 24.4655 10.9402 24.4117C10.0184 24.3588 9.11073 24.1611 8.25041 23.8259L7.89177 23.6705C7.21439 23.3792 6.67799 22.8342 6.39742 22.1523C6.13922 21.5686 5.95836 20.9537 5.85946 20.3232C5.6844 19.0479 5.64034 17.758 5.72795 16.4737C5.75917 15.5793 5.89969 14.692 6.14637 13.8317C6.2181 13.6285 6.28983 13.4372 6.37351 13.2459C6.52454 12.8796 6.7472 12.547 7.02845 12.2678C7.30969 11.9887 7.64384 11.7684 8.01132 11.6201C8.55418 11.3765 9.13038 11.2153 9.72085 11.1419C10.9876 10.9924 12.2676 10.9924 13.5344 11.1419C14.0944 11.2033 14.6469 11.3194 15.1842 11.4886C15.6474 11.6243 16.0679 11.8771 16.405 12.2226C16.7422 12.5681 16.9846 12.9947 17.1089 13.4611C17.3153 14.1759 17.416 14.9169 17.4078 15.6608C17.4078 15.7565 17.4078 15.7804 17.2882 15.7804L15.8537 15.7445Z" fill="black"/>
<path d="M71.4792 12.7681V5.75063C71.4792 5.60717 71.4792 5.59521 71.6227 5.59521H72.6867C72.8899 5.59521 73.0812 5.59521 73.2844 5.59521C73.4876 5.59521 73.392 5.59522 73.392 5.70281C73.3861 5.74644 73.3861 5.79068 73.392 5.83431V23.9099C73.392 24.1729 73.392 24.149 73.1529 24.149H71.6107C71.4553 24.149 71.4553 24.149 71.4553 23.9936L71.6107 22.6427C71.6282 22.5965 71.6282 22.5455 71.6107 22.4993C71.6107 22.4993 71.6107 22.4993 71.551 22.4993C71.3588 22.8617 71.0958 23.1819 70.7774 23.4406C70.4591 23.6994 70.092 23.8915 69.698 24.0056C69.2026 24.1675 68.6882 24.264 68.1678 24.2925C67.4424 24.3504 66.713 24.3304 65.992 24.2327C65.3779 24.1495 64.7831 23.9593 64.2346 23.6708C63.628 23.3215 63.1564 22.7784 62.8957 22.1287C62.6652 21.577 62.5045 20.9987 62.4175 20.4072C62.2187 19.0419 62.1626 17.6597 62.2501 16.2828C62.2734 15.4286 62.406 14.5809 62.6446 13.7603C62.7368 13.4323 62.8651 13.1156 63.0272 12.8159C63.4191 12.0863 64.0793 11.5376 64.8682 11.2857C65.4124 11.1004 65.9797 10.9917 66.5539 10.9629C67.2796 10.9089 68.009 10.933 68.7296 11.0346C69.2561 11.093 69.7691 11.2385 70.2479 11.465C70.7787 11.7046 71.2038 12.1297 71.4434 12.6605L71.4792 12.7681ZM64.1629 17.55C64.157 18.3731 64.205 19.1958 64.3064 20.0127C64.3712 20.4733 64.4834 20.926 64.6411 21.3636C64.735 21.6026 64.8752 21.8207 65.0537 22.0054C65.2322 22.19 65.4455 22.3376 65.6812 22.4395C66.0237 22.5878 66.3862 22.6845 66.7571 22.7264C67.4864 22.8341 68.2275 22.8341 68.9568 22.7264C69.3753 22.6803 69.781 22.5545 70.1522 22.3558C70.5157 22.1579 70.8051 21.8475 70.9771 21.4712C71.0786 21.2153 71.1586 20.9513 71.2162 20.6822C71.3495 20.0645 71.4294 19.4366 71.4553 18.8053C71.541 17.6616 71.513 16.5123 71.3716 15.3742C71.3064 14.8956 71.1736 14.4287 70.9771 13.9875C70.7912 13.5989 70.4852 13.2803 70.1044 13.0789C69.7896 12.9123 69.4508 12.7953 69.1002 12.7322C68.4305 12.6067 67.7471 12.5705 67.0679 12.6246C66.6599 12.654 66.2578 12.7384 65.8724 12.8757C65.5744 12.9721 65.3038 13.1386 65.0833 13.3612C64.8628 13.5837 64.6989 13.8559 64.6052 14.1548C64.4591 14.5772 64.3589 15.0141 64.3064 15.4579C64.2187 16.148 64.1708 16.8425 64.1629 17.538V17.55Z" fill="black"/>
<path d="M42.9193 17.5617V17.2509C42.9193 16.5216 42.9193 15.7924 42.9193 15.0631C42.8842 14.6052 42.8 14.1523 42.6682 13.7123C42.5956 13.4769 42.4659 13.2632 42.2907 13.0901C42.1155 12.917 41.9002 12.7898 41.664 12.72C41.3152 12.606 40.954 12.5337 40.5881 12.5048C39.8772 12.4211 39.159 12.4211 38.4482 12.5048C38.0351 12.5484 37.6316 12.6574 37.2527 12.8276C37.0669 12.9052 36.8937 13.0099 36.7387 13.1384C36.5642 13.2853 36.4236 13.4682 36.3266 13.6745C36.2296 13.8809 36.1785 14.1059 36.1768 14.3339C36.1706 14.4494 36.1706 14.5651 36.1768 14.6806C36.1768 14.7523 36.1768 14.7882 36.0811 14.7762H34.3357C34.2401 14.7762 34.1923 14.7762 34.2042 14.6686C34.2146 14.032 34.3318 13.4016 34.5509 12.8037C34.6611 12.4736 34.8473 12.1741 35.0944 11.9291C35.3414 11.6841 35.6426 11.5005 35.9735 11.393C36.4545 11.2319 36.9515 11.1237 37.4559 11.0702C38.4048 10.9689 39.3604 10.9449 40.3131 10.9985C41.1248 11.016 41.9298 11.1488 42.7041 11.393C43.1563 11.5284 43.5674 11.775 43.8996 12.1103C44.2396 12.4837 44.4819 12.9355 44.6049 13.4253C44.7603 14.0149 44.8446 14.6209 44.8559 15.2305C44.8559 15.6489 44.8559 16.0673 44.8559 16.426V23.9097C44.8559 24.1368 44.8559 24.1249 44.6527 24.1249H43.0388C42.8715 24.1249 42.8715 24.1249 42.8954 23.9456C42.8954 23.563 42.979 23.1804 43.0149 22.7501C43.0149 22.7501 43.0149 22.7501 43.0149 22.6903C43.0149 22.6305 43.0149 22.6903 43.0149 22.6903C42.5809 23.2598 41.9786 23.6781 41.2934 23.8858C40.7037 24.0693 40.0932 24.1777 39.4763 24.2086C38.8162 24.2684 38.1519 24.2684 37.4918 24.2086C36.8985 24.1946 36.3105 24.0939 35.7464 23.9097C35.2419 23.7128 34.7966 23.3895 34.4533 22.9708C34.1099 22.552 33.88 22.052 33.7858 21.5187C33.6022 20.5314 33.6597 19.5143 33.9532 18.5539C34.0696 18.1309 34.2904 17.7439 34.5954 17.4285C34.9003 17.113 35.2797 16.8793 35.6986 16.7488C36.1958 16.5875 36.7088 16.4793 37.2288 16.426C37.9249 16.3174 38.6283 16.2615 39.3328 16.2586C40.0617 16.2646 40.7861 16.3733 41.4847 16.5814C41.7655 16.6629 42.0317 16.788 42.2737 16.952C42.4858 17.0863 42.6654 17.2659 42.7997 17.478C42.7997 17.478 42.7997 17.5497 42.9193 17.5617ZM39.1655 17.741C38.7224 17.7373 38.2794 17.7573 37.8385 17.8008C37.4309 17.8251 37.0286 17.9055 36.643 18.0399C36.4784 18.0955 36.3278 18.1864 36.2019 18.3061C36.0759 18.4259 35.9776 18.5716 35.9138 18.7333C35.8726 18.8309 35.8367 18.9307 35.8062 19.0321C35.6731 19.649 35.6528 20.2849 35.7464 20.909C35.7788 21.1838 35.8471 21.4531 35.9496 21.71C36.0195 21.8842 36.1246 22.042 36.2583 22.1737C36.392 22.3053 36.5515 22.4079 36.7267 22.4751L37.181 22.6066C37.707 22.7224 38.2443 22.7785 38.7829 22.774C39.4685 22.7966 40.1544 22.7404 40.8272 22.6066C41.2861 22.5247 41.7247 22.3542 42.1183 22.1045C42.3333 21.9745 42.5188 21.801 42.6629 21.5951C42.807 21.3892 42.9065 21.1556 42.9551 20.909C43.1035 20.246 43.0451 19.5534 42.7878 18.9245C42.7151 18.7354 42.6028 18.5639 42.4585 18.4217C42.3142 18.2794 42.1411 18.1696 41.9509 18.0997C41.7314 18.0085 41.5031 17.9404 41.2695 17.8964C40.5598 17.7679 39.8384 17.7158 39.1177 17.741H39.1655Z" fill="black"/>
<path d="M86.9248 24.3636C86.0846 24.3702 85.2451 24.3103 84.4143 24.1843C84.0095 24.123 83.6098 24.0311 83.2189 23.9093C82.7726 23.769 82.3737 23.5084 82.0658 23.1563C81.7579 22.8041 81.5529 22.3739 81.4735 21.9129C81.3918 21.5926 81.3516 21.2631 81.3539 20.9326V20.1436C81.3539 20.0719 81.3539 20.024 81.4615 20.024C82.0473 20.024 82.657 20.024 83.2428 20.024C83.3265 20.024 83.3504 20.024 83.3504 20.1316C83.3504 20.4425 83.3504 20.7533 83.3504 21.0522C83.3727 21.2761 83.4208 21.4968 83.4938 21.7097C83.558 21.8918 83.6621 22.0573 83.7987 22.1938C83.9352 22.3304 84.1007 22.4345 84.2828 22.4987C84.6156 22.6114 84.9608 22.6837 85.3109 22.7139C86.2336 22.7976 87.1618 22.7976 88.0845 22.7139C88.4428 22.6784 88.7983 22.6185 89.1484 22.5345C89.4333 22.4695 89.6924 22.321 89.8925 22.1081C90.0927 21.8952 90.2249 21.6274 90.2722 21.3391C90.41 20.7776 90.41 20.191 90.2722 19.6295C90.1956 19.2881 90.0044 18.9832 89.7303 18.7656C89.4562 18.5481 89.1158 18.431 88.7659 18.4341H87.3074C86.3591 18.4178 85.4128 18.3419 84.4741 18.2069C84.0694 18.1501 83.6698 18.0622 83.2786 17.9439C82.8533 17.8306 82.4676 17.6021 82.1638 17.2836C81.8601 16.9651 81.6501 16.5689 81.5571 16.1387C81.388 15.4958 81.3314 14.8284 81.3898 14.1662C81.4079 13.7608 81.4762 13.3593 81.593 12.9707C81.6888 12.6038 81.8779 12.2679 82.1418 11.9956C82.4057 11.7233 82.7356 11.5238 83.0993 11.4166C83.5236 11.28 83.9599 11.1839 84.4024 11.1297C85.4725 10.9924 86.5533 10.9564 87.6302 11.0221C88.4935 11.0445 89.3466 11.2143 90.1526 11.5242C90.487 11.6621 90.7976 11.8517 91.0731 12.0861C91.5601 12.5096 91.8642 13.105 91.9219 13.7478C91.9219 13.9988 91.9219 14.2379 91.9219 14.489C91.9219 14.74 91.9219 14.5966 91.8143 14.5966H90.32C90.1048 14.5966 90.1287 14.5966 90.1287 14.4053C90.1249 14.1106 90.0847 13.8175 90.0092 13.5326C89.9825 13.4509 89.9505 13.3711 89.9135 13.2935C89.8631 13.178 89.7876 13.0751 89.6925 12.9924C89.5974 12.9097 89.485 12.8492 89.3636 12.8153C89.0172 12.714 88.6601 12.6538 88.2996 12.636C87.5033 12.59 86.705 12.59 85.9087 12.636C85.4253 12.6419 84.9441 12.702 84.4741 12.8153C84.28 12.854 84.1011 12.9479 83.959 13.0857C83.8169 13.2235 83.7177 13.3995 83.6731 13.5924C83.5056 14.1987 83.5056 14.8391 83.6731 15.4454C83.7657 15.7672 83.9534 16.0535 84.2115 16.2668C84.4696 16.4802 84.7862 16.6105 85.1197 16.6408C85.3983 16.6586 85.6778 16.6586 85.9565 16.6408L89.0767 16.8082C89.5199 16.8287 89.9582 16.9091 90.3798 17.0473C90.8778 17.1978 91.3256 17.4808 91.6752 17.8662C92.0247 18.2515 92.2629 18.7247 92.3643 19.235C92.498 19.8025 92.5423 20.3873 92.4958 20.9685C92.4683 21.4245 92.3798 21.8748 92.2328 22.3074C92.1148 22.6584 91.9191 22.9783 91.6604 23.2432C91.4017 23.5081 91.0865 23.7113 90.7384 23.8376C90.2489 24.0238 89.7394 24.1522 89.2202 24.2202C88.4589 24.3166 87.6922 24.3645 86.9248 24.3636Z" fill="black"/>
<path d="M3.14579 17.681V23.9095C3.14579 24.1366 3.14579 24.1127 2.9306 24.1127H0.121225C0.0614512 24.1127 0.0136321 24.1127 0.0255868 24.017V11.3928C0.0255868 11.1417 0.0255868 11.1657 0.252728 11.1657H3.05015C3.12188 11.1657 3.14579 11.1657 3.14579 11.2613C3.13978 11.3089 3.13978 11.3571 3.14579 11.4047V17.681Z" fill="black"/>
<path d="M78.6402 17.6573V23.9694C78.6402 24.1726 78.6402 24.1726 78.425 24.1726H76.8709C76.7274 24.1726 76.7274 24.1726 76.7274 24.0292V11.381C76.7274 11.13 76.7274 11.1658 76.9546 11.1658H78.4609C78.6402 11.1658 78.6402 11.1658 78.6402 11.3452V17.6573Z" fill="black"/>
<path d="M75.9504 7.36415C75.9505 7.02875 76.0507 6.70102 76.2381 6.42288C76.4255 6.14474 76.6917 5.92884 77.0025 5.80278C77.3133 5.67673 77.6546 5.64626 77.9828 5.71527C78.3111 5.78428 78.6112 5.94963 78.8449 6.19018C79.0787 6.43073 79.2353 6.73553 79.2949 7.06559C79.3544 7.39566 79.3141 7.73598 79.1792 8.04303C79.0442 8.35008 78.8208 8.60989 78.5373 8.78923C78.2539 8.96857 77.9234 9.05928 77.5882 9.04977C77.1495 9.03732 76.7329 8.85425 76.4271 8.53947C76.1212 8.22469 75.9502 7.80304 75.9504 7.36415Z" fill="black"/>
<path d="M1.5677 5.69047C1.78895 5.68886 2.0083 5.73144 2.21287 5.81573C2.41744 5.90002 2.60312 6.02432 2.75902 6.18132C2.91491 6.33833 3.03788 6.52489 3.12071 6.73006C3.20354 6.93522 3.24456 7.15487 3.24137 7.3761C3.23981 7.59746 3.19466 7.81634 3.1085 8.02026C3.02234 8.22417 2.89686 8.40911 2.73923 8.56453C2.58159 8.71994 2.39488 8.84279 2.18977 8.92604C1.98466 9.0093 1.76516 9.05134 1.5438 9.04977C1.12279 9.01422 0.730487 8.82186 0.444576 8.51079C0.158666 8.19972 0 7.79262 0 7.37012C0 6.94762 0.158666 6.54052 0.444576 6.22945C0.730487 5.91838 1.12279 5.72602 1.5438 5.69047H1.5677Z" fill="black"/>
<path d="M96.2496 27.1732C96.2495 27.4792 96.1584 27.7783 95.9879 28.0324C95.8174 28.2865 95.5751 28.4841 95.2919 28.6001C95.0087 28.7161 94.6974 28.7452 94.3976 28.6838C94.0978 28.6223 93.8231 28.473 93.6084 28.255C93.3937 28.0369 93.2488 27.7599 93.192 27.4591C93.1352 27.1584 93.1692 26.8476 93.2896 26.5663C93.41 26.285 93.6114 26.0458 93.8681 25.8792C94.1248 25.7127 94.4253 25.6263 94.7313 25.631C95.1361 25.6373 95.5223 25.8026 95.8063 26.0911C96.0904 26.3796 96.2496 26.7683 96.2496 27.1732Z" fill="black"/>
<path d="M111.731 18.0278C111.729 18.3322 111.636 18.6292 111.465 18.8813C111.294 19.1333 111.053 19.3291 110.771 19.444C110.489 19.5589 110.179 19.5877 109.881 19.5269C109.582 19.466 109.309 19.3182 109.094 19.1021C108.88 18.8859 108.734 18.6111 108.676 18.3123C108.617 18.0135 108.648 17.704 108.765 17.4229C108.882 17.1418 109.08 16.9017 109.333 16.7327C109.587 16.5638 109.884 16.4736 110.189 16.4736C110.392 16.4736 110.594 16.5139 110.782 16.5922C110.97 16.6704 111.14 16.7851 111.284 16.9295C111.427 17.074 111.54 17.2454 111.617 17.4339C111.694 17.6224 111.733 17.8242 111.731 18.0278Z" fill="black"/>
<path d="M94.7194 7.1731C95.0222 7.1825 95.3155 7.28087 95.5627 7.45593C95.81 7.631 96.0002 7.875 96.1096 8.15749C96.219 8.43998 96.2428 8.74845 96.178 9.04438C96.1132 9.34031 95.9627 9.61061 95.7453 9.82153C95.5278 10.0324 95.253 10.1746 94.9553 10.2304C94.6575 10.2861 94.3499 10.2529 94.0709 10.1349C93.7919 10.0169 93.5538 9.81935 93.3863 9.56688C93.2189 9.31441 93.1295 9.01822 93.1294 8.71527C93.1293 8.50866 93.1707 8.30414 93.2512 8.11385C93.3317 7.92356 93.4495 7.75138 93.5979 7.60753C93.7462 7.46369 93.9219 7.35111 94.1145 7.27648C94.3072 7.20185 94.5129 7.1667 94.7194 7.1731Z" fill="black"/>
<path d="M115.401 18.0041C115.42 18.2172 115.394 18.4319 115.326 18.6346C115.257 18.8372 115.147 19.0233 115.002 19.1811C114.858 19.3389 114.682 19.465 114.486 19.5512C114.291 19.6374 114.079 19.6819 113.865 19.6819C113.651 19.6819 113.439 19.6374 113.244 19.5512C113.048 19.465 112.872 19.3389 112.728 19.1811C112.583 19.0233 112.473 18.8372 112.404 18.6346C112.336 18.4319 112.31 18.2172 112.329 18.0041C112.332 17.596 112.495 17.2056 112.784 16.9171C113.072 16.6285 113.463 16.465 113.871 16.4619C114.073 16.4619 114.273 16.5019 114.459 16.5795C114.646 16.6572 114.815 16.771 114.957 16.9143C115.099 17.0577 115.212 17.2278 115.288 17.4148C115.364 17.6019 115.403 17.8021 115.401 18.0041Z" fill="black"/>
<path d="M105.778 25.296C105.744 25.68 105.567 26.0374 105.283 26.2978C104.998 26.5581 104.627 26.7025 104.241 26.7025C103.856 26.7025 103.484 26.5581 103.2 26.2978C102.916 26.0374 102.739 25.68 102.705 25.296C102.686 25.0829 102.712 24.8681 102.781 24.6655C102.849 24.4629 102.959 24.2767 103.104 24.1189C103.248 23.9611 103.424 23.8351 103.62 23.7489C103.816 23.6627 104.027 23.6182 104.241 23.6182C104.455 23.6182 104.667 23.6627 104.863 23.7489C105.059 23.8351 105.234 23.9611 105.379 24.1189C105.523 24.2767 105.633 24.4629 105.702 24.6655C105.771 24.8681 105.796 25.0829 105.778 25.296Z" fill="black"/>
<path d="M105.778 10.5922C105.778 10.8972 105.687 11.1953 105.518 11.4489C105.348 11.7026 105.107 11.9002 104.826 12.0169C104.544 12.1337 104.234 12.1642 103.935 12.1047C103.635 12.0452 103.361 11.8983 103.145 11.6826C102.929 11.467 102.782 11.1922 102.723 10.893C102.663 10.5939 102.694 10.2838 102.811 10.002C102.927 9.72021 103.125 9.47935 103.379 9.3099C103.632 9.14044 103.93 9.05 104.235 9.05C104.439 9.04677 104.641 9.08445 104.829 9.16081C105.018 9.23717 105.189 9.35064 105.333 9.49449C105.477 9.63834 105.59 9.80964 105.667 9.9982C105.743 10.1868 105.781 10.3888 105.778 10.5922Z" fill="black"/>
<path d="M105.849 8.71521C105.847 8.40919 105.936 8.10939 106.104 7.85396C106.273 7.59853 106.513 7.39902 106.796 7.28081C107.078 7.16261 107.389 7.13106 107.689 7.19019C107.99 7.24931 108.265 7.39643 108.482 7.61282C108.698 7.82922 108.845 8.1051 108.905 8.40536C108.964 8.70562 108.932 9.01668 108.814 9.29896C108.696 9.58124 108.496 9.82196 108.241 9.99051C107.985 10.159 107.686 10.2478 107.38 10.2454C106.975 10.2423 106.587 10.0801 106.301 9.79378C106.015 9.50748 105.852 9.12008 105.849 8.71521Z" fill="black"/>
<path d="M102.514 23.3835C102.514 23.689 102.423 23.9877 102.253 24.2415C102.083 24.4954 101.842 24.693 101.559 24.8094C101.277 24.9258 100.966 24.9556 100.666 24.8951C100.367 24.8346 100.092 24.6866 99.877 24.4697C99.6618 24.2528 99.5159 23.9769 99.4578 23.677C99.3996 23.3771 99.4319 23.0666 99.5504 22.785C99.669 22.5035 99.8685 22.2634 100.124 22.0954C100.379 21.9274 100.678 21.839 100.984 21.8414C101.391 21.8445 101.78 22.0084 102.066 22.2973C102.353 22.5861 102.514 22.9766 102.514 23.3835Z" fill="black"/>
<path d="M102.514 12.4929C102.514 12.7984 102.423 13.097 102.253 13.3509C102.083 13.6048 101.842 13.8024 101.559 13.9188C101.277 14.0351 100.966 14.065 100.666 14.0045C100.367 13.944 100.092 13.796 99.877 13.5791C99.6618 13.3622 99.5159 13.0863 99.4578 12.7864C99.3996 12.4864 99.4319 12.176 99.5504 11.8944C99.669 11.6128 99.8685 11.3728 100.124 11.2048C100.379 11.0368 100.678 10.9484 100.984 10.9507C101.39 10.957 101.777 11.1218 102.063 11.41C102.349 11.6982 102.511 12.0869 102.514 12.4929Z" fill="black"/>
<path d="M105.849 27.1491C105.849 26.8435 105.94 26.5449 106.11 26.291C106.28 26.0372 106.522 25.8395 106.804 25.7232C107.087 25.6068 107.397 25.577 107.697 25.6375C107.996 25.6979 108.271 25.846 108.486 26.0629C108.701 26.2797 108.847 26.5557 108.905 26.8556C108.964 27.1555 108.931 27.466 108.813 27.7475C108.694 28.0291 108.495 28.2691 108.24 28.4372C107.984 28.6052 107.685 28.6936 107.379 28.6912C106.974 28.685 106.586 28.5201 106.3 28.2319C106.014 27.9437 105.852 27.555 105.849 27.1491Z" fill="black"/>
<path d="M109.938 14.7402C109.938 15.0428 109.848 15.3387 109.68 15.5903C109.512 15.842 109.273 16.0381 108.993 16.1539C108.714 16.2697 108.406 16.3 108.109 16.241C107.812 16.1819 107.54 16.0362 107.326 15.8222C107.112 15.6082 106.966 15.3355 106.907 15.0387C106.848 14.7419 106.878 14.4342 106.994 14.1546C107.11 13.875 107.306 13.636 107.557 13.4678C107.809 13.2997 108.105 13.21 108.408 13.21C108.813 13.21 109.203 13.3712 109.49 13.6581C109.777 13.9451 109.938 14.3343 109.938 14.7402Z" fill="black"/>
<path d="M108.037 18.0037C108.056 18.2168 108.03 18.4315 107.961 18.6342C107.893 18.8368 107.783 19.0229 107.638 19.1807C107.494 19.3386 107.318 19.4646 107.122 19.5508C106.926 19.637 106.715 19.6815 106.501 19.6815C106.287 19.6815 106.075 19.637 105.879 19.5508C105.684 19.4646 105.508 19.3386 105.363 19.1807C105.219 19.0229 105.109 18.8368 105.04 18.6342C104.972 18.4315 104.946 18.2168 104.965 18.0037C104.999 17.6197 105.175 17.2623 105.459 17.0019C105.744 16.7416 106.115 16.5972 106.501 16.5972C106.886 16.5972 107.258 16.7416 107.542 17.0019C107.827 17.2623 108.003 17.6197 108.037 18.0037Z" fill="black"/>
<path d="M108.742 24.2566C108.745 23.9511 108.838 23.6532 109.01 23.4007C109.182 23.1482 109.425 22.9524 109.708 22.8383C109.992 22.7241 110.303 22.6967 110.602 22.7595C110.9 22.8223 111.174 22.9725 111.388 23.1911C111.601 23.4096 111.745 23.6866 111.801 23.987C111.856 24.2874 111.822 24.5975 111.701 24.8782C111.58 25.1588 111.379 25.3973 111.123 25.5633C110.866 25.7293 110.566 25.8154 110.261 25.8107C110.059 25.8092 109.859 25.7676 109.673 25.6885C109.487 25.6094 109.319 25.4943 109.178 25.3499C109.037 25.2054 108.925 25.0344 108.851 24.8468C108.776 24.6591 108.739 24.4585 108.742 24.2566Z" fill="black"/>
<path d="M102.514 5.12899C102.533 5.34211 102.507 5.55682 102.438 5.75947C102.37 5.96211 102.26 6.14825 102.115 6.30605C101.971 6.46385 101.795 6.58986 101.599 6.67607C101.403 6.76228 101.192 6.8068 100.978 6.8068C100.764 6.8068 100.552 6.76228 100.356 6.67607C100.161 6.58986 99.9848 6.46385 99.8403 6.30605C99.6958 6.14825 99.5857 5.96211 99.5171 5.75947C99.4484 5.55682 99.4227 5.34211 99.4415 5.12899C99.4227 4.91586 99.4484 4.70115 99.5171 4.49851C99.5857 4.29587 99.6958 4.10973 99.8403 3.95192C99.9848 3.79412 100.161 3.66811 100.356 3.5819C100.552 3.49569 100.764 3.45117 100.978 3.45117C101.192 3.45117 101.403 3.49569 101.599 3.5819C101.795 3.66811 101.971 3.79412 102.115 3.95192C102.26 4.10973 102.37 4.29587 102.438 4.49851C102.507 4.70115 102.533 4.91586 102.514 5.12899Z" fill="black"/>
<path d="M110.284 13.1502C109.978 13.1526 109.679 13.0638 109.423 12.8953C109.168 12.7267 108.968 12.486 108.85 12.2037C108.732 11.9215 108.7 11.6104 108.759 11.3101C108.819 11.0099 108.966 10.734 109.182 10.5176C109.398 10.3012 109.674 10.1541 109.975 10.095C110.275 10.0358 110.586 10.0674 110.868 10.1856C111.151 10.3038 111.391 10.5033 111.56 10.7587C111.728 11.0142 111.817 11.314 111.815 11.62C111.812 12.0249 111.649 12.4123 111.363 12.6986C111.077 12.9849 110.689 13.1471 110.284 13.1502Z" fill="black"/>
<path d="M100.984 28.6078C100.681 28.6078 100.385 28.518 100.134 28.3499C99.8819 28.1818 99.6858 27.9428 99.5699 27.6632C99.4541 27.3836 99.4238 27.0759 99.4829 26.779C99.5419 26.4822 99.6876 26.2096 99.9016 25.9956C100.116 25.7815 100.388 25.6358 100.685 25.5768C100.982 25.5177 101.29 25.548 101.569 25.6638C101.849 25.7797 102.088 25.9758 102.256 26.2274C102.424 26.4791 102.514 26.7749 102.514 27.0776C102.514 27.4834 102.353 27.8726 102.066 28.1596C101.779 28.4466 101.39 28.6078 100.984 28.6078Z" fill="black"/>
<path d="M100.996 7.26874C101.298 7.27347 101.592 7.36752 101.84 7.53904C102.089 7.71056 102.282 7.95187 102.393 8.23255C102.505 8.51324 102.531 8.82073 102.469 9.11628C102.406 9.41184 102.257 9.68222 102.041 9.89335C101.825 10.1045 101.551 10.2469 101.254 10.3027C100.957 10.3585 100.65 10.3251 100.372 10.2068C100.094 10.0884 99.8577 9.89048 99.6921 9.63783C99.5264 9.38517 99.4392 9.08912 99.4415 8.787C99.4431 8.58503 99.4846 8.38537 99.5637 8.19952C99.6428 8.01368 99.7579 7.84533 99.9024 7.70419C100.047 7.56305 100.218 7.4519 100.405 7.37717C100.593 7.30243 100.794 7.26558 100.996 7.26874Z" fill="black"/>
<path d="M109.938 21.1365C109.935 21.4391 109.843 21.7342 109.673 21.9845C109.503 22.2348 109.263 22.4291 108.982 22.5427C108.702 22.6563 108.394 22.6842 108.097 22.6229C107.801 22.5615 107.53 22.4137 107.317 22.198C107.105 21.9823 106.961 21.7085 106.905 21.4113C106.848 21.114 106.881 20.8066 106.999 20.5279C107.117 20.2492 107.315 20.0117 107.567 19.8455C107.82 19.6794 108.117 19.5919 108.42 19.5943C108.621 19.5943 108.82 19.6343 109.006 19.7121C109.192 19.7899 109.36 19.9039 109.502 20.0474C109.643 20.1909 109.754 20.3611 109.829 20.5481C109.904 20.7351 109.941 20.9351 109.938 21.1365Z" fill="black"/>
<path d="M99.3937 25.3082C99.3911 25.6152 99.2969 25.9144 99.1232 26.1676C98.9496 26.4207 98.7043 26.6163 98.4188 26.7292C98.1333 26.8421 97.8206 26.8672 97.5208 26.8014C97.2209 26.7355 96.9476 26.5817 96.7357 26.3595C96.5238 26.1374 96.383 25.857 96.3314 25.5544C96.2798 25.2518 96.3196 24.9406 96.4459 24.6608C96.5722 24.381 96.7791 24.1452 97.0401 23.9837C97.3012 23.8221 97.6045 23.7422 97.9113 23.7541C98.3119 23.7696 98.6908 23.9406 98.9675 24.2307C99.2442 24.5208 99.3971 24.9073 99.3937 25.3082Z" fill="black"/>
<path d="M99.3937 10.5799C99.4125 10.793 99.3867 11.0077 99.3181 11.2103C99.2494 11.413 99.1394 11.5991 98.9949 11.7569C98.8504 11.9147 98.6747 12.0407 98.4789 12.1269C98.2831 12.2132 98.0714 12.2577 97.8575 12.2577C97.6435 12.2577 97.4319 12.2132 97.2361 12.1269C97.0403 12.0407 96.8645 11.9147 96.7201 11.7569C96.5756 11.5991 96.4655 11.413 96.3969 11.2103C96.3282 11.0077 96.3025 10.793 96.3213 10.5799C96.3552 10.1958 96.5317 9.83842 96.8161 9.57808C97.1004 9.31774 97.472 9.17334 97.8575 9.17334C98.243 9.17334 98.6145 9.31774 98.8989 9.57808C99.1832 9.83842 99.3598 10.1958 99.3937 10.5799Z" fill="black"/>
<path d="M100.972 32.2777C100.667 32.2777 100.369 32.1872 100.115 32.0178C99.8613 31.8483 99.6637 31.6075 99.547 31.3257C99.4302 31.0439 99.3997 30.7338 99.4592 30.4347C99.5187 30.1355 99.6656 29.8607 99.8813 29.6451C100.097 29.4294 100.372 29.2825 100.671 29.223C100.97 29.1635 101.28 29.194 101.562 29.3108C101.844 29.4275 102.085 29.6251 102.254 29.8787C102.423 30.1324 102.514 30.4305 102.514 30.7355C102.515 30.9385 102.477 31.1397 102.4 31.3276C102.323 31.5154 102.209 31.686 102.066 31.8296C101.922 31.9731 101.752 32.0866 101.564 32.1635C101.376 32.2405 101.175 32.2793 100.972 32.2777Z" fill="black"/>
<path d="M102.514 34.3225C102.533 34.5357 102.507 34.7504 102.438 34.953C102.37 35.1557 102.26 35.3418 102.115 35.4996C101.971 35.6574 101.795 35.7834 101.599 35.8696C101.403 35.9558 101.192 36.0003 100.978 36.0003C100.764 36.0003 100.552 35.9558 100.356 35.8696C100.161 35.7834 99.9848 35.6574 99.8403 35.4996C99.6958 35.3418 99.5857 35.1557 99.5171 34.953C99.4484 34.7504 99.4227 34.5357 99.4415 34.3225C99.4754 33.9385 99.652 33.5811 99.9363 33.3208C100.221 33.0604 100.592 32.916 100.978 32.916C101.363 32.916 101.735 33.0604 102.019 33.3208C102.303 33.5811 102.48 33.9385 102.514 34.3225Z" fill="black"/>
</svg>
