<svg width="115" height="48" viewBox="0 0 115 48" fill="none" xmlns="http://www.w3.org/2000/svg">
<path d="M21.7142 34.9823C20.2527 34.9768 18.8225 34.5586 17.5883 33.7758C16.3542 32.9931 15.3662 31.8776 14.7383 30.5579C14.6163 30.3013 14.4449 30.0712 14.234 29.8808C14.0231 29.6904 13.7767 29.5434 13.5089 29.4482C13.2412 29.3531 12.9574 29.3116 12.6736 29.3261C12.3898 29.3406 12.1117 29.4109 11.855 29.5329C11.5984 29.6549 11.3683 29.8263 11.178 30.0372C10.9876 30.2481 10.8406 30.4945 10.7454 30.7622C10.6502 31.03 10.6087 31.3138 10.6232 31.5976C10.6377 31.8814 10.708 32.1595 10.83 32.4161C11.8132 34.4834 13.3647 36.228 15.303 37.4458C17.2414 38.6637 19.4864 39.3044 21.7756 39.293C24.0647 39.2817 26.3033 38.6188 28.2294 37.3818C30.1556 36.1448 31.6897 34.3849 32.6524 32.308C32.7718 32.0498 32.8392 31.7705 32.8507 31.4862C32.8622 31.202 32.8176 30.9182 32.7195 30.6511C32.6214 30.3841 32.4716 30.139 32.2787 29.9298C32.0858 29.7207 31.8536 29.5515 31.5954 29.4321C31.3372 29.3127 31.0579 29.2453 30.7737 29.2337C30.4894 29.2222 30.2056 29.2668 29.9386 29.365C29.6715 29.4631 29.4264 29.6129 29.2172 29.8058C29.0081 29.9986 28.839 30.2308 28.7195 30.4891C28.096 31.8245 27.1052 32.9549 25.8629 33.748C24.6206 34.5411 23.1782 34.9641 21.7043 34.9676M51.6283 24.9683C51.6244 24.1108 51.2807 23.2898 50.6725 22.6853C50.0643 22.0808 49.2412 21.7421 48.3837 21.7434C48.2755 21.7434 48.1772 21.7434 48.0691 21.7729L30.3418 3.60813C30.3622 3.49271 30.3753 3.37614 30.3811 3.25909C30.383 2.61767 30.1951 1.99004 29.8409 1.45526C29.4867 0.920477 28.9822 0.502476 28.3909 0.253911C27.7996 0.00534619 27.148 -0.0626583 26.5181 0.0584577C25.8882 0.179574 25.3082 0.48439 24.8513 0.934518C24.3943 1.38465 24.0808 1.95995 23.9502 2.58794C23.8196 3.21593 23.8778 3.86852 24.1174 4.4635C24.3571 5.05848 24.7674 5.56923 25.2968 5.93141C25.8262 6.29359 26.4509 6.491 27.0923 6.49876L43.0252 22.8102H24.0984C23.6591 22.323 23.0825 21.9805 22.4445 21.8277C21.8066 21.6749 21.1373 21.7191 20.525 21.9544C19.9127 22.1898 19.386 22.6052 19.0146 23.1458C18.6431 23.6865 18.4443 24.3271 18.4443 24.9831C18.4443 25.6391 18.6431 26.2796 19.0146 26.8203C19.386 27.361 19.9127 27.7764 20.525 28.0117C21.1373 28.247 21.8066 28.2912 22.4445 28.1385C23.0825 27.9857 23.6591 27.6431 24.0984 27.156H38.06V27.2592C38.0763 31.5892 36.3719 35.7483 33.3216 38.8216C30.2714 41.8948 26.1252 43.6305 21.7953 43.6468C17.4653 43.6631 13.3062 41.9587 10.2329 38.9085C7.15965 35.8582 5.42395 31.7121 5.40765 27.3821C5.89743 26.944 6.24265 26.3676 6.39764 25.729C6.55262 25.0904 6.51006 24.4199 6.27559 23.806C6.04112 23.1921 5.62579 22.6639 5.08455 22.2913C4.54332 21.9187 3.9017 21.7192 3.24458 21.7192C2.58747 21.7192 1.94586 21.9187 1.40462 22.2913C0.863391 22.6639 0.448057 23.1921 0.213585 23.806C-0.0208865 24.4199 -0.0634463 25.0904 0.0915391 25.729C0.246525 26.3676 0.591748 26.944 1.08153 27.3821C1.09587 32.8581 3.28497 38.1042 7.16725 41.9662C11.0495 45.8282 16.307 47.9898 21.783 47.9754C27.259 47.9611 32.5051 45.772 36.3671 41.8897C40.229 38.0074 42.3906 32.75 42.3763 27.274V27.1511H45.9994C46.4376 27.6378 47.0133 27.98 47.6502 28.1325C48.2872 28.285 48.9554 28.2406 49.5665 28.0051C50.1776 27.7696 50.7029 27.3541 51.0728 26.8136C51.4427 26.2731 51.6398 25.6331 51.6381 24.9782M78.8091 35.2035C78.8091 35.2035 78.8091 35.2379 78.8091 35.2625V35.6362C78.7522 37.7275 77.8742 39.7124 76.365 41.1613C74.8558 42.6102 72.8367 43.4066 70.7448 43.3782C68.6528 43.3498 66.6562 42.4988 65.1869 41.0094C63.7176 39.52 62.8939 37.512 62.8939 35.4198C62.8939 33.3277 63.7176 31.3197 65.1869 29.8303C66.6562 28.3409 68.6528 27.4899 70.7448 27.4615C72.8367 27.4331 74.8558 28.2295 76.365 29.6784C77.8742 31.1273 78.7522 33.1122 78.8091 35.2035ZM83.204 45.832V35.2675C83.204 35.2675 83.204 35.2429 83.204 35.233C83.177 32.3733 82.1752 29.6083 80.3642 27.3949C78.5532 25.1815 76.0413 23.6521 73.2435 23.0593C70.4458 22.4666 67.5295 22.8459 64.9765 24.1348C62.4235 25.4236 60.3865 27.5448 59.202 30.1479C58.0176 32.751 57.7566 35.6802 58.4621 38.4517C59.1677 41.2232 60.7975 43.6711 63.0824 45.391C65.3673 47.1109 68.1706 48 71.0291 47.9112C73.8876 47.8224 76.6303 46.7612 78.8042 44.9029V45.832C78.8107 46.4057 79.0438 46.9536 79.4527 47.3561C79.8616 47.7586 80.4131 47.983 80.9869 47.9803H81.0311C81.6049 47.983 82.1564 47.7586 82.5653 47.3561C82.9742 46.9536 83.2074 46.4057 83.2139 45.832M94.0292 45.832V24.988C94.0279 24.413 93.7992 23.8618 93.393 23.4547C92.9869 23.0476 92.4362 22.8177 91.8612 22.8151C91.2861 22.8177 90.7355 23.0476 90.3293 23.4547C89.9232 23.8618 89.6945 24.413 89.6932 24.988V45.832C89.6945 46.4066 89.9233 46.9573 90.3296 47.3636C90.7359 47.7699 91.2866 47.9987 91.8612 48C92.4315 47.9923 92.9759 47.7606 93.3769 47.355C93.7779 46.9494 94.0033 46.4024 94.0046 45.832M114.396 25.4354C114.481 24.861 114.338 24.2764 113.998 23.8055C113.659 23.3347 113.149 23.0147 112.577 22.9134C109.887 22.4879 107.133 23.0203 104.795 24.4177C104.695 23.9687 104.446 23.5664 104.09 23.2757C103.733 22.985 103.289 22.8228 102.829 22.8151H102.632C102.082 22.8164 101.555 23.0354 101.167 23.4242C100.778 23.8129 100.559 24.3399 100.558 24.8897V45.9254C100.558 46.4756 100.776 47.0033 101.165 47.3924C101.554 47.7814 102.082 48 102.632 48H102.829C103.378 47.9987 103.905 47.7796 104.293 47.3906C104.681 47.0017 104.899 46.4748 104.899 45.9254V30.0663C105.722 29.0125 106.812 28.1977 108.055 27.7059C109.299 27.2142 110.651 27.0634 111.973 27.269C112.254 27.312 112.541 27.2982 112.816 27.2285C113.092 27.1588 113.351 27.0346 113.577 26.8632C113.804 26.6918 113.994 26.4767 114.137 26.2307C114.279 25.9846 114.371 25.7125 114.406 25.4304" fill="#ED174C"/>
</svg>
