<svg width="56" height="56" viewBox="0 0 56 56" fill="none" xmlns="http://www.w3.org/2000/svg">
<g clip-path="url(#clip0_259_81)">
<path d="M24.5642 1.88663C24.5663 2.26284 24.4566 2.63123 24.2489 2.94494C24.0413 3.25865 23.745 3.50365 23.3979 3.64862C23.0507 3.79359 22.6683 3.83198 22.2992 3.75911C21.9301 3.68624 21.591 3.50543 21.3249 3.2394C21.0589 2.97338 20.878 2.63432 20.8051 2.26522C20.7322 1.89613 20.7707 1.51361 20.9157 1.16644C21.0607 0.819271 21.3056 0.522933 21.6193 0.315262C21.933 0.107592 22.3014 -0.00212483 22.6776 3.11754e-05C23.1771 0.00289359 23.6552 0.202755 24.0084 0.555946C24.3616 0.909136 24.5613 1.38715 24.5642 1.88663V1.88663Z" fill="#EC1651"/>
<path d="M28.3483 1.88659C28.3505 2.26235 28.241 2.63037 28.0339 2.94384C27.8267 3.25732 27.5311 3.50223 27.1845 3.64752C26.838 3.79282 26.4562 3.83186 26.0874 3.75988C25.7186 3.6879 25.3794 3.5083 25.1129 3.24337C24.8465 2.97843 24.6647 2.64023 24.5906 2.27185C24.5165 1.90347 24.5534 1.52149 24.6967 1.17413C24.84 0.826767 25.0832 0.529544 25.3955 0.320556C25.7077 0.111568 26.0751 6.20584e-06 26.4508 2.58868e-10C26.9522 -8.2798e-06 27.4332 0.198422 27.7887 0.551921C28.1443 0.90542 28.3454 1.38523 28.3483 1.88659V1.88659Z" fill="#EC1651"/>
<path d="M32.1216 1.88659C32.1216 2.25973 32.0109 2.62454 31.8036 2.93479C31.5963 3.24504 31.3017 3.48689 30.9569 3.62968C30.6122 3.77248 30.2329 3.80978 29.8669 3.73698C29.5009 3.66418 29.1648 3.48458 28.9009 3.22074C28.6371 2.95689 28.4574 2.62078 28.3846 2.25481C28.3118 1.88884 28.3491 1.50954 28.4919 1.16481C28.6347 0.820077 28.8765 0.525464 29.1868 0.31816C29.4971 0.110856 29.8618 0 30.235 0C30.7353 0 31.2152 0.19891 31.569 0.552719C31.9228 0.906529 32.1216 1.38623 32.1216 1.88659V1.88659Z" fill="#EC1651"/>
<path d="M35.9057 1.88663C35.9079 2.26284 35.7982 2.63123 35.5905 2.94494C35.3828 3.25865 35.0866 3.50365 34.7394 3.64862C34.3922 3.79359 34.0098 3.83198 33.6407 3.75911C33.2716 3.68624 32.9325 3.50543 32.6665 3.2394C32.4005 2.97338 32.2195 2.63432 32.1466 2.26522C32.0738 1.89613 32.1123 1.51361 32.2573 1.16644C32.4022 0.819271 32.6471 0.522933 32.9608 0.315262C33.2745 0.107592 33.6429 -0.00212483 34.0191 3.11754e-05C34.5186 0.00289359 34.9968 0.202755 35.35 0.555946C35.7032 0.909136 35.9029 1.38715 35.9057 1.88663V1.88663Z" fill="#EC1651"/>
<path d="M20.78 1.88647C20.78 8.64776 24.1716 14.1115 28.3483 14.1115C32.525 14.1115 35.9057 8.65866 35.9057 1.88647H20.78Z" fill="#EC1651"/>
<path d="M51.0095 51.0913C50.7906 50.8685 50.5291 50.692 50.2406 50.5722C49.9522 50.4523 49.6425 50.3915 49.3301 50.3935H48.1524V32.945C48.031 27.7746 45.8918 22.8565 42.1921 19.2426C38.4924 15.6287 33.5257 13.6057 28.3538 13.6057C23.1819 13.6057 18.2152 15.6287 14.5155 19.2426C10.8158 22.8565 8.67659 27.7746 8.55524 32.945V50.3935H7.36657C7.05488 50.3935 6.74627 50.4549 6.45845 50.5746C6.17062 50.6942 5.90926 50.8694 5.68937 51.0903C5.46948 51.3112 5.2954 51.5735 5.17712 51.8618C5.05884 52.1502 4.99867 52.4591 5.0001 52.7708C4.99719 53.0824 5.05643 53.3913 5.17432 53.6797C5.29222 53.9682 5.46641 54.2302 5.68674 54.4505C5.90707 54.6708 6.16909 54.8451 6.45751 54.963C6.74594 55.0809 7.05499 55.1401 7.36657 55.1372H49.341C49.6527 55.1386 49.9616 55.0784 50.25 54.9601C50.5384 54.8418 50.8005 54.6677 51.0214 54.4479C51.2423 54.228 51.4176 53.9668 51.5372 53.6789C51.6568 53.3911 51.7184 53.0825 51.7184 52.7708C51.719 52.4576 51.6565 52.1474 51.5347 51.8589C51.413 51.5704 51.2343 51.3094 51.0095 51.0913V51.0913Z" fill="#EC1651"/>
<path d="M33.6919 12.6394C33.6919 12.9286 33.577 13.2059 33.3725 13.4104C33.168 13.6149 32.8906 13.7299 32.6014 13.7299H24.0516C23.7624 13.7299 23.4851 13.6149 23.2805 13.4104C23.076 13.2059 22.9611 12.9286 22.9611 12.6394C22.9611 12.3501 23.076 12.0728 23.2805 11.8683C23.4851 11.6638 23.7624 11.5488 24.0516 11.5488H32.645C32.9343 11.5488 33.2117 11.6638 33.4162 11.8683C33.6207 12.0728 33.7356 12.3501 33.7356 12.6394H33.6919Z" fill="#EC1651"/>
<path d="M28.3484 26.282C26.7825 26.282 25.2517 26.7464 23.9498 27.6164C22.6478 28.4864 21.633 29.7227 21.0338 31.1694C20.4345 32.6161 20.2778 34.2079 20.5833 35.7437C20.8887 37.2795 21.6428 38.6903 22.75 39.7975C23.8573 40.9048 25.268 41.659 26.8038 41.9645C28.3396 42.27 29.9315 42.113 31.3782 41.5137C32.8248 40.9145 34.0613 39.8998 34.9313 38.5978C35.8013 37.2959 36.2656 35.7651 36.2656 34.1992C36.267 33.1591 36.0632 32.129 35.6659 31.1678C35.2685 30.2066 34.6854 29.3332 33.9499 28.5978C33.2144 27.8623 32.3411 27.2792 31.3799 26.8818C30.4186 26.4845 29.3885 26.2806 28.3484 26.282V26.282ZM31.042 38.0161C30.799 38.2637 30.5087 38.4598 30.1883 38.5928C29.8679 38.7258 29.5241 38.793 29.1772 38.7903H29.0354V39.2049H27.6504V38.7903H25.5675V37.3944H27.6504V31.0041H27.5087C27.3442 31.0044 27.1814 31.0373 27.0298 31.101C26.8782 31.1646 26.7407 31.2575 26.6253 31.3747C26.5067 31.4889 26.4126 31.6264 26.3488 31.7783C26.2851 31.9302 26.253 32.0934 26.2546 32.2581C26.2549 32.4225 26.2878 32.5851 26.3514 32.7368C26.4151 32.8884 26.5082 33.0261 26.6253 33.1415C26.8615 33.3721 27.1785 33.5013 27.5087 33.5014V34.8971C26.9872 34.8935 26.4783 34.7364 26.0458 34.445C25.6133 34.1536 25.2764 33.7409 25.0773 33.2589C24.8782 32.7769 24.8258 32.2469 24.9265 31.7352C25.0273 31.2235 25.2768 30.7529 25.6438 30.3824C26.1389 29.8883 26.8092 29.61 27.5087 29.6082H27.6504V29.1936H29.0354V29.6082H31.1292V31.0041H29.0354V37.3944H29.1772C29.3413 37.3959 29.5042 37.3649 29.6563 37.3031C29.8084 37.2413 29.9467 37.1498 30.0633 37.0342C30.1799 36.9186 30.2724 36.7811 30.3356 36.6295C30.3987 36.478 30.4313 36.3155 30.4313 36.1513C30.4328 35.9866 30.4007 35.8232 30.337 35.6713C30.2732 35.5194 30.1791 35.3822 30.0605 35.2679C29.9455 35.1503 29.808 35.0569 29.6563 34.9932C29.5046 34.9295 29.3417 34.8968 29.1772 34.8971V33.5014C29.701 33.4998 30.2135 33.6539 30.6493 33.9444C31.0852 34.235 31.4247 34.6488 31.6247 35.133C31.8247 35.6171 31.8761 36.1499 31.7723 36.6633C31.6685 37.1768 31.4143 37.6476 31.042 38.0161V38.0161Z" fill="#B6145A"/>
<path d="M29.0463 29.6191H27.6504V31.015H29.0463V29.6191Z" fill="#B6145A"/>
<path d="M29.0463 37.4055H27.6504V38.8014H29.0463V37.4055Z" fill="#B6145A"/>
</g>
<defs>
<clipPath id="clip0_259_81">
<rect width="56" height="56" fill="white"/>
</clipPath>
</defs>
</svg>
