<svg width="49" height="59" viewBox="0 0 49 59" fill="none" xmlns="http://www.w3.org/2000/svg">
<path d="M43.0481 33.3898C38.4201 31.1985 33.4655 29.7771 28.3797 29.1814L28.8881 25.5754C29.3903 25.2988 29.8284 24.9195 30.174 24.462C30.5195 24.0045 30.7647 23.4793 30.8935 22.9206C31.0253 21.8002 31.1571 20.6892 31.2795 19.5783C31.4432 19.7455 31.6591 19.8519 31.8915 19.8796C32.0189 19.8966 32.1484 19.8874 32.2721 19.8525C32.3958 19.8176 32.511 19.7576 32.6107 19.6764C32.7103 19.5953 32.7923 19.4946 32.8516 19.3806C32.9109 19.2666 32.9462 19.1415 32.9554 19.0133L33.4826 13.8634C33.5088 13.6864 33.4839 13.5057 33.4111 13.3423C33.3382 13.1789 33.2202 13.0396 33.0711 12.9408C32.9219 12.842 32.7476 12.7878 32.5687 12.7845C32.3898 12.7811 32.2137 12.8287 32.0609 12.9219C32.1739 11.9334 32.2869 10.9637 32.3999 9.98461C32.494 8.63828 33.1531 5.06048 30.564 2.75384C26.798 -0.917947 18.6071 -0.917947 14.8694 2.75384C12.2803 5.06048 12.9865 8.63828 13.0335 9.98461C13.1465 10.9261 13.2689 11.9334 13.3725 12.9219C13.2017 12.8229 13.004 12.7802 12.8076 12.7996C12.6802 12.81 12.5563 12.846 12.4433 12.9058C12.3304 12.9656 12.2308 13.0479 12.1506 13.1474C12.0705 13.2469 12.0114 13.3617 11.9771 13.4848C11.9427 13.6079 11.9338 13.7367 11.9508 13.8634L12.4781 19.0133C12.4872 19.1415 12.5225 19.2666 12.5818 19.3806C12.6411 19.4946 12.7231 19.5953 12.8227 19.6764C12.9224 19.7576 13.0376 19.8176 13.1613 19.8525C13.285 19.8874 13.4145 19.8966 13.5419 19.8796C13.7743 19.8519 13.9902 19.7455 14.1539 19.5783C14.2763 20.6892 14.4081 21.8002 14.5399 22.9206C14.6687 23.4793 14.9138 24.0045 15.2594 24.462C15.6049 24.9195 16.0431 25.2988 16.5453 25.5754L17.0537 29.1814C11.9679 29.7771 7.01337 31.1985 2.38536 33.3898C1.63121 33.8424 1.01236 34.4893 0.593386 35.2626C0.17441 36.036 -0.029335 36.9077 0.00340697 37.7867L0.540031 43.2094C0.64614 44.0138 0.989359 44.7685 1.52591 45.3771C2.06245 45.9858 2.76804 46.4209 3.55279 46.6271C16.2463 48.6796 29.1871 48.6796 41.8806 46.6271C42.6654 46.4209 43.371 45.9858 43.9075 45.3771C44.4441 44.7685 44.7873 44.0138 44.8934 43.2094C45.0817 41.4017 45.2511 39.5943 45.43 37.7867C45.4638 36.9075 45.2604 36.0355 44.8414 35.2619C44.4223 34.4884 43.8029 33.8417 43.0481 33.3898V33.3898Z" fill="#B6145A"/>
<path d="M22.1942 0.0237441C19.5021 0.0147149 16.8987 0.985048 14.8694 2.75396C12.2803 5.06059 12.9865 8.6384 13.0335 9.98472C13.1465 10.9262 13.2689 11.9335 13.3725 12.922C13.2017 12.823 13.004 12.7803 12.8076 12.7997C12.6802 12.8101 12.5563 12.8461 12.4433 12.9059C12.3304 12.9657 12.2308 13.048 12.1506 13.1475C12.0705 13.2471 12.0114 13.3618 11.9771 13.4849C11.9427 13.608 11.9338 13.7369 11.9508 13.8635L12.4781 19.0134C12.4872 19.1416 12.5225 19.2667 12.5818 19.3807C12.6411 19.4948 12.7231 19.5954 12.8227 19.6765C12.9224 19.7577 13.0376 19.8177 13.1613 19.8526C13.285 19.8875 13.4145 19.8968 13.5419 19.8797C13.7743 19.852 13.9902 19.7457 14.1539 19.5784C14.2763 20.6893 14.4081 21.8003 14.5399 22.9207C14.6687 23.4794 14.9138 24.0046 15.2594 24.4621C15.6049 24.9196 16.0431 25.2989 16.5453 25.5755L17.0537 29.1815C11.9679 29.7772 7.01337 31.1986 2.38536 33.3899C1.63121 33.8425 1.01236 34.4894 0.593386 35.2627C0.17441 36.0361 -0.029335 36.9078 0.00340697 37.7868L0.540031 43.2095C0.64614 44.0139 0.989359 44.7686 1.52591 45.3773C2.06245 45.9859 2.76804 46.421 3.55279 46.6272C9.71738 47.6215 15.95 48.1345 22.1942 48.1617V0.0237441Z" fill="#EC1651"/>
<path d="M48.8193 48.1713C48.8193 50.2196 48.212 52.2219 47.074 53.925C45.936 55.6281 44.3186 56.9556 42.4262 57.7394C40.5339 58.5233 38.4516 58.7284 36.4426 58.3288C34.4337 57.9292 32.5884 56.9428 31.14 55.4944C29.6916 54.0461 28.7053 52.2006 28.3057 50.1917C27.9061 48.1828 28.1112 46.1005 28.895 44.2081C29.6789 42.3157 31.0063 40.6984 32.7094 39.5605C34.4124 38.4225 36.4147 37.8149 38.463 37.8149C41.2097 37.8149 43.8439 38.9061 45.7861 40.8483C47.7283 42.7905 48.8193 45.4246 48.8193 48.1713Z" fill="#EC1651"/>
<path d="M43.5659 49.4799H39.7999V53.1328H37.032V49.4799H33.3131V46.8626H37.032V43.2095H39.7999V46.8626H43.5659V49.4799Z" fill="white"/>
</svg>
