<svg width="1199" height="219" viewBox="0 0 1199 219" fill="none" xmlns="http://www.w3.org/2000/svg">
<g style="mix-blend-mode:multiply">
<g style="mix-blend-mode:overlay">
<path opacity="0.2" d="M-24.1045 324.218L134.017 122.477L243.761 160.17L359.274 -4.99759L420.818 4.89915L474.183 -93.7214L601.751 9.70969L416.178 188.509L185.053 223.01L-81.8789 393.29L-24.1045 324.218Z" fill="url(#paint0_linear_170_439)"/>
<path opacity="0.3" d="M-21.4287 449.479L-326 401.098L2.5647 261.387L98.725 100.701L286.965 47.1535L266.652 18.3703L377.036 6.66852L472.796 -103.058L670.175 -14.8233L777.83 8.87372L702.062 64.7151L332.116 457.135L-21.4287 449.479Z" fill="url(#paint1_linear_170_439)"/>
<path opacity="0.2" d="M785.111 325.899L1002.14 250.557L850.637 174.557L810.891 69.1523L863.26 -89.7734L972.142 -4.23273C972.142 -4.23273 1062.06 34.8383 1066.68 38.9197C1068.73 40.6981 1126.57 56.7836 1190.24 74.0785L1237.42 390.267L587.874 460.309L785.111 325.899Z" fill="url(#paint2_linear_170_439)"/>
<path opacity="0.2" d="M942.352 437.946L775.359 502.315L732.421 429.196L586.914 485.927L-326 401.098L219.439 265.593L433.21 168.475L557.32 60.8739L691.759 129.875L837.773 34.9094L1020.67 160.304L1202.43 155.849L1599.82 380.735L1107.07 460.816L942.352 437.946Z" fill="url(#paint3_linear_170_439)"/>
<path opacity="0.3" d="M792.107 426.644L822.332 253.527L641.319 167.622L469.107 113.799L584.016 25.0751L612.161 52.6847C612.161 52.6847 676.842 -23.7862 680.061 -29.0325C683.279 -34.2787 799.467 -7.0872 799.467 -7.0872L917.772 -153.582L1180.91 11.9506L1478.71 391.637L1060.25 463.119L792.107 426.644Z" fill="url(#paint4_linear_170_439)"/>
<path opacity="0.5" d="M833.586 505L-2.77808 440.329L406.745 205.822L468.094 26.48L808.588 107.663L1040.15 263.966L1423.36 398.27L1206.01 444.828L833.586 505Z" fill="url(#paint5_linear_170_439)"/>
<path opacity="0.2" d="M865.465 488.861L1042.67 254.043L808.588 107.663L468.094 26.4798L474.183 -93.7215L670.175 -14.8233L677.047 -49.2529L827.826 -4.95319L918.474 -148.914L1180.75 10.5099L1677 374.537L1180.17 414.471L865.465 488.861Z" fill="url(#paint6_linear_170_439)"/>
<path opacity="0.2" d="M121.047 62.3766L271.559 292.802L468.094 26.4708L783.679 101.83L959.883 209.138L1162.22 -18.3267L911.771 -167L810.1 10.4122L449.078 -101.111L386.984 19.4997L358.634 17.3655L289.019 7.08656L277.275 35.9142C277.275 35.9142 272.457 57.3082 260.705 59.0332C248.953 60.7583 121.047 62.3766 121.047 62.3766Z" fill="url(#paint7_linear_170_439)"/>
<path opacity="0.2" d="M808.588 107.663L612.161 52.6844L682.167 -20.1228L819.994 -8.88339L920.572 -140.013L1677 374.537L1229.22 335.342L1040.15 263.966L808.588 107.663Z" fill="url(#paint8_linear_170_439)"/>
<path opacity="0.2" d="M808.588 107.663L612.161 52.6844L682.167 -20.1228L819.994 -8.88341L920.572 -140.013L1519.5 400.849L1229.22 335.342L1040.15 263.966L808.588 107.663Z" fill="url(#paint9_linear_170_439)"/>
<path opacity="0.2" d="M874.497 302.681L552.395 183.752L584.754 51.6796L377.036 6.66856L485.713 -102.133L1202.01 153.048L1245.81 446.58L905.744 431.624L874.497 302.681Z" fill="url(#paint10_linear_170_439)"/>
<path opacity="0.2" d="M874.497 302.681L552.395 183.752L584.754 51.6796L377.036 6.66856L485.713 -102.133L1677 374.537L1245.81 446.58L905.744 431.624L874.497 302.681Z" fill="url(#paint11_linear_170_439)"/>
</g>
</g>
<defs>
<linearGradient id="paint0_linear_170_439" x1="-107.518" y1="210.683" x2="616.15" y2="102.334" gradientUnits="userSpaceOnUse">
<stop stop-color="white" stop-opacity="0.5"/>
<stop offset="0.97" stop-color="white"/>
</linearGradient>
<linearGradient id="paint1_linear_170_439" x1="-338.672" y1="303.036" x2="796.747" y2="133.039" gradientUnits="userSpaceOnUse">
<stop stop-color="white" stop-opacity="0.1"/>
<stop offset="1" stop-color="white"/>
</linearGradient>
<linearGradient id="paint2_linear_170_439" x1="555.886" y1="240.707" x2="1200.59" y2="144.182" gradientUnits="userSpaceOnUse">
<stop stop-color="white" stop-opacity="0.2"/>
<stop offset="1" stop-color="white"/>
</linearGradient>
<linearGradient id="paint3_linear_170_439" x1="-316.967" y1="448.004" x2="1567.19" y2="165.905" gradientUnits="userSpaceOnUse">
<stop stop-color="white" stop-opacity="0.15"/>
<stop offset="0.97" stop-color="white"/>
</linearGradient>
<linearGradient id="paint4_linear_170_439" x1="489.687" y1="245.891" x2="1435.5" y2="104.284" gradientUnits="userSpaceOnUse">
<stop stop-color="white" stop-opacity="0.75"/>
<stop offset="1" stop-color="white"/>
</linearGradient>
<linearGradient id="paint5_linear_170_439" x1="-10.1295" y1="380.408" x2="1389.09" y2="170.916" gradientUnits="userSpaceOnUse">
<stop stop-color="white" stop-opacity="0.33"/>
<stop offset="0.97" stop-color="white"/>
</linearGradient>
<linearGradient id="paint6_linear_170_439" x1="501.186" y1="242.73" x2="1631.38" y2="73.5161" gradientUnits="userSpaceOnUse">
<stop stop-color="white" stop-opacity="0.15"/>
<stop offset="1" stop-color="white"/>
</linearGradient>
<linearGradient id="paint7_linear_170_439" x1="136.074" y1="154.713" x2="1164.89" y2="0.677429" gradientUnits="userSpaceOnUse">
<stop stop-color="white" stop-opacity="0.22"/>
<stop offset="0.97" stop-color="white"/>
</linearGradient>
<linearGradient id="paint8_linear_170_439" x1="639.64" y1="232.425" x2="1632.91" y2="83.7117" gradientUnits="userSpaceOnUse">
<stop stop-color="white" stop-opacity="0.25"/>
<stop offset="0.97" stop-color="white"/>
</linearGradient>
<linearGradient id="paint9_linear_170_439" x1="639.847" y1="233.805" x2="1475.43" y2="108.701" gradientUnits="userSpaceOnUse">
<stop stop-color="white" stop-opacity="0.15"/>
<stop offset="0.97" stop-color="white"/>
</linearGradient>
<linearGradient id="paint10_linear_170_439" x1="415.192" y1="255.942" x2="1199.72" y2="138.481" gradientUnits="userSpaceOnUse">
<stop stop-color="white" stop-opacity="0.25"/>
<stop offset="0.97" stop-color="white"/>
</linearGradient>
<linearGradient id="paint11_linear_170_439" x1="415.192" y1="255.942" x2="1631.43" y2="73.8453" gradientUnits="userSpaceOnUse">
<stop stop-color="white" stop-opacity="0.25"/>
<stop offset="0.97" stop-color="white"/>
</linearGradient>
</defs>
</svg>
