<svg width="49" height="44" viewBox="0 0 49 44" fill="none" xmlns="http://www.w3.org/2000/svg">
<g clip-path="url(#clip0_170_412)">
<path d="M39.1076 14.6694H9.77689V29.3387H39.1076V14.6694Z" fill="#84ECEF"/>
<path d="M9.7769 0H0V9.7769H9.7769V0Z" fill="#BFF0F9"/>
<path d="M29.3307 0H19.5538V9.7769H29.3307V0Z" fill="#84ECEF"/>
<path d="M48.8845 0H39.1076V9.7769H48.8845V0Z" fill="#BFF0F9"/>
<path d="M9.7769 34.2231H0V44H9.7769V34.2231Z" fill="#BFF0F9"/>
<path d="M29.3307 34.2231H19.5538V44H29.3307V34.2231Z" fill="#84ECEF"/>
<path d="M48.8845 34.2231H39.1076V44H48.8845V34.2231Z" fill="#BFF0F9"/>
<path d="M22.7863 7.76742L24.4462 4.89233L26.1061 7.76742H22.7863Z" fill="black"/>
<path d="M25.018 7.60083H23.8664V14.6694H25.018V7.60083Z" fill="black"/>
<path d="M26.1061 36.2324L24.4462 39.1075L22.7863 36.2324H26.1061Z" fill="black"/>
<path d="M25.018 29.3306H23.8664V36.2324H25.018V29.3306Z" fill="black"/>
<path d="M3.23248 12.6519L4.89241 9.77686L6.5444 12.6519H3.23248Z" fill="#84ECEF"/>
<path d="M9.77692 20.1017H8.91119C7.69158 20.1017 6.52194 19.6173 5.65955 18.7549C4.79715 17.8925 4.31265 16.7227 4.31265 15.5031V12.6279H5.44044V15.5031C5.44043 16.418 5.80336 17.2955 6.44955 17.9432C7.09575 18.5909 7.97248 18.956 8.88739 18.9581H9.75307L9.77692 20.1017Z" fill="#84ECEF"/>
<path d="M3.23248 31.3479L4.89241 34.223L6.5444 31.3479H3.23248Z" fill="#84ECEF"/>
<path d="M5.44042 31.3482H4.28879V28.4649C4.29089 27.2459 4.77607 26.0778 5.63801 25.2159C6.49995 24.3539 7.66841 23.8688 8.88737 23.8667H9.75305V25.0181H8.88737C7.97319 25.0181 7.09645 25.3811 6.45002 26.0275C5.8036 26.674 5.44042 27.5507 5.44042 28.4649V31.3482Z" fill="#84ECEF"/>
<path d="M45.6599 12.6519L44 9.77686L42.3401 12.6519H45.6599Z" fill="#84ECEF"/>
<path d="M39.9733 20.1017H39.1076V18.9581H39.9733C40.8882 18.956 41.7649 18.5909 42.4111 17.9432C43.0573 17.2955 43.4202 16.418 43.4202 15.5031V12.6279H44.5719V15.5031C44.574 16.1076 44.4564 16.7064 44.2261 17.2653C43.9957 17.8242 43.6571 18.3321 43.2296 18.7595C42.8022 19.1869 42.2944 19.5254 41.7356 19.7558C41.1767 19.9861 40.5778 20.1038 39.9733 20.1017Z" fill="#84ECEF"/>
<path d="M45.6599 31.3479L44 34.223L42.3401 31.3479H45.6599Z" fill="#84ECEF"/>
<path d="M44.5719 31.3482H43.4202V28.4649C43.4202 27.5507 43.0571 26.674 42.4106 26.0275C41.7642 25.3811 40.8875 25.0181 39.9733 25.0181H39.1076V23.8667H39.9733C41.1929 23.8667 42.3626 24.3511 43.225 25.2135C44.0874 26.0759 44.5719 27.2453 44.5719 28.4649V31.3482Z" fill="#84ECEF"/>
<path d="M20.4513 17.9414V25.979H18.5769L15.0267 21.6903V25.979H12.8029V17.9414H14.6693L18.2195 22.2224V17.9414H20.4513Z" fill="black"/>
<path d="M24.3271 19.697V21.4681H27.8772V23.2233H24.3271V25.979H22.0556V17.9414H28.3617V19.697H24.3271Z" fill="black"/>
<path d="M31.1971 19.7443H28.7271V17.9414H35.9307V19.7443H33.4686V25.979H31.1971V19.7443Z" fill="black"/>
</g>
<defs>
<clipPath id="clip0_170_412">
<rect width="48.8924" height="44" fill="white"/>
</clipPath>
</defs>
</svg>
