<svg width="48" height="48" viewBox="0 0 48 48" fill="none" xmlns="http://www.w3.org/2000/svg">
<path d="M42.1245 16.1422C43.742 18.0011 44.9189 20.2011 45.5674 22.5783C46.16 24.7467 46.2949 27.0147 45.9634 29.2381C45.6319 31.4615 44.8414 33.5917 43.642 35.4929C42.4427 37.3942 40.8608 39.0252 38.9969 40.282C37.1331 41.5387 35.0282 42.3937 32.8159 42.7928C30.528 43.1907 28.1831 43.1199 25.9234 42.5847C22.7825 41.8599 19.8295 40.5715 16.6148 39.5312C17.2054 38.9742 17.7155 38.5044 18.2121 38.0212C18.4403 37.8622 18.598 37.6206 18.6518 37.3477C18.7056 37.0748 18.6515 36.7917 18.5007 36.558C18.2121 36.0949 17.7826 35.9942 17.0981 36.2358C16.0963 36.6267 15.0379 36.8534 13.9639 36.907C13.0906 36.9448 12.2219 36.7619 11.4383 36.3748C10.6546 35.9877 9.98125 35.4089 9.48066 34.6924C8.77504 33.7029 8.25021 32.5963 7.93039 31.4239C8.85266 31.9543 9.91971 32.1778 10.9773 32.0616C11.864 31.9954 12.7233 31.7242 13.4874 31.2695C14.0078 30.9632 14.4098 30.4903 14.6283 29.9273C14.7027 29.7903 14.7417 29.6369 14.7415 29.4809C14.7413 29.325 14.7021 29.1715 14.6273 29.0346C14.5525 28.8978 14.4446 28.7818 14.3134 28.6974C14.1823 28.613 14.0321 28.563 13.8766 28.5516C13.1155 28.4426 12.339 28.5399 11.6283 28.8334C10.5029 29.2184 9.29889 29.3151 8.12644 29.1146C6.95399 28.9141 5.85056 28.4229 4.91702 27.6858C3.08561 26.2362 1.72414 24.2769 1.00427 22.0549C0.998577 22.0081 0.998577 21.9608 1.00427 21.914C1.44721 22.0818 1.87674 22.2561 2.34653 22.4105C3.03686 22.6618 3.77286 22.7632 4.50543 22.7077C5.23799 22.6521 5.95032 22.4409 6.59485 22.0883C7.31967 21.7058 8.02432 21.2967 8.73572 20.8873C9.55624 20.3976 10.4667 20.0776 11.4132 19.9462C12.3597 19.8147 13.3229 19.8745 14.2458 20.1221H14.4471C14.3708 19.4873 14.1034 18.8906 13.6803 18.4112C13.2572 17.9318 12.6984 17.5922 12.0779 17.4376C11.5697 17.294 11.0479 17.2041 10.521 17.1692C10.0042 17.129 9.47399 17.1692 8.84312 17.1692C9.43197 16.3587 10.1958 15.691 11.078 15.2161C12.3353 14.5816 13.7018 14.1921 15.1048 14.0685C17.2082 13.9005 19.2898 13.5251 21.3194 12.9478C22.2255 12.6391 23.0711 12.1826 23.9503 11.8202C25.3895 11.2476 26.8961 10.8619 28.4334 10.6725C29.0444 10.4681 29.6916 10.395 30.3328 10.4579C30.7748 10.4262 31.2181 10.4971 31.628 10.6657C33.4327 10.8784 35.1926 11.3747 36.8427 12.1357C37.5139 12.4512 38.1246 12.8067 38.7689 13.1624C39.0636 13.2346 39.3344 13.3828 39.5541 13.592C40.4386 14.2162 41.2532 14.934 41.9836 15.7329C42.0373 15.8604 42.1581 15.961 42.1245 16.1422Z" fill="#84ECEF"/>
<path d="M28.3932 8.76684H27.2657C27.0916 8.7832 26.9161 8.76216 26.7508 8.70523C26.5855 8.6483 26.4343 8.55659 26.3072 8.43652C26.1802 8.31644 26.0802 8.17068 26.014 8.00887C25.9479 7.84705 25.9169 7.67301 25.9234 7.49831C25.9234 7.06878 25.9234 6.63916 25.9234 6.21634C25.9195 6.05289 25.9495 5.89059 26.0112 5.73921C26.073 5.58783 26.1654 5.45082 26.2826 5.33679C26.3998 5.22276 26.5392 5.13392 26.6922 5.07627C26.8452 5.01863 27.0084 4.99319 27.1717 5.00155C29.033 5.00155 30.8898 5.00155 32.7421 5.00155C32.9014 4.99335 33.0606 5.01765 33.2102 5.07299C33.3597 5.12833 33.4964 5.2138 33.6119 5.32368C33.7275 5.43357 33.8195 5.56576 33.8822 5.71234C33.945 5.85892 33.9772 6.01658 33.977 6.17604C33.977 6.63912 33.977 7.10224 33.977 7.55861C33.9735 7.87907 33.8442 8.1853 33.6169 8.41128C33.3897 8.63727 33.0828 8.7651 32.7623 8.76684C32.3596 8.76684 31.9502 8.76684 31.5408 8.76684C31.4027 8.86745 31.2351 8.91919 31.0643 8.91431C30.3171 8.91431 29.5722 8.91431 28.8295 8.91431C28.6716 8.91534 28.518 8.86352 28.3932 8.76684V8.76684Z" fill="#BFF0F9"/>
<path d="M42.1245 16.1425C41.1113 15.0249 39.9692 14.0312 38.7219 13.1827C38.9514 12.8618 39.2274 12.577 39.5407 12.3372C39.998 12.0871 40.5276 12.0026 41.04 12.098C41.5524 12.1934 42.0161 12.4627 42.3527 12.8606C42.7063 13.2323 42.9172 13.7172 42.9479 14.2294C42.9786 14.7415 42.8272 15.2482 42.5205 15.6595C42.3997 15.834 42.2588 15.9881 42.1245 16.1425Z" fill="#BFF0F9"/>
<path d="M28.3932 8.76685H31.5744C31.5744 9.43798 31.5744 10.0486 31.5744 10.6862C30.5073 10.6325 29.4469 10.6459 28.3798 10.6862L28.3932 8.76685Z" fill="#BFF0F9"/>
<path d="M30.0106 15.2163C32.3138 15.2137 34.5659 15.8949 36.4814 17.1737C38.397 18.4524 39.8898 20.2711 40.7706 22.3992C41.6513 24.5273 41.8804 26.8691 41.4287 29.1276C40.9771 31.386 39.8652 33.4597 38.2337 35.0855C36.6023 36.7113 34.5249 37.8161 32.2648 38.2599C30.0048 38.7037 27.6639 38.4665 25.5389 37.5783C23.4138 36.6902 21.6003 35.191 20.3282 33.271C19.056 31.351 18.3826 29.0965 18.3933 26.7933C18.4092 23.7209 19.6396 20.7795 21.8159 18.6106C23.9923 16.4418 26.9381 15.2216 30.0106 15.2163V15.2163Z" fill="#333333"/>
<path d="M27.8764 26.8267C27.8765 26.5057 27.9499 26.189 28.0911 25.9006C28.23 25.6114 28.4346 25.3585 28.6884 25.1623C28.9441 24.9678 29.2399 24.8327 29.5542 24.7665C29.8653 24.6926 30.1894 24.6926 30.5005 24.7665C30.618 24.8093 30.7459 24.8143 30.8663 24.7806C30.9867 24.7468 31.0936 24.6763 31.1717 24.5787C31.9502 23.7868 32.7354 23.0082 33.5139 22.2163C33.8159 21.9143 34.1381 21.7799 34.5072 22.0685C34.8763 22.3571 34.7756 22.6858 34.3863 23.0818C33.6414 23.8334 32.8964 24.5853 32.1381 25.3236C32.0182 25.409 31.9337 25.5351 31.9003 25.6785C31.867 25.8218 31.887 25.9723 31.9568 26.1018C32.1185 26.4833 32.1557 26.906 32.0629 27.3098C31.9701 27.7135 31.7521 28.0777 31.4401 28.3502C31.1497 28.645 30.7753 28.8433 30.3682 28.9178C29.9611 28.9922 29.541 28.9393 29.165 28.7664C28.7802 28.61 28.4514 28.3413 28.2215 27.9953C27.9917 27.6493 27.8714 27.2421 27.8764 26.8267Z" fill="#BFF0F9"/>
<path d="M29.2119 35.7799C29.2119 35.0148 29.3999 34.6991 29.8361 34.7126C30.2724 34.726 30.4334 35.0416 30.4334 35.7665C30.4334 35.9141 30.4334 36.0683 30.4334 36.2226C30.429 36.3846 30.3603 36.5382 30.2426 36.6496C30.125 36.761 29.9679 36.8212 29.8059 36.8167C29.6439 36.8123 29.4904 36.7437 29.379 36.626C29.2676 36.5083 29.2075 36.3512 29.2119 36.1892V35.7799Z" fill="#BFF0F9"/>
<path d="M30.4401 17.9477V18.2498C30.4401 18.6794 30.2321 18.9612 29.769 18.921C29.3059 18.8807 29.1717 18.6458 29.1785 18.2498C29.1785 18.0306 29.1785 17.8069 29.1785 17.5787C29.1785 17.1626 29.3462 16.854 29.7824 16.8473C30.2186 16.8406 30.3999 17.1423 30.3999 17.5584C30.4402 17.706 30.4401 17.8269 30.4401 17.9477Z" fill="#BFF0F9"/>
<path d="M36.3998 19.6258C36.5014 19.6128 36.6046 19.6316 36.6951 19.6796C36.7884 19.7248 36.8656 19.7974 36.9166 19.8877C36.9906 19.9839 37.0308 20.1018 37.0308 20.2232C37.0308 20.3446 36.9906 20.4626 36.9166 20.5588C36.6759 20.8625 36.3987 21.1352 36.0911 21.3708C36.0015 21.4275 35.8983 21.4589 35.7923 21.4619C35.6863 21.4649 35.5815 21.4394 35.4889 21.3879C35.3962 21.3364 35.3191 21.2609 35.2656 21.1693C35.2122 21.0777 35.1843 20.9735 35.1851 20.8675C35.282 20.583 35.4414 20.3237 35.6516 20.1089C35.8618 19.894 36.1175 19.729 36.3998 19.6258V19.6258Z" fill="#BFF0F9"/>
<path d="M37.0105 33.3638C37.0105 33.6859 36.9568 33.8736 36.7555 33.9877C36.6597 34.0628 36.5416 34.1037 36.4199 34.1037C36.2982 34.1037 36.1801 34.0628 36.0843 33.9877C35.7978 33.747 35.5349 33.4797 35.2992 33.1891C35.253 33.1321 35.2193 33.0661 35.1999 32.9954C35.1806 32.9247 35.1762 32.8507 35.1869 32.7782C35.1976 32.7056 35.2232 32.6361 35.2622 32.574C35.3012 32.5119 35.3526 32.4586 35.4132 32.4174C35.4598 32.3656 35.5167 32.3244 35.5803 32.2961C35.6439 32.2678 35.7127 32.2532 35.7823 32.2532C35.852 32.2532 35.9208 32.2678 35.9844 32.2961C36.048 32.3244 36.1049 32.3656 36.1514 32.4174C36.4803 32.7059 36.9367 32.9409 37.0105 33.3638Z" fill="#BFF0F9"/>
<path d="M24.4268 32.8068C24.3405 33.0989 24.186 33.3661 23.976 33.5867C23.7659 33.8073 23.5064 33.9749 23.2188 34.0753C23.1066 34.0815 22.9949 34.0557 22.8966 34.0012C22.8015 33.9432 22.7247 33.8595 22.6751 33.7597C22.6103 33.6679 22.5794 33.5566 22.5879 33.4445C22.6002 33.3323 22.6471 33.2266 22.7221 33.1423C22.9713 32.8618 23.2381 32.5972 23.5208 32.3503C23.5966 32.2797 23.6937 32.2361 23.7969 32.2264C23.9 32.2167 24.0035 32.2416 24.0912 32.2969C24.1897 32.3414 24.2736 32.4127 24.333 32.503C24.3924 32.5933 24.4249 32.6987 24.4268 32.8068Z" fill="#BFF0F9"/>
<path d="M24.4335 20.9275C24.4264 21.0353 24.3885 21.1389 24.3243 21.2257C24.26 21.3126 24.1721 21.3791 24.0711 21.4174C23.9806 21.4654 23.8775 21.4842 23.7759 21.4712C23.6716 21.4589 23.5745 21.4118 23.5007 21.3371C23.2346 21.098 22.9815 20.8446 22.7423 20.5785C22.6702 20.4943 22.6253 20.3905 22.6133 20.2803C22.6014 20.1701 22.6229 20.0588 22.6752 19.9611C22.7196 19.8584 22.7939 19.7716 22.8885 19.7118C22.9831 19.6519 23.0935 19.6218 23.2054 19.6256C23.5038 19.7206 23.773 19.89 23.9879 20.1178C24.2027 20.3455 24.3561 20.6241 24.4335 20.9275Z" fill="#BFF0F9"/>
<path d="M38.6816 27.4309C38.534 27.4309 38.3797 27.4309 38.2253 27.4309C38.1483 27.4341 38.0716 27.4197 38.0008 27.3893C37.9299 27.359 37.8668 27.3132 37.816 27.2553C37.7652 27.1974 37.728 27.1289 37.7071 27.0547C37.6861 26.9806 37.682 26.9026 37.6951 26.8267C37.6873 26.7545 37.6951 26.6815 37.7182 26.6127C37.7413 26.5438 37.779 26.4808 37.8287 26.4278C37.8785 26.3749 37.939 26.3332 38.0063 26.3059C38.0736 26.2786 38.1461 26.2662 38.2186 26.2696C38.5407 26.2696 38.8897 26.2696 39.185 26.2696C39.2621 26.2643 39.3395 26.2759 39.4117 26.3036C39.4839 26.3314 39.5491 26.3748 39.6028 26.4305C39.6565 26.4861 39.6975 26.5527 39.7227 26.6258C39.7479 26.6989 39.7568 26.7766 39.7488 26.8535C39.7555 26.9299 39.7459 27.0069 39.7207 27.0793C39.6955 27.1517 39.6553 27.2179 39.6026 27.2736C39.55 27.3294 39.4863 27.3737 39.4154 27.4031C39.3446 27.4324 39.2684 27.4462 39.1917 27.444C39.0239 27.444 38.8696 27.4309 38.6816 27.4309Z" fill="#BFF0F9"/>
<path d="M20.8832 27.4312C20.7156 27.4413 20.5475 27.4413 20.3799 27.4312C20.3075 27.4274 20.2368 27.4084 20.1723 27.3755C20.1077 27.3426 20.0509 27.2965 20.0053 27.2402C19.9597 27.1838 19.9265 27.1184 19.9078 27.0484C19.8891 26.9785 19.8853 26.9053 19.8967 26.8338C19.8871 26.7655 19.8922 26.6958 19.9117 26.6296C19.9313 26.5635 19.9648 26.5025 20.0099 26.4504C20.055 26.3983 20.1108 26.3563 20.1735 26.3275C20.2362 26.2987 20.3042 26.2836 20.3731 26.2833C20.7087 26.2833 21.0443 26.2833 21.3866 26.2833C21.4634 26.2769 21.5406 26.2878 21.6128 26.3147C21.685 26.3417 21.7504 26.3841 21.8043 26.4392C21.8582 26.4944 21.8992 26.5608 21.9244 26.6336C21.9496 26.7064 21.9585 26.784 21.9504 26.8607C21.9593 26.9375 21.9513 27.0153 21.9269 27.0888C21.9026 27.1622 21.8625 27.2294 21.8094 27.2857C21.7563 27.342 21.6916 27.3859 21.6197 27.4145C21.5478 27.4431 21.4705 27.4556 21.3933 27.4512C21.2255 27.4512 21.0577 27.4512 20.8832 27.4512V27.4312Z" fill="#BFF0F9"/>
<path d="M30.8696 26.8202C30.8735 26.9947 30.8256 27.1666 30.7322 27.314C30.6387 27.4615 30.5037 27.5779 30.3442 27.6489C30.1846 27.7199 30.0077 27.7421 29.8356 27.7128C29.6634 27.6836 29.5038 27.6041 29.3767 27.4844C29.2496 27.3647 29.1606 27.2101 29.1211 27.0401C29.0816 26.87 29.0932 26.6923 29.1544 26.5289C29.2157 26.3654 29.3239 26.2234 29.4655 26.1212C29.6071 26.019 29.7757 25.961 29.9502 25.9544C30.0692 25.9428 30.1894 25.9567 30.3025 25.9954C30.4157 26.034 30.5193 26.0965 30.6064 26.1785C30.6935 26.2605 30.762 26.3602 30.8074 26.4708C30.8528 26.5815 30.874 26.7007 30.8696 26.8202V26.8202Z" fill="#BFF0F9"/>
</svg>
