<svg width="39" height="36" viewBox="0 0 39 36" fill="none" xmlns="http://www.w3.org/2000/svg">
<path d="M10.5291 0.677279L9.46661 1.10352L15.4443 16.0034L16.5067 15.5772L10.5291 0.677279Z" fill="#B6145A"/>
<path d="M16.2932 -1.18563e-06L12.4039 15.576L13.5144 15.8534L17.4038 0.277306L16.2932 -1.18563e-06Z" fill="#B6145A"/>
<path d="M38.977 7.90483C38.977 7.60058 38.8566 7.30877 38.6421 7.09298C38.4277 6.87719 38.1365 6.75502 37.8322 6.75317H1.14471C0.840464 6.75502 0.549344 6.87719 0.334862 7.09298C0.12038 7.30877 -5.58755e-06 7.60058 1.94499e-10 7.90483V28.5381H38.977V7.90483Z" fill="#EC1651"/>
<path d="M9.6046 33.1311H5.01868V35.9999H9.6046V33.1311Z" fill="#B6145A"/>
<path d="M34.4817 33.1311H29.8958V35.9999H34.4817V33.1311Z" fill="#B6145A"/>
<path d="M37.8322 7.90483V27.3935H1.14471V7.90483H37.8322ZM37.8322 6.75317H1.14471C0.840464 6.75502 0.549344 6.87719 0.334862 7.09298C0.12038 7.30877 -5.58755e-06 7.60058 1.94499e-10 7.90483V28.5381H38.977V7.90483C38.977 7.60058 38.8566 7.30877 38.6421 7.09298C38.4277 6.87719 38.1365 6.75502 37.8322 6.75317Z" fill="#B6145A"/>
<path d="M0 28.5382V31.9794C0.0018311 32.2824 0.123006 32.5727 0.33729 32.787C0.551575 33.0012 0.841669 33.1224 1.14471 33.1242H37.8322C38.1353 33.1224 38.4254 33.0012 38.6397 32.787C38.854 32.5727 38.9752 32.2824 38.977 31.9794V28.5382H0Z" fill="#B6145A"/>
</svg>
