<svg width="77" height="28" viewBox="0 0 77 28" fill="none" xmlns="http://www.w3.org/2000/svg">
<g opacity="0.4">
<path fill-rule="evenodd" clip-rule="evenodd" d="M27.4167 8.42593V16.8519H29.4907H31.5648V13.6111C31.5648 11.4722 31.5648 10.3056 31.5648 10.1759C31.6296 9.85185 31.6944 9.52778 31.8889 9.26852C32.1481 8.81481 32.6019 8.62037 33.1204 8.68519C33.8333 8.75 34.287 9.13889 34.4167 9.98148C34.4167 10.1111 34.4167 11.4074 34.4167 13.4815V16.787H36.4907H38.5648V12.8981C38.5648 9.59259 38.5648 8.94444 38.5 8.62037C38.3704 7.4537 37.9815 6.5463 37.2685 5.89815C36.6852 5.31481 35.9722 4.99074 35.1296 4.86111C34.8056 4.7963 33.8982 4.86111 33.6389 4.92593C32.8611 5.12037 32.2778 5.37963 31.7593 5.96296L31.4352 6.22222V3.11111V0H29.3611H27.287V8.42593H27.4167ZM71.4907 0.12963C71.3611 0.388889 67.1481 10.5648 67.1481 10.5648C67.1481 10.5648 68.25 10.5648 69.6111 10.5648H72.0741L74.2778 5.31482C75.5093 2.39815 76.4815 0 76.4815 0C76.4815 0 75.3796 0 74.0185 0H71.5556L71.4907 0.12963ZM18.3426 4.92593C17.4352 5.05555 16.7222 5.31482 16.0093 5.76852C14.5833 6.67593 13.6759 8.23148 13.4167 10.0463C13.287 10.8889 13.3519 11.9259 13.5463 12.7037C14.0648 14.713 15.4259 16.2685 17.1759 16.8519C17.8241 17.0463 18.0833 17.1111 18.8611 17.1111C19.4444 17.1111 19.6389 17.1111 19.8333 17.0463C20.6759 16.8519 21.2593 16.5278 21.7778 16.0093L22.037 15.75V16.2685V16.787H24.0463H26.0556V10.9537V5.12037H24.0463H22.037V5.63889V6.15741L21.8426 5.96296C21.3889 5.44445 20.7407 5.12037 19.8981 4.92593C19.6389 4.86111 19.5093 4.86111 18.9907 4.86111C18.6667 4.92593 18.4074 4.92593 18.3426 4.92593ZM44.787 4.92593C43.6852 5.05555 42.5185 5.57407 41.6759 6.22222C40.0556 7.58333 39.213 9.72222 39.537 11.9259C39.8611 14.3889 41.6111 16.2685 44.0741 16.9167C44.5926 17.0463 45.1111 17.1111 45.7593 17.1111C46.9259 17.1111 47.7685 16.9167 48.6759 16.463C50.4907 15.5556 51.6574 13.9352 51.9167 11.9259C51.9815 11.4074 51.9815 10.5648 51.9167 10.1111C51.787 9.13889 51.3982 8.16667 50.8148 7.38889C50.5556 7.06482 50.037 6.48148 49.713 6.22222C48.8056 5.50926 47.7685 5.05555 46.6019 4.92593C46.1482 4.86111 45.2407 4.86111 44.787 4.92593ZM58.0093 4.92593C56.9074 5.05555 55.8056 5.50926 54.963 6.22222C54.6389 6.48148 54.0556 7.06482 53.8611 7.38889C53.2778 8.16667 52.9537 9.13889 52.7593 10.1111C52.6944 10.5648 52.6944 11.4722 52.7593 11.9259C53.1482 14.5185 55.0278 16.5278 57.6204 17.0463C58.1389 17.1759 58.3982 17.1759 58.9815 17.1759C60.0833 17.1759 61.0556 16.9815 61.963 16.463C64.3611 15.2315 65.6574 12.5093 65.0741 9.72222C64.5556 7.12963 62.4815 5.25 59.8241 4.92593C59.3704 4.86111 58.463 4.86111 58.0093 4.92593ZM0 5.18519C0 5.18519 1.10185 7.84259 2.46296 11.0833C3.82407 14.3241 4.92593 16.9815 4.92593 16.9815C4.92593 16.9815 4.53704 17.9537 4.01852 19.1204C3.5 20.287 3.11111 21.1944 3.11111 21.2593C3.11111 21.3241 4.08333 21.2593 5.31482 21.2593H7.51852L10.8241 13.287C12.6389 8.87963 14.1296 5.31481 14.1296 5.25C14.1296 5.25 13.6759 5.18518 11.9259 5.25H9.72222L8.36111 8.62037C7.77778 10.4352 7.19445 11.9907 7.19445 11.9907C7.19445 11.9907 6.61111 10.4352 5.83333 8.62037L4.53704 5.25H2.26852C1.03704 5.18518 0 5.18519 0 5.18519ZM20.3519 8.68519C21.1944 8.87963 21.8426 9.52778 22.1019 10.3704C22.1667 10.6944 22.1667 11.2778 22.1019 11.6019C21.9074 12.4444 21.2593 13.0926 20.4167 13.287C20.0926 13.3519 19.5093 13.3519 19.1852 13.287C18.4722 13.0926 17.8241 12.5741 17.5648 11.9259C17.2407 11.213 17.3704 10.3056 17.7593 9.65741C18.3426 8.81482 19.3148 8.49074 20.3519 8.68519ZM46.213 8.75C47.1204 8.87963 47.8333 9.59259 48.0278 10.5C48.0926 10.8241 48.0926 11.3426 48.0278 11.6667C47.8333 12.5093 47.1852 13.0926 46.4074 13.3519C46.1481 13.4167 45.4352 13.4167 45.1759 13.3519C44.5278 13.1574 44.0093 12.7037 43.6852 12.1204C43.4907 11.7315 43.4907 11.537 43.4907 11.0833C43.4907 10.6944 43.5556 10.5 43.6852 10.1759C43.8796 9.78704 44.1389 9.39815 44.5278 9.13889C44.9167 8.75 45.5648 8.62037 46.213 8.75ZM59.3704 8.75C60.1482 8.87963 60.7963 9.39815 61.0556 10.1111C61.1852 10.4352 61.25 10.6296 61.25 11.0185C61.25 11.4722 61.1852 11.6667 61.0556 12.0556C60.7963 12.6389 60.213 13.0926 59.5648 13.287C59.3056 13.3519 58.5926 13.3519 58.3333 13.287C57.5556 13.0926 56.9074 12.4444 56.713 11.6019C56.6482 11.2778 56.6482 10.6944 56.713 10.3704C56.9722 9.33333 57.8796 8.62037 58.9167 8.62037C59.0463 8.68519 59.2407 8.68519 59.3704 8.75ZM68.1852 11.6019C66.9537 11.7315 66.0463 12.6389 65.787 13.8056C65.7222 14.1296 65.7222 14.713 65.787 15.037C66.0463 16.0741 66.8241 16.787 67.8611 17.0463C67.9907 17.0463 68.25 17.1111 68.4445 17.1111C69.2222 17.1111 69.8704 16.8519 70.3889 16.3333C70.9722 15.75 71.1667 15.1667 71.1667 14.3889C71.1667 13.4167 70.713 12.5741 69.9352 12.1204C69.4167 11.6667 68.7037 11.537 68.1852 11.6019ZM34.0278 17.9537C33.1852 18.213 32.7963 19.1852 33.25 19.8981C33.3796 20.0926 33.6389 20.3519 33.8333 20.4167C34.0278 20.4815 34.0278 20.4815 34.4167 20.4815C34.7407 20.4815 34.8056 20.4815 35 20.4167C35.2593 20.287 35.5185 20.0278 35.6482 19.7685C35.9722 19.1204 35.6482 18.3426 35 18.0185C34.8056 17.8889 34.7407 17.8889 34.4815 17.8889C34.2222 17.8889 34.1574 17.8889 34.0278 17.9537ZM30.5278 18.0185C29.4259 18.213 28.713 18.9259 28.3889 20.0926C28.3241 20.287 28.3241 20.4815 28.3241 20.7407V21.1944H27.8704H27.4167V22.1667V23.1389H27.8704H28.3241V25.4722V27.8056H29.5556H30.787V25.4722V23.1389H31.6296H32.4722V22.1667V21.1944H31.6296H30.787V21C30.8519 20.5463 31.0463 20.2222 31.4352 20.1574C31.6944 20.0926 32.0833 20.0926 32.3426 20.2222C32.4722 20.287 32.537 20.287 32.537 20.287C32.537 20.287 32.537 19.8333 32.537 19.25V18.213L32.3426 18.1481C32.0833 18.0185 31.7593 18.0185 31.3056 18.0185C30.9815 17.9537 30.7222 18.0185 30.5278 18.0185ZM40.3796 21.0648C39.8611 21.1944 39.4722 21.4537 39.213 21.7778L39.0833 21.9722V21.5833V21.1944H37.8519H36.6204V24.5V27.8056H37.8519H39.0833V25.9907C39.0833 24.9537 39.0833 24.1111 39.0833 23.9815C39.1482 23.7222 39.2778 23.463 39.4074 23.3333C39.7315 23.0741 40.3148 23.1389 40.5741 23.463C40.7685 23.7222 40.7685 23.7222 40.7685 25.7963V27.7407H42H43.2315V25.537C43.2315 23.2037 43.2315 22.9444 43.1019 22.4907C42.9722 22.1019 42.8426 21.7778 42.5185 21.5185C42.2593 21.2593 42 21.0648 41.6111 21C41.287 21 40.6389 21 40.3796 21.0648ZM46.537 21C46.1482 21.0648 45.5648 21.2593 45.2407 21.5185C44.5278 22.037 44.0741 22.8148 43.8796 23.787C43.8148 24.1759 43.8148 24.8889 43.8796 25.2778C44.0093 25.8611 44.2037 26.4444 44.5278 26.8333C44.9815 27.4167 45.5648 27.8056 46.2778 27.9352C46.6667 28 47.3148 28 47.6389 27.8704C48.0278 27.7407 48.287 27.6111 48.6111 27.3519L48.8704 27.0926V27.4167V27.7407H50.1019H51.3333V24.4352V21.1296H50.1019H48.8704V21.4537V21.7778L48.6759 21.713C48.3519 21.3889 47.8981 21.1296 47.3796 21.0648C47.1852 21 46.7315 21 46.537 21ZM55.9352 21.0648C55.4815 21.1296 55.0278 21.4537 54.7685 21.7778L54.6389 21.9074V21.5185V21.1296H53.4074H52.1759V24.4352V27.7407H53.4074H54.6389V25.8611C54.6389 23.8519 54.6389 23.8519 54.7685 23.5278C54.8982 23.2685 55.1574 23.1389 55.4167 23.1389C55.6759 23.1389 55.8056 23.2037 56 23.3333C56.2593 23.5926 56.2593 23.5278 56.2593 25.7315V27.6759H57.4907H58.7222V25.2778C58.7222 22.8796 58.7222 22.8796 58.6574 22.6204C58.5926 22.4907 58.5278 22.2315 58.463 22.037C58.3333 21.7778 58.2685 21.713 58.0741 21.5185C57.8148 21.2593 57.6204 21.1296 57.3611 21C56.9074 21 56.3889 20.9352 55.9352 21.0648ZM62.3519 21.0648C61.25 21.2593 60.4074 21.7778 59.8889 22.6852C59.7593 22.9444 59.6296 23.2685 59.5 23.5926C59.4352 23.9167 59.4352 23.9815 59.4352 24.5C59.4352 25.0833 59.4352 25.2778 59.6296 25.7315C60.0185 26.8333 60.9259 27.6759 62.1574 27.9352C62.3519 28 62.5463 28 63 28C63.6481 28 63.9074 27.9352 64.3611 27.7407L64.6204 27.6111V26.5093V25.4074L64.4259 25.537C64.1019 25.7315 63.9074 25.7963 63.5185 25.7963C63.1296 25.7963 62.9352 25.7963 62.6759 25.6667C62.4167 25.537 62.2222 25.3426 62.0926 25.0833C62.0278 24.8889 62.0278 24.8889 62.0278 24.5648C62.0278 24.3056 62.0278 24.2407 62.0926 24.0463C62.287 23.5278 62.7407 23.2685 63.3889 23.2037C63.8426 23.2037 64.037 23.2037 64.6852 23.5278C64.6852 23.5278 64.6852 23.0093 64.6852 22.4259V21.3241L64.4907 21.2593C63.7778 21 63 20.9352 62.3519 21.0648ZM67.9259 21.0648C66.0463 21.3889 64.8796 23.0093 65.0093 24.8889C65.0741 25.537 65.2685 26.1204 65.5926 26.5741C66.0463 27.287 66.7593 27.7407 67.6667 27.9352C68.0556 28 69.0926 28 69.5463 27.9352C70.1945 27.8056 70.7778 27.4815 71.2315 27.0278C71.4259 26.8333 71.75 26.3796 71.75 26.3796C71.75 26.3796 71.2963 26.1852 70.713 25.9907L69.6759 25.6019L69.5463 25.7315C69.3519 25.9259 69.2222 25.9907 68.963 26.0556C68.25 26.25 67.537 25.8611 67.4074 25.213V25.0833H69.6759H71.9445V24.5C71.9445 24.1111 71.9444 23.8519 71.8796 23.7222C71.75 22.9444 71.4259 22.4259 70.9722 21.9074C70.5185 21.4537 70 21.1944 69.287 21.0648C69.0278 21 68.25 21 67.9259 21.0648ZM33.1852 24.5V27.8056H34.4167H35.6482V24.5V21.1944H34.4167H33.1852V24.5ZM68.8982 22.8796C69.0926 22.9444 69.1574 23.0093 69.3519 23.1389C69.4815 23.2685 69.6111 23.3981 69.6111 23.5926V23.7222H68.5093C67.2778 23.7222 67.3426 23.7222 67.4722 23.463C67.6667 23.0093 68.25 22.75 68.8982 22.8796ZM47.963 23.2037C48.287 23.2685 48.6759 23.5926 48.8056 23.9167C49.1296 24.6296 48.8056 25.4722 48.0278 25.7315C47.7685 25.7963 47.3796 25.7963 47.1204 25.7315C46.7315 25.6019 46.3426 25.2778 46.2778 24.8889C46.213 24.6944 46.213 24.6296 46.213 24.4352C46.213 24.1759 46.213 24.1111 46.3426 23.9167C46.6019 23.3333 47.25 23.0741 47.963 23.2037Z" fill="black"/>
</g>
</svg>
