<svg width="229" height="962" viewBox="0 0 229 962" fill="none" xmlns="http://www.w3.org/2000/svg">
<path d="M4.46201 961.737C4.9751 961.52 5.42139 961.17 5.75549 960.724C6.08959 960.277 6.29953 959.75 6.36408 959.197C6.42864 958.643 6.34551 958.082 6.12302 957.57C5.90054 957.059 5.54664 956.616 5.09741 956.286L77.5254 848.74C77.9581 849.003 78.4475 849.157 78.9524 849.191C79.4573 849.225 79.9628 849.136 80.4265 848.934C81.0089 848.678 81.5015 848.254 81.8412 847.716C82.1809 847.178 82.3521 846.55 82.3328 845.914L225.911 833.477C226.021 834.402 226.404 835.273 227.011 835.979C227.618 836.685 228.422 837.194 229.32 837.441C230.218 837.688 231.169 837.662 232.051 837.365C232.934 837.069 233.708 836.516 234.276 835.777L254.804 850.509C254.631 850.776 254.531 851.083 254.513 851.401C254.505 851.647 254.545 851.892 254.632 852.122C254.718 852.352 254.849 852.564 255.017 852.743C255.185 852.923 255.387 853.068 255.611 853.169C255.835 853.271 256.077 853.327 256.323 853.335C256.604 853.339 256.881 853.279 257.135 853.159C257.389 853.04 257.612 852.863 257.787 852.644L271.685 862.622C271.48 862.938 271.366 863.304 271.353 863.68C271.336 864.13 271.461 864.574 271.71 864.95C271.96 865.325 272.321 865.612 272.742 865.771C273.164 865.93 273.625 865.952 274.059 865.835C274.494 865.717 274.881 865.466 275.166 865.117L305.405 886.821C305.09 887.298 304.913 887.853 304.894 888.424C304.874 889.054 305.041 889.675 305.373 890.209C305.706 890.744 306.19 891.168 306.764 891.428C307.337 891.688 307.975 891.771 308.596 891.668C309.217 891.566 309.794 891.281 310.254 890.85C310.713 890.419 311.035 889.862 311.178 889.249C311.32 888.635 311.278 887.993 311.057 887.404C310.835 886.814 310.443 886.304 309.932 885.937C309.42 885.57 308.811 885.363 308.182 885.342C307.638 885.327 307.101 885.453 306.621 885.708L267.478 819.373L393.436 772.683C393.45 772.715 393.466 772.745 393.485 772.773C393.653 773.078 393.882 773.346 394.156 773.56C394.431 773.775 394.746 773.931 395.083 774.02C395.42 774.108 395.771 774.128 396.116 774.077C396.461 774.026 396.791 773.906 397.088 773.724C397.385 773.541 397.642 773.3 397.843 773.016C398.044 772.731 398.186 772.409 398.259 772.068C398.332 771.728 398.335 771.376 398.269 771.034C398.202 770.692 398.067 770.367 397.871 770.078C397.677 769.771 397.42 769.507 397.118 769.305L416.168 733.435C416.546 733.6 416.958 733.671 417.369 733.642C417.78 733.613 418.178 733.485 418.53 733.27C418.644 733.194 418.752 733.111 418.854 733.021L476.184 790.062L471.183 811.254L387.482 833.649C387.259 832.915 386.858 832.246 386.317 831.702C385.775 831.157 385.108 830.754 384.375 830.526C383.642 830.299 382.864 830.255 382.11 830.398C381.355 830.54 380.647 830.865 380.047 831.345C379.447 831.824 378.974 832.443 378.668 833.147C378.363 833.852 378.234 834.621 378.293 835.386C378.353 836.152 378.599 836.891 379.01 837.54C379.421 838.189 379.984 838.727 380.651 839.108L368.909 861.468C368.617 861.343 368.299 861.294 367.984 861.323C367.738 861.348 367.499 861.422 367.281 861.54C367.064 861.658 366.872 861.818 366.717 862.011C366.562 862.204 366.448 862.426 366.379 862.664C366.311 862.902 366.29 863.15 366.319 863.396C366.347 863.677 366.44 863.948 366.59 864.188C366.74 864.427 366.942 864.629 367.182 864.778L359.246 879.911C358.905 879.753 358.528 879.691 358.155 879.731C357.873 879.761 357.6 879.845 357.352 879.98C357.103 880.115 356.884 880.298 356.706 880.518C356.528 880.739 356.395 880.992 356.316 881.263C356.236 881.535 356.211 881.82 356.242 882.101C356.275 882.429 356.384 882.744 356.56 883.023C356.736 883.301 356.975 883.534 357.257 883.704L339.954 916.671C339.438 916.426 338.865 916.328 338.297 916.388C337.671 916.456 337.079 916.708 336.596 917.111C336.113 917.515 335.761 918.053 335.584 918.657C335.407 919.261 335.412 919.905 335.6 920.506C335.788 921.107 336.149 921.639 336.639 922.034C337.129 922.43 337.725 922.671 338.352 922.728C338.978 922.784 339.608 922.654 340.161 922.353C340.714 922.052 341.165 921.594 341.458 921.036C341.751 920.479 341.872 919.847 341.806 919.221C341.769 918.916 341.688 918.618 341.564 918.336L456.864 862.443C456.882 862.486 456.903 862.527 456.927 862.567C457.145 862.924 457.432 863.234 457.77 863.48C458.108 863.725 458.492 863.902 458.899 864C459.305 864.097 459.727 864.114 460.14 864.048C460.553 863.982 460.949 863.836 461.306 863.617C461.543 863.468 461.76 863.287 461.948 863.078L515.388 908.29C515.032 908.769 514.855 909.357 514.885 909.954C514.915 910.55 515.152 911.117 515.555 911.557C515.958 911.998 516.501 912.284 517.092 912.368C517.683 912.451 518.285 912.326 518.794 912.014C518.978 911.897 519.147 911.758 519.298 911.599L562.371 948.035C561.769 948.803 561.469 949.764 561.527 950.738C561.585 951.712 561.997 952.631 562.686 953.321C563.375 954.012 564.292 954.426 565.265 954.487C566.239 954.547 567.2 954.248 567.969 953.648C568.737 953.048 569.26 952.187 569.437 951.228C569.615 950.268 569.435 949.277 568.933 948.441C568.43 947.605 567.639 946.982 566.709 946.69C565.779 946.397 564.773 946.456 563.883 946.854L493.237 807.392C493.532 807.206 493.769 806.941 493.922 806.627C494.075 806.313 494.136 805.963 494.101 805.616C494.076 805.414 494.017 805.218 493.928 805.035L512.149 793.855C512.478 794.319 512.952 794.659 513.496 794.824C514.04 794.988 514.623 794.967 515.154 794.764C515.685 794.561 516.133 794.187 516.428 793.701C516.723 793.215 516.848 792.644 516.784 792.079C516.767 791.948 516.739 791.819 516.701 791.692L593.867 765.234L647.052 807.951C646.59 808.58 646.381 809.359 646.465 810.135C646.51 810.551 646.637 810.954 646.838 811.321C647.039 811.688 647.31 812.012 647.637 812.274C647.963 812.536 648.337 812.731 648.739 812.849C649.14 812.966 649.561 813.003 649.977 812.958C650.393 812.912 650.796 812.785 651.163 812.584C651.529 812.383 651.853 812.112 652.115 811.785C652.377 811.459 652.572 811.085 652.69 810.683C652.807 810.281 652.844 809.86 652.798 809.444C652.765 809.169 652.696 808.899 652.591 808.642L716.372 779.821C716.648 780.356 717.103 780.777 717.657 781.011C718.212 781.244 718.83 781.276 719.406 781.1C719.981 780.924 720.477 780.552 720.806 780.048C721.135 779.544 721.277 778.94 721.207 778.343C721.183 778.124 721.13 777.911 721.048 777.707L772.457 754.476C772.893 755.342 773.629 756.02 774.529 756.382C775.428 756.744 776.429 756.764 777.342 756.44C778.256 756.116 779.02 755.469 779.49 754.621C779.961 753.774 780.106 752.783 779.898 751.836C779.691 750.889 779.144 750.05 778.362 749.477C777.58 748.904 776.615 748.637 775.65 748.725C774.685 748.814 773.785 749.251 773.119 749.956C772.454 750.662 772.069 751.586 772.036 752.555L628.506 754.041C628.51 753.997 628.51 753.953 628.506 753.909C628.442 753.254 628.174 752.635 627.74 752.139C627.307 751.644 626.729 751.296 626.089 751.145L640.428 674.446C640.618 674.466 640.811 674.466 641.001 674.446C641.337 674.41 641.663 674.309 641.96 674.147C642.256 673.986 642.518 673.767 642.73 673.504C642.942 673.24 643.099 672.938 643.194 672.613C643.288 672.289 643.318 671.949 643.28 671.613C643.257 671.375 643.199 671.142 643.108 670.922L713.001 637.505C713.251 637.975 713.594 638.389 714.009 638.722C714.601 639.203 715.318 639.504 716.076 639.588C716.834 639.672 717.6 639.537 718.283 639.197C718.966 638.857 719.537 638.328 719.927 637.673C720.317 637.018 720.511 636.264 720.484 635.502C720.458 634.739 720.213 634.001 719.778 633.374C719.343 632.747 718.737 632.259 718.033 631.967C717.328 631.676 716.555 631.594 715.804 631.73C715.054 631.867 714.359 632.216 713.802 632.738L611.266 532.254C611.298 532.226 611.328 532.196 611.356 532.164C611.766 531.654 612.008 531.03 612.05 530.377C612.092 529.724 611.932 529.074 611.591 528.516L675.951 484.41C676.07 484.558 676.202 484.694 676.345 484.818C676.796 485.213 677.371 485.439 677.97 485.458C678.569 485.478 679.157 485.289 679.633 484.924C680.109 484.56 680.444 484.041 680.582 483.457C680.719 482.873 680.65 482.26 680.387 481.721C680.124 481.182 679.682 480.751 679.138 480.5C678.593 480.25 677.978 480.196 677.398 480.348C676.818 480.499 676.308 480.847 675.955 481.332C675.602 481.817 675.427 482.409 675.461 483.008L580.08 495.597C579.968 495 579.686 494.447 579.268 494.005C578.85 493.563 578.314 493.25 577.724 493.104C577.133 492.959 576.513 492.986 575.938 493.183C575.363 493.38 574.856 493.738 574.479 494.215C574.225 494.539 574.033 494.907 573.912 495.3L505.96 479.007C506.067 478.444 505.982 477.861 505.719 477.352C505.456 476.842 505.031 476.436 504.51 476.197C503.989 475.959 503.403 475.901 502.846 476.035C502.289 476.168 501.792 476.485 501.436 476.934C501.231 477.19 501.076 477.483 500.98 477.797L480.19 472.815C480.246 472.565 480.246 472.305 480.19 472.054C480.134 471.804 480.024 471.568 479.867 471.365C479.71 471.162 479.51 470.996 479.282 470.879C479.054 470.762 478.802 470.696 478.546 470.687L478.484 450.22L491.179 442.371C491.617 443.015 492.279 443.474 493.037 443.656C493.445 443.753 493.868 443.769 494.283 443.703C494.697 443.637 495.095 443.49 495.452 443.27C495.81 443.051 496.121 442.762 496.367 442.422C496.613 442.083 496.79 441.697 496.888 441.289C496.985 440.881 497.001 440.457 496.935 440.043C496.869 439.628 496.722 439.23 496.502 438.873C496.283 438.515 495.995 438.204 495.655 437.958C495.315 437.711 494.93 437.534 494.522 437.437C494.119 437.342 493.702 437.326 493.292 437.389L482.752 387.893L505.891 359.321C506.072 359.443 506.273 359.532 506.485 359.583C506.844 359.669 507.219 359.646 507.565 359.517C507.911 359.389 508.211 359.161 508.427 358.863C508.643 358.564 508.766 358.208 508.78 357.84C508.794 357.471 508.699 357.107 508.506 356.793C508.313 356.478 508.032 356.228 507.697 356.074C507.362 355.92 506.99 355.868 506.625 355.926C506.261 355.983 505.922 356.147 505.652 356.397C505.381 356.647 505.19 356.972 505.104 357.331C505.042 357.597 505.042 357.873 505.104 358.139L480.487 365.678C480.339 365.281 480.097 364.926 479.78 364.646C479.463 364.365 479.082 364.166 478.67 364.068C478.349 363.989 478.016 363.975 477.689 364.026L473.255 343.131C473.654 343.019 474.004 342.777 474.25 342.444C474.497 342.112 474.625 341.706 474.616 341.292C474.606 340.877 474.459 340.478 474.198 340.157C473.936 339.836 473.575 339.61 473.172 339.517C472.944 339.472 472.709 339.472 472.481 339.517L468.945 322.864L487.456 292.178C487.599 292.262 487.746 292.338 487.898 292.406C488.631 292.693 489.432 292.757 490.201 292.589C490.97 292.421 491.672 292.028 492.218 291.461C492.763 290.894 493.129 290.177 493.268 289.402C493.406 288.627 493.312 287.828 492.997 287.107C492.682 286.385 492.16 285.774 491.497 285.349C490.834 284.924 490.06 284.706 489.273 284.721C488.487 284.736 487.722 284.985 487.076 285.435C486.431 285.886 485.933 286.518 485.646 287.251C485.518 287.59 485.439 287.946 485.412 288.308L464.359 287.133C464.36 286.504 464.174 285.889 463.824 285.366C463.475 284.844 462.978 284.436 462.397 284.196L480.355 233.063C480.452 233.063 480.542 233.14 480.646 233.167C481.43 233.359 482.251 233.345 483.029 233.127C483.807 232.91 484.516 232.496 485.087 231.925C485.659 231.355 486.075 230.647 486.294 229.869C486.514 229.092 486.53 228.271 486.341 227.485C486.152 226.7 485.764 225.976 485.214 225.383C484.665 224.791 483.973 224.35 483.204 224.102C482.435 223.855 481.615 223.809 480.824 223.97C480.032 224.131 479.296 224.493 478.684 225.02L461.534 206.481C461.756 206.25 461.914 205.964 461.989 205.652C462.078 205.274 462.046 204.879 461.9 204.52C461.754 204.161 461.5 203.856 461.174 203.647C460.847 203.439 460.464 203.337 460.076 203.356C459.689 203.374 459.317 203.513 459.012 203.752L447.415 191.21C447.678 190.94 447.862 190.603 447.947 190.236C448.06 189.796 448.03 189.332 447.862 188.911C447.694 188.489 447.396 188.132 447.012 187.891C446.628 187.649 446.177 187.536 445.724 187.568C445.272 187.599 444.841 187.774 444.494 188.066L419.207 160.703C419.6 160.302 419.88 159.802 420.017 159.257C420.153 158.711 420.143 158.14 419.986 157.6C419.83 157.06 419.532 156.571 419.124 156.184C418.717 155.797 418.214 155.525 417.666 155.396C417.212 155.29 416.739 155.29 416.285 155.396L408.231 123.984L468.606 125.795C468.625 126.306 468.766 126.805 469.019 127.25C469.271 127.695 469.627 128.072 470.057 128.35C470.486 128.627 470.976 128.798 471.485 128.845C471.994 128.893 472.507 128.817 472.981 128.624C473.454 128.431 473.874 128.127 474.205 127.737C474.536 127.346 474.767 126.882 474.88 126.383C474.993 125.884 474.984 125.365 474.854 124.871C474.724 124.376 474.476 123.92 474.132 123.542C473.942 123.337 473.723 123.16 473.483 123.017L507.044 61.5809C507.586 61.8327 508.198 61.8883 508.775 61.7378C509.353 61.5873 509.86 61.2403 510.21 60.7563C510.56 60.2724 510.73 59.6815 510.692 59.0856C510.654 58.4896 510.409 57.9256 510.001 57.4903C509.849 57.3356 509.68 57.1989 509.497 57.0828L536.545 7.55974C537.414 7.99217 538.412 8.09211 539.35 7.84079C540.288 7.58946 541.102 7.00396 541.639 6.19463C542.176 5.3853 542.399 4.40757 542.267 3.44519C542.134 2.48281 541.655 1.60193 540.919 0.968024C540.184 0.334118 539.242 -0.00901241 538.271 0.00273327C537.3 0.0144789 536.366 0.380271 535.646 1.03179C534.926 1.68331 534.468 2.5757 534.359 3.54101C534.25 4.50632 534.496 5.47816 535.053 6.27426L421.375 93.9538L421.3 93.8502C420.851 93.3722 420.266 93.0446 419.624 92.9122C418.983 92.7799 418.316 92.8494 417.715 93.111L382.972 23.2382C383.134 23.1401 383.287 23.0265 383.428 22.8995C383.887 22.4769 384.178 21.9028 384.248 21.2827C384.318 20.6625 384.162 20.038 383.808 19.5238C383.455 19.0096 382.927 18.6404 382.323 18.484C381.72 18.3275 381.079 18.3943 380.521 18.6722C379.962 18.9501 379.523 19.4207 379.283 19.9968C379.043 20.573 379.019 21.2163 379.216 21.8087C379.412 22.401 379.816 22.9025 380.353 23.221C380.889 23.5395 381.522 23.6535 382.136 23.5422L405.689 115.381L400.274 123.397L384.05 122.913C384.031 122.402 383.89 121.903 383.637 121.458C383.385 121.013 383.029 120.636 382.6 120.358C382.17 120.08 381.68 119.91 381.171 119.862C380.662 119.815 380.149 119.89 379.675 120.083C379.202 120.276 378.782 120.581 378.451 120.971C378.12 121.361 377.889 121.826 377.776 122.324C377.663 122.823 377.672 123.342 377.802 123.837C377.932 124.331 378.18 124.787 378.524 125.166C378.808 125.461 379.148 125.696 379.525 125.857L353.969 190.927C353.534 190.781 353.067 190.755 352.619 190.853C352.17 190.95 351.756 191.167 351.42 191.48C350.922 191.947 350.63 192.593 350.608 193.276C350.586 193.959 350.836 194.623 351.303 195.121C351.53 195.36 351.799 195.555 352.097 195.695L344.285 215.595C343.973 215.492 343.638 215.474 343.317 215.544C342.995 215.613 342.697 215.767 342.455 215.989C342.093 216.329 341.881 216.799 341.866 217.295C341.85 217.791 342.032 218.274 342.372 218.636C342.53 218.805 342.72 218.941 342.931 219.036L333.952 241.991L315.697 200.497C316.158 200.264 316.555 199.922 316.854 199.501C317.153 199.08 317.346 198.592 317.414 198.08C317.483 197.568 317.427 197.047 317.249 196.561C317.072 196.076 316.779 195.641 316.396 195.294C316.014 194.948 315.552 194.699 315.052 194.57C314.552 194.441 314.028 194.436 313.525 194.555C313.023 194.674 312.557 194.914 312.167 195.253C311.778 195.592 311.477 196.022 311.29 196.503C311.142 196.891 311.069 197.304 311.076 197.719L241.376 202.625C241.314 202.133 241.109 201.668 240.788 201.29C240.466 200.912 240.041 200.635 239.565 200.494C239.088 200.354 238.581 200.355 238.106 200.498C237.63 200.641 237.207 200.919 236.886 201.299L169.659 151.617C169.732 151.508 169.792 151.393 169.839 151.271C169.968 150.947 170.016 150.595 169.979 150.248C169.942 149.901 169.822 149.567 169.627 149.277C169.433 148.987 169.172 148.748 168.865 148.581C168.558 148.414 168.215 148.325 167.866 148.32C167.517 148.315 167.171 148.395 166.86 148.554C166.549 148.712 166.281 148.943 166.079 149.228C165.876 149.513 165.747 149.843 165.7 150.189C165.654 150.536 165.692 150.888 165.812 151.216L106.895 178.123C106.611 177.55 106.214 177.041 105.727 176.628C105.24 176.214 104.673 175.904 104.063 175.717C103.452 175.531 102.809 175.47 102.174 175.541C101.539 175.611 100.925 175.811 100.37 176.127C99.8148 176.444 99.3301 176.87 98.9457 177.38C98.5612 177.891 98.285 178.475 98.134 179.096C97.9831 179.717 97.9606 180.362 98.0679 180.992C98.1751 181.622 98.41 182.224 98.758 182.76L78.0366 197.181C77.8356 196.935 77.5769 196.742 77.2837 196.621C76.9225 196.478 76.5258 196.451 76.1488 196.545C75.7718 196.638 75.4334 196.848 75.1809 197.143C74.9283 197.438 74.7743 197.805 74.7402 198.192C74.706 198.579 74.7936 198.967 74.9906 199.302L60.9691 209.059C60.7416 208.75 60.4333 208.511 60.0781 208.368C59.6603 208.204 59.2016 208.174 58.7665 208.285C58.3314 208.395 57.9417 208.639 57.6521 208.982C57.3626 209.325 57.1877 209.75 57.152 210.197C57.1164 210.645 57.2218 211.092 57.4534 211.477L26.8825 232.766C26.5334 232.315 26.0711 231.965 25.5425 231.751C24.8818 231.479 24.1497 231.434 23.4605 231.621C22.7712 231.809 22.1633 232.219 21.7313 232.789C21.2994 233.358 21.0676 234.054 21.0721 234.769C21.0767 235.483 21.3172 236.177 21.7564 236.74C22.1955 237.304 22.8086 237.707 23.5002 237.886C24.1918 238.065 24.9231 238.01 25.5804 237.73C26.2377 237.45 26.7841 236.961 27.1345 236.338C27.4849 235.715 27.6198 234.994 27.518 234.286L154.747 209.473C154.91 210.128 155.277 210.714 155.795 211.146C156.312 211.579 156.954 211.835 157.627 211.878C158.301 211.921 158.97 211.749 159.539 211.386C160.107 211.023 160.546 210.489 160.791 209.86C160.945 209.474 161.02 209.06 161.012 208.644L211.282 205.106C211.354 205.507 211.556 205.873 211.857 206.149C212.157 206.424 212.539 206.594 212.945 206.631C213.35 206.669 213.757 206.573 214.103 206.357C214.449 206.141 214.715 205.819 214.86 205.438C214.932 205.248 214.972 205.047 214.977 204.843L236.299 203.344C236.37 203.827 236.577 204.279 236.896 204.648C237.215 205.017 237.632 205.287 238.099 205.428C238.566 205.568 239.063 205.571 239.532 205.439C240.002 205.306 240.423 205.042 240.748 204.678L295.707 247.519L275.608 302.107C274.939 301.888 274.23 301.823 273.533 301.915C272.836 302.008 272.169 302.255 271.581 302.641C270.992 303.026 270.498 303.539 270.135 304.141C269.771 304.743 269.548 305.42 269.481 306.12C269.414 306.82 269.506 307.527 269.748 308.187C269.991 308.847 270.379 309.444 270.884 309.934C271.389 310.424 271.997 310.794 272.664 311.016C273.331 311.239 274.04 311.309 274.737 311.221L278.84 336.159C278.52 336.227 278.224 336.38 277.983 336.601C277.742 336.823 277.565 337.106 277.471 337.42C277.377 337.734 277.369 338.067 277.448 338.385C277.528 338.703 277.691 338.994 277.922 339.227C278.114 339.43 278.35 339.587 278.612 339.684C278.875 339.781 279.156 339.816 279.434 339.786L282.197 356.695C281.832 356.768 281.493 356.937 281.216 357.186C280.8 357.577 280.555 358.118 280.537 358.689C280.519 359.261 280.729 359.816 281.12 360.233C281.343 360.471 281.62 360.652 281.928 360.763C282.235 360.873 282.564 360.91 282.888 360.869L288.932 397.636C288.375 397.752 287.861 398.02 287.447 398.41C287.083 398.751 286.804 399.172 286.633 399.641C286.461 400.109 286.402 400.611 286.46 401.106C286.518 401.602 286.692 402.076 286.967 402.492C287.242 402.908 287.611 403.254 288.044 403.501C288.476 403.748 288.961 403.891 289.459 403.916C289.957 403.942 290.454 403.85 290.91 403.649C291.366 403.447 291.768 403.142 292.084 402.756C292.4 402.371 292.622 401.916 292.73 401.429L375.782 415.291C375.7 415.903 375.74 416.525 375.899 417.122L351.779 424.64C351.67 424.339 351.484 424.073 351.241 423.866C350.854 423.555 350.36 423.409 349.866 423.462C349.373 423.516 348.921 423.762 348.609 424.149C348.435 424.369 348.314 424.626 348.256 424.901C348.197 425.175 348.202 425.459 348.271 425.731L331.942 430.817C331.742 430.314 331.359 429.904 330.87 429.671C330.381 429.438 329.822 429.398 329.305 429.56C328.788 429.722 328.351 430.073 328.082 430.543C327.813 431.013 327.731 431.567 327.853 432.095L292.323 443.151C292.13 442.61 291.794 442.133 291.349 441.769C290.872 441.38 290.292 441.138 289.68 441.072C289.068 441.005 288.449 441.118 287.9 441.396C287.351 441.674 286.894 442.105 286.584 442.638C286.275 443.171 286.126 443.781 286.157 444.397C286.188 445.012 286.396 445.605 286.756 446.104C287.117 446.603 287.615 446.987 288.189 447.209C288.763 447.432 289.39 447.483 289.992 447.356C290.595 447.229 291.148 446.93 291.584 446.496L420.623 562.298C420.405 562.582 420.25 562.909 420.167 563.257C420.084 563.604 420.074 563.966 420.139 564.318C420.205 564.669 420.343 565.003 420.545 565.298C420.747 565.593 421.009 565.842 421.313 566.03L371.727 664.399C370.996 664.066 370.181 663.963 369.39 664.104C368.599 664.245 367.869 664.622 367.298 665.187C366.727 665.752 366.34 666.478 366.19 667.267C366.04 668.057 366.133 668.873 366.457 669.609C366.608 669.937 366.804 670.244 367.037 670.521L351.324 684.583C350.88 684.14 350.316 683.837 349.701 683.714C349.087 683.592 348.45 683.653 347.87 683.892L324.386 635.039C324.482 634.99 324.579 634.963 324.669 634.907C325.356 634.486 325.923 633.896 326.316 633.193C326.709 632.49 326.915 631.697 326.914 630.891C326.914 630.086 326.706 629.294 326.312 628.591C325.917 627.889 325.349 627.3 324.662 626.88C323.975 626.46 323.191 626.224 322.386 626.193C321.581 626.163 320.782 626.34 320.065 626.708C319.349 627.075 318.738 627.621 318.293 628.292C317.847 628.963 317.581 629.737 317.52 630.54L292.275 629.559C292.257 629.095 292.065 628.654 291.737 628.325C291.409 627.996 290.969 627.803 290.505 627.785C290.04 627.767 289.586 627.924 289.233 628.226C288.88 628.528 288.654 628.952 288.6 629.414L271.512 628.723C271.506 628.348 271.402 627.98 271.208 627.659C270.974 627.274 270.625 626.973 270.211 626.798C269.797 626.622 269.338 626.581 268.9 626.681C268.461 626.78 268.064 627.014 267.766 627.351C267.467 627.688 267.282 628.11 267.236 628.557L230.048 627.106C230.04 626.536 229.88 625.978 229.586 625.489C229.187 624.826 228.557 624.333 227.817 624.107L241.894 568.248C242.058 568.283 242.224 568.304 242.391 568.31C242.818 568.338 243.245 568.28 243.648 568.14C244.052 567.999 244.423 567.779 244.739 567.492C245.056 567.205 245.311 566.857 245.491 566.47C245.67 566.082 245.77 565.662 245.784 565.235C245.797 564.808 245.725 564.383 245.571 563.984C245.418 563.585 245.185 563.222 244.888 562.915C244.591 562.608 244.235 562.364 243.842 562.198C243.449 562.031 243.026 561.946 242.599 561.946C242.32 561.938 242.041 561.968 241.77 562.036L222.078 494.858C222.635 494.649 223.102 494.254 223.401 493.74C223.7 493.225 223.812 492.623 223.718 492.036C223.623 491.448 223.329 490.911 222.884 490.516C222.439 490.121 221.871 489.893 221.276 489.869C221.06 489.864 220.844 489.887 220.634 489.938L204.748 435.786C205.67 435.477 206.449 434.841 206.936 433.999C207.424 433.157 207.587 432.165 207.396 431.211C207.204 430.257 206.671 429.405 205.896 428.817C205.121 428.228 204.158 427.943 203.187 428.015C202.217 428.086 201.306 428.51 200.626 429.206C199.946 429.903 199.544 430.823 199.494 431.796C199.445 432.768 199.752 433.724 200.359 434.486C200.965 435.247 201.828 435.761 202.786 435.931L184.365 578.433H184.234C183.579 578.411 182.934 578.592 182.387 578.953C181.841 579.313 181.419 579.834 181.181 580.444L107.219 555.609C107.268 555.427 107.296 555.239 107.302 555.05C107.327 554.453 107.145 553.865 106.788 553.387C106.43 552.908 105.919 552.567 105.339 552.422C104.76 552.276 104.148 552.335 103.607 552.588C103.066 552.842 102.629 553.273 102.369 553.812C102.109 554.349 102.042 554.961 102.18 555.542C102.318 556.123 102.652 556.64 103.126 557.003C103.6 557.367 104.185 557.556 104.782 557.539C105.379 557.521 105.952 557.299 106.404 556.909L173.9 625.496C173.488 625.944 173.213 626.501 173.108 627.101C173.003 627.701 173.074 628.318 173.31 628.88C173.547 629.441 173.94 629.922 174.443 630.265C174.946 630.609 175.537 630.8 176.145 630.817C176.56 630.829 176.972 630.761 177.361 630.616L205.286 694.698C204.881 694.906 204.538 695.219 204.295 695.604C204.052 695.989 203.917 696.433 203.905 696.889C203.893 697.227 203.948 697.564 204.066 697.881C204.185 698.198 204.365 698.489 204.596 698.736C204.827 698.983 205.105 699.182 205.413 699.321C205.721 699.461 206.053 699.538 206.392 699.549C206.721 699.557 207.049 699.503 207.359 699.39L215.903 718.994C215.609 719.141 215.36 719.364 215.182 719.64C215.003 719.915 214.902 720.234 214.887 720.562C214.872 720.868 214.933 721.173 215.065 721.449C215.197 721.725 215.396 721.964 215.643 722.145C215.891 722.325 216.179 722.441 216.482 722.482C216.786 722.523 217.094 722.488 217.381 722.379L227.23 744.982L185 728.557C185.161 728.066 185.2 727.544 185.114 727.034C185.028 726.525 184.82 726.044 184.507 725.633C184.194 725.222 183.786 724.894 183.317 724.676C182.849 724.458 182.335 724.357 181.819 724.383C181.303 724.408 180.802 724.558 180.357 724.82C179.912 725.083 179.538 725.45 179.266 725.889C178.995 726.328 178.834 726.827 178.798 727.342C178.762 727.858 178.852 728.374 179.06 728.847L46.9131 796.647C46.7283 796.346 46.4724 796.096 46.168 795.918C45.8636 795.74 45.5201 795.639 45.1677 795.625C44.8153 795.612 44.465 795.685 44.1476 795.839C43.8302 795.992 43.5554 796.222 43.3477 796.507C43.1399 796.792 43.0056 797.124 42.9564 797.473C42.9072 797.822 42.9448 798.178 43.0657 798.51C43.1867 798.841 43.3873 799.138 43.65 799.373C43.9126 799.609 44.2291 799.776 44.5716 799.86L34.5909 860.052L24.465 863.286C24.465 863.189 24.4166 863.085 24.3752 862.995C24.055 862.256 23.5501 861.611 22.9091 861.122C22.2681 860.634 21.5125 860.318 20.7146 860.206C19.9166 860.093 19.1032 860.188 18.3523 860.48C17.6014 860.773 16.9382 861.253 16.4263 861.876C15.9144 862.498 15.5709 863.242 15.4288 864.036C15.2867 864.829 15.3508 865.646 15.6148 866.407C15.8789 867.169 16.334 867.85 16.9367 868.385C17.5394 868.92 18.2695 869.291 19.0568 869.463L14.5878 894.339C14.2743 894.295 13.955 894.336 13.6623 894.456C13.3043 894.608 13.003 894.868 12.8011 895.2C12.5993 895.532 12.5072 895.92 12.5377 896.308C12.5683 896.695 12.72 897.063 12.9715 897.36C13.2229 897.656 13.5613 897.866 13.9386 897.959L10.9132 914.792C10.5395 914.746 10.1603 914.801 9.81503 914.951C9.29219 915.181 8.88206 915.61 8.67483 916.142C8.4676 916.675 8.48017 917.268 8.70982 917.791C8.84049 918.092 9.03964 918.359 9.29143 918.57C9.54321 918.781 9.84076 918.931 10.1604 919.007L3.57097 955.629C3.00795 955.554 2.43506 955.633 1.91324 955.857C1.13836 956.195 0.529464 956.828 0.220526 957.615C-0.0884112 958.402 -0.0720941 959.28 0.265888 960.055C0.60387 960.83 1.23585 961.439 2.02277 961.748C2.80968 962.057 3.68713 962.041 4.46201 961.703V961.737ZM4.94548 955.892L24.541 919.131C24.7731 919.232 25.0235 919.285 25.2766 919.285C25.5297 919.285 25.7801 919.232 26.0122 919.131C26.4664 918.932 26.8226 918.559 27.0026 918.097C27.1827 917.634 27.1718 917.119 26.9723 916.664C26.8577 916.408 26.6851 916.181 26.4682 916.003C26.2512 915.824 25.9958 915.698 25.7221 915.635L34.8947 860.356L76.1855 847.172C76.1855 847.22 76.1854 847.269 76.2338 847.31C76.4522 847.81 76.7975 848.243 77.2354 848.568L4.94548 955.892ZM82.3052 845.562C82.2723 845.278 82.1979 845.001 82.0842 844.74C81.9212 844.36 81.6867 844.015 81.3935 843.724L114.465 805.637C114.721 805.818 115.019 805.931 115.331 805.965C115.643 805.999 115.958 805.953 116.247 805.83C116.701 805.63 117.057 805.258 117.237 804.796C117.417 804.333 117.406 803.818 117.207 803.363C117.123 803.18 117.005 803.014 116.862 802.873L130.89 786.717C131.408 787.105 132.055 787.283 132.699 787.214C133.343 787.145 133.936 786.834 134.361 786.345C134.785 785.856 135.009 785.224 134.986 784.576C134.964 783.929 134.697 783.313 134.24 782.855L180.062 730.063C180.497 730.404 181.013 730.624 181.559 730.703C182.106 730.782 182.663 730.716 183.177 730.512L228.474 828.729C227.721 829.107 227.084 829.681 226.63 830.389C226.175 831.098 225.92 831.916 225.89 832.758C225.88 832.884 225.88 833.011 225.89 833.138L82.3052 845.562ZM346.682 684.776C346.235 685.285 345.963 685.924 345.904 686.599C345.846 687.273 346.005 687.95 346.357 688.528C346.43 688.64 346.511 688.746 346.599 688.846L324.994 708.194C324.566 707.778 324.008 707.524 323.414 707.475C322.821 707.426 322.229 707.585 321.739 707.925C321.25 708.264 320.893 708.763 320.731 709.337C320.569 709.91 320.61 710.522 320.849 711.068C320.937 711.261 321.048 711.442 321.181 711.607L269.018 758.29C268.774 758.045 268.489 757.844 268.176 757.696L313.3 652.216L346.682 684.776ZM263.852 761.807C264.136 762.442 264.621 762.964 265.233 763.293L251.081 791.568L240.72 774.065C241.284 773.694 241.716 773.151 241.951 772.518C242.186 771.884 242.213 771.192 242.029 770.541C241.844 769.891 241.456 769.317 240.923 768.902C240.39 768.487 239.738 768.252 239.062 768.233C238.648 768.221 238.235 768.289 237.847 768.434L227.88 745.583L263.748 759.534C263.497 760.28 263.534 761.094 263.852 761.814V761.807ZM232.818 828.792L251.074 792.3L266.96 819.249L234.904 831.134C234.494 830.141 233.759 829.317 232.818 828.799V828.792ZM232.514 828.619C232.149 828.463 231.767 828.351 231.375 828.287L238.696 774.584C238.747 774.588 238.798 774.588 238.848 774.584C239.391 774.599 239.929 774.473 240.409 774.217L250.86 791.927L232.514 828.619ZM235.768 771.315C235.743 772.073 235.989 772.815 236.463 773.406C236.937 773.998 237.606 774.401 238.351 774.542L231.022 828.239C230.919 828.239 230.822 828.204 230.718 828.197C230.045 828.179 229.376 828.306 228.757 828.57L183.467 730.381C183.817 730.2 184.129 729.954 184.385 729.656L236.327 769.65C235.986 770.143 235.792 770.723 235.768 771.322V771.315ZM306.317 885.895C306.053 886.089 305.82 886.322 305.626 886.586L275.387 864.875C275.645 864.416 275.724 863.878 275.611 863.363C275.497 862.849 275.198 862.395 274.771 862.087C274.344 861.779 273.818 861.64 273.295 861.695C272.771 861.75 272.287 861.997 271.933 862.387L258.036 852.41C258.19 852.154 258.28 851.864 258.299 851.566C258.313 851.07 258.132 850.588 257.792 850.226C257.453 849.863 256.985 849.65 256.489 849.632C256.217 849.624 255.947 849.678 255.699 849.788C255.45 849.898 255.229 850.061 255.052 850.267L234.517 835.529C234.919 834.941 235.178 834.268 235.273 833.562C235.368 832.856 235.296 832.138 235.063 831.466L267.181 819.56L306.317 885.895ZM396.8 769.159C396.336 768.927 395.813 768.842 395.299 768.913C394.786 768.985 394.306 769.211 393.924 769.562C393.541 769.912 393.274 770.371 393.157 770.876C393.041 771.382 393.08 771.91 393.27 772.393L267.285 819.097L251.246 791.927L265.496 763.452C266.08 763.697 266.725 763.762 267.346 763.638C267.968 763.513 268.538 763.206 268.984 762.755C269.43 762.304 269.73 761.73 269.847 761.107C269.964 760.484 269.892 759.839 269.64 759.258C269.525 759.01 269.379 758.777 269.205 758.567L321.36 711.883C321.788 712.294 322.343 712.544 322.934 712.592C323.524 712.64 324.113 712.482 324.6 712.146C325.088 711.809 325.444 711.314 325.609 710.745C325.774 710.176 325.737 709.568 325.505 709.023C325.413 708.825 325.297 708.639 325.159 708.47L346.765 689.122C347.089 689.451 347.481 689.704 347.914 689.866C348.346 690.027 348.809 690.092 349.269 690.057C349.729 690.021 350.176 689.886 350.578 689.66C350.981 689.434 351.33 689.123 351.6 688.749L393.892 716.23C393.747 716.509 393.675 716.82 393.684 717.134C393.692 717.449 393.781 717.756 393.94 718.026C394.202 718.449 394.62 718.75 395.103 718.864C395.586 718.978 396.095 718.895 396.517 718.634C396.686 718.525 396.836 718.387 396.959 718.227L414.917 729.883C414.592 730.46 414.507 731.142 414.678 731.782C414.85 732.421 415.266 732.968 415.836 733.304L396.8 769.159ZM419.089 732.8C419.132 732.757 419.171 732.71 419.207 732.661L477.814 770.749C477.571 771.164 477.426 771.629 477.39 772.109C477.354 772.588 477.429 773.07 477.607 773.517C477.786 773.963 478.064 774.363 478.42 774.686C478.777 775.008 479.203 775.245 479.665 775.378L476.287 789.689L419.089 732.8ZM476.487 790.38L490.82 804.635C490.661 804.825 490.542 805.046 490.469 805.283C490.397 805.52 490.373 805.77 490.398 806.017C490.398 806.058 490.398 806.093 490.398 806.127L471.549 811.171L476.487 790.38ZM460.601 857.862L469.518 820.051L490.827 806.984C490.937 807.115 491.062 807.234 491.2 807.336L461.161 858.089C460.976 857.994 460.781 857.92 460.58 857.868L460.601 857.862ZM490.64 806.687L469.629 819.581L471.514 811.572L490.537 806.479C490.557 806.553 490.585 806.625 490.619 806.694L490.64 806.687ZM471.141 811.669L469.214 819.83L447.671 833.041C447.295 832.493 446.757 832.077 446.133 831.852C445.508 831.626 444.828 831.603 444.189 831.785C443.551 831.966 442.985 832.344 442.572 832.865C442.16 833.385 441.921 834.022 441.89 834.686L387.717 834.865C387.717 834.762 387.717 834.665 387.717 834.561C387.695 834.379 387.658 834.199 387.607 834.023L471.141 811.669ZM341.481 918.019C341.203 917.531 340.804 917.123 340.321 916.837L357.588 883.87C357.917 884.01 358.276 884.062 358.631 884.022C359.073 883.976 359.489 883.793 359.823 883.501C360.156 883.208 360.391 882.819 360.495 882.387C360.599 881.956 360.566 881.502 360.402 881.09C360.238 880.677 359.95 880.326 359.578 880.083L367.521 864.944C367.797 865.061 368.099 865.106 368.398 865.075C368.643 865.05 368.882 864.975 369.098 864.857C369.315 864.738 369.506 864.578 369.66 864.385C369.814 864.193 369.928 863.971 369.996 863.734C370.064 863.496 370.085 863.248 370.056 863.003C370.028 862.733 369.94 862.472 369.799 862.24C369.658 862.008 369.467 861.811 369.241 861.662L380.983 839.288C381.685 839.631 382.462 839.792 383.242 839.756C384.023 839.72 384.782 839.488 385.45 839.082C386.117 838.677 386.672 838.109 387.064 837.433C387.455 836.756 387.671 835.992 387.69 835.211L441.869 835.031C441.866 835.082 441.866 835.133 441.869 835.183C441.961 836.023 442.382 836.793 443.041 837.322C443.699 837.852 444.541 838.097 445.381 838.006C446.221 837.914 446.99 837.493 447.52 836.834C448.049 836.175 448.294 835.332 448.203 834.492C448.161 834.08 448.037 833.681 447.837 833.318L469.069 820.292L460.228 857.758C459.666 857.655 459.087 857.707 458.551 857.907C458.016 858.108 457.545 858.449 457.187 858.895C456.83 859.341 456.6 859.875 456.521 860.441C456.442 861.008 456.518 861.584 456.74 862.111L341.481 918.019ZM563.621 947.04L563.482 947.109C563.177 947.3 562.901 947.532 562.661 947.8L519.581 911.358C519.975 910.834 520.153 910.18 520.08 909.529C520.007 908.878 519.687 908.28 519.187 907.857C518.687 907.435 518.044 907.22 517.39 907.256C516.736 907.293 516.121 907.579 515.671 908.055L462.231 862.844C462.495 862.499 462.686 862.104 462.791 861.683C462.896 861.262 462.913 860.824 462.841 860.396C462.769 859.968 462.609 859.56 462.373 859.196C462.136 858.832 461.827 858.522 461.464 858.283L491.497 807.53C491.805 807.68 492.15 807.742 492.491 807.71C492.658 807.688 492.82 807.644 492.975 807.578L563.621 947.04ZM493.804 804.745C493.612 804.477 493.352 804.263 493.051 804.128C492.751 803.992 492.419 803.938 492.091 803.971C491.719 804.009 491.367 804.158 491.082 804.4L476.612 789.993L480.065 775.482C480.624 775.58 481.198 775.527 481.729 775.329C482.26 775.13 482.728 774.793 483.085 774.352C483.442 773.911 483.674 773.383 483.758 772.823C483.842 772.262 483.775 771.688 483.563 771.163C483.351 770.637 483.002 770.177 482.552 769.831C482.103 769.486 481.569 769.267 481.007 769.197C480.444 769.127 479.873 769.209 479.353 769.435C478.833 769.66 478.382 770.021 478.048 770.479L419.455 732.399C419.682 732 419.798 731.547 419.792 731.088C419.786 730.629 419.658 730.18 419.421 729.787C419.213 729.458 418.934 729.179 418.606 728.971L430.707 706.169C431.048 706.323 431.428 706.367 431.796 706.297C432.163 706.226 432.5 706.044 432.76 705.775C433.02 705.506 433.19 705.163 433.248 704.793C433.306 704.423 433.249 704.045 433.083 703.709L506.803 661.158C507.156 661.715 507.642 662.176 508.218 662.497C508.794 662.819 509.442 662.991 510.101 662.998C510.761 663.006 511.412 662.849 511.995 662.541C512.578 662.232 513.075 661.783 513.44 661.234L560.443 689.896C560.155 690.425 560.024 691.026 560.065 691.627C560.107 692.228 560.319 692.805 560.676 693.289C561.034 693.774 561.522 694.146 562.084 694.363C562.646 694.58 563.258 694.631 563.849 694.512L577.822 749.791C577.371 749.928 576.957 750.164 576.609 750.481C576.262 750.799 575.989 751.19 575.812 751.627C575.634 752.063 575.557 752.533 575.584 753.004C575.612 753.474 575.744 753.932 575.971 754.345L516.397 790.891C516.074 790.418 515.603 790.068 515.058 789.895C514.513 789.723 513.926 789.738 513.39 789.938C512.855 790.139 512.402 790.513 512.104 791.002C511.807 791.49 511.681 792.064 511.748 792.632C511.783 792.961 511.881 793.281 512.038 793.572L493.804 804.745ZM606.921 532.697C607.132 532.864 607.364 533.001 607.612 533.104L587.851 583.657C587.477 583.534 587.083 583.484 586.69 583.512L579.293 515.899L606.01 528.979C605.736 529.612 605.675 530.317 605.837 530.988C605.999 531.659 606.375 532.258 606.908 532.697H606.921ZM589.329 588.667C589.501 588.456 589.645 588.223 589.757 587.976L655.223 612.713C655.071 613.205 655.07 613.731 655.221 614.224C655.371 614.717 655.665 615.153 656.066 615.477C656.289 615.651 656.538 615.788 656.805 615.884L641.319 669.436C641.049 669.376 640.772 669.357 640.497 669.381C639.82 669.456 639.2 669.796 638.773 670.327C638.345 670.858 638.146 671.536 638.218 672.214C638.285 672.86 638.596 673.456 639.088 673.879L580.529 750.24C579.91 749.805 579.154 749.611 578.402 749.694C578.311 749.707 578.221 749.725 578.133 749.749L564.16 694.47C564.401 694.391 564.633 694.285 564.85 694.153C565.57 693.71 566.085 693 566.281 692.177C566.477 691.355 566.339 690.489 565.897 689.768C565.454 689.048 564.744 688.533 563.922 688.337C563.1 688.141 562.234 688.279 561.514 688.721C561.137 688.957 560.813 689.267 560.561 689.633L513.592 660.978C513.999 660.274 514.173 659.46 514.09 658.651C514.007 657.842 513.671 657.08 513.13 656.473L584.667 589.019C584.725 589.082 584.788 589.142 584.853 589.199C585.514 589.72 586.355 589.958 587.191 589.861C588.027 589.763 588.791 589.339 589.315 588.68L589.329 588.667ZM516.597 791.375C516.576 791.313 516.551 791.253 516.521 791.195L576.102 754.649C576.421 755.124 576.863 755.504 577.382 755.748C577.9 755.991 578.475 756.089 579.044 756.031C579.828 755.95 580.551 755.575 581.068 754.98L593.556 765.013L516.597 791.375ZM594.274 765.117L622.414 755.443C622.67 756.084 623.129 756.624 623.72 756.981C624.311 757.337 625.002 757.491 625.688 757.419C625.953 757.386 626.214 757.319 626.462 757.219L648.219 806.97C647.87 807.141 647.557 807.375 647.294 807.661L594.274 765.117ZM772.057 752.928C772.057 752.997 772.057 753.066 772.057 753.135C772.098 753.497 772.191 753.851 772.333 754.186L720.923 777.417C720.642 776.887 720.184 776.472 719.63 776.243C719.075 776.015 718.458 775.987 717.886 776.164C717.313 776.342 716.82 776.714 716.492 777.216C716.164 777.719 716.021 778.32 716.089 778.916C716.117 779.124 716.168 779.328 716.24 779.524L652.46 808.345C652.166 807.777 651.708 807.311 651.144 807.008C650.581 806.704 649.939 806.578 649.303 806.646C649.038 806.673 648.777 806.738 648.53 806.839L626.773 757.088C627.275 756.835 627.7 756.452 628.005 755.98C628.31 755.507 628.483 754.962 628.506 754.4L772.057 752.928ZM625.764 751.125C625.514 751.093 625.261 751.093 625.011 751.125C624.595 751.169 624.192 751.296 623.825 751.496C623.458 751.697 623.134 751.968 622.872 752.294C622.609 752.62 622.414 752.995 622.296 753.396C622.178 753.798 622.141 754.219 622.186 754.635C622.206 754.813 622.243 754.989 622.297 755.16L593.978 764.875L581.317 754.711C581.786 754.067 581.994 753.27 581.9 752.479C581.805 751.688 581.414 750.962 580.806 750.447L639.35 674.079C639.587 674.238 639.849 674.357 640.124 674.432L625.764 751.125ZM642.997 670.659C642.688 670.124 642.198 669.718 641.616 669.512L657.102 615.961C657.566 616.061 658.05 616.031 658.498 615.874C658.947 615.716 659.343 615.438 659.644 615.069C659.776 614.897 659.887 614.709 659.975 614.509L712.745 634.451C712.458 635.359 712.504 636.339 712.877 637.215L642.997 670.659ZM713.595 633.042C713.547 633.097 713.491 633.131 713.45 633.187C713.224 633.472 713.04 633.789 712.904 634.127L660.134 614.185C660.308 613.612 660.278 612.997 660.047 612.445C659.817 611.892 659.401 611.438 658.871 611.16C658.342 610.881 657.732 610.797 657.147 610.92C656.561 611.043 656.037 611.367 655.665 611.835C655.537 612.002 655.429 612.183 655.34 612.374L589.875 587.637C590.07 587.024 590.076 586.366 589.891 585.749C589.706 585.133 589.339 584.586 588.839 584.182C588.626 584.016 588.394 583.876 588.148 583.767L607.923 533.222C608.46 533.395 609.033 533.422 609.584 533.3C610.135 533.179 610.644 532.913 611.059 532.531L713.595 633.042ZM675.461 483.381C675.514 483.661 675.617 483.93 675.765 484.175L611.404 528.281C611.115 527.893 610.741 527.576 610.311 527.356C609.88 527.136 609.404 527.018 608.921 527.011C608.437 527.005 607.959 527.11 607.522 527.318C607.086 527.526 606.703 527.832 606.403 528.212C606.291 528.355 606.192 528.507 606.106 528.668L579.169 515.484L577.407 499.343C578.193 499.216 578.901 498.798 579.392 498.172C579.882 497.545 580.119 496.757 580.053 495.964L675.461 483.381ZM573.795 495.639C573.703 496.111 573.721 496.598 573.846 497.062C573.972 497.526 574.203 497.955 574.52 498.317C574.838 498.678 575.234 498.961 575.678 499.145C576.122 499.329 576.603 499.408 577.083 499.377L578.83 515.304L505.788 479.553C505.818 479.496 505.841 479.436 505.856 479.373L573.795 495.639ZM500.89 478.171C500.814 478.616 500.858 479.074 501.019 479.497C501.179 479.92 501.45 480.292 501.802 480.575C502.065 480.788 502.367 480.947 502.691 481.043C503.016 481.139 503.356 481.17 503.692 481.134C504.028 481.098 504.354 480.996 504.651 480.833C504.948 480.671 505.21 480.452 505.421 480.188C505.503 480.085 505.575 479.974 505.635 479.857L578.899 515.733L586.318 583.567C585.762 583.654 585.239 583.889 584.804 584.245C584.369 584.602 584.036 585.069 583.841 585.597C583.647 586.125 583.596 586.695 583.695 587.25C583.794 587.804 584.039 588.321 584.404 588.749L512.874 656.204C512.373 655.712 511.75 655.363 511.07 655.191C510.389 655.02 509.675 655.032 509.001 655.226C508.326 655.421 507.716 655.791 507.232 656.299C506.747 656.807 506.406 657.435 506.243 658.118C506.026 659.051 506.151 660.032 506.596 660.882L432.876 703.433C432.601 703.021 432.174 702.736 431.689 702.639C431.204 702.543 430.7 702.643 430.289 702.918C429.878 703.193 429.593 703.62 429.496 704.105C429.4 704.59 429.5 705.094 429.775 705.506C429.924 705.732 430.119 705.925 430.348 706.072L418.267 728.826C417.731 728.572 417.122 728.513 416.546 728.661C415.971 728.808 415.466 729.153 415.118 729.635L397.194 717.943C397.389 717.605 397.471 717.214 397.428 716.826C397.385 716.437 397.219 716.073 396.954 715.786C396.69 715.499 396.34 715.304 395.957 715.23C395.574 715.155 395.177 715.205 394.825 715.373L372.073 671.495C372.92 671.01 373.558 670.229 373.867 669.303C374.175 668.376 374.131 667.368 373.744 666.471C373.652 666.271 373.544 666.08 373.419 665.898L424.815 629.082C425.362 629.793 426.134 630.295 427.005 630.506C428.012 630.813 429.101 630.707 430.03 630.211C430.959 629.716 431.654 628.87 431.961 627.863C432.268 626.855 432.162 625.766 431.666 624.836C431.171 623.907 430.326 623.212 429.319 622.905L477.945 474.308C478.284 474.389 478.639 474.371 478.969 474.259C479.299 474.146 479.59 473.943 479.81 473.672C479.931 473.512 480.025 473.332 480.086 473.14L500.89 478.171ZM425.174 564.544C425.254 564.215 425.267 563.874 425.214 563.54C425.161 563.206 425.042 562.885 424.865 562.597C424.688 562.309 424.456 562.058 424.182 561.86C423.908 561.661 423.597 561.519 423.268 561.441C423.062 561.397 422.851 561.376 422.64 561.379L416.81 491.59C417.444 491.501 418.036 491.223 418.511 490.793C418.985 490.363 419.319 489.801 419.469 489.178C419.573 488.723 419.573 488.251 419.469 487.796L476.605 473.147C476.707 473.47 476.899 473.758 477.157 473.976C477.292 474.075 477.441 474.152 477.6 474.204L428.966 622.808C428.919 622.795 428.873 622.779 428.828 622.76C428.475 622.681 428.112 622.653 427.751 622.677L423.047 566.438C423.555 566.363 424.028 566.138 424.407 565.792C424.786 565.446 425.053 564.995 425.174 564.496V564.544ZM384.091 418.905C384.203 418.76 384.305 418.608 384.395 418.448L434.257 447.277L426.3 457.109C425.712 456.683 424.995 456.471 424.27 456.51C423.544 456.549 422.854 456.836 422.315 457.324L383.877 419.126C383.98 419.001 384.029 418.939 384.091 418.856V418.905ZM459.261 461.746L452.133 466.154L427.557 460.267C427.656 459.736 427.617 459.189 427.444 458.677C427.271 458.166 426.97 457.707 426.57 457.344L434.568 447.47L459.261 461.746ZM434.789 447.194L477.952 393.898L478.111 450.096L459.6 461.539L434.789 447.194ZM419.158 486.953L452.195 466.534L476.529 472.366C476.505 472.534 476.505 472.704 476.529 472.871L419.407 487.513C419.345 487.298 419.262 487.089 419.158 486.891V486.953ZM476.577 472.021L452.61 466.272L459.606 461.946L476.681 471.82C476.653 471.827 476.598 471.89 476.577 471.952V472.021ZM426.922 461.698C427.18 461.374 427.373 461.003 427.488 460.606L451.712 466.417L418.972 486.656C418.586 486.103 418.035 485.686 417.397 485.467L423.752 462.796C424.336 462.921 424.943 462.878 425.504 462.673C426.065 462.468 426.556 462.108 426.922 461.635V461.698ZM478.173 470.722C477.925 470.746 477.684 470.82 477.464 470.938C477.245 471.057 477.051 471.218 476.895 471.413C476.895 471.447 476.895 471.482 476.847 471.516L459.959 461.677L478.131 450.441L478.173 470.722ZM492.926 437.555C492.374 437.702 491.871 437.995 491.472 438.405C491.073 438.815 490.793 439.326 490.661 439.883C490.477 440.646 490.588 441.451 490.972 442.136L478.463 449.84L478.297 393.428L482.441 388.273L492.926 437.555ZM478.228 369.147H478.408L482.379 387.838L478.297 392.882L478.228 369.147ZM505.207 358.499C505.302 358.733 505.446 358.945 505.629 359.12L482.663 387.451L478.753 369.029C479.39 368.864 479.937 368.457 480.277 367.894C480.618 367.331 480.725 366.657 480.577 366.016L505.207 358.499ZM472.143 339.586C471.842 339.685 471.572 339.86 471.358 340.094C471.144 340.327 470.993 340.611 470.92 340.92C470.863 341.159 470.853 341.407 470.891 341.65C470.929 341.893 471.015 342.126 471.143 342.336C471.271 342.546 471.44 342.728 471.639 342.873C471.837 343.017 472.063 343.122 472.302 343.179C472.501 343.225 472.706 343.237 472.91 343.214L477.351 364.13C476.713 364.31 476.17 364.732 475.84 365.307C475.509 365.882 475.417 366.563 475.583 367.205L436.771 379.09C436.601 378.568 436.264 378.116 435.811 377.805L468.682 323.3L472.143 339.586ZM290.603 397.712L322.922 272.132C323.583 272.267 324.27 272.188 324.883 271.906C325.496 271.625 326.004 271.155 326.333 270.565C326.661 269.976 326.794 269.297 326.711 268.627C326.628 267.957 326.333 267.331 325.871 266.839C325.584 266.547 325.244 266.313 324.869 266.148L333.973 242.958L349.479 278.199C348.78 278.545 348.233 279.138 347.946 279.864C347.672 280.573 347.66 281.358 347.913 282.075C348.167 282.793 348.668 283.396 349.327 283.775L290.949 397.857C290.837 397.795 290.722 397.739 290.603 397.691V397.712ZM353.879 282.158C353.977 281.898 354.04 281.626 354.066 281.35L423.945 285.233C423.947 285.832 424.158 286.412 424.542 286.873C424.925 287.333 425.458 287.644 426.047 287.753C426.636 287.862 427.245 287.762 427.768 287.469C428.291 287.177 428.695 286.711 428.911 286.152C428.986 285.947 429.034 285.733 429.056 285.516L458.004 287.126C458.004 287.841 458.245 288.535 458.687 289.097C459.129 289.658 459.748 290.055 460.442 290.222C460.845 290.317 461.263 290.333 461.672 290.27L468.579 322.795L435.521 377.625C435.339 377.526 435.143 377.452 434.941 377.404C434.541 377.309 434.124 377.311 433.725 377.411C433.326 377.511 432.956 377.705 432.648 377.977L353.092 283.312C353.441 282.986 353.71 282.584 353.879 282.137V282.158ZM418.958 160.959L444.231 188.295C443.991 188.56 443.82 188.88 443.734 189.227C443.668 189.502 443.657 189.787 443.702 190.067C443.747 190.346 443.846 190.613 443.994 190.854C444.142 191.095 444.337 191.304 444.566 191.469C444.795 191.635 445.054 191.753 445.329 191.818C445.64 191.893 445.963 191.897 446.275 191.83C446.587 191.763 446.88 191.627 447.132 191.431L458.743 203.98C458.541 204.204 458.399 204.474 458.329 204.768C458.271 205.007 458.261 205.255 458.299 205.498C458.337 205.741 458.423 205.974 458.552 206.184C458.68 206.393 458.848 206.576 459.047 206.721C459.246 206.865 459.471 206.97 459.71 207.027C459.803 207.045 459.898 207.056 459.993 207.062L460.967 283.955C460.747 283.973 460.53 284.012 460.318 284.072L418.129 161.456C418.431 161.329 418.711 161.154 418.958 160.938V160.959ZM487.145 292.005L468.841 322.36L462.01 290.18C462.562 290.036 463.065 289.744 463.465 289.337C463.865 288.929 464.148 288.421 464.283 287.866C464.306 287.738 464.322 287.608 464.331 287.479L485.384 288.647C485.379 289.305 485.537 289.955 485.845 290.537C486.152 291.119 486.599 291.616 487.145 291.984V292.005ZM462.065 284.072L461.92 284.024C461.723 283.976 461.522 283.948 461.319 283.941L460.346 207.055C460.675 207.019 460.989 206.897 461.257 206.702L478.408 225.249C477.785 225.856 477.347 226.627 477.144 227.473C476.881 228.575 477.026 229.735 477.552 230.738C478.077 231.742 478.948 232.521 480.003 232.932L462.065 284.072ZM421.148 98.3555C421.342 98.1711 421.512 97.9621 421.652 97.7336L468.959 124.316C468.784 124.67 468.679 125.055 468.648 125.449L408.169 123.632L406.097 115.444L417.37 98.7492C417.959 99.0978 418.646 99.246 419.327 99.1713C420.009 99.0965 420.647 98.8028 421.148 98.3345V98.3555ZM535.246 6.53C535.284 6.58811 535.325 6.64369 535.371 6.696C535.622 6.96291 535.908 7.19526 536.22 7.38699L509.172 56.91C508.63 56.6617 508.019 56.6092 507.443 56.7619C506.867 56.9146 506.362 57.263 506.015 57.7471C505.667 58.2312 505.498 58.8211 505.538 59.4159C505.577 60.0106 505.821 60.5731 506.229 61.0074C506.374 61.1596 506.537 61.2942 506.713 61.4082L473.158 122.844C472.58 122.569 471.932 122.474 471.299 122.571C470.666 122.668 470.077 122.954 469.608 123.39C469.416 123.574 469.248 123.783 469.111 124.012L421.825 97.4364C422.072 96.93 422.18 96.3671 422.139 95.8051C422.098 95.243 421.908 94.702 421.59 94.2372L535.246 6.53ZM382.454 23.4386L382.634 23.3695L417.383 93.2422C417.165 93.3643 416.961 93.5103 416.775 93.6775C416.159 94.2566 415.797 95.0566 415.768 95.9022C415.74 96.7479 416.047 97.5701 416.623 98.1895C416.752 98.3182 416.89 98.4362 417.038 98.542L405.931 114.974L382.454 23.4386ZM405.786 115.817L407.782 123.604L400.668 123.39L405.786 115.817ZM379.857 125.981C380.4 126.164 380.981 126.196 381.541 126.074C382.1 125.953 382.616 125.682 383.034 125.29C383.611 124.748 383.961 124.007 384.015 123.217L400.026 123.701L354.48 191.134C354.425 191.098 354.367 191.066 354.307 191.038L379.857 125.981ZM343.284 219.14C343.586 219.227 343.905 219.236 344.211 219.164C344.516 219.093 344.799 218.944 345.031 218.732C345.393 218.392 345.605 217.923 345.62 217.426C345.636 216.93 345.454 216.448 345.114 216.086C344.969 215.944 344.804 215.826 344.624 215.734L352.443 195.819C352.984 195.988 353.565 195.972 354.097 195.775C354.628 195.578 355.079 195.21 355.379 194.729C355.679 194.248 355.811 193.681 355.754 193.117C355.698 192.553 355.456 192.023 355.067 191.611C354.978 191.513 354.879 191.425 354.77 191.349L400.44 123.728L407.872 123.956L415.954 155.466C415.291 155.675 414.715 156.095 414.314 156.663C413.913 157.23 413.71 157.913 413.734 158.608C413.758 159.303 414.009 159.97 414.449 160.508C414.888 161.046 415.492 161.425 416.168 161.588C416.698 161.716 417.254 161.702 417.777 161.546L459.959 284.155C459.49 284.345 459.072 284.644 458.742 285.027C458.412 285.41 458.178 285.867 458.059 286.359C458.036 286.492 458.02 286.626 458.011 286.76L429.063 285.15C429.057 284.553 428.842 283.976 428.457 283.519C428.071 283.063 427.539 282.755 426.951 282.648C426.363 282.542 425.757 282.644 425.236 282.937C424.715 283.229 424.312 283.694 424.097 284.252C424.026 284.448 423.977 284.653 423.952 284.86L354.073 280.977C354.077 280.461 353.955 279.953 353.718 279.495C353.48 279.038 353.135 278.646 352.711 278.353C352.287 278.06 351.799 277.875 351.287 277.814C350.775 277.754 350.257 277.819 349.776 278.005L334.139 242.447L343.284 219.14ZM333.759 242.454L324.517 265.982C324.121 265.852 323.703 265.801 323.288 265.83L314.833 200.801C315.014 200.764 315.192 200.714 315.365 200.649L333.759 242.454ZM236.659 201.582C236.565 201.724 236.487 201.874 236.424 202.031C236.306 202.338 236.248 202.663 236.251 202.992L214.949 204.491C214.892 204.083 214.7 203.705 214.405 203.417C214.109 203.129 213.727 202.946 213.317 202.899C212.907 202.852 212.493 202.941 212.14 203.154C211.787 203.368 211.514 203.692 211.365 204.077C211.278 204.296 211.236 204.531 211.24 204.768L160.957 208.312C160.89 207.744 160.671 207.205 160.322 206.752C159.973 206.299 159.507 205.95 158.974 205.742C158.829 205.685 158.679 205.64 158.525 205.61L167.629 152.646C167.966 152.677 168.306 152.628 168.621 152.501C168.936 152.375 169.216 152.176 169.438 151.921L236.659 201.582ZM165.95 151.541C166.185 151.981 166.57 152.322 167.035 152.501C167.118 152.536 167.201 152.549 167.283 152.577L158.18 205.534C157.569 205.464 156.95 205.573 156.4 205.848C155.849 206.123 155.39 206.552 155.079 207.082L106.936 182.207C106.977 182.11 107.033 182.027 107.074 181.93C107.517 180.802 107.503 179.545 107.033 178.427L165.95 151.541ZM98.9513 183.057C99.4684 183.758 100.172 184.299 100.982 184.618C102.036 185.03 103.202 185.047 104.267 184.666C105.332 184.285 106.223 183.532 106.777 182.545L154.92 207.421C154.92 207.469 154.871 207.511 154.851 207.559C154.778 207.749 154.724 207.946 154.692 208.147L78.4441 198.473C78.45 198.141 78.3715 197.812 78.2161 197.519L98.9513 183.057ZM27.4557 233.941C27.3723 233.627 27.2444 233.327 27.0759 233.049L57.633 211.795C57.8599 212.073 58.155 212.287 58.4895 212.417C58.9028 212.579 59.3561 212.609 59.7872 212.503C60.2182 212.396 60.6057 212.159 60.8965 211.824C61.1873 211.488 61.367 211.07 61.4109 210.628C61.4548 210.187 61.3608 209.742 61.1418 209.356L75.1702 199.592C75.378 199.839 75.647 200.028 75.9504 200.139C76.2538 200.251 76.581 200.28 76.8995 200.226C77.218 200.171 77.5166 200.035 77.7658 199.829C78.015 199.623 78.2059 199.356 78.3198 199.053C78.3198 198.963 78.375 198.867 78.4026 198.777L154.657 208.451C154.634 208.68 154.634 208.912 154.657 209.142L27.4557 233.941ZM241.003 204.401C241.104 204.243 241.192 204.077 241.266 203.904C241.377 203.61 241.433 203.299 241.431 202.985L311.145 198.072C311.213 198.62 311.423 199.141 311.754 199.583C312.084 200.025 312.524 200.374 313.031 200.594L295.866 247.18L241.003 204.401ZM296.163 247.401L313.362 200.711C313.74 200.826 314.135 200.871 314.529 200.843L322.991 265.871C322.393 265.977 321.839 266.253 321.395 266.666C321.312 266.742 321.25 266.832 321.181 266.908L296.163 247.401ZM296.032 247.747L320.96 267.177C320.598 267.706 320.404 268.333 320.404 268.974C320.404 269.615 320.598 270.242 320.96 270.771L277.825 303.565C277.769 303.48 277.707 303.399 277.638 303.323C277.18 302.831 276.619 302.447 275.995 302.197L296.032 247.747ZM283.282 360.792C283.629 360.714 283.95 360.548 284.214 360.309C284.631 359.918 284.875 359.377 284.893 358.805C284.911 358.234 284.702 357.679 284.311 357.262C284.092 357.032 283.825 356.854 283.528 356.742C283.232 356.629 282.914 356.585 282.598 356.612L279.835 339.711C280.128 339.64 280.398 339.498 280.622 339.296C280.984 338.956 281.196 338.486 281.212 337.99C281.227 337.494 281.045 337.011 280.705 336.649C280.518 336.453 280.289 336.3 280.036 336.202C279.783 336.104 279.512 336.064 279.241 336.083L275.138 311.138C275.905 310.989 276.623 310.65 277.225 310.151C277.827 309.652 278.294 309.01 278.582 308.283C278.871 307.557 278.973 306.769 278.878 305.993C278.783 305.217 278.495 304.477 278.039 303.841L321.174 271.054C321.174 271.088 321.236 271.137 321.271 271.172C321.648 271.571 322.125 271.865 322.652 272.021L290.334 397.595C290.015 397.532 289.689 397.518 289.367 397.553L283.282 360.792ZM292.82 401.063C292.873 400.608 292.827 400.146 292.685 399.709C292.543 399.273 292.309 398.872 291.998 398.534C291.783 398.313 291.537 398.124 291.266 397.975L349.652 283.879C349.692 283.902 349.734 283.923 349.776 283.941C350.282 284.139 350.83 284.204 351.368 284.13C351.906 284.056 352.416 283.846 352.85 283.519L432.427 378.185C432.157 378.491 431.965 378.859 431.868 379.256C431.708 379.919 431.819 380.619 432.175 381.201C432.531 381.782 433.104 382.199 433.767 382.358C434.43 382.518 435.129 382.407 435.711 382.051C436.293 381.694 436.709 381.121 436.868 380.458C436.947 380.103 436.947 379.735 436.868 379.38L475.693 367.488C475.843 367.873 476.084 368.215 476.396 368.486C476.708 368.757 477.08 368.948 477.482 369.043C477.614 369.071 477.748 369.09 477.883 369.098L477.952 393.283L434.492 446.952L384.595 418.103C384.915 417.508 385.103 416.85 385.146 416.176C385.188 415.501 385.085 414.825 384.843 414.194C384.601 413.563 384.225 412.992 383.742 412.519C383.259 412.046 382.68 411.683 382.044 411.455C381.408 411.227 380.73 411.139 380.057 411.197C379.383 411.255 378.73 411.457 378.143 411.79C377.555 412.124 377.046 412.58 376.65 413.128C376.255 413.676 375.982 414.303 375.851 414.966L292.82 401.063ZM327.991 432.441C328.126 432.772 328.343 433.065 328.62 433.291C328.965 433.571 329.389 433.737 329.833 433.767C330.277 433.796 330.718 433.687 331.097 433.454C331.476 433.221 331.774 432.876 331.949 432.467C332.124 432.058 332.167 431.605 332.074 431.17L348.402 426.077C348.512 426.348 348.691 426.586 348.92 426.768C349.216 427.013 349.581 427.16 349.964 427.188C350.347 427.216 350.729 427.124 351.058 426.926C351.387 426.727 351.645 426.43 351.798 426.078C351.951 425.725 351.99 425.334 351.911 424.958L376.037 417.44C376.323 418.254 376.83 418.972 377.502 419.513C378.383 420.223 379.493 420.591 380.624 420.546C381.756 420.502 382.833 420.049 383.656 419.271L422.094 457.469C422.094 457.51 422.018 457.538 421.99 457.579C421.648 458.004 421.424 458.512 421.341 459.051L292.551 444.423C292.564 444.1 292.531 443.776 292.454 443.462L327.991 432.441ZM291.86 446.261C292.195 445.835 292.416 445.331 292.503 444.796L421.279 459.452C421.248 459.957 421.338 460.462 421.542 460.925C421.747 461.388 422.059 461.795 422.453 462.112C422.743 462.346 423.073 462.526 423.427 462.644L417.072 485.301C416.248 485.112 415.382 485.258 414.665 485.707C413.948 486.156 413.439 486.871 413.249 487.696C413.06 488.521 413.205 489.387 413.654 490.104C414.103 490.821 414.818 491.331 415.643 491.52C415.915 491.577 416.193 491.601 416.472 491.59L422.308 561.379C421.763 561.464 421.26 561.721 420.871 562.112L291.86 446.261ZM421.652 566.209C421.795 566.28 421.946 566.333 422.101 566.368C422.313 566.42 422.532 566.441 422.75 566.43L427.447 622.67C426.78 622.753 426.145 623.005 425.602 623.402C425.059 623.799 424.627 624.328 424.345 624.938C424.063 625.549 423.941 626.221 423.991 626.892C424.04 627.562 424.26 628.209 424.629 628.772L373.247 665.58C372.922 665.17 372.521 664.827 372.066 664.571L421.652 566.209ZM371.72 671.675L371.796 671.627L394.541 715.504C394.384 715.613 394.242 715.743 394.12 715.891L351.849 688.417C352.137 687.924 352.286 687.361 352.28 686.789C352.273 686.217 352.112 685.657 351.814 685.17C351.743 685.063 351.665 684.961 351.579 684.866L367.293 670.797C367.849 671.375 368.567 671.77 369.353 671.932C370.138 672.094 370.954 672.014 371.693 671.703L371.72 671.675ZM347.545 684.057L347.414 684.126C347.239 684.235 347.075 684.36 346.924 684.5L313.452 651.843L320.532 635.26C321.682 635.699 322.96 635.669 324.089 635.177L347.545 684.057ZM317.527 630.907C317.521 631.777 317.761 632.632 318.218 633.373C318.697 634.152 319.393 634.774 320.221 635.163L313.176 651.609L291.881 630.837C292.087 630.58 292.22 630.272 292.268 629.946L317.527 630.907ZM187.349 581.68C187.353 581.413 187.325 581.146 187.266 580.886L239.504 566.216C239.63 566.591 239.827 566.939 240.084 567.239L190.581 613.894L184.931 584.68C185.6 584.512 186.197 584.132 186.632 583.596C187.067 583.06 187.316 582.398 187.342 581.708L187.349 581.68ZM203.152 436.041C203.221 436.045 203.29 436.045 203.359 436.041C203.721 436.05 204.081 436.006 204.43 435.91L220.316 490.07C219.76 490.279 219.294 490.674 218.996 491.188C218.699 491.703 218.588 492.305 218.685 492.891C218.781 493.478 219.077 494.013 219.523 494.405C219.969 494.798 220.538 495.024 221.131 495.044C221.343 495.048 221.553 495.027 221.76 494.982L241.452 562.167C240.849 562.379 240.323 562.767 239.945 563.283C239.567 563.798 239.353 564.416 239.332 565.056C239.327 565.323 239.355 565.59 239.414 565.85L187.176 580.52C186.991 579.991 186.669 579.52 186.243 579.156C185.817 578.792 185.303 578.547 184.752 578.447L203.152 436.041ZM181.098 580.734C180.966 581.198 180.942 581.687 181.028 582.162C181.114 582.637 181.307 583.086 181.593 583.474C181.879 583.863 182.25 584.181 182.678 584.405C183.105 584.628 183.579 584.75 184.061 584.762C184.239 584.766 184.417 584.752 184.593 584.721L190.284 614.15L178.473 625.289C177.901 624.735 177.14 624.419 176.345 624.404C175.549 624.389 174.777 624.675 174.184 625.206L106.687 556.618C106.874 556.414 107.025 556.181 107.136 555.927L181.098 580.734ZM177.706 630.423C178.218 630.168 178.651 629.78 178.961 629.3C179.271 628.819 179.446 628.265 179.468 627.694C179.491 626.907 179.22 626.141 178.708 625.544L190.367 614.558L205.825 694.464L205.639 694.512L177.706 630.423ZM217.692 722.172C217.966 722.019 218.197 721.799 218.363 721.531C218.529 721.264 218.623 720.959 218.638 720.645C218.646 720.399 218.606 720.154 218.519 719.923C218.433 719.693 218.302 719.482 218.134 719.302C217.966 719.123 217.764 718.978 217.54 718.876C217.316 718.775 217.074 718.718 216.828 718.71C216.624 718.713 216.421 718.748 216.227 718.814L207.683 699.197C208.187 698.935 208.59 698.512 208.828 697.995C209.065 697.479 209.125 696.898 208.997 696.345C208.869 695.791 208.56 695.295 208.12 694.936C207.68 694.577 207.132 694.374 206.564 694.36C206.433 694.346 206.301 694.346 206.17 694.36L190.664 614.295L240.319 567.515C240.673 567.838 241.096 568.074 241.556 568.206L227.486 624.066C226.854 623.942 226.2 624.011 225.609 624.267C225.018 624.522 224.519 624.95 224.176 625.495C223.833 626.04 223.664 626.676 223.689 627.319C223.715 627.962 223.935 628.583 224.321 629.098C224.706 629.614 225.238 630.001 225.848 630.208C226.457 630.415 227.115 630.432 227.734 630.257C228.354 630.083 228.906 629.724 229.318 629.23C229.73 628.735 229.982 628.127 230.042 627.486L267.236 628.93C267.248 629.29 267.353 629.639 267.54 629.946C267.772 630.326 268.116 630.625 268.524 630.801C268.933 630.977 269.386 631.022 269.821 630.93C270.256 630.837 270.652 630.612 270.954 630.284C271.255 629.957 271.448 629.545 271.505 629.103L288.593 629.794C288.608 630.093 288.694 630.384 288.842 630.644C289.103 631.066 289.521 631.368 290.004 631.482C290.487 631.596 290.996 631.513 291.418 631.252C291.492 631.195 291.561 631.133 291.625 631.065L313.037 651.94L267.865 757.537C267.114 757.255 266.283 757.271 265.543 757.582C264.804 757.893 264.211 758.475 263.886 759.209L227.693 745.134L217.692 722.172ZM227.431 745.396L237.55 768.593C237.178 768.782 236.847 769.043 236.576 769.36L184.627 729.351C184.73 729.2 184.82 729.041 184.897 728.875L227.431 745.396ZM179.771 729.815L133.943 782.62C133.426 782.204 132.769 782.005 132.108 782.064C131.448 782.123 130.836 782.436 130.401 782.937C129.967 783.438 129.743 784.088 129.778 784.75C129.812 785.413 130.102 786.036 130.586 786.489L116.571 802.638C116.198 802.382 115.744 802.272 115.295 802.328C114.845 802.385 114.432 802.604 114.134 802.944C113.835 803.284 113.672 803.723 113.674 804.175C113.677 804.628 113.845 805.064 114.147 805.401L81.0964 843.475C80.647 843.122 80.1107 842.897 79.5441 842.824C78.9775 842.752 78.4018 842.833 77.8777 843.06C77.7337 843.128 77.5951 843.206 77.4633 843.295L46.4711 799.397C46.8222 799.104 47.0707 798.707 47.1801 798.264C47.2894 797.82 47.2539 797.352 47.0789 796.93L179.24 729.13C179.379 729.392 179.556 729.632 179.765 729.842L179.771 729.815ZM44.9239 799.887C45.2794 799.923 45.6381 799.869 45.9669 799.729C46.0443 799.691 46.1183 799.648 46.1878 799.597L77.187 843.496C76.7065 843.877 76.3466 844.389 76.1505 844.97C75.9544 845.551 75.9305 846.177 76.0819 846.771L34.9707 859.9L44.9239 799.887ZM34.5632 860.418L25.3905 915.566C25.3422 915.566 25.2939 915.566 25.2524 915.566L20.7006 869.553C21.128 869.498 21.5461 869.387 21.9439 869.221C22.9809 868.766 23.8184 867.95 24.302 866.925C24.7856 865.901 24.8828 864.736 24.5755 863.645L34.5632 860.418ZM10.5471 919.048C10.9032 919.082 11.2619 919.024 11.5901 918.882C11.9974 918.705 12.3397 918.405 12.5697 918.025C12.7997 917.644 12.9061 917.202 12.8742 916.759C12.8424 916.315 12.6739 915.893 12.392 915.549C12.11 915.206 11.7285 914.958 11.3 914.84L14.3253 898.001C14.7872 898.047 15.2494 897.917 15.6197 897.637C15.99 897.357 16.2413 896.948 16.3232 896.491C16.4052 896.034 16.3119 895.563 16.0619 895.172C15.8119 894.78 15.4237 894.497 14.9746 894.38L19.4435 869.504C19.7567 869.551 20.074 869.562 20.3898 869.539L24.9485 915.586C24.8143 915.602 24.6823 915.632 24.5548 915.676C24.2434 915.805 23.9735 916.017 23.7748 916.289C23.576 916.56 23.4561 916.882 23.4283 917.218C23.4004 917.553 23.4657 917.89 23.617 918.191C23.7682 918.492 23.9995 918.746 24.2854 918.924L4.56555 955.913C4.37093 955.822 4.16724 955.752 3.95781 955.705L10.5471 919.048Z" fill="url(#paint0_linear_172_471)"/>
<defs>
<linearGradient id="paint0_linear_172_471" x1="367.002" y1="5.9616" x2="389.341" y2="826.376" gradientUnits="userSpaceOnUse">
<stop offset="0.47" stop-color="#84ECEF"/>
<stop offset="0.53" stop-color="#88E6EA"/>
<stop offset="0.61" stop-color="#92D5DD"/>
<stop offset="0.7" stop-color="#A3BAC6"/>
<stop offset="0.8" stop-color="#BB93A7"/>
<stop offset="0.91" stop-color="#D96280"/>
<stop offset="1" stop-color="#F83058"/>
</linearGradient>
</defs>
</svg>
