<svg width="447" height="186" viewBox="0 0 447 186" fill="none" xmlns="http://www.w3.org/2000/svg">
<path d="M125.5 175.5L110 185L42 145.5L60.5 134" stroke="url(#paint0_linear_15_818)"/>
<path d="M267 109L285.5 119.5L222 156.5L200 141" stroke="url(#paint1_linear_15_818)"/>
<path d="M248.5 98.5L222 81.5" stroke="url(#paint2_linear_15_818)"/>
<path d="M209 41L192.5 51L234 74.5L211.5 88L228 98.5L200.5 117" stroke="url(#paint3_linear_15_818)"/>
<path d="M145.5 66L164.5 79.5L135 98L162.5 119.5" stroke="url(#paint4_linear_15_818)"/>
<path d="M64.5 41L89.5 26.5L122.5 50" stroke="url(#paint5_linear_15_818)"/>
<rect width="28.9951" height="28.9951" transform="matrix(0.866041 -0.499972 0.866041 0.499972 107.932 58.4924)" fill="url(#paint6_linear_15_818)"/>
<rect width="28.9951" height="28.9951" transform="matrix(0.866041 -0.499972 0.866041 0.499972 107.999 29.4967)" fill="url(#paint7_linear_15_818)"/>
<rect width="28.9951" height="28.9951" transform="matrix(0.86601 -0.500028 -3.18907e-05 1 133.044 43.9973)" fill="url(#paint8_linear_15_818)"/>
<rect width="28.9951" height="28.9951" transform="matrix(0.86601 0.500028 3.18907e-05 1 107.999 29.4989)" fill="url(#paint9_linear_15_818)"/>
<rect width="42.4992" height="42.4992" transform="matrix(0.866041 -0.499972 0.866041 0.499972 146 128.748)" fill="url(#paint10_linear_15_818)"/>
<rect width="42.4992" height="42.4992" transform="matrix(0.866041 -0.499972 0.866041 0.499972 146.099 86.2484)" fill="url(#paint11_linear_15_818)"/>
<rect width="42.4992" height="42.4992" transform="matrix(0.86601 -0.500028 -3.18907e-05 1 182.807 107.502)" fill="url(#paint12_linear_15_818)"/>
<rect width="42.4992" height="42.4992" transform="matrix(0.86601 0.500028 3.18907e-05 1 146.099 86.2516)" fill="url(#paint13_linear_15_818)"/>
<rect width="23.4999" height="23.4999" transform="matrix(0.866041 -0.499972 0.866041 0.499972 199.476 35.2496)" fill="url(#paint14_linear_15_818)"/>
<rect width="23.4999" height="23.4999" transform="matrix(0.866041 -0.499972 0.866041 0.499972 199.531 11.7493)" fill="url(#paint15_linear_15_818)"/>
<rect width="23.4999" height="23.4999" transform="matrix(0.86601 -0.500028 -3.18907e-05 1 219.829 23.5017)" fill="url(#paint16_linear_15_818)"/>
<rect width="23.4999" height="23.4999" transform="matrix(0.86601 0.500028 3.18907e-05 1 199.531 11.7511)" fill="url(#paint17_linear_15_818)"/>
<rect width="34.4995" height="34.4995" transform="matrix(0.866041 -0.499972 0.866041 0.499972 45.9374 124.749)" fill="url(#paint18_linear_15_818)"/>
<rect width="34.4995" height="34.4995" transform="matrix(0.866041 -0.499972 0.866041 0.499972 46.0175 90.2488)" fill="url(#paint19_linear_15_818)"/>
<rect width="34.4995" height="34.4995" transform="matrix(0.86601 -0.500028 -3.18907e-05 1 75.8164 107.502)" fill="url(#paint20_linear_15_818)"/>
<rect width="34.4995" height="34.4995" transform="matrix(0.86601 0.500028 3.18907e-05 1 46.0175 90.2513)" fill="url(#paint21_linear_15_818)"/>
<rect width="14.5002" height="14.5002" transform="matrix(0.866041 -0.499972 0.866041 0.499972 120.343 171.75)" fill="url(#paint22_linear_15_818)"/>
<rect width="14.5002" height="14.5002" transform="matrix(0.866041 -0.499972 0.866041 0.499972 120.377 157.25)" fill="url(#paint23_linear_15_818)"/>
<rect width="14.5002" height="14.5002" transform="matrix(0.86601 -0.500028 -3.18907e-05 1 132.902 164.501)" fill="url(#paint24_linear_15_818)"/>
<rect width="14.5002" height="14.5002" transform="matrix(0.86601 0.500028 3.18907e-05 1 120.377 157.251)" fill="url(#paint25_linear_15_818)"/>
<rect width="21.2469" height="21.2469" transform="matrix(0.866041 -0.499972 0.866041 0.499972 238.149 104.123)" fill="url(#paint26_linear_15_818)"/>
<rect width="21.2469" height="21.2469" transform="matrix(0.866041 -0.499972 0.866041 0.499972 238.199 82.876)" fill="url(#paint27_linear_15_818)"/>
<rect width="21.2469" height="21.2469" transform="matrix(0.86601 -0.500028 -3.18907e-05 1 256.551 93.5016)" fill="url(#paint28_linear_15_818)"/>
<rect width="21.2469" height="21.2469" transform="matrix(0.86601 0.500028 3.18907e-05 1 238.199 82.8774)" fill="url(#paint29_linear_15_818)"/>
<rect width="14.5002" height="14.5002" transform="matrix(0.866041 -0.499972 0.866041 0.499972 46 45.7502)" fill="url(#paint30_linear_15_818)"/>
<rect width="14.5002" height="14.5002" transform="matrix(0.866041 -0.499972 0.866041 0.499972 46.0337 31.2498)" fill="url(#paint31_linear_15_818)"/>
<rect width="14.5002" height="14.5002" transform="matrix(0.86601 -0.500028 -3.18907e-05 1 58.5583 38.5013)" fill="url(#paint32_linear_15_818)"/>
<rect width="14.5002" height="14.5002" transform="matrix(0.86601 0.500028 3.18907e-05 1 46.0337 31.2507)" fill="url(#paint33_linear_15_818)"/>
<path d="M51.5 49L1 76.5L60 117" stroke="url(#paint34_linear_15_818)"/>
<path d="M121 65.5L99.5 79L123 92.5L89 114" stroke="url(#paint35_linear_15_818)"/>
<path d="M139 167.5L155.5 157.5L145.5 151L164 139" stroke="url(#paint36_linear_15_818)"/>
<path d="M254.5 139L307 169.5L341 146.5L355 154.5L383 136.5" stroke="url(#paint37_linear_15_818)"/>
<path d="M379 135.219L388 71V139L379 135.219Z" fill="url(#paint38_linear_15_818)"/>
<path d="M399 135.219L388 139V71L399 135.219Z" fill="url(#paint39_linear_15_818)"/>
<path d="M387.59 75C389.799 75 391.59 72.9853 391.59 70.5C391.59 68.0147 389.799 66 387.59 66C385.38 66 383.59 68.0147 383.59 70.5C383.59 72.9853 385.38 75 387.59 75Z" fill="white"/>
<path d="M388.466 125.933C419.1 125.933 443.933 101.1 443.933 70.4664C443.933 39.8331 419.1 15 388.466 15C357.833 15 333 39.8331 333 70.4664C333 101.1 357.833 125.933 388.466 125.933Z" stroke="url(#paint40_linear_15_818)" stroke-opacity="0.25" stroke-width="5.02" stroke-miterlimit="10"/>
<path d="M388.466 104.714C407.381 104.714 422.714 89.3807 422.714 70.4663C422.714 51.5519 407.381 36.2188 388.466 36.2188C369.552 36.2188 354.219 51.5519 354.219 70.4663C354.219 89.3807 369.552 104.714 388.466 104.714Z" stroke="url(#paint41_linear_15_818)" stroke-opacity="0.44" stroke-width="3.1" stroke-miterlimit="10"/>
<path d="M388.466 88.4342C398.39 88.4342 406.434 80.3897 406.434 70.4663C406.434 60.5429 398.39 52.4984 388.466 52.4984C378.543 52.4984 370.498 60.5429 370.498 70.4663C370.498 80.3897 378.543 88.4342 388.466 88.4342Z" stroke="url(#paint42_linear_15_818)" stroke-opacity="0.55" stroke-width="1.63" stroke-miterlimit="10"/>
<path d="M388.466 79.0585C393.212 79.0585 397.058 75.2117 397.058 70.4664C397.058 65.7212 393.212 61.8744 388.466 61.8744C383.721 61.8744 379.874 65.7212 379.874 70.4664C379.874 75.2117 383.721 79.0585 388.466 79.0585Z" stroke="url(#paint43_linear_15_818)" stroke-opacity="0.8" stroke-width="0.78" stroke-miterlimit="10"/>
<defs>
<linearGradient id="paint0_linear_15_818" x1="45.5991" y1="170.894" x2="122.865" y2="178.63" gradientUnits="userSpaceOnUse">
<stop stop-color="white" stop-opacity="0"/>
<stop offset="0.482292" stop-color="white"/>
<stop offset="1" stop-color="white" stop-opacity="0"/>
</linearGradient>
<linearGradient id="paint1_linear_15_818" x1="203.685" y1="143.362" x2="282.638" y2="152.053" gradientUnits="userSpaceOnUse">
<stop stop-color="white" stop-opacity="0"/>
<stop offset="0.482292" stop-color="white"/>
<stop offset="1" stop-color="white" stop-opacity="0"/>
</linearGradient>
<linearGradient id="paint2_linear_15_818" x1="223.142" y1="93.7979" x2="247.686" y2="96.1378" gradientUnits="userSpaceOnUse">
<stop stop-color="white" stop-opacity="0"/>
<stop offset="0.482292" stop-color="white"/>
<stop offset="1" stop-color="white" stop-opacity="0"/>
</linearGradient>
<linearGradient id="paint3_linear_15_818" x1="194.289" y1="95.9787" x2="233.032" y2="97.2726" gradientUnits="userSpaceOnUse">
<stop stop-color="white" stop-opacity="0"/>
<stop offset="0.482292" stop-color="white"/>
<stop offset="1" stop-color="white" stop-opacity="0"/>
</linearGradient>
<linearGradient id="paint4_linear_15_818" x1="136.272" y1="104.702" x2="163.811" y2="105.631" gradientUnits="userSpaceOnUse">
<stop stop-color="white" stop-opacity="0"/>
<stop offset="0.482292" stop-color="white"/>
<stop offset="1" stop-color="white" stop-opacity="0"/>
</linearGradient>
<linearGradient id="paint5_linear_15_818" x1="67" y1="43.5" x2="120" y2="51.5" gradientUnits="userSpaceOnUse">
<stop stop-color="white" stop-opacity="0"/>
<stop offset="0.482292" stop-color="white"/>
<stop offset="1" stop-color="white" stop-opacity="0"/>
</linearGradient>
<linearGradient id="paint6_linear_15_818" x1="27.9757" y1="-7.48285e-07" x2="-5.10433" y2="20.9261" gradientUnits="userSpaceOnUse">
<stop stop-color="white"/>
<stop offset="1" stop-color="white" stop-opacity="0"/>
</linearGradient>
<linearGradient id="paint7_linear_15_818" x1="27.9757" y1="-7.48285e-07" x2="-5.10433" y2="20.9261" gradientUnits="userSpaceOnUse">
<stop stop-color="white"/>
<stop offset="1" stop-color="white" stop-opacity="0"/>
</linearGradient>
<linearGradient id="paint8_linear_15_818" x1="27.9757" y1="-7.48285e-07" x2="-5.10433" y2="20.9261" gradientUnits="userSpaceOnUse">
<stop stop-color="white"/>
<stop offset="1" stop-color="white" stop-opacity="0"/>
</linearGradient>
<linearGradient id="paint9_linear_15_818" x1="27.9757" y1="-7.48285e-07" x2="-5.10433" y2="20.9261" gradientUnits="userSpaceOnUse">
<stop stop-color="white"/>
<stop offset="1" stop-color="white" stop-opacity="0"/>
</linearGradient>
<linearGradient id="paint10_linear_15_818" x1="41.0051" y1="-1.09679e-06" x2="-7.48161" y2="30.6722" gradientUnits="userSpaceOnUse">
<stop stop-color="white"/>
<stop offset="1" stop-color="white" stop-opacity="0"/>
</linearGradient>
<linearGradient id="paint11_linear_15_818" x1="41.0051" y1="-1.09679e-06" x2="-7.48161" y2="30.6722" gradientUnits="userSpaceOnUse">
<stop stop-color="white"/>
<stop offset="1" stop-color="white" stop-opacity="0"/>
</linearGradient>
<linearGradient id="paint12_linear_15_818" x1="41.0051" y1="-1.09679e-06" x2="-7.48161" y2="30.6722" gradientUnits="userSpaceOnUse">
<stop stop-color="white"/>
<stop offset="1" stop-color="white" stop-opacity="0"/>
</linearGradient>
<linearGradient id="paint13_linear_15_818" x1="41.0051" y1="-1.09679e-06" x2="-7.48161" y2="30.6722" gradientUnits="userSpaceOnUse">
<stop stop-color="white"/>
<stop offset="1" stop-color="white" stop-opacity="0"/>
</linearGradient>
<linearGradient id="paint14_linear_15_818" x1="22.6737" y1="-6.06469e-07" x2="-4.13695" y2="16.9602" gradientUnits="userSpaceOnUse">
<stop stop-color="white"/>
<stop offset="1" stop-color="white" stop-opacity="0"/>
</linearGradient>
<linearGradient id="paint15_linear_15_818" x1="22.6737" y1="-6.06469e-07" x2="-4.13695" y2="16.9602" gradientUnits="userSpaceOnUse">
<stop stop-color="white"/>
<stop offset="1" stop-color="white" stop-opacity="0"/>
</linearGradient>
<linearGradient id="paint16_linear_15_818" x1="22.6737" y1="-6.06469e-07" x2="-4.13695" y2="16.9602" gradientUnits="userSpaceOnUse">
<stop stop-color="white"/>
<stop offset="1" stop-color="white" stop-opacity="0"/>
</linearGradient>
<linearGradient id="paint17_linear_15_818" x1="22.6737" y1="-6.06469e-07" x2="-4.13695" y2="16.9602" gradientUnits="userSpaceOnUse">
<stop stop-color="white"/>
<stop offset="1" stop-color="white" stop-opacity="0"/>
</linearGradient>
<linearGradient id="paint18_linear_15_818" x1="33.2866" y1="-8.90339e-07" x2="-6.07333" y2="24.8987" gradientUnits="userSpaceOnUse">
<stop stop-color="white"/>
<stop offset="1" stop-color="white" stop-opacity="0"/>
</linearGradient>
<linearGradient id="paint19_linear_15_818" x1="33.2866" y1="-8.90339e-07" x2="-6.07333" y2="24.8987" gradientUnits="userSpaceOnUse">
<stop stop-color="white"/>
<stop offset="1" stop-color="white" stop-opacity="0"/>
</linearGradient>
<linearGradient id="paint20_linear_15_818" x1="33.2866" y1="-8.90339e-07" x2="-6.07333" y2="24.8987" gradientUnits="userSpaceOnUse">
<stop stop-color="white"/>
<stop offset="1" stop-color="white" stop-opacity="0"/>
</linearGradient>
<linearGradient id="paint21_linear_15_818" x1="33.2866" y1="-8.90339e-07" x2="-6.07333" y2="24.8987" gradientUnits="userSpaceOnUse">
<stop stop-color="white"/>
<stop offset="1" stop-color="white" stop-opacity="0"/>
</linearGradient>
<linearGradient id="paint22_linear_15_818" x1="13.9905" y1="-3.74212e-07" x2="-2.55264" y2="10.465" gradientUnits="userSpaceOnUse">
<stop stop-color="white"/>
<stop offset="1" stop-color="white" stop-opacity="0"/>
</linearGradient>
<linearGradient id="paint23_linear_15_818" x1="13.9905" y1="-3.74212e-07" x2="-2.55264" y2="10.465" gradientUnits="userSpaceOnUse">
<stop stop-color="white"/>
<stop offset="1" stop-color="white" stop-opacity="0"/>
</linearGradient>
<linearGradient id="paint24_linear_15_818" x1="13.9905" y1="-3.74212e-07" x2="-2.55264" y2="10.465" gradientUnits="userSpaceOnUse">
<stop stop-color="white"/>
<stop offset="1" stop-color="white" stop-opacity="0"/>
</linearGradient>
<linearGradient id="paint25_linear_15_818" x1="13.9905" y1="-3.74212e-07" x2="-2.55264" y2="10.465" gradientUnits="userSpaceOnUse">
<stop stop-color="white"/>
<stop offset="1" stop-color="white" stop-opacity="0"/>
</linearGradient>
<linearGradient id="paint26_linear_15_818" x1="20.4999" y1="-5.48326e-07" x2="-3.74033" y2="15.3342" gradientUnits="userSpaceOnUse">
<stop stop-color="white"/>
<stop offset="1" stop-color="white" stop-opacity="0"/>
</linearGradient>
<linearGradient id="paint27_linear_15_818" x1="20.4999" y1="-5.48326e-07" x2="-3.74033" y2="15.3342" gradientUnits="userSpaceOnUse">
<stop stop-color="white"/>
<stop offset="1" stop-color="white" stop-opacity="0"/>
</linearGradient>
<linearGradient id="paint28_linear_15_818" x1="20.4999" y1="-5.48326e-07" x2="-3.74033" y2="15.3342" gradientUnits="userSpaceOnUse">
<stop stop-color="white"/>
<stop offset="1" stop-color="white" stop-opacity="0"/>
</linearGradient>
<linearGradient id="paint29_linear_15_818" x1="20.4999" y1="-5.48326e-07" x2="-3.74033" y2="15.3342" gradientUnits="userSpaceOnUse">
<stop stop-color="white"/>
<stop offset="1" stop-color="white" stop-opacity="0"/>
</linearGradient>
<linearGradient id="paint30_linear_15_818" x1="13.9905" y1="-3.74212e-07" x2="-2.55264" y2="10.465" gradientUnits="userSpaceOnUse">
<stop stop-color="white"/>
<stop offset="1" stop-color="white" stop-opacity="0"/>
</linearGradient>
<linearGradient id="paint31_linear_15_818" x1="13.9905" y1="-3.74212e-07" x2="-2.55264" y2="10.465" gradientUnits="userSpaceOnUse">
<stop stop-color="white"/>
<stop offset="1" stop-color="white" stop-opacity="0"/>
</linearGradient>
<linearGradient id="paint32_linear_15_818" x1="13.9905" y1="-3.74212e-07" x2="-2.55264" y2="10.465" gradientUnits="userSpaceOnUse">
<stop stop-color="white"/>
<stop offset="1" stop-color="white" stop-opacity="0"/>
</linearGradient>
<linearGradient id="paint33_linear_15_818" x1="13.9905" y1="-3.74212e-07" x2="-2.55264" y2="10.465" gradientUnits="userSpaceOnUse">
<stop stop-color="white"/>
<stop offset="1" stop-color="white" stop-opacity="0"/>
</linearGradient>
<linearGradient id="paint34_linear_15_818" x1="32.25" y1="49" x2="32.25" y2="117" gradientUnits="userSpaceOnUse">
<stop stop-color="white" stop-opacity="0"/>
<stop offset="0.378125" stop-color="white"/>
<stop offset="1" stop-color="white" stop-opacity="0"/>
</linearGradient>
<linearGradient id="paint35_linear_15_818" x1="90.4655" y1="100.585" x2="122.184" y2="101.945" gradientUnits="userSpaceOnUse">
<stop stop-color="white" stop-opacity="0"/>
<stop offset="0.482292" stop-color="white"/>
<stop offset="1" stop-color="white" stop-opacity="0"/>
</linearGradient>
<linearGradient id="paint36_linear_15_818" x1="140.078" y1="159.617" x2="163.376" y2="160.867" gradientUnits="userSpaceOnUse">
<stop stop-color="white" stop-opacity="0"/>
<stop offset="0.482292" stop-color="white"/>
<stop offset="1" stop-color="white" stop-opacity="0"/>
</linearGradient>
<linearGradient id="paint37_linear_15_818" x1="261.741" y1="159.681" x2="406.62" y2="201.612" gradientUnits="userSpaceOnUse">
<stop stop-color="white" stop-opacity="0"/>
<stop offset="0.482292" stop-color="white"/>
<stop offset="1" stop-color="white" stop-opacity="0"/>
</linearGradient>
<linearGradient id="paint38_linear_15_818" x1="383.5" y1="71" x2="383.5" y2="139" gradientUnits="userSpaceOnUse">
<stop stop-color="white" stop-opacity="0"/>
<stop offset="1" stop-color="white"/>
</linearGradient>
<linearGradient id="paint39_linear_15_818" x1="391.345" y1="81.5702" x2="395.46" y2="140.469" gradientUnits="userSpaceOnUse">
<stop stop-color="white"/>
<stop offset="1" stop-color="white" stop-opacity="0"/>
</linearGradient>
<linearGradient id="paint40_linear_15_818" x1="428.988" y1="26.9665" x2="429.206" y2="112.037" gradientUnits="userSpaceOnUse">
<stop stop-color="white"/>
<stop offset="1" stop-color="white" stop-opacity="0.5"/>
</linearGradient>
<linearGradient id="paint41_linear_15_818" x1="418.763" y1="28.0543" x2="416.497" y2="91.8291" gradientUnits="userSpaceOnUse">
<stop stop-color="white"/>
<stop offset="1" stop-color="white" stop-opacity="0"/>
</linearGradient>
<linearGradient id="paint42_linear_15_818" x1="373.549" y1="59.9535" x2="403.109" y2="81.8904" gradientUnits="userSpaceOnUse">
<stop stop-color="white"/>
<stop offset="1" stop-color="white" stop-opacity="0"/>
</linearGradient>
<linearGradient id="paint43_linear_15_818" x1="381.262" y1="65.6736" x2="395.393" y2="76.1664" gradientUnits="userSpaceOnUse">
<stop stop-color="white"/>
<stop offset="1" stop-color="white" stop-opacity="0"/>
</linearGradient>
</defs>
</svg>
