<svg width="1196" height="261" viewBox="0 0 1196 261" fill="none" xmlns="http://www.w3.org/2000/svg">
<mask id="mask0_49_3" style="mask-type:alpha" maskUnits="userSpaceOnUse" x="0" y="0" width="1196" height="261">
<rect width="1196" height="261" rx="20" fill="url(#paint0_linear_49_3)"/>
</mask>
<g mask="url(#mask0_49_3)">
<path d="M82.1658 126.202C72.658 126.166 63.3537 123.45 55.3247 118.366C47.2956 113.282 40.8683 106.037 36.7833 97.4663C35.9895 95.7996 34.8746 94.3054 33.5024 93.0688C32.1302 91.8323 30.5274 90.8777 28.7856 90.2595C27.0438 89.6413 25.1971 89.3717 23.3509 89.466C21.5048 89.5604 19.6953 90.0168 18.0258 90.8092C16.3564 91.6017 14.8596 92.7147 13.6209 94.0846C12.3823 95.4546 11.4261 97.0546 10.8069 98.7935C10.1877 100.532 9.91759 102.376 10.0121 104.219C10.1066 106.062 10.5638 107.869 11.3576 109.535C17.7537 122.962 27.8471 134.293 40.4573 142.202C53.0674 150.112 67.6729 154.273 82.5652 154.199C97.4575 154.125 112.021 149.82 124.552 141.786C137.083 133.752 147.063 122.322 153.326 108.833C154.103 107.156 154.541 105.342 154.616 103.496C154.691 101.65 154.401 99.8065 153.763 98.0721C153.124 96.3376 152.15 94.7457 150.895 93.3873C149.64 92.0288 148.13 90.9304 146.45 90.1547C144.77 89.379 142.953 88.9412 141.104 88.8664C139.254 88.7916 137.408 89.0812 135.671 89.7186C133.934 90.356 132.339 91.3289 130.978 92.5815C129.617 93.8342 128.517 95.3422 127.74 97.0194C123.684 105.693 117.238 113.034 109.156 118.185C101.074 123.336 91.6902 126.084 82.1018 126.106M276.777 61.1636C276.751 55.5942 274.515 50.2621 270.558 46.336C266.602 42.4098 261.247 40.2099 255.668 40.2184V40.2184C254.395 40.2184 253.07 39.8455 252.18 38.935L139.89 -75.9337C138.888 -76.9583 138.479 -78.4019 138.55 -79.833V-79.833C138.562 -83.9988 137.34 -88.0752 135.035 -91.5484C132.731 -95.0217 129.449 -97.7365 125.602 -99.3509C121.756 -100.965 117.516 -101.407 113.418 -100.62C109.321 -99.8337 105.548 -97.854 102.575 -94.9305C99.6019 -92.007 97.5623 -88.2706 96.7127 -84.192C95.8631 -80.1133 96.2417 -75.8749 97.8007 -72.0106C99.3596 -68.1464 102.029 -64.8292 105.473 -62.4769V-62.4769C120.887 -51.9492 128.594 -46.6853 128.988 -46.3861C131.068 -44.8095 128.575 -46.8993 130.49 -45.1267C130.854 -44.7903 122.504 -53.3238 125.844 -49.9104L154.3 -20.8272C182.663 8.16128 196.845 22.6555 191.694 34.9013C186.543 47.147 166.265 47.147 125.709 47.147H110.377C106.987 47.147 115.462 47.147 114.958 47.1216C111.766 46.9607 115.443 47.3941 112.3 46.8083C111.805 46.7159 103.509 44.7326 86.9173 40.7659V40.7659C82.7671 39.7737 78.413 40.0607 74.4295 41.589C70.4459 43.1173 67.0199 45.8152 64.6034 49.3269C62.1869 52.8385 60.8933 56.9989 60.8933 61.2593C60.8933 65.5198 62.1869 69.6802 64.6034 73.1918C67.0199 76.7034 70.4459 79.4013 74.4295 80.9297C78.413 82.458 82.7671 82.745 86.9173 81.7527V81.7527C103.509 77.7861 111.805 75.8028 112.3 75.7105C115.442 75.1247 111.766 75.5581 114.958 75.3972C115.461 75.3718 106.988 75.3718 110.377 75.3718H187.836C188.206 75.3718 188.506 75.672 188.506 76.0423V76.0423C188.612 104.164 177.524 131.177 157.68 151.137C137.836 171.097 110.863 182.37 82.6935 182.476C54.5242 182.582 27.4666 171.512 7.47293 151.701C-9.49161 134.892 -20.1913 112.959 -23.1088 89.5195C-23.3349 87.7029 -22.7696 92.2445 -22.8063 91.4977C-22.9698 88.1724 -23.1056 90.5403 -22.5629 87.2555C-22.441 86.5179 -20.7867 79.7133 -17.4781 66.104V66.104C-16.4698 61.9566 -16.7467 57.6013 -18.2721 53.6144C-19.7975 49.6276 -22.4995 46.1971 -26.0206 43.7769C-29.5416 41.3567 -33.7158 40.0609 -37.9908 40.0609C-42.2657 40.0609 -46.4398 41.3567 -49.9609 43.7769C-53.482 46.1971 -56.184 49.6276 -57.7094 53.6144C-59.2348 57.6013 -59.5116 61.9566 -58.5034 66.104V66.104C-53.3407 87.3396 -50.7594 97.9574 -50.6974 98.2502C-50.0276 101.415 -50.8375 96.64 -50.4263 99.8486C-50.3882 100.146 -52.1192 82.4571 -51.4268 89.5325C-48.403 120.432 -34.7054 149.48 -12.4713 171.561C12.7854 196.643 46.9884 210.682 82.6135 210.589C118.239 210.496 152.368 196.278 177.492 171.064C202.617 145.849 216.68 111.704 216.586 76.1381V76.1381C216.586 75.6972 216.944 75.3398 217.385 75.3398H232.901C237.52 75.3398 241.77 77.6097 245.841 79.7921C247.428 80.6425 249.126 81.2909 250.897 81.7142C255.04 82.7045 259.388 82.4158 263.363 80.8863C267.339 79.3568 270.756 76.6584 273.163 73.1482C275.569 69.6379 276.852 65.481 276.84 61.2274" fill="url(#paint1_linear_49_3)"/>
</g>
<defs>
<linearGradient id="paint0_linear_49_3" x1="-21.5108" y1="16.4265" x2="1033.96" y2="582.962" gradientUnits="userSpaceOnUse">
<stop stop-color="#EC1651"/>
<stop offset="1" stop-color="#B6145A"/>
</linearGradient>
<linearGradient id="paint1_linear_49_3" x1="108.871" y1="-101" x2="108.871" y2="210.59" gradientUnits="userSpaceOnUse">
<stop stop-color="white" stop-opacity="0.5"/>
<stop offset="1" stop-color="white" stop-opacity="0"/>
</linearGradient>
</defs>
</svg>
